<?xml version="1.0" standalone="no"?>
<!DOCTYPE svg PUBLIC "-//W3C//DTD SVG 20010904//EN"
 "http://www.w3.org/TR/2001/REC-SVG-20010904/DTD/svg10.dtd">
<svg version="1.0" xmlns="http://www.w3.org/2000/svg"
 width="1980.000000pt" height="1980.000000pt" viewBox="0 0 1980.000000 1980.000000"
 preserveAspectRatio="xMidYMid meet">
<metadata>
Created by potrace 1.11, written by Peter Selinger 2001-2013
</metadata>
<g transform="translate(0.000000,1980.000000) scale(0.100000,-0.100000)"
fill="#000000" stroke="none">
<path d="M4697 13958 c-9 -18 -30 -55 -47 -83 -31 -54 -46 -81 -76 -135 -10
-19 -21 -37 -24 -40 -3 -3 -11 -16 -18 -29 -8 -13 -22 -39 -33 -57 -10 -19
-28 -51 -40 -71 -12 -21 -25 -42 -29 -48 -4 -5 -18 -30 -32 -55 -14 -25 -76
-133 -138 -240 -62 -107 -122 -211 -133 -230 -78 -140 -112 -197 -125 -212 -8
-10 -11 -18 -7 -18 4 0 1 -8 -7 -17 -8 -10 -57 -92 -109 -183 -51 -91 -96
-167 -100 -170 -3 -3 -9 -15 -13 -27 -4 -13 -12 -23 -17 -23 -6 0 -8 -4 -5 -9
3 -5 -2 -19 -12 -32 -22 -31 -40 -60 -49 -78 -3 -8 -35 -64 -71 -125 -99 -170
-104 -179 -120 -211 -9 -16 -18 -32 -22 -35 -3 -3 -29 -45 -56 -95 -28 -49
-60 -107 -72 -127 -12 -21 -30 -53 -41 -71 -10 -18 -51 -89 -91 -157 -40 -69
-82 -141 -92 -160 -10 -19 -23 -42 -28 -50 -31 -47 -200 -345 -205 -361 -4
-10 -10 -19 -15 -19 -5 0 -12 -9 -15 -20 -4 -11 -24 -49 -46 -85 -21 -36 -39
-68 -39 -72 0 -3 -6 -14 -14 -22 -7 -9 -30 -47 -51 -86 -21 -38 -48 -86 -60
-105 -20 -32 -38 -63 -99 -172 -12 -20 -44 -77 -72 -125 -28 -48 -60 -104 -70
-123 -11 -19 -25 -40 -32 -48 -7 -8 -10 -17 -7 -21 4 -3 535 -6 1181 -7 l1174
0 15 30 c9 17 25 47 37 66 11 19 34 60 51 90 17 30 33 57 37 60 4 3 10 15 14
28 4 12 12 22 17 22 6 0 8 4 4 9 -3 5 2 16 10 24 8 9 15 20 15 25 0 6 3 12 8
14 4 2 16 21 28 43 11 22 46 84 77 139 32 54 57 102 57 106 0 5 4 10 8 12 10
4 102 164 102 178 0 5 5 10 10 10 6 0 10 5 10 10 0 6 18 40 40 76 22 36 40 70
40 75 0 5 5 9 10 9 6 0 10 9 10 20 0 11 3 20 8 20 4 0 21 26 37 58 17 31 33
59 36 62 3 3 9 12 12 20 4 8 16 29 27 45 11 17 24 39 29 50 5 11 36 66 70 123
34 57 61 108 61 113 0 5 5 9 11 9 5 0 8 4 5 9 -3 5 1 14 9 21 8 7 15 19 15 26
0 8 5 14 10 14 6 0 10 6 10 14 0 8 6 21 13 28 7 7 13 15 13 18 0 4 21 41 77
135 10 16 23 42 30 58 6 15 15 27 19 27 4 0 8 4 8 9 0 4 30 60 66 122 37 63
76 130 87 149 82 145 112 195 119 198 4 2 8 10 8 19 0 8 6 20 13 28 11 11 13
-193 13 -1197 -1 -665 1 -1213 4 -1217 5 -8 100 -9 1273 -12 436 0 753 3 758
8 5 5 10 514 11 1220 l3 1211 78 -134 c42 -74 77 -139 77 -144 0 -6 5 -10 10
-10 6 0 10 -5 10 -10 0 -6 18 -40 40 -76 22 -36 40 -70 40 -74 0 -5 3 -10 8
-12 4 -1 22 -32 41 -68 19 -36 37 -67 40 -70 4 -3 12 -16 19 -30 7 -14 20 -38
30 -55 22 -35 61 -105 88 -155 11 -19 22 -37 25 -40 3 -3 23 -36 44 -75 20
-38 41 -74 45 -80 7 -10 44 -74 83 -147 12 -21 24 -38 29 -38 4 0 8 -9 8 -20
0 -11 5 -20 10 -20 6 0 10 -4 10 -9 0 -7 67 -128 100 -181 10 -15 167 -287
200 -345 18 -32 80 -141 119 -208 13 -23 49 -85 80 -137 30 -52 56 -97 56
-100 0 -3 8 -16 17 -30 23 -36 81 -138 179 -310 29 -52 56 -97 59 -100 3 -3
16 -25 29 -50 14 -25 41 -73 61 -106 21 -34 43 -75 51 -93 8 -17 17 -31 21
-31 5 0 8 -4 8 -9 0 -5 26 -54 58 -108 31 -54 66 -115 77 -135 11 -21 22 -39
25 -39 15 -4 1577 -5 1588 -1 6 2 12 10 12 17 0 7 3 15 8 17 4 2 15 19 26 38
10 19 70 125 134 235 63 110 121 211 129 225 8 14 22 39 32 55 10 17 28 48 41
70 12 21 52 91 88 154 37 64 72 124 77 133 6 10 57 100 115 200 58 100 107
186 109 192 2 6 9 18 16 26 7 8 25 38 40 65 14 28 34 64 44 80 10 17 28 47 40
68 49 87 60 104 88 153 17 27 43 72 58 100 16 27 39 67 51 89 13 22 35 63 50
90 15 28 30 52 35 55 4 3 12 17 18 30 6 14 22 43 35 65 14 22 31 51 39 65 59
108 111 196 118 198 5 2 9 12 9 22 0 9 7 23 15 30 8 7 15 18 15 25 0 8 3 15 8
17 7 3 27 38 60 103 9 17 18 32 21 35 6 5 24 36 58 100 10 19 20 37 23 40 3 3
11 16 19 30 8 14 30 52 49 85 19 33 46 80 60 104 14 25 38 67 53 93 16 27 29
53 29 58 0 6 5 10 10 10 6 0 10 6 10 13 0 6 9 23 20 37 21 26 23 22 21 -35 -3
-94 -2 -176 4 -185 3 -5 1 -10 -5 -10 -8 0 -8 -6 0 -21 8 -15 8 -24 0 -34 -7
-9 -8 -15 -1 -19 7 -4 7 -15 1 -31 -6 -15 -6 -27 0 -30 6 -3 6 -15 0 -30 -6
-16 -5 -25 3 -29 9 -3 9 -5 0 -5 -9 -1 -10 -8 -5 -23 4 -13 7 -39 5 -58 -7
-86 -7 -130 -1 -130 4 0 3 -11 -2 -25 -5 -13 -6 -26 -2 -29 4 -2 6 -24 5 -48
-8 -97 -8 -138 -1 -138 4 0 3 -11 -2 -25 -5 -13 -6 -26 -1 -29 4 -3 5 -28 1
-56 -4 -27 -3 -50 2 -50 4 0 4 -11 -1 -23 -5 -13 -6 -29 -2 -36 4 -6 5 -32 1
-57 -4 -24 -3 -47 1 -50 5 -2 4 -16 -1 -29 -5 -13 -6 -27 -1 -29 4 -3 5 -26 1
-51 -4 -25 -3 -48 1 -51 5 -2 4 -16 -1 -29 -5 -13 -5 -27 -1 -29 5 -3 5 -23 1
-45 -4 -22 -4 -45 1 -52 4 -7 3 -21 -2 -30 -6 -12 -5 -20 1 -24 6 -4 8 -10 5
-15 -8 -14 -9 -165 -1 -179 4 -6 3 -11 -1 -11 -5 0 -9 -9 -9 -20 0 -11 3 -20
6 -20 3 0 5 -18 5 -40 0 -22 -2 -40 -5 -40 -3 0 -4 -26 -2 -57 2 -32 2 -67 2
-78 -1 -19 -1 -27 1 -57 0 -7 -1 -30 -3 -50 -3 -21 -1 -38 4 -38 4 0 4 -11 -1
-23 -5 -13 -5 -30 -1 -37 5 -8 5 -19 -1 -26 -7 -8 -7 -14 0 -18 6 -4 7 -14 4
-23 -8 -21 -8 -161 0 -169 3 -4 2 -15 -4 -25 -7 -13 -6 -19 1 -19 6 0 8 -5 5
-11 -11 -17 -11 -129 0 -129 7 0 7 -3 0 -8 -12 -8 -12 -52 -1 -70 4 -6 4 -12
-1 -12 -4 0 -8 -11 -8 -25 0 -14 4 -25 8 -25 4 0 4 -8 0 -17 -10 -22 -10 -54
0 -70 4 -6 4 -14 -1 -17 -9 -5 -9 -47 1 -63 4 -7 4 -14 -1 -17 -5 -3 -7 -20
-5 -38 4 -33 4 -50 0 -98 -2 -14 1 -33 6 -42 4 -10 4 -18 0 -18 -9 0 -10 -187
0 -196 3 -3 2 -16 -2 -28 -7 -21 -6 -96 2 -148 2 -16 1 -28 -2 -28 -3 0 -6
-59 -6 -130 0 -72 3 -130 7 -130 4 0 3 -14 -2 -30 -5 -19 -5 -28 1 -25 5 4 6
-3 1 -17 -10 -29 -8 -141 3 -158 5 -7 4 -11 -1 -8 -10 7 -11 -242 -1 -259 4
-5 4 -13 0 -16 -3 -4 -7 -488 -7 -1077 l-1 -1070 1021 0 1022 0 1 188 c1 103
2 193 1 200 0 6 -1 27 -1 45 -1 17 -1 55 0 82 1 48 2 487 1 513 -2 64 -2 83
-1 127 1 48 2 487 1 513 -2 64 -2 83 -1 127 1 48 2 487 1 513 -2 64 -2 83 -1
127 1 43 2 473 2 515 -2 119 -1 294 2 297 5 5 47 -64 47 -78 0 -5 5 -9 12 -9
6 0 9 -3 6 -6 -4 -3 5 -22 18 -41 13 -20 24 -42 24 -49 0 -7 4 -14 8 -16 4 -1
63 -100 131 -218 122 -211 150 -260 179 -310 7 -14 25 -43 38 -65 13 -22 31
-53 39 -70 9 -16 24 -43 35 -60 10 -16 25 -41 33 -55 29 -53 61 -108 115 -200
31 -52 57 -97 57 -100 0 -3 8 -16 17 -30 39 -61 198 -343 198 -351 0 -5 4 -9
9 -9 5 0 11 -8 14 -17 3 -10 20 -40 36 -68 17 -27 35 -59 41 -70 6 -11 21 -38
33 -60 13 -22 32 -56 42 -75 11 -19 23 -37 26 -40 3 -3 25 -41 50 -85 24 -44
49 -89 56 -100 7 -11 15 -27 19 -35 4 -8 10 -17 13 -20 8 -7 48 -78 63 -112 7
-16 16 -28 20 -28 4 0 8 -6 8 -14 0 -7 7 -19 15 -26 8 -6 13 -15 12 -18 -1 -4
25 -52 57 -107 32 -55 66 -113 75 -130 9 -16 18 -32 21 -35 3 -3 10 -14 16
-25 43 -80 69 -124 85 -147 11 -14 19 -29 19 -33 0 -7 70 -125 80 -135 3 -3 6
-11 8 -18 1 -7 13 -30 26 -50 13 -20 35 -58 50 -84 l27 -48 1180 0 1180 0 -26
43 c-15 23 -33 56 -41 72 -8 17 -33 59 -55 95 -21 36 -47 81 -57 100 -9 19
-20 37 -24 38 -5 2 -8 10 -8 18 0 8 -4 14 -10 14 -5 0 -10 4 -10 10 0 5 -23
47 -50 94 -28 47 -50 89 -50 95 0 6 -4 11 -10 11 -5 0 -10 6 -10 14 0 7 -7 19
-15 26 -9 7 -13 15 -11 18 3 3 -3 17 -13 31 -18 25 -34 53 -89 151 -14 25 -33
56 -42 70 -10 14 -21 35 -24 48 -4 12 -12 22 -17 22 -5 0 -9 5 -9 11 0 6 -20
45 -45 86 -25 40 -45 76 -45 79 0 3 -8 18 -19 32 -10 15 -29 47 -43 72 -36 64
-61 108 -92 160 -15 25 -29 53 -33 63 -3 9 -9 17 -14 17 -5 0 -9 4 -9 9 0 8
-51 100 -135 241 -18 30 -45 78 -60 105 -15 28 -59 103 -97 169 -96 161 -138
238 -145 259 -3 9 -9 17 -14 17 -5 0 -9 5 -9 11 0 6 -14 31 -30 56 -17 24 -30
50 -30 58 0 7 -4 15 -8 17 -5 2 -42 62 -83 133 -41 72 -78 138 -84 147 -5 9
-17 29 -26 45 -9 15 -26 46 -39 68 -12 22 -34 60 -48 85 -14 25 -39 68 -57 95
-17 28 -37 65 -44 83 -7 17 -17 32 -22 32 -5 0 -9 4 -9 10 0 5 -22 47 -50 94
-27 47 -50 89 -50 95 0 6 -4 11 -10 11 -5 0 -10 5 -10 11 0 6 -9 23 -19 38
-11 14 -30 47 -43 71 -13 25 -69 122 -123 215 -54 94 -108 188 -119 210 -12
22 -24 42 -28 43 -5 2 -8 8 -8 13 0 5 -19 39 -41 76 -23 38 -43 71 -45 74 -2
3 24 53 57 110 33 57 71 122 83 144 13 22 52 90 88 151 36 61 68 117 71 125 4
8 16 29 27 47 21 34 205 352 224 387 13 23 164 284 187 323 9 15 31 54 49 87
18 33 39 67 46 76 8 8 14 18 14 22 0 3 14 30 31 59 18 29 42 71 54 93 13 22
80 139 150 260 70 121 139 240 153 264 13 25 38 67 53 93 16 27 29 52 29 57 0
4 9 17 21 30 12 12 22 28 23 34 1 7 6 19 11 27 6 8 15 24 21 35 6 11 35 61 64
110 29 50 66 115 83 145 17 30 33 57 36 60 3 3 15 23 27 45 11 22 71 128 134
235 62 107 122 212 134 232 11 20 44 76 71 124 28 48 59 103 71 123 11 20 74
128 139 241 65 113 132 230 149 260 16 30 32 57 36 60 4 3 9 12 12 20 5 14
-123 15 -1169 15 l-1175 0 -18 -25 c-10 -14 -44 -70 -75 -125 -124 -215 -249
-432 -272 -470 -13 -22 -29 -52 -36 -67 -6 -16 -15 -28 -19 -28 -4 0 -8 -7 -8
-15 0 -8 -4 -15 -10 -15 -5 0 -10 -5 -10 -10 0 -6 -25 -54 -57 -108 -31 -53
-63 -110 -72 -127 -9 -16 -19 -31 -23 -33 -5 -2 -8 -8 -8 -12 0 -8 -103 -189
-162 -285 -10 -16 -21 -37 -25 -45 -6 -13 -33 -60 -88 -152 -5 -9 -23 -40 -38
-68 -15 -28 -54 -96 -87 -151 -33 -56 -60 -104 -60 -109 0 -4 -8 -18 -19 -31
-10 -13 -33 -51 -51 -84 -52 -95 -84 -150 -90 -155 -3 -3 -11 -16 -18 -30 -6
-14 -16 -32 -21 -40 -6 -8 -33 -55 -61 -105 -28 -49 -54 -97 -59 -105 -8 -13
-185 -318 -231 -399 -9 -14 -40 -69 -69 -121 -30 -52 -56 -97 -60 -100 -3 -3
-15 -23 -26 -45 -11 -22 -22 -42 -25 -45 -3 -3 -10 -14 -16 -25 -47 -87 -67
-121 -73 -128 -4 -4 -7 539 -7 1208 1 802 4 1215 11 1215 7 0 7 3 0 8 -6 4
-10 155 -10 417 l0 410 -1724 0 -1724 0 -52 -90 c-28 -49 -63 -110 -77 -135
-42 -74 -284 -492 -307 -530 -11 -19 -24 -42 -28 -50 -4 -8 -42 -74 -85 -148
-43 -73 -78 -137 -78 -142 0 -6 -3 -10 -7 -10 -5 0 -17 -19 -28 -43 -11 -23
-22 -44 -25 -47 -7 -6 -90 -150 -90 -156 0 -2 -16 -28 -35 -58 -19 -30 -35
-60 -35 -66 0 -5 -4 -10 -9 -10 -5 0 -11 -8 -14 -17 -3 -10 -22 -45 -41 -78
-20 -33 -46 -80 -58 -105 -13 -25 -26 -47 -29 -50 -6 -5 -21 -30 -77 -130 -14
-25 -33 -57 -43 -71 -10 -14 -16 -29 -12 -33 3 -3 1 -6 -5 -6 -7 0 -12 -7 -12
-15 0 -8 -4 -15 -9 -15 -5 0 -11 -6 -13 -12 -7 -28 -84 -158 -93 -158 -6 0
-21 21 -35 48 -13 26 -27 49 -30 52 -5 5 -25 39 -57 100 -10 19 -21 37 -24 40
-3 3 -25 41 -49 85 -24 44 -46 82 -49 85 -4 3 -12 16 -19 30 -6 14 -16 32 -22
40 -5 8 -33 56 -61 105 -28 50 -59 104 -69 120 -9 17 -43 75 -75 130 -31 55
-72 125 -90 155 -18 30 -44 75 -57 100 -61 110 -123 216 -133 222 -5 4 -6 8
-1 8 4 0 -2 15 -16 33 -13 17 -29 43 -36 57 -24 46 -57 104 -95 166 -20 34
-37 65 -37 69 0 4 -8 19 -19 33 -10 15 -28 44 -40 65 -11 20 -29 52 -40 70
-10 17 -61 106 -114 197 l-95 165 -2434 3 -2434 2 -17 -32z"/>
<path d="M1915 9089 c-22 -3 -35 -7 -30 -8 6 -1 6 -4 -1 -9 -10 -6 -110 -177
-207 -352 -17 -30 -33 -57 -36 -60 -4 -3 -18 -27 -31 -55 -14 -27 -28 -52 -31
-55 -7 -5 -11 -13 -84 -145 -21 -38 -42 -72 -45 -75 -4 -3 -19 -31 -35 -62
-16 -32 -32 -58 -36 -58 -4 0 -10 -11 -13 -25 -4 -14 -11 -25 -16 -25 -6 0
-10 -8 -10 -17 0 -9 -6 -24 -14 -32 -8 -9 -26 -38 -41 -66 -14 -27 -35 -63
-46 -80 -10 -16 -24 -42 -30 -57 -6 -16 -15 -28 -20 -28 -5 0 -9 -9 -9 -19 0
-11 -4 -21 -8 -23 -9 -3 -48 -68 -80 -133 -9 -16 -18 -32 -22 -35 -5 -4 -65
-108 -135 -235 -12 -22 -41 -71 -64 -109 -22 -37 -41 -69 -41 -71 0 -2 -21
-39 -47 -82 -25 -43 -55 -94 -65 -113 -23 -44 -65 -117 -86 -150 -9 -14 -15
-27 -13 -29 1 -2 -1 -7 -6 -10 -4 -3 -14 -17 -22 -31 -8 -14 -45 -78 -83 -142
-37 -65 -68 -122 -68 -128 0 -5 -4 -10 -10 -10 -5 0 -10 -4 -10 -9 0 -5 -23
-49 -51 -98 -28 -48 -59 -102 -69 -119 -82 -144 -116 -199 -122 -202 -5 -2 -8
-8 -8 -13 0 -5 -31 -64 -70 -130 -38 -66 -76 -132 -84 -147 l-14 -27 1172 0
c644 0 1176 4 1183 8 6 4 46 69 90 144 43 76 83 145 88 155 6 9 17 29 26 45 9
15 58 100 109 188 51 88 101 176 112 195 10 19 30 53 44 75 14 22 27 48 31 58
3 9 10 17 16 17 6 0 7 3 4 6 -4 4 1 19 11 33 23 35 27 42 139 236 54 94 102
178 108 187 5 10 34 58 63 108 28 50 52 95 52 100 0 6 5 10 10 10 6 0 10 4 10
9 0 5 29 59 65 120 36 60 65 114 65 120 0 6 5 11 10 11 6 0 10 4 10 9 0 5 26
54 58 108 32 54 61 105 65 113 4 8 21 38 38 65 16 28 33 58 36 68 3 9 9 17 13
17 5 0 12 9 15 21 4 11 21 44 38 72 17 29 37 62 44 74 7 13 13 26 12 29 0 4 3
10 8 13 4 3 14 17 22 31 8 14 39 68 69 120 30 52 66 115 80 139 13 25 38 68
55 95 16 28 43 76 60 106 17 30 38 67 49 82 10 14 18 28 18 31 0 3 34 62 75
131 67 115 72 126 52 126 -196 5 -2283 3 -2312 -1z"/>
<path d="M6143 9089 c-15 -5 -17 -132 -17 -1637 -1 -1080 2 -1633 9 -1635 6
-2 465 -3 1020 -3 l1010 1 3 1638 2 1637 -42 0 c-348 5 -1973 3 -1985 -1z"/>
</g>
</svg>
