<?xml version="1.0" encoding="utf-8"?>
<!-- Generator: Adobe Illustrator 24.2.1, SVG Export Plug-In . SVG Version: 6.00 Build 0)  -->
<svg version="1.1" xmlns="http://www.w3.org/2000/svg" xmlns:xlink="http://www.w3.org/1999/xlink" x="0px" y="0px"
	 viewBox="0 0 1728 1728" style="enable-background:new 0 0 1728 1728;" xml:space="preserve">
<style type="text/css">
	.st0{fill:none;stroke:#000000;stroke-width:0.25;stroke-miterlimit:10;}
	.st1{fill:none;stroke:#000000;stroke-width:0.75;stroke-miterlimit:10;stroke-dasharray:6.48,3.24;}
	.st2{fill:none;stroke:#000000;stroke-width:2;stroke-linecap:round;stroke-linejoin:round;}
</style>
<g id="Projection">
	<line class="st0" x1="396.39" y1="680.27" x2="625.2" y2="680.27"/>
	<line class="st0" x1="396.39" y1="607.87" x2="625.2" y2="607.87"/>
	<line class="st0" x1="414.39" y1="689.27" x2="625.2" y2="689.27"/>
	<line class="st0" x1="414.39" y1="581.27" x2="625.2" y2="581.27"/>
	<line class="st0" x1="396.39" y1="590.27" x2="625.2" y2="590.27"/>
	<line class="st0" x1="414.39" y1="548.92" x2="625.2" y2="548.92"/>
	<line class="st0" x1="432.39" y1="566.92" x2="625.2" y2="566.92"/>
	<line class="st0" x1="414.39" y1="473.27" x2="625.2" y2="473.27"/>
	<line class="st0" x1="396.39" y1="491.27" x2="625.2" y2="491.27"/>
	<line class="st0" x1="450.39" y1="449.92" x2="625.2" y2="449.92"/>
	<line class="st0" x1="414.39" y1="332.92" x2="625.2" y2="332.92"/>
	<line class="st0" x1="432.39" y1="314.92" x2="625.2" y2="314.92"/>
	<line class="st0" x1="376.14" y1="707.73" x2="625.2" y2="707.73"/>
	<line class="st0" x1="396.39" y1="787.87" x2="625.2" y2="787.87"/>
	<line class="st0" x1="974.79" y1="1366.3" x2="974.79" y2="1137.5"/>
	<line class="st0" x1="432.39" y1="179.92" x2="625.2" y2="179.92"/>
	<line class="st0" x1="913.19" y1="1366.3" x2="913.19" y2="1137.5"/>
	<line class="st0" x1="396.39" y1="849.48" x2="625.2" y2="849.48"/>
	<line class="st0" x1="1054.94" y1="1366.3" x2="1054.94" y2="1137.5"/>
	<line class="st0" x1="1582.75" y1="1330.3" x2="1582.75" y2="1137.5"/>
	<line class="st0" x1="396.39" y1="687.48" x2="625.2" y2="687.48"/>
	<path class="st0" d="M739.76,734.93c-30.38-30.38-71.59-47.45-114.55-47.45"/>
	<line class="st0" x1="1075.19" y1="1366.3" x2="1075.19" y2="1137.5"/>
	<path class="st0" d="M1582.75,1137.5c0-177.58-70.54-347.89-196.11-473.45"/>
	<line class="st0" x1="1073.4" y1="1564.3" x2="1073.4" y2="1137.5"/>
	<line class="st0" x1="396.39" y1="1366.3" x2="769.2" y2="993.48"/>
	<line class="st0" x1="1082.4" y1="1546.3" x2="1082.4" y2="1137.5"/>
	<line class="st0" x1="1136.79" y1="1366.3" x2="1136.79" y2="1137.5"/>
	<line class="st0" x1="1154.79" y1="1366.3" x2="1154.79" y2="1137.5"/>
	<line class="st0" x1="1172.4" y1="1366.3" x2="1172.4" y2="1137.5"/>
	<line class="st0" x1="1181.4" y1="1348.3" x2="1181.4" y2="1137.5"/>
	<line class="st0" x1="1195.75" y1="1582.3" x2="1195.75" y2="1137.5"/>
	<path class="st0" d="M990.47,484.21c-96.87-96.87-228.26-151.3-365.27-151.3"/>
	<line class="st0" x1="1213.75" y1="1564.3" x2="1213.75" y2="1137.5"/>
	<line class="st0" x1="1271.4" y1="1366.3" x2="1271.4" y2="1137.5"/>
	<line class="st0" x1="1289.4" y1="1348.3" x2="1289.4" y2="1137.5"/>
	<line class="st0" x1="1312.75" y1="1312.3" x2="1312.75" y2="1137.5"/>
	<line class="st0" x1="1429.75" y1="1348.3" x2="1429.75" y2="1137.5"/>
	<line class="st0" x1="1447.75" y1="1330.3" x2="1447.75" y2="1137.5"/>
	<line class="st0" x1="198.39" y1="1348.3" x2="774.49" y2="772.19"/>
	<line class="st0" x1="414.39" y1="1564.3" x2="990.49" y2="988.19"/>
	<line class="st0" x1="450.39" y1="161.92" x2="625.2" y2="161.92"/>
	<line class="st0" x1="1600.75" y1="1312.3" x2="1600.75" y2="1137.5"/>
	<line class="st0" x1="1112.99" y1="937.69" x2="1095.01" y2="919.68"/>
	<line class="st0" x1="1102.84" y1="947.84" x2="1066.84" y2="911.84"/>
	<line class="st0" x1="1027.74" y1="1022.95" x2="991.74" y2="986.95"/>
	<line class="st0" x1="1026.47" y1="1024.21" x2="990.49" y2="988.19"/>
	<line class="st0" x1="878.5" y1="596.19" x2="932.5" y2="650.19"/>
	<line class="st0" x1="891.23" y1="583.46" x2="927.23" y2="619.46"/>
	<line class="st0" x1="1179.21" y1="871.48" x2="1143.22" y2="835.48"/>
	<line class="st0" x1="1166.48" y1="884.2" x2="1112.49" y2="830.2"/>
	<line class="st0" x1="1291.18" y1="759.5" x2="1273.18" y2="741.5"/>
	<line class="st0" x1="1278.45" y1="772.23" x2="1242.46" y2="736.23"/>
	<line class="st0" x1="1386.64" y1="664.04" x2="1368.66" y2="646.03"/>
	<line class="st0" x1="1098.66" y1="376.03" x2="1116.66" y2="394.03"/>
	<line class="st0" x1="1003.2" y1="471.49" x2="1021.2" y2="489.49"/>
	<line class="st0" x1="990.47" y1="484.21" x2="1026.47" y2="520.22"/>
	<line class="st0" x1="1125.72" y1="924.97" x2="1089.74" y2="888.95"/>
	<line class="st0" x1="837.74" y1="636.95" x2="873.74" y2="672.95"/>
	<line class="st0" x1="825.01" y1="649.68" x2="843.01" y2="667.68"/>
	<line class="st0" x1="814.86" y1="659.83" x2="850.86" y2="695.83"/>
	<line class="st0" x1="808.49" y1="666.19" x2="844.49" y2="702.19"/>
	<line class="st0" x1="739.76" y1="734.93" x2="775.76" y2="770.93"/>
	<line class="st0" x1="738.49" y1="736.19" x2="774.49" y2="772.19"/>
	<line class="st0" x1="376.14" y1="1366.3" x2="376.14" y2="849.48"/>
	<line class="st0" x1="844.49" y1="702.19" x2="862.49" y2="720.19"/>
	<line class="st0" x1="1030.03" y1="912.65" x2="1084.03" y2="966.66"/>
	<line class="st0" x1="796.05" y1="678.64" x2="850.05" y2="732.64"/>
	<line class="st0" x1="783.32" y1="691.37" x2="837.32" y2="745.37"/>
	<line class="st0" x1="216.39" y1="1366.3" x2="722.76" y2="859.92"/>
	<line class="st0" x1="234.39" y1="1366.3" x2="731.76" y2="868.92"/>
	<line class="st0" x1="956.75" y1="1093.94" x2="902.75" y2="1039.93"/>
	<line class="st0" x1="725.44" y1="749.25" x2="788.44" y2="812.25"/>
	<line class="st0" x1="744.86" y1="729.83" x2="798.86" y2="783.83"/>
	<line class="st0" x1="978.86" y1="963.83" x2="1032.88" y2="1017.88"/>
	<line class="st0" x1="668.77" y1="805.92" x2="722.76" y2="859.92"/>
	<line class="st0" x1="396.39" y1="849.48" x2="396.39" y2="1366.3"/>
	<line class="st0" x1="234.39" y1="849.48" x2="234.39" y2="1366.3"/>
	<line class="st0" x1="216.39" y1="787.87" x2="216.39" y2="1366.3"/>
	<line class="st0" x1="625.2" y1="849.48" x2="688.2" y2="912.48"/>
	<line class="st0" x1="913.19" y1="1137.5" x2="859.19" y2="1083.5"/>
	<line class="st0" x1="1013.42" y1="1037.26" x2="950.44" y2="974.25"/>
	<line class="st0" x1="376.14" y1="1366.3" x2="759.08" y2="983.36"/>
	<line class="st0" x1="396.39" y1="1528.3" x2="850.2" y2="1074.48"/>
	<line class="st0" x1="376.14" y1="1508.05" x2="829.95" y2="1054.23"/>
	<line class="st0" x1="198.39" y1="689.27" x2="198.39" y2="1348.3"/>
	<line class="st0" x1="1091.4" y1="1528.3" x2="1091.4" y2="1137.5"/>
	<path class="st0" d="M1091.4,1137.5c0-47.26-18.78-92.59-52.2-126.01"/>
	<line class="st0" x1="1039.2" y1="1011.48" x2="976.2" y2="948.48"/>
	<line class="st0" x1="180.39" y1="566.92" x2="180.39" y2="1330.3"/>
	<line class="st0" x1="162.39" y1="449.92" x2="162.39" y2="1312.3"/>
	<line class="st0" x1="450.39" y1="1600.3" x2="1399.37" y2="651.32"/>
	<line class="st0" x1="414.39" y1="689.27" x2="414.39" y2="1348.3"/>
	<line class="st0" x1="432.39" y1="566.92" x2="432.39" y2="1330.3"/>
	<line class="st0" x1="162.39" y1="1312.3" x2="1111.39" y2="363.3"/>
	<line class="st0" x1="450.39" y1="449.92" x2="450.39" y2="1312.3"/>
	<line class="st0" x1="913.19" y1="1137.5" x2="1600.75" y2="1137.5"/>
	<line class="st0" x1="1008.32" y1="916.37" x2="1071.3" y2="979.38"/>
	<line class="st0" x1="396.39" y1="1546.3" x2="859.2" y2="1083.48"/>
	<line class="st0" x1="625.2" y1="849.48" x2="625.2" y2="161.92"/>
	<path class="st0" d="M974.79,1137.5c0-16.34-6.49-32.01-18.04-43.56"/>
	<path class="st0" d="M1600.75,1137.5c0-182.35-72.44-357.24-201.38-486.18"/>
	<path class="st0" d="M1082.4,1137.5c0-44.88-17.83-87.92-49.56-119.65"/>
	<path class="st0" d="M1075.19,1137.5c0-42.96-17.07-84.17-47.45-114.55"/>
	<path class="st0" d="M1073.4,1137.5c0-42.49-16.88-83.24-46.92-113.29"/>
	<path class="st0" d="M1054.94,1137.5c0-37.59-14.93-73.65-41.52-100.23"/>
	<path class="st0" d="M1136.79,1137.5c0-59.3-23.56-116.18-65.49-158.11"/>
	<line class="st0" x1="432.39" y1="1582.3" x2="1095.62" y2="920.29"/>
	<path class="st0" d="M1154.79,1137.5c0-64.08-25.45-125.53-70.76-170.84"/>
	<line class="st0" x1="1154.79" y1="1366.3" x2="1172.4" y2="1366.3"/>
	<line class="st0" x1="1096.48" y1="954.21" x2="961.5" y2="819.21"/>
	<path class="st0" d="M1172.4,1137.5c0-68.75-27.31-134.68-75.92-183.29"/>
	<path class="st0" d="M1181.4,1137.5c0-71.13-28.26-139.35-78.56-189.65"/>
	<path class="st0" d="M1003.2,471.49C902.95,371.24,766.98,314.92,625.2,314.92"/>
	<path class="st0" d="M1195.75,1137.5c0-74.94-29.77-146.81-82.76-199.8"/>
	<path class="st0" d="M1271.4,1137.5c0-95-37.74-186.12-104.92-253.29"/>
	<path class="st0" d="M1289.4,1137.5c0-99.78-39.64-195.47-110.19-266.02"/>
	<path class="st0" d="M1312.75,1137.5c0-105.97-42.1-207.6-117.03-282.53"/>
	<path class="st0" d="M1429.75,1137.5c0-137-54.42-268.39-151.3-365.27"/>
	<path class="st0" d="M1447.75,1137.5c0-141.78-56.32-277.74-156.57-377.99"/>
	<path class="st0" d="M1098.66,376.03C973.09,250.46,802.78,179.92,625.2,179.92"/>
	<path class="st0" d="M1111.39,363.3C982.44,234.36,807.56,161.92,625.2,161.92"/>
	<path class="st0" d="M744.86,729.83c-31.73-31.73-74.77-49.56-119.65-49.56"/>
	<path class="st0" d="M738.49,736.19c-30.05-30.05-70.8-46.92-113.29-46.92"/>
	<path class="st0" d="M725.44,749.25c-26.58-26.58-62.64-41.52-100.23-41.52"/>
	<path class="st0" d="M668.77,805.92c-11.55-11.55-27.22-18.04-43.56-18.04"/>
	<path class="st0" d="M783.32,691.37c-41.93-41.93-98.81-65.49-158.11-65.49"/>
	<path class="st0" d="M796.05,678.64c-45.31-45.31-106.76-70.76-170.84-70.76"/>
	<path class="st0" d="M808.49,666.19c-48.61-48.61-114.54-75.92-183.29-75.92"/>
	<path class="st0" d="M814.86,659.83c-50.3-50.3-118.52-78.56-189.65-78.56"/>
	<path class="st0" d="M825.01,649.68c-52.99-52.99-124.86-82.76-199.8-82.76"/>
	<path class="st0" d="M837.74,636.95c-56.37-56.37-132.82-88.03-212.53-88.03"/>
	<path class="st0" d="M878.5,596.19c-67.18-67.18-158.29-104.92-253.29-104.92"/>
	<path class="st0" d="M891.23,583.46c-70.55-70.55-166.24-110.19-266.02-110.19"/>
	<path class="st0" d="M907.74,566.95c-74.93-74.93-176.56-117.03-282.53-117.03"/>
	<line class="st0" x1="396.39" y1="625.87" x2="625.2" y2="625.87"/>
	<path class="st0" d="M1213.75,1137.5c0-79.71-31.67-156.16-88.03-212.53"/>
	<line class="st0" x1="396.39" y1="1528.3" x2="913.19" y2="1528.3"/>
	<line class="st0" x1="396.39" y1="1366.3" x2="913.19" y2="1366.3"/>
	<line class="st0" x1="376.14" y1="1508.05" x2="913.19" y2="1508.05"/>
	<line class="st0" x1="396.39" y1="1546.3" x2="974.79" y2="1546.3"/>
	<line class="st0" x1="414.39" y1="1564.3" x2="1073.4" y2="1564.3"/>
	<line class="st0" x1="432.39" y1="1582.3" x2="1195.75" y2="1582.3"/>
	<line class="st0" x1="450.39" y1="1600.3" x2="1312.75" y2="1600.3"/>
	<line class="st0" x1="414.39" y1="1348.3" x2="1181.4" y2="1348.3"/>
	<line class="st0" x1="450.39" y1="1312.3" x2="1312.75" y2="1312.3"/>
	<line class="st0" x1="432.39" y1="1330.3" x2="1312.75" y2="1330.3"/>
</g>
<g id="Hidden">
	<line class="st1" x1="234.39" y1="787.87" x2="396.39" y2="787.87"/>
	<line class="st1" x1="1101.85" y1="794.11" x2="1143.22" y2="835.48"/>
	<line class="st1" x1="1124.34" y1="618.1" x2="1105.59" y2="764.82"/>
	<line class="st1" x1="1154.79" y1="1528.3" x2="1154.79" y2="1401.51"/>
	<line class="st1" x1="1134.48" y1="628.24" x2="1114.74" y2="773.97"/>
	<line class="st1" x1="1136.79" y1="1528.3" x2="1136.79" y2="1437.51"/>
	<line class="st1" x1="974.79" y1="1366.3" x2="974.79" y2="1528.3"/>
	<line class="st1" x1="1242.46" y1="736.23" x2="1134.48" y2="628.24"/>
	<line class="st1" x1="957.66" y1="840.27" x2="966.64" y2="849.26"/>
	<line class="st1" x1="1136.79" y1="1528.3" x2="1091.4" y2="1528.3"/>
	<line class="st1" x1="1154.79" y1="1546.3" x2="1154.79" y2="1528.3"/>
	<line class="st1" x1="1429.75" y1="1564.3" x2="1289.4" y2="1564.3"/>
	<line class="st1" x1="1429.75" y1="1564.3" x2="1429.75" y2="1348.3"/>
	<line class="st1" x1="962.92" y1="870.97" x2="971.92" y2="879.97"/>
	<line class="st1" x1="964.74" y1="959.95" x2="973.74" y2="968.95"/>
	<line class="st1" x1="1429.75" y1="1348.3" x2="1312.75" y2="1465.3"/>
	<line class="st1" x1="1447.75" y1="1582.3" x2="1447.75" y2="1330.3"/>
	<line class="st1" x1="1429.75" y1="1348.3" x2="1447.75" y2="1330.3"/>
	<line class="st1" x1="1026.47" y1="520.22" x2="1124.34" y2="618.1"/>
	<line class="st1" x1="952.5" y1="810.21" x2="958.86" y2="803.85"/>
	<line class="st1" x1="1312.75" y1="1330.3" x2="1582.75" y2="1330.3"/>
	<line class="st1" x1="1582.75" y1="1582.3" x2="1312.75" y2="1582.3"/>
	<line class="st1" x1="1582.75" y1="1582.3" x2="1582.75" y2="1330.3"/>
	<line class="st1" x1="798.86" y1="783.83" x2="978.86" y2="963.83"/>
	<line class="st1" x1="731.76" y1="868.92" x2="902.75" y2="1039.93"/>
	<line class="st1" x1="978.86" y1="963.83" x2="1110.54" y2="832.15"/>
	<line class="st1" x1="1289.4" y1="1564.3" x2="1289.4" y2="1488.65"/>
	<line class="st1" x1="1089.74" y1="888.95" x2="1143.22" y2="835.48"/>
	<line class="st1" x1="1143.22" y1="835.48" x2="1159.73" y2="818.96"/>
	<line class="st1" x1="1289.4" y1="1564.3" x2="1213.75" y2="1564.3"/>
	<line class="st1" x1="1271.4" y1="1546.3" x2="1271.4" y2="1366.3"/>
	<line class="st1" x1="1181.4" y1="1366.3" x2="1271.4" y2="1366.3"/>
	<line class="st1" x1="1271.4" y1="1546.3" x2="1082.4" y2="1546.3"/>
	<line class="st1" x1="1008.32" y1="916.37" x2="971.92" y2="879.97"/>
	<line class="st1" x1="1181.4" y1="1366.3" x2="1172.4" y2="1366.3"/>
	<line class="st1" x1="1030.03" y1="912.65" x2="966.64" y2="849.26"/>
	<line class="st1" x1="1054.94" y1="1508.05" x2="913.19" y2="1508.05"/>
	<line class="st1" x1="1054.94" y1="1366.3" x2="1054.94" y2="1508.05"/>
	<line class="st1" x1="869.44" y1="893.25" x2="930.19" y2="954"/>
	<line class="st1" x1="976.2" y1="948.48" x2="1008.32" y2="916.37"/>
	<line class="st1" x1="829.95" y1="1054.23" x2="930.19" y2="954"/>
	<line class="st1" x1="1116.66" y1="394.03" x2="1368.66" y2="646.03"/>
	<line class="st1" x1="1021.2" y1="489.49" x2="1273.18" y2="741.5"/>
	<line class="st1" x1="1137.07" y1="605.37" x2="1232.53" y2="509.9"/>
	<line class="st1" x1="792.49" y1="790.19" x2="972.49" y2="970.19"/>
	<line class="st1" x1="932.5" y1="650.19" x2="1112.49" y2="830.2"/>
	<line class="st1" x1="868.86" y1="713.83" x2="932.5" y2="650.19"/>
	<line class="st1" x1="861.01" y1="685.68" x2="1077.01" y2="901.68"/>
	<line class="st1" x1="873.74" y1="672.95" x2="1089.74" y2="888.95"/>
	<line class="st1" x1="1026.47" y1="520.22" x2="943.73" y2="602.94"/>
	<line class="st1" x1="1242.46" y1="736.23" x2="1159.72" y2="818.96"/>
	<line class="st1" x1="1021.2" y1="489.49" x2="1116.66" y2="394.03"/>
	<line class="st1" x1="396.39" y1="650.08" x2="396.39" y2="680.27"/>
	<line class="st1" x1="1273.18" y1="741.5" x2="1368.66" y2="646.03"/>
	<line class="st1" x1="1273.18" y1="741.5" x2="1177.72" y2="836.96"/>
	<line class="st1" x1="198.39" y1="548.92" x2="414.39" y2="548.92"/>
	<line class="st1" x1="925.74" y1="584.95" x2="1021.2" y2="489.49"/>
	<line class="st1" x1="396.39" y1="581.27" x2="396.39" y2="590.27"/>
	<line class="st1" x1="216.39" y1="590.27" x2="216.39" y2="581.27"/>
	<line class="st1" x1="198.39" y1="332.92" x2="198.39" y2="449.92"/>
	<line class="st1" x1="414.39" y1="449.92" x2="414.39" y2="332.92"/>
	<line class="st1" x1="414.39" y1="332.92" x2="198.39" y2="332.92"/>
	<line class="st1" x1="414.39" y1="566.92" x2="198.39" y2="566.92"/>
	<line class="st1" x1="180.39" y1="314.92" x2="432.39" y2="314.92"/>
	<line class="st1" x1="180.39" y1="449.92" x2="180.39" y2="179.92"/>
	<line class="st1" x1="432.39" y1="449.92" x2="432.39" y2="179.92"/>
	<line class="st1" x1="432.39" y1="179.92" x2="180.39" y2="179.92"/>
	<line class="st1" x1="396.39" y1="689.27" x2="216.39" y2="689.27"/>
	<line class="st1" x1="396.39" y1="581.27" x2="396.39" y2="491.27"/>
	<line class="st1" x1="396.39" y1="491.27" x2="216.39" y2="491.27"/>
	<line class="st1" x1="216.39" y1="680.27" x2="396.39" y2="680.27"/>
	<line class="st1" x1="216.39" y1="581.27" x2="216.39" y2="491.27"/>
	<line class="st1" x1="868.86" y1="713.83" x2="862.49" y2="720.19"/>
</g>
<g id="Visible">
	<line class="st2" x1="862.49" y1="720.19" x2="798.86" y2="783.83"/>
	<line class="st2" x1="974.79" y1="1546.3" x2="1082.4" y2="1546.3"/>
	<line class="st2" x1="1154.79" y1="1366.3" x2="1136.79" y2="1366.3"/>
	<line class="st2" x1="927.23" y1="619.46" x2="1101.85" y2="794.11"/>
	<line class="st2" x1="1105.59" y1="764.82" x2="1089.74" y2="888.95"/>
	<line class="st2" x1="1154.79" y1="1401.51" x2="1154.79" y2="1366.3"/>
	<line class="st2" x1="1114.74" y1="773.97" x2="1095.01" y2="919.68"/>
	<line class="st2" x1="1136.79" y1="1437.51" x2="1136.79" y2="1366.3"/>
	<line class="st2" x1="1075.19" y1="1366.3" x2="1136.79" y2="1366.3"/>
	<line class="st2" x1="1091.4" y1="1528.3" x2="1075.19" y2="1528.3"/>
	<line class="st2" x1="850.05" y1="732.64" x2="957.66" y2="840.27"/>
	<line class="st2" x1="1312.75" y1="1582.3" x2="1195.75" y2="1582.3"/>
	<line class="st2" x1="846.32" y1="754.37" x2="962.92" y2="870.97"/>
	<line class="st2" x1="1312.75" y1="1465.3" x2="1213.75" y2="1564.3"/>
	<line class="st2" x1="964.74" y1="959.95" x2="775.74" y2="770.95"/>
	<line class="st2" x1="991.74" y1="986.95" x2="973.74" y2="968.95"/>
	<line class="st2" x1="978.86" y1="963.83" x2="952.5" y2="810.21"/>
	<line class="st2" x1="1195.75" y1="1582.3" x2="1213.75" y2="1564.3"/>
	<line class="st2" x1="1312.75" y1="1582.3" x2="1312.75" y2="1330.3"/>
	<line class="st2" x1="940.05" y1="822.66" x2="952.5" y2="810.21"/>
	<line class="st2" x1="769.2" y1="993.48" x2="940.05" y2="822.66"/>
	<line class="st2" x1="1312.75" y1="1312.3" x2="1600.75" y2="1312.3"/>
	<line class="st2" x1="958.86" y1="803.85" x2="1255.41" y2="507.33"/>
	<line class="st2" x1="1312.75" y1="1330.3" x2="1312.75" y2="1312.3"/>
	<line class="st2" x1="1312.75" y1="1600.3" x2="1312.75" y2="1582.3"/>
	<line class="st2" x1="1600.75" y1="1600.3" x2="1312.75" y2="1600.3"/>
	<line class="st2" x1="862.49" y1="720.19" x2="952.5" y2="810.21"/>
	<line class="st2" x1="1600.75" y1="1600.3" x2="1600.75" y2="1312.3"/>
	<line class="st2" x1="1289.4" y1="1488.65" x2="1289.4" y2="1348.3"/>
	<line class="st2" x1="1181.4" y1="1348.3" x2="1289.4" y2="1348.3"/>
	<line class="st2" x1="1213.75" y1="1564.3" x2="1073.4" y2="1564.3"/>
	<line class="st2" x1="1172.4" y1="1366.3" x2="1082.4" y2="1546.3"/>
	<line class="st2" x1="958.86" y1="803.85" x2="990.49" y2="988.19"/>
	<line class="st2" x1="1073.4" y1="1564.3" x2="1082.4" y2="1546.3"/>
	<line class="st2" x1="859.2" y1="1083.48" x2="902.75" y2="1039.93"/>
	<line class="st2" x1="1172.4" y1="1366.3" x2="1181.4" y2="1348.3"/>
	<line class="st2" x1="913.19" y1="1366.3" x2="1054.94" y2="1366.3"/>
	<line class="st2" x1="913.19" y1="1508.05" x2="913.19" y2="1366.3"/>
	<line class="st2" x1="1075.19" y1="1528.3" x2="913.19" y2="1528.3"/>
	<line class="st2" x1="850.2" y1="1074.48" x2="976.2" y2="948.48"/>
	<line class="st2" x1="1075.19" y1="1366.3" x2="1075.19" y2="1528.3"/>
	<line class="st2" x1="1054.94" y1="1366.3" x2="1075.19" y2="1366.3"/>
	<line class="st2" x1="913.19" y1="1528.3" x2="913.19" y2="1508.05"/>
	<line class="st2" x1="234.39" y1="1366.3" x2="216.39" y2="1366.3"/>
	<line class="st2" x1="216.39" y1="1366.3" x2="216.39" y2="1528.3"/>
	<line class="st2" x1="396.39" y1="1546.3" x2="396.39" y2="1528.3"/>
	<line class="st2" x1="234.39" y1="1546.3" x2="396.39" y2="1546.3"/>
	<line class="st2" x1="902.75" y1="1039.93" x2="978.86" y2="963.83"/>
	<line class="st2" x1="234.39" y1="1366.3" x2="234.39" y2="1508.05"/>
	<line class="st2" x1="788.44" y1="812.25" x2="859.31" y2="883.12"/>
	<line class="st2" x1="859.31" y1="883.12" x2="759.08" y2="983.36"/>
	<line class="st2" x1="216.39" y1="1528.3" x2="216.39" y2="1546.3"/>
	<line class="st2" x1="216.39" y1="1546.3" x2="234.39" y2="1546.3"/>
	<line class="st2" x1="432.39" y1="1582.3" x2="180.39" y2="1582.3"/>
	<line class="st2" x1="180.39" y1="1564.3" x2="180.39" y2="1456.3"/>
	<line class="st2" x1="432.39" y1="1456.3" x2="432.39" y2="1564.3"/>
	<line class="st2" x1="432.39" y1="1582.3" x2="432.39" y2="1564.3"/>
	<line class="st2" x1="180.39" y1="1564.3" x2="180.39" y2="1582.3"/>
	<line class="st2" x1="688.2" y1="912.48" x2="859.2" y2="1083.48"/>
	<line class="st2" x1="688.2" y1="912.48" x2="731.76" y2="868.92"/>
	<line class="st2" x1="162.39" y1="1330.3" x2="162.39" y2="1582.3"/>
	<line class="st2" x1="432.39" y1="1312.3" x2="180.39" y2="1312.3"/>
	<line class="st2" x1="450.39" y1="1582.3" x2="450.39" y2="1330.3"/>
	<line class="st2" x1="180.39" y1="1600.3" x2="432.39" y2="1600.3"/>
	<line class="st2" x1="180.39" y1="1330.3" x2="180.39" y2="1456.3"/>
	<line class="st2" x1="722.76" y1="859.92" x2="731.76" y2="868.92"/>
	<line class="st2" x1="432.39" y1="1330.3" x2="180.39" y2="1330.3"/>
	<line class="st2" x1="432.39" y1="1456.3" x2="432.39" y2="1330.3"/>
	<line class="st2" x1="731.76" y1="868.92" x2="846.32" y2="754.37"/>
	<line class="st2" x1="722.76" y1="859.92" x2="731.76" y2="868.92"/>
	<line class="st2" x1="722.76" y1="859.92" x2="850.05" y2="732.64"/>
	<line class="st2" x1="432.39" y1="1600.3" x2="450.39" y2="1600.3"/>
	<line class="st2" x1="162.39" y1="1600.3" x2="180.39" y2="1600.3"/>
	<line class="st2" x1="162.39" y1="1582.3" x2="162.39" y2="1600.3"/>
	<line class="st2" x1="162.39" y1="1312.3" x2="162.39" y2="1330.3"/>
	<line class="st2" x1="972.49" y1="970.19" x2="990.49" y2="988.19"/>
	<line class="st2" x1="180.39" y1="1312.3" x2="162.39" y2="1312.3"/>
	<line class="st2" x1="774.49" y1="772.19" x2="792.49" y2="790.19"/>
	<line class="st2" x1="450.39" y1="1312.3" x2="432.39" y2="1312.3"/>
	<line class="st2" x1="450.39" y1="1330.3" x2="450.39" y2="1312.3"/>
	<line class="st2" x1="450.39" y1="1600.3" x2="450.39" y2="1582.3"/>
	<line class="st2" x1="414.39" y1="1564.3" x2="198.39" y2="1564.3"/>
	<line class="st2" x1="414.39" y1="1366.3" x2="414.39" y2="1546.3"/>
	<line class="st2" x1="198.39" y1="1546.3" x2="198.39" y2="1366.3"/>
	<line class="st2" x1="414.39" y1="1564.3" x2="414.39" y2="1546.3"/>
	<line class="st2" x1="198.39" y1="1546.3" x2="198.39" y2="1564.3"/>
	<line class="st2" x1="414.39" y1="1348.3" x2="396.39" y2="1348.3"/>
	<line class="st2" x1="414.39" y1="1366.3" x2="414.39" y2="1348.3"/>
	<line class="st2" x1="198.39" y1="1348.3" x2="198.39" y2="1366.3"/>
	<line class="st2" x1="216.39" y1="1348.3" x2="198.39" y2="1348.3"/>
	<line class="st2" x1="396.39" y1="1348.3" x2="216.39" y2="1348.3"/>
	<line class="st2" x1="396.39" y1="1366.3" x2="376.14" y2="1366.3"/>
	<line class="st2" x1="396.39" y1="1508.05" x2="396.39" y2="1366.3"/>
	<line class="st2" x1="234.39" y1="1508.05" x2="234.39" y2="1528.3"/>
	<line class="st2" x1="234.39" y1="1528.3" x2="376.14" y2="1528.3"/>
	<line class="st2" x1="376.14" y1="1508.05" x2="234.39" y2="1508.05"/>
	<line class="st2" x1="234.39" y1="1366.3" x2="376.14" y2="1366.3"/>
	<line class="st2" x1="376.14" y1="1508.05" x2="376.14" y2="1366.3"/>
	<line class="st2" x1="396.39" y1="1528.3" x2="376.14" y2="1528.3"/>
	<line class="st2" x1="850.86" y1="695.83" x2="1066.84" y2="911.84"/>
	<line class="st2" x1="396.39" y1="1528.3" x2="396.39" y2="1508.05"/>
	<line class="st2" x1="396.39" y1="607.87" x2="234.39" y2="607.87"/>
	<line class="st2" x1="990.49" y1="988.19" x2="1089.74" y2="888.95"/>
	<line class="st2" x1="774.49" y1="772.19" x2="873.74" y2="672.95"/>
	<line class="st2" x1="216.39" y1="625.87" x2="216.39" y2="787.87"/>
	<line class="st2" x1="234.39" y1="787.87" x2="216.39" y2="787.87"/>
	<line class="st2" x1="1077.01" y1="901.68" x2="1095.01" y2="919.68"/>
	<line class="st2" x1="843.01" y1="667.68" x2="861.01" y2="685.68"/>
	<line class="st2" x1="396.39" y1="607.87" x2="396.39" y2="625.87"/>
	<line class="st2" x1="396.39" y1="625.87" x2="234.39" y2="625.87"/>
	<line class="st2" x1="873.74" y1="672.95" x2="943.74" y2="602.95"/>
	<line class="st2" x1="234.39" y1="687.48" x2="234.39" y2="625.87"/>
	<line class="st2" x1="234.39" y1="787.87" x2="234.39" y2="707.73"/>
	<line class="st2" x1="907.74" y1="566.95" x2="1195.72" y2="854.96"/>
	<line class="st2" x1="396.39" y1="680.27" x2="396.39" y2="687.48"/>
	<line class="st2" x1="234.39" y1="607.87" x2="216.39" y2="607.87"/>
	<line class="st2" x1="1177.72" y1="836.96" x2="1095.01" y2="919.68"/>
	<line class="st2" x1="216.39" y1="625.87" x2="216.39" y2="607.87"/>
	<line class="st2" x1="925.74" y1="584.95" x2="843.01" y2="667.68"/>
	<line class="st2" x1="198.39" y1="449.92" x2="198.39" y2="473.27"/>
	<line class="st2" x1="1195.72" y1="854.96" x2="1399.37" y2="651.32"/>
	<line class="st2" x1="907.74" y1="566.95" x2="1111.39" y2="363.3"/>
	<line class="st2" x1="414.39" y1="473.27" x2="414.39" y2="449.92"/>
	<line class="st2" x1="198.39" y1="566.92" x2="180.39" y2="566.92"/>
	<line class="st2" x1="432.39" y1="566.92" x2="414.39" y2="566.92"/>
	<line class="st2" x1="180.39" y1="548.92" x2="180.39" y2="449.92"/>
	<line class="st2" x1="432.39" y1="449.92" x2="432.39" y2="548.92"/>
	<line class="st2" x1="432.39" y1="566.92" x2="432.39" y2="548.92"/>
	<line class="st2" x1="180.39" y1="548.92" x2="180.39" y2="566.92"/>
	<line class="st2" x1="432.39" y1="449.92" x2="180.39" y2="449.92"/>
	<line class="st2" x1="162.39" y1="449.92" x2="162.39" y2="161.92"/>
	<line class="st2" x1="180.39" y1="449.92" x2="162.39" y2="449.92"/>
	<line class="st2" x1="450.39" y1="449.92" x2="432.39" y2="449.92"/>
	<line class="st2" x1="450.39" y1="449.92" x2="450.39" y2="161.92"/>
	<line class="st2" x1="450.39" y1="161.92" x2="162.39" y2="161.92"/>
	<line class="st2" x1="414.39" y1="581.27" x2="414.39" y2="473.27"/>
	<line class="st2" x1="414.39" y1="473.27" x2="198.39" y2="473.27"/>
	<line class="st2" x1="198.39" y1="581.27" x2="198.39" y2="473.27"/>
	<line class="st2" x1="216.39" y1="689.27" x2="198.39" y2="689.27"/>
	<line class="st2" x1="414.39" y1="689.27" x2="396.39" y2="689.27"/>
	<line class="st2" x1="396.39" y1="607.87" x2="396.39" y2="590.27"/>
	<line class="st2" x1="396.39" y1="650.08" x2="396.39" y2="625.87"/>
	<line class="st2" x1="414.39" y1="590.27" x2="414.39" y2="680.27"/>
	<line class="st2" x1="216.39" y1="590.27" x2="216.39" y2="607.87"/>
	<line class="st2" x1="198.39" y1="680.27" x2="198.39" y2="590.27"/>
	<line class="st2" x1="414.39" y1="689.27" x2="414.39" y2="680.27"/>
	<line class="st2" x1="198.39" y1="680.27" x2="198.39" y2="689.27"/>
	<line class="st2" x1="414.39" y1="581.27" x2="396.39" y2="581.27"/>
	<line class="st2" x1="414.39" y1="590.27" x2="414.39" y2="581.27"/>
	<line class="st2" x1="198.39" y1="581.27" x2="198.39" y2="590.27"/>
	<line class="st2" x1="216.39" y1="581.27" x2="198.39" y2="581.27"/>
	<line class="st2" x1="216.39" y1="590.27" x2="396.39" y2="590.27"/>
	<line class="st2" x1="396.39" y1="581.27" x2="216.39" y2="581.27"/>
	<line class="st2" x1="234.39" y1="687.48" x2="234.39" y2="707.73"/>
	<line class="st2" x1="376.14" y1="687.48" x2="234.39" y2="687.48"/>
	<line class="st2" x1="396.39" y1="849.48" x2="396.39" y2="707.73"/>
	<line class="st2" x1="396.39" y1="849.48" x2="376.14" y2="849.48"/>
	<line class="st2" x1="376.14" y1="849.48" x2="234.39" y2="849.48"/>
	<line class="st2" x1="234.39" y1="787.87" x2="234.39" y2="849.48"/>
	<line class="st2" x1="234.39" y1="707.73" x2="376.14" y2="707.73"/>
	<line class="st2" x1="376.14" y1="849.48" x2="376.14" y2="707.73"/>
	<line class="st2" x1="376.14" y1="687.48" x2="396.39" y2="687.48"/>
	<line class="st2" x1="396.39" y1="707.73" x2="396.39" y2="687.48"/>
	<line class="st2" x1="1111.39" y1="363.3" x2="1399.37" y2="651.32"/>
	<line class="st2" x1="974.79" y1="1546.3" x2="974.79" y2="1528.3"/>
</g>
</svg>
