<?xml version="1.0" encoding="utf-8"?>
<!-- Generator: Adobe Illustrator 24.2.1, SVG Export Plug-In . SVG Version: 6.00 Build 0)  -->
<svg version="1.1" xmlns="http://www.w3.org/2000/svg" xmlns:xlink="http://www.w3.org/1999/xlink" x="0px" y="0px"
	 viewBox="0 0 1728 1728" style="enable-background:new 0 0 1728 1728;" xml:space="preserve">
<style type="text/css">
	.st0{fill:none;stroke:#020202;stroke-width:2.5;stroke-linecap:round;stroke-linejoin:round;}
	.st1{stroke:#020202;stroke-width:0.8504;stroke-linecap:round;stroke-linejoin:round;}
	.st2{stroke:#020202;stroke-linecap:round;stroke-linejoin:round;}
	.st3{fill:#BDBDBD;stroke:#020202;stroke-linecap:round;stroke-linejoin:round;}
	.st4{fill:none;stroke:#020202;stroke-width:0.5;stroke-linecap:round;stroke-linejoin:round;stroke-dasharray:5.76,2.16;}
	.st5{fill:none;stroke:#020202;stroke-width:0.8504;stroke-linecap:round;stroke-linejoin:round;}
	.st6{fill:none;stroke:#020202;stroke-width:1.5;stroke-linecap:round;stroke-linejoin:round;}
	.st7{fill:none;stroke:#020202;stroke-width:0.75;stroke-linecap:round;stroke-linejoin:round;}
	.st8{fill:none;stroke:#020202;stroke-width:0.25;stroke-linecap:round;stroke-linejoin:round;}
</style>
<g id="Cut">
	<line class="st0" x1="364.65" y1="405.91" x2="382.65" y2="405.91"/>
	<line class="st0" x1="328.65" y1="643.48" x2="328.65" y2="805.48"/>
	<line class="st0" x1="166.65" y1="643.48" x2="328.65" y2="643.48"/>
	<line class="st0" x1="308.4" y1="663.73" x2="308.4" y2="805.48"/>
	<line class="st0" x1="166.65" y1="663.73" x2="308.4" y2="663.73"/>
	<line class="st0" x1="308.4" y1="805.48" x2="328.65" y2="805.48"/>
	<line class="st0" x1="148.65" y1="563.87" x2="328.65" y2="563.87"/>
	<line class="st0" x1="166.65" y1="743.87" x2="166.65" y2="663.73"/>
	<line class="st0" x1="166.65" y1="643.48" x2="166.65" y2="581.87"/>
	<line class="st0" x1="1189.07" y1="1425.71" x2="1180.07" y2="1443.71"/>
	<line class="st0" x1="1180.07" y1="1443.71" x2="1189.07" y2="1443.71"/>
	<line class="st0" x1="1090.07" y1="1623.71" x2="1081.07" y2="1641.71"/>
	<line class="st0" x1="1189.07" y1="1443.71" x2="1279.07" y2="1443.71"/>
	<line class="st0" x1="1279.07" y1="1443.71" x2="1279.07" y2="1623.71"/>
	<line class="st0" x1="1221.43" y1="1641.71" x2="1081.07" y2="1641.71"/>
	<line class="st0" x1="1189.07" y1="1425.71" x2="1297.07" y2="1425.71"/>
	<line class="st0" x1="1297.07" y1="1425.71" x2="1297.07" y2="1641.71"/>
	<line class="st0" x1="1090.07" y1="1623.71" x2="982.47" y2="1623.71"/>
	<line class="st0" x1="1162.47" y1="1443.71" x2="1162.47" y2="1623.71"/>
	<line class="st0" x1="1144.47" y1="1443.71" x2="1144.47" y2="1605.71"/>
	<line class="st0" x1="982.47" y1="1605.71" x2="982.47" y2="1623.71"/>
	<line class="st0" x1="1162.47" y1="1443.71" x2="1144.47" y2="1443.71"/>
	<line class="st0" x1="1082.86" y1="1443.71" x2="1082.86" y2="1605.71"/>
	<line class="st0" x1="982.47" y1="1605.71" x2="920.86" y2="1605.71"/>
	<line class="st0" x1="1062.61" y1="1443.71" x2="1062.61" y2="1585.46"/>
	<line class="st0" x1="1062.61" y1="1585.46" x2="920.86" y2="1585.46"/>
	<line class="st0" x1="920.86" y1="1585.46" x2="920.86" y2="1605.71"/>
	<line class="st0" x1="1082.86" y1="1443.71" x2="1062.61" y2="1443.71"/>
	<line class="st0" x1="166.65" y1="581.87" x2="328.65" y2="581.87"/>
	<line class="st0" x1="1221.43" y1="1641.71" x2="1203.43" y2="1659.71"/>
	<line class="st0" x1="1455.43" y1="1407.71" x2="1437.43" y2="1425.71"/>
	<line class="st0" x1="1455.43" y1="1407.71" x2="1455.43" y2="1659.71"/>
	<line class="st0" x1="1437.43" y1="1425.71" x2="1437.43" y2="1641.71"/>
	<line class="st0" x1="148.65" y1="743.87" x2="166.65" y2="743.87"/>
	<line class="st0" x1="1608.43" y1="1389.71" x2="1608.43" y2="1677.71"/>
	<line class="st0" x1="1320.43" y1="1389.71" x2="1608.43" y2="1389.71"/>
	<line class="st0" x1="1608.43" y1="1677.71" x2="1320.43" y2="1677.71"/>
	<line class="st0" x1="1590.43" y1="1407.71" x2="1590.43" y2="1659.71"/>
	<line class="st0" x1="1320.43" y1="1407.71" x2="1590.43" y2="1407.71"/>
	<line class="st0" x1="1590.43" y1="1659.71" x2="1455.43" y2="1659.71"/>
	<line class="st0" x1="1320.43" y1="1659.71" x2="1320.43" y2="1677.71"/>
	<line class="st0" x1="1320.43" y1="1389.71" x2="1320.43" y2="1407.71"/>
	<line class="st0" x1="130.65" y1="593.71" x2="148.65" y2="593.71"/>
	<line class="st0" x1="328.65" y1="593.71" x2="346.65" y2="593.71"/>
	<line class="st0" x1="148.65" y1="563.87" x2="148.65" y2="447.27"/>
	<line class="st0" x1="328.65" y1="447.27" x2="328.65" y2="563.87"/>
	<line class="st0" x1="328.65" y1="581.87" x2="328.65" y2="593.71"/>
	<line class="st0" x1="148.65" y1="447.27" x2="328.65" y2="447.27"/>
	<line class="st0" x1="130.65" y1="593.71" x2="130.65" y2="429.27"/>
	<line class="st0" x1="346.65" y1="429.27" x2="346.65" y2="593.71"/>
	<line class="st0" x1="130.65" y1="429.27" x2="346.65" y2="429.27"/>
	<line class="st0" x1="94.65" y1="117.91" x2="382.65" y2="117.91"/>
	<line class="st0" x1="382.65" y1="117.91" x2="382.65" y2="405.91"/>
	<line class="st0" x1="94.65" y1="405.91" x2="94.65" y2="117.91"/>
	<line class="st0" x1="112.65" y1="135.91" x2="364.65" y2="135.91"/>
	<line class="st0" x1="94.65" y1="405.91" x2="112.65" y2="405.91"/>
	<line class="st0" x1="112.65" y1="270.91" x2="364.65" y2="270.91"/>
	<line class="st0" x1="130.65" y1="288.91" x2="346.65" y2="288.91"/>
	<line class="st0" x1="1082.86" y1="1605.71" x2="1144.47" y2="1605.71"/>
	<line class="st0" x1="1203.43" y1="1659.71" x2="1320.43" y2="1659.71"/>
	<line class="st0" x1="1297.07" y1="1641.71" x2="1437.43" y2="1641.71"/>
	<line class="st0" x1="346.65" y1="288.91" x2="346.65" y2="401.8"/>
	<line class="st0" x1="130.65" y1="401.8" x2="130.65" y2="288.91"/>
	<line class="st0" x1="346.65" y1="401.8" x2="364.65" y2="401.8"/>
	<line class="st0" x1="112.65" y1="401.8" x2="130.65" y2="401.8"/>
	<line class="st0" x1="1417.12" y1="576.69" x2="1432.08" y2="597.29"/>
	<line class="st0" x1="1222.67" y1="308.93" x2="1237.63" y2="329.52"/>
	<line class="st0" x1="1228.86" y1="155" x2="1513.3" y2="200.11"/>
	<line class="st0" x1="1241.6" y1="189.56" x2="1490.49" y2="229.03"/>
	<line class="st0" x1="1450.41" y1="481.73" x2="1468.19" y2="484.55"/>
	<line class="st0" x1="1183.74" y1="439.44" x2="1201.52" y2="442.26"/>
	<line class="st0" x1="1183.74" y1="439.44" x2="1228.86" y2="155"/>
	<line class="st0" x1="1201.52" y1="442.26" x2="1241.6" y2="189.56"/>
	<line class="st0" x1="1490.49" y1="229.03" x2="1471.56" y2="348.4"/>
	<line class="st0" x1="1513.3" y1="200.11" x2="1468.19" y2="484.55"/>
	<line class="st0" x1="1344.14" y1="807.06" x2="1361.91" y2="809.88"/>
	<line class="st0" x1="1222.67" y1="308.93" x2="1471.56" y2="348.4"/>
	<line class="st0" x1="1237.63" y1="329.52" x2="1450.96" y2="363.36"/>
	<line class="st0" x1="1198.72" y1="574.81" x2="1215.09" y2="586.52"/>
	<line class="st0" x1="1378.77" y1="703.61" x2="1395.14" y2="715.31"/>
	<line class="st0" x1="1230.6" y1="488.74" x2="1408.38" y2="516.94"/>
	<line class="st0" x1="1215.64" y1="468.14" x2="1428.97" y2="501.98"/>
	<line class="st0" x1="1215.09" y1="586.52" x2="1216.5" y2="577.63"/>
	<line class="st0" x1="1216.5" y1="577.63" x2="1230.6" y2="488.74"/>
	<line class="st0" x1="1417.12" y1="576.69" x2="1395.14" y2="715.31"/>
	<line class="st0" x1="1198.72" y1="574.81" x2="1215.64" y2="468.14"/>
	<line class="st0" x1="1212.33" y1="603.91" x2="1390.11" y2="632.1"/>
	<line class="st0" x1="1209.51" y1="621.69" x2="1369.51" y2="647.06"/>
	<line class="st0" x1="1212.33" y1="603.91" x2="1209.51" y2="621.69"/>
	<line class="st0" x1="1378.77" y1="703.61" x2="1361.91" y2="809.88"/>
	<line class="st0" x1="1199.86" y1="682.53" x2="1359.86" y2="707.91"/>
	<line class="st0" x1="1322.85" y1="811.98" x2="1182.85" y2="789.77"/>
	<line class="st0" x1="1196.69" y1="702.53" x2="1336.69" y2="724.74"/>
	<line class="st0" x1="1174.49" y1="842.53" x2="1314.49" y2="864.74"/>
	<line class="st0" x1="1314.49" y1="864.74" x2="1334.49" y2="867.91"/>
	<line class="st0" x1="1369.51" y1="647.06" x2="1359.86" y2="707.91"/>
	<line class="st0" x1="1408.38" y1="516.94" x2="1390.11" y2="632.1"/>
	<line class="st0" x1="1450.41" y1="481.73" x2="1432.08" y2="597.29"/>
	<line class="st0" x1="1450.96" y1="363.36" x2="1428.97" y2="501.98"/>
	<line class="st0" x1="148.65" y1="593.71" x2="148.65" y2="743.87"/>
	<line class="st0" x1="364.65" y1="135.91" x2="364.65" y2="270.91"/>
	<line class="st0" x1="112.65" y1="135.91" x2="112.65" y2="270.91"/>
	<line class="st0" x1="1199.86" y1="682.53" x2="1196.69" y2="702.53"/>
	<line class="st0" x1="1336.69" y1="724.74" x2="1322.85" y2="811.98"/>
	<line class="st0" x1="1182.85" y1="789.77" x2="1174.49" y2="842.53"/>
	<line class="st0" x1="1344.14" y1="807.06" x2="1334.49" y2="867.91"/>
</g>
<g id="CutAnnotation">
	<polyline class="st1" points="1620.72,1121.24 1657.06,1121.24 1657.06,1142.66 1652.47,1142.66 1652.47,1121.24 	"/>
	<polyline class="st1" points="1620.72,1533.71 1657.06,1533.71 1657.06,1555.12 1652.47,1555.12 1652.47,1533.71 	"/>
	<polyline class="st1" points="905.63,1533.71 869.29,1533.71 869.29,1555.12 873.88,1555.12 873.88,1533.71 	"/>
	<rect x="869.29" y="1533.71" class="st2" width="4.59" height="21.42"/>
	
		<rect x="773.75" y="1129.65" transform="matrix(2.101248e-03 -1 1 2.101248e-03 -349.1355 1914.0231)" class="st2" width="21.42" height="4.59"/>
	<polyline class="st1" points="740.88,1121.15 786.77,1121.24 786.73,1142.66 782.14,1142.65 782.18,1121.23 	"/>
	<polyline class="st1" points="422.92,1120.48 377.03,1120.38 376.98,1141.8 381.57,1141.81 381.62,1120.39 	"/>
	
		<rect x="368.59" y="1128.8" transform="matrix(2.101248e-03 -1 1 2.101248e-03 -752.5893 1508.0179)" class="st2" width="21.42" height="4.59"/>
	<rect x="869.29" y="1121.24" class="st2" width="4.59" height="21.42"/>
	<polyline class="st1" points="905.63,1121.24 869.29,1121.24 869.29,1142.66 873.88,1142.66 873.88,1121.24 	"/>
	<rect x="1652.47" y="1121.24" class="st2" width="4.59" height="21.42"/>
	<rect x="586.33" y="1326.38" class="st2" width="21.42" height="4.59"/>
	<polyline class="st1" points="586.33,1285.08 586.33,1330.97 607.75,1330.97 607.75,1326.38 586.33,1326.38 	"/>
	<polyline class="st1" points="586.33,967.12 586.33,921.22 607.75,921.22 607.75,925.81 586.33,925.81 	"/>
	<rect x="586.33" y="921.22" class="st2" width="21.42" height="4.59"/>
	
		<rect x="637.18" y="46.66" transform="matrix(0.1554 -0.9879 0.9879 0.1554 483.446 680.1663)" class="st2" width="4.59" height="21.42"/>
	<polyline class="st1" points="643.28,102.1 650.41,56.77 629.25,53.44 628.54,57.97 649.69,61.3 	"/>
	
		<rect x="509.75" y="856.92" transform="matrix(0.1554 -0.9879 0.9879 0.1554 -424.6079 1238.6514)" class="st2" width="4.59" height="21.42"/>
	<polyline class="st1" points="529.39,826.23 522.26,871.56 501.11,868.23 501.82,863.7 522.97,867.03 	"/>
	<polyline class="st1" points="586.33,830.68 586.33,876.57 564.92,876.57 564.92,871.98 586.33,871.98 	"/>
	<rect x="564.92" y="871.98" class="st2" width="21.42" height="4.59"/>
	<polyline class="st1" points="586.33,97.65 586.33,51.76 564.92,51.76 564.92,56.35 586.33,56.35 	"/>
	<rect x="564.92" y="51.76" class="st2" width="21.42" height="4.59"/>
	<rect x="215.71" y="51.76" class="st2" width="21.42" height="4.59"/>
	<polyline class="st1" points="237.13,97.65 237.13,51.76 215.71,51.76 215.71,56.35 237.13,56.35 	"/>
	<rect x="215.71" y="871.98" class="st2" width="21.42" height="4.59"/>
	<polyline class="st1" points="237.13,830.68 237.13,876.57 215.71,876.57 215.71,871.98 237.13,871.98 	"/>
	<rect x="1652.47" y="1533.71" class="st2" width="4.59" height="21.42"/>
</g>
<g id="Hatch">
	<path class="st3" d="M112.65,401.8v4.11h-18v-288h288v288h-18v-4.11h-18V288.91h-216V401.8H112.65z M364.65,270.91v-135h-252v135
		H364.65z"/>
	<path class="st3" d="M148.65,593.71h-18V429.27h216v164.44h-18v-11.84h-162v61.61h162v162H308.4V663.73H166.65v80.14h-18V593.71z
		 M328.65,563.87V447.27h-180v116.61H328.65z"/>
	<polygon class="st3" points="1320.43,1677.71 1320.43,1659.71 1203.43,1659.71 1221.43,1641.71 1081.07,1641.71 1090.07,1623.71 
		982.47,1623.71 982.47,1605.71 920.86,1605.71 920.86,1585.46 1062.61,1585.46 1062.61,1443.71 1082.86,1443.71 1082.86,1605.71 
		1144.47,1605.71 1144.47,1443.71 1162.47,1443.71 1162.47,1623.71 1279.07,1623.71 1279.07,1443.71 1189.07,1443.71 
		1180.07,1443.71 1189.07,1425.71 1297.07,1425.71 1297.07,1641.71 1437.43,1641.71 1437.43,1425.71 1455.43,1407.71 
		1455.43,1659.71 1590.43,1659.71 1590.43,1407.71 1320.43,1407.71 1320.43,1389.71 1608.43,1389.71 1608.43,1677.71 	"/>
	<polygon class="st3" points="1490.49,229.03 1241.6,189.56 1201.52,442.26 1183.74,439.44 1228.86,155 1513.3,200.11 
		1468.19,484.55 1450.41,481.73 1432.08,597.29 1417.12,576.69 1395.14,715.31 1378.77,703.61 1361.91,809.88 1344.14,807.06 
		1334.49,867.91 1314.49,864.74 1174.49,842.53 1182.85,789.77 1322.85,811.98 1336.69,724.74 1196.69,702.53 1199.86,682.53 
		1359.86,707.91 1369.51,647.06 1209.51,621.69 1212.33,603.91 1390.11,632.1 1408.38,516.94 1230.6,488.74 1216.5,577.63 
		1215.09,586.52 1198.72,574.81 1215.64,468.14 1428.97,501.98 1450.96,363.36 1237.63,329.52 1222.67,308.93 1471.56,348.4 	"/>
</g>
<g id="Hidden">
	<line class="st4" x1="1320.43" y1="1641.71" x2="1320.43" y2="1542.71"/>
	<line class="st4" x1="1182.85" y1="789.77" x2="1184.14" y2="781.69"/>
	<line class="st4" x1="1334.85" y1="463.41" x2="1432.63" y2="478.92"/>
	<line class="st4" x1="1279.84" y1="632.84" x2="1362.4" y2="691.9"/>
	<line class="st4" x1="982.47" y1="1031.24" x2="982.47" y2="1193.24"/>
	<line class="st4" x1="1144.47" y1="1193.24" x2="1144.47" y2="1102.45"/>
	<line class="st4" x1="1239.43" y1="1623.71" x2="1279.07" y2="1584.06"/>
	<line class="st4" x1="1099.07" y1="1605.71" x2="1144.47" y2="1514.92"/>
	<line class="st4" x1="676.33" y1="537.27" x2="676.33" y2="546.27"/>
	<line class="st4" x1="496.33" y1="546.27" x2="496.33" y2="537.27"/>
	<line class="st4" x1="496.33" y1="636.27" x2="676.33" y2="636.27"/>
	<line class="st4" x1="1162.47" y1="1211.24" x2="1144.47" y2="1211.24"/>
	<line class="st4" x1="1162.47" y1="1193.24" x2="1162.47" y2="1066.45"/>
	<line class="st4" x1="676.33" y1="447.27" x2="496.33" y2="447.27"/>
	<line class="st4" x1="676.33" y1="606.08" x2="676.33" y2="636.27"/>
	<line class="st4" x1="514.33" y1="743.87" x2="676.33" y2="743.87"/>
	<line class="st4" x1="676.33" y1="537.27" x2="676.33" y2="447.27"/>
	<line class="st4" x1="478.33" y1="504.91" x2="694.33" y2="504.91"/>
	<line class="st4" x1="478.33" y1="288.91" x2="478.33" y2="405.91"/>
	<line class="st4" x1="694.33" y1="405.91" x2="694.33" y2="288.91"/>
	<line class="st4" x1="694.33" y1="288.91" x2="478.33" y2="288.91"/>
	<line class="st4" x1="1162.47" y1="1211.24" x2="1162.47" y2="1193.24"/>
	<line class="st4" x1="694.33" y1="522.91" x2="478.33" y2="522.91"/>
	<line class="st4" x1="460.33" y1="270.91" x2="712.33" y2="270.91"/>
	<line class="st4" x1="460.33" y1="405.91" x2="460.33" y2="135.91"/>
	<line class="st4" x1="712.33" y1="405.91" x2="712.33" y2="135.91"/>
	<line class="st4" x1="1062.61" y1="1172.99" x2="920.86" y2="1172.99"/>
	<line class="st4" x1="496.33" y1="537.27" x2="496.33" y2="447.27"/>
	<line class="st4" x1="712.33" y1="135.91" x2="460.33" y2="135.91"/>
	<line class="st4" x1="1144.47" y1="1193.24" x2="1099.07" y2="1193.24"/>
	<line class="st4" x1="1062.61" y1="1031.24" x2="1062.61" y2="1172.99"/>
	<line class="st4" x1="166.65" y1="743.87" x2="308.4" y2="743.87"/>
	<line class="st4" x1="112.65" y1="405.91" x2="364.65" y2="405.91"/>
	<line class="st4" x1="328.65" y1="522.91" x2="148.65" y2="522.91"/>
	<line class="st4" x1="1090.07" y1="1211.24" x2="1144.47" y2="1211.24"/>
	<line class="st4" x1="1437.43" y1="1013.24" x2="1455.43" y2="995.24"/>
	<line class="st4" x1="1297.07" y1="1229.24" x2="1297.07" y2="1153.6"/>
	<line class="st4" x1="1455.43" y1="1247.24" x2="1455.43" y2="995.24"/>
	<line class="st4" x1="1437.43" y1="1013.24" x2="1320.43" y2="1130.24"/>
	<line class="st4" x1="1279.07" y1="1211.24" x2="1279.07" y2="1031.24"/>
	<line class="st4" x1="1189.07" y1="1031.24" x2="1279.07" y2="1031.24"/>
	<line class="st4" x1="1279.07" y1="1211.24" x2="1162.47" y2="1211.24"/>
	<line class="st4" x1="1455.43" y1="1247.24" x2="1320.43" y2="1247.24"/>
	<line class="st4" x1="1437.43" y1="1229.24" x2="1437.43" y2="1013.24"/>
	<line class="st4" x1="1437.43" y1="1229.24" x2="1221.43" y2="1229.24"/>
	<line class="st4" x1="1189.07" y1="1031.24" x2="1180.07" y2="1031.24"/>
	<line class="st4" x1="1590.43" y1="1247.24" x2="1590.43" y2="995.24"/>
	<line class="st4" x1="1320.43" y1="995.24" x2="1590.43" y2="995.24"/>
	<line class="st4" x1="1590.43" y1="1247.24" x2="1455.43" y2="1247.24"/>
	<line class="st4" x1="676.33" y1="645.27" x2="496.33" y2="645.27"/>
</g>
<g id="Projection1">
	<line class="st5" x1="586.33" y1="830.68" x2="586.33" y2="97.65"/>
	<line class="st5" x1="529.39" y1="826.23" x2="643.28" y2="102.1"/>
	<line class="st5" x1="586.33" y1="1285.08" x2="586.33" y2="967.12"/>
	<line class="st5" x1="1620.72" y1="1121.24" x2="905.63" y2="1121.24"/>
	<line class="st5" x1="422.92" y1="1120.48" x2="740.88" y2="1121.15"/>
	<line class="st5" x1="1620.72" y1="1533.71" x2="905.63" y2="1533.71"/>
	<line class="st5" x1="237.13" y1="830.68" x2="237.13" y2="97.65"/>
</g>
<g id="Visible-Heavy">
	<line class="st6" x1="1180.07" y1="1031.24" x2="1090.07" y2="1211.24"/>
	<line class="st6" x1="1320.43" y1="1130.24" x2="1221.43" y2="1229.24"/>
	<line class="st6" x1="1221.43" y1="1229.24" x2="1081.07" y2="1229.24"/>
	<line class="st6" x1="1189.07" y1="1013.24" x2="1297.07" y2="1013.24"/>
	<line class="st6" x1="1297.07" y1="1153.6" x2="1297.07" y2="1013.24"/>
	<line class="st6" x1="1203.43" y1="1247.24" x2="1221.43" y2="1229.24"/>
	<line class="st6" x1="982.47" y1="1211.24" x2="982.47" y2="1193.24"/>
	<line class="st6" x1="920.86" y1="1193.24" x2="920.86" y2="1172.99"/>
	<line class="st6" x1="1062.61" y1="1031.24" x2="1082.86" y2="1031.24"/>
	<line class="st6" x1="1082.86" y1="1031.24" x2="1082.86" y2="1193.24"/>
	<line class="st6" x1="1320.43" y1="1247.24" x2="1203.43" y2="1247.24"/>
	<line class="st6" x1="982.47" y1="1211.24" x2="1090.07" y2="1211.24"/>
	<line class="st6" x1="1081.07" y1="1229.24" x2="1090.07" y2="1211.24"/>
	<line class="st6" x1="1180.07" y1="1031.24" x2="1189.07" y2="1013.24"/>
	<line class="st6" x1="920.86" y1="1172.99" x2="920.86" y2="1031.24"/>
	<line class="st6" x1="920.86" y1="1031.24" x2="1062.61" y2="1031.24"/>
	<line class="st6" x1="1320.43" y1="995.24" x2="1320.43" y2="977.24"/>
	<line class="st6" x1="1162.47" y1="1031.24" x2="1144.47" y2="1031.24"/>
	<line class="st6" x1="1608.43" y1="1265.24" x2="1608.43" y2="977.24"/>
	<line class="st6" x1="1162.47" y1="1066.45" x2="1162.47" y2="1031.24"/>
	<line class="st6" x1="478.33" y1="1013.24" x2="478.33" y2="1031.24"/>
	<line class="st6" x1="1608.43" y1="1265.24" x2="1320.43" y2="1265.24"/>
	<line class="st6" x1="1144.47" y1="1102.45" x2="1144.47" y2="1031.24"/>
	<line class="st6" x1="496.33" y1="1013.24" x2="478.33" y2="1013.24"/>
	<line class="st6" x1="1320.43" y1="1265.24" x2="1320.43" y2="1247.24"/>
	<line class="st6" x1="1320.43" y1="977.24" x2="1608.43" y2="977.24"/>
	<line class="st6" x1="1099.07" y1="1193.24" x2="982.47" y2="1193.24"/>
	<line class="st6" x1="982.47" y1="1193.24" x2="920.86" y2="1193.24"/>
	<line class="st6" x1="676.33" y1="1013.24" x2="496.33" y2="1013.24"/>
	<line class="st6" x1="460.33" y1="1229.24" x2="460.33" y2="1247.24"/>
	<line class="st6" x1="442.33" y1="995.24" x2="442.33" y2="1247.24"/>
	<line class="st6" x1="712.33" y1="977.24" x2="460.33" y2="977.24"/>
	<line class="st6" x1="730.33" y1="1247.24" x2="730.33" y2="995.24"/>
	<line class="st6" x1="460.33" y1="1265.24" x2="712.33" y2="1265.24"/>
	<line class="st6" x1="460.33" y1="995.24" x2="460.33" y2="1121.89"/>
	<line class="st6" x1="712.33" y1="995.24" x2="460.33" y2="995.24"/>
	<line class="st6" x1="712.33" y1="1121.89" x2="712.33" y2="995.24"/>
	<line class="st6" x1="712.33" y1="1265.24" x2="730.33" y2="1265.24"/>
	<line class="st6" x1="442.33" y1="1265.24" x2="460.33" y2="1265.24"/>
	<line class="st6" x1="442.33" y1="1247.24" x2="442.33" y2="1265.24"/>
	<line class="st6" x1="442.33" y1="977.24" x2="442.33" y2="995.24"/>
	<line class="st6" x1="460.33" y1="977.24" x2="442.33" y2="977.24"/>
	<line class="st6" x1="694.33" y1="1031.24" x2="694.33" y2="1013.24"/>
	<line class="st6" x1="694.33" y1="1013.24" x2="676.33" y2="1013.24"/>
	<line class="st6" x1="730.33" y1="977.24" x2="712.33" y2="977.24"/>
	<line class="st6" x1="676.33" y1="663.73" x2="676.33" y2="643.48"/>
	<line class="st6" x1="656.08" y1="643.48" x2="676.33" y2="643.48"/>
	<line class="st6" x1="656.08" y1="805.48" x2="656.08" y2="663.73"/>
	<line class="st6" x1="514.33" y1="663.73" x2="656.08" y2="663.73"/>
	<line class="st6" x1="676.33" y1="805.48" x2="656.08" y2="805.48"/>
	<line class="st6" x1="730.33" y1="995.24" x2="730.33" y2="977.24"/>
	<line class="st6" x1="676.33" y1="805.48" x2="676.33" y2="663.73"/>
	<line class="st6" x1="730.33" y1="1265.24" x2="730.33" y2="1247.24"/>
	<line class="st6" x1="478.33" y1="1211.24" x2="478.33" y2="1229.24"/>
	<line class="st6" x1="712.33" y1="1247.24" x2="460.33" y2="1247.24"/>
	<line class="st6" x1="460.33" y1="1229.24" x2="460.33" y2="1121.89"/>
	<line class="st6" x1="656.08" y1="643.48" x2="514.33" y2="643.48"/>
	<line class="st6" x1="514.33" y1="643.48" x2="514.33" y2="663.73"/>
	<line class="st6" x1="712.33" y1="1121.89" x2="712.33" y2="1229.24"/>
	<line class="st6" x1="712.33" y1="1247.24" x2="712.33" y2="1229.24"/>
	<line class="st6" x1="694.33" y1="1229.24" x2="694.33" y2="1211.24"/>
	<line class="st6" x1="676.33" y1="1031.24" x2="656.08" y2="1031.24"/>
	<line class="st6" x1="676.33" y1="1172.99" x2="676.33" y2="1031.24"/>
	<line class="st6" x1="676.33" y1="537.27" x2="496.33" y2="537.27"/>
	<line class="st6" x1="496.33" y1="546.27" x2="676.33" y2="546.27"/>
	<line class="st6" x1="514.33" y1="1172.99" x2="514.33" y2="1193.24"/>
	<line class="st6" x1="514.33" y1="1193.24" x2="656.08" y2="1193.24"/>
	<line class="st6" x1="496.33" y1="537.27" x2="478.33" y2="537.27"/>
	<line class="st6" x1="478.33" y1="537.27" x2="478.33" y2="546.27"/>
	<line class="st6" x1="694.33" y1="546.27" x2="694.33" y2="537.27"/>
	<line class="st6" x1="694.33" y1="537.27" x2="676.33" y2="537.27"/>
	<line class="st6" x1="478.33" y1="636.27" x2="478.33" y2="645.27"/>
	<line class="st6" x1="694.33" y1="645.27" x2="694.33" y2="636.27"/>
	<line class="st6" x1="478.33" y1="636.27" x2="478.33" y2="546.27"/>
	<line class="st6" x1="496.33" y1="546.27" x2="496.33" y2="563.87"/>
	<line class="st6" x1="694.33" y1="546.27" x2="694.33" y2="636.27"/>
	<line class="st6" x1="676.33" y1="606.08" x2="676.33" y2="581.87"/>
	<line class="st6" x1="676.33" y1="563.87" x2="676.33" y2="546.27"/>
	<line class="st6" x1="656.08" y1="1172.99" x2="514.33" y2="1172.99"/>
	<line class="st6" x1="514.33" y1="1031.24" x2="656.08" y2="1031.24"/>
	<line class="st6" x1="656.08" y1="1172.99" x2="656.08" y2="1031.24"/>
	<line class="st6" x1="676.33" y1="563.87" x2="514.33" y2="563.87"/>
	<line class="st6" x1="496.33" y1="581.87" x2="496.33" y2="743.87"/>
	<line class="st6" x1="514.33" y1="743.87" x2="496.33" y2="743.87"/>
	<line class="st6" x1="676.33" y1="563.87" x2="676.33" y2="581.87"/>
	<line class="st6" x1="676.33" y1="581.87" x2="514.33" y2="581.87"/>
	<line class="st6" x1="514.33" y1="643.48" x2="514.33" y2="581.87"/>
	<line class="st6" x1="514.33" y1="743.87" x2="514.33" y2="663.73"/>
	<line class="st6" x1="676.33" y1="636.27" x2="676.33" y2="643.48"/>
	<line class="st6" x1="676.33" y1="1193.24" x2="656.08" y2="1193.24"/>
	<line class="st6" x1="676.33" y1="1193.24" x2="676.33" y2="1172.99"/>
	<line class="st6" x1="514.33" y1="563.87" x2="496.33" y2="563.87"/>
	<line class="st6" x1="496.33" y1="581.87" x2="496.33" y2="563.87"/>
	<line class="st6" x1="514.33" y1="1031.24" x2="496.33" y2="1031.24"/>
	<line class="st6" x1="478.33" y1="405.91" x2="478.33" y2="429.27"/>
	<line class="st6" x1="496.33" y1="1031.24" x2="496.33" y2="1193.24"/>
	<line class="st6" x1="676.33" y1="1211.24" x2="676.33" y2="1193.24"/>
	<line class="st6" x1="694.33" y1="429.27" x2="694.33" y2="405.91"/>
	<line class="st6" x1="514.33" y1="1211.24" x2="676.33" y2="1211.24"/>
	<line class="st6" x1="478.33" y1="522.91" x2="460.33" y2="522.91"/>
	<line class="st6" x1="514.33" y1="1031.24" x2="514.33" y2="1172.99"/>
	<line class="st6" x1="712.33" y1="522.91" x2="694.33" y2="522.91"/>
	<line class="st6" x1="460.33" y1="504.91" x2="460.33" y2="405.91"/>
	<line class="st6" x1="712.33" y1="405.91" x2="712.33" y2="504.91"/>
	<line class="st6" x1="496.33" y1="1193.24" x2="496.33" y2="1211.24"/>
	<line class="st6" x1="712.33" y1="522.91" x2="712.33" y2="504.91"/>
	<line class="st6" x1="460.33" y1="504.91" x2="460.33" y2="522.91"/>
	<line class="st6" x1="712.33" y1="405.91" x2="460.33" y2="405.91"/>
	<line class="st6" x1="496.33" y1="1211.24" x2="514.33" y2="1211.24"/>
	<line class="st6" x1="694.33" y1="1229.24" x2="478.33" y2="1229.24"/>
	<line class="st6" x1="694.33" y1="1031.24" x2="694.33" y2="1211.24"/>
	<line class="st6" x1="442.33" y1="405.91" x2="442.33" y2="117.91"/>
	<line class="st6" x1="460.33" y1="405.91" x2="442.33" y2="405.91"/>
	<line class="st6" x1="730.33" y1="405.91" x2="712.33" y2="405.91"/>
	<line class="st6" x1="730.33" y1="405.91" x2="730.33" y2="117.91"/>
	<line class="st6" x1="730.33" y1="117.91" x2="442.33" y2="117.91"/>
	<line class="st6" x1="694.33" y1="537.27" x2="694.33" y2="429.27"/>
	<line class="st6" x1="694.33" y1="429.27" x2="478.33" y2="429.27"/>
	<line class="st6" x1="478.33" y1="537.27" x2="478.33" y2="429.27"/>
	<line class="st6" x1="496.33" y1="645.27" x2="478.33" y2="645.27"/>
	<line class="st6" x1="1320.43" y1="1247.24" x2="1320.43" y2="995.24"/>
	<line class="st6" x1="694.33" y1="645.27" x2="676.33" y2="645.27"/>
	<line class="st6" x1="478.33" y1="1211.24" x2="478.33" y2="1031.24"/>
</g>
<g id="Visible-Light">
	<line class="st7" x1="1320.43" y1="1659.71" x2="1455.43" y2="1659.71"/>
	<line class="st7" x1="1090.07" y1="1623.71" x2="1279.07" y2="1623.71"/>
	<line class="st7" x1="982.47" y1="1605.71" x2="1082.86" y2="1605.71"/>
	<line class="st7" x1="1437.43" y1="1425.71" x2="1297.07" y2="1566.06"/>
	<line class="st7" x1="1320.43" y1="1407.71" x2="1320.43" y2="1542.71"/>
	<line class="st7" x1="1180.07" y1="1443.71" x2="1162.47" y2="1478.92"/>
	<line class="st7" x1="982.47" y1="1443.71" x2="1062.61" y2="1443.71"/>
	<line class="st7" x1="1082.86" y1="1443.71" x2="1144.47" y2="1443.71"/>
	<line class="st7" x1="982.47" y1="1443.71" x2="982.47" y2="1585.46"/>
	<line class="st7" x1="1359.86" y1="707.91" x2="1344.14" y2="807.06"/>
	<line class="st7" x1="1390.11" y1="632.1" x2="1378.77" y2="703.61"/>
	<line class="st7" x1="1428.97" y1="501.98" x2="1417.12" y2="576.69"/>
	<line class="st7" x1="1471.56" y1="348.4" x2="1450.41" y2="481.73"/>
	<line class="st7" x1="1201.52" y1="442.26" x2="1222.67" y2="308.93"/>
	<line class="st7" x1="1184.14" y1="781.69" x2="1324.14" y2="803.89"/>
	<line class="st7" x1="1199.86" y1="682.53" x2="1209.51" y2="621.69"/>
	<line class="st7" x1="166.65" y1="743.87" x2="166.65" y2="805.48"/>
	<line class="st7" x1="308.4" y1="805.48" x2="166.65" y2="805.48"/>
	<line class="st7" x1="166.65" y1="643.48" x2="166.65" y2="663.73"/>
	<line class="st7" x1="328.65" y1="636.27" x2="328.65" y2="643.48"/>
	<line class="st7" x1="328.65" y1="581.87" x2="328.65" y2="563.87"/>
	<line class="st7" x1="130.65" y1="636.27" x2="130.65" y2="645.27"/>
	<line class="st7" x1="656.08" y1="805.48" x2="514.33" y2="805.48"/>
	<line class="st7" x1="514.33" y1="743.87" x2="514.33" y2="805.48"/>
	<line class="st7" x1="346.65" y1="645.27" x2="346.65" y2="636.27"/>
	<line class="st7" x1="346.65" y1="645.27" x2="328.65" y2="645.27"/>
	<line class="st7" x1="148.65" y1="645.27" x2="130.65" y2="645.27"/>
	<line class="st7" x1="130.65" y1="636.27" x2="130.65" y2="593.71"/>
	<line class="st7" x1="1184.14" y1="781.69" x2="1196.69" y2="702.53"/>
	<line class="st7" x1="1215.09" y1="586.52" x2="1247.11" y2="609.42"/>
	<line class="st7" x1="1201.52" y1="442.26" x2="1334.85" y2="463.41"/>
	<line class="st7" x1="1237.63" y1="329.52" x2="1354.26" y2="490.13"/>
	<line class="st7" x1="1221.43" y1="1641.71" x2="1297.07" y2="1641.71"/>
	<line class="st7" x1="328.65" y1="614.99" x2="328.65" y2="593.71"/>
	<line class="st7" x1="346.65" y1="593.71" x2="346.65" y2="636.27"/>
	<line class="st7" x1="112.65" y1="504.91" x2="112.65" y2="522.91"/>
	<line class="st7" x1="364.65" y1="522.91" x2="364.65" y2="504.91"/>
	<line class="st7" x1="1082.86" y1="1031.24" x2="1144.47" y2="1031.24"/>
	<line class="st7" x1="364.65" y1="522.91" x2="346.65" y2="522.91"/>
	<line class="st7" x1="130.65" y1="522.91" x2="112.65" y2="522.91"/>
	<line class="st7" x1="364.65" y1="405.91" x2="364.65" y2="504.91"/>
	<line class="st7" x1="112.65" y1="504.91" x2="112.65" y2="405.91"/>
	<line class="st7" x1="346.65" y1="429.27" x2="346.65" y2="401.8"/>
	<line class="st7" x1="130.65" y1="401.8" x2="130.65" y2="429.27"/>
	<line class="st7" x1="328.65" y1="636.27" x2="328.65" y2="614.99"/>
	<line class="st7" x1="148.65" y1="563.87" x2="148.65" y2="593.71"/>
	<line class="st7" x1="364.65" y1="401.8" x2="364.65" y2="270.91"/>
	<line class="st7" x1="112.65" y1="401.8" x2="112.65" y2="270.91"/>
</g>
<g id="Projection">
	<line class="st8" x1="382.65" y1="270.91" x2="460.33" y2="270.91"/>
	<line class="st8" x1="382.65" y1="405.91" x2="442.33" y2="405.91"/>
	<line class="st8" x1="382.65" y1="401.8" x2="442.33" y2="401.8"/>
	<line class="st8" x1="346.65" y1="401.8" x2="130.65" y2="401.8"/>
	<line class="st8" x1="346.65" y1="429.27" x2="478.33" y2="429.27"/>
	<line class="st8" x1="346.65" y1="563.87" x2="496.33" y2="563.87"/>
	<line class="st8" x1="496.33" y1="546.27" x2="346.65" y2="546.27"/>
	<line class="st8" x1="364.65" y1="522.91" x2="460.33" y2="522.91"/>
	<line class="st8" x1="478.33" y1="537.27" x2="346.65" y2="537.27"/>
	<line class="st8" x1="514.33" y1="581.87" x2="346.65" y2="581.87"/>
	<line class="st8" x1="478.33" y1="645.27" x2="346.65" y2="645.27"/>
	<line class="st8" x1="346.65" y1="593.71" x2="514.33" y2="593.71"/>
	<line class="st8" x1="328.65" y1="805.48" x2="514.33" y2="805.48"/>
	<line class="st8" x1="496.33" y1="743.87" x2="328.65" y2="743.87"/>
	<line class="st8" x1="514.33" y1="663.73" x2="328.65" y2="663.73"/>
	<line class="st8" x1="939.34" y1="117.91" x2="939.34" y2="805.48"/>
	<line class="st8" x1="730.33" y1="977.24" x2="730.33" y2="405.91"/>
	<path class="st8" d="M1022.39,277.4c-27.6-4.34-55.12-6.49-83.06-6.49"/>
	<path class="st8" d="M1019.6,295.18c-26.67-4.19-53.26-6.27-80.26-6.27"/>
	<path class="st8" d="M1001.42,410.76c-20.63-3.24-41.2-4.85-62.08-4.85"/>
	<path class="st8" d="M983.24,526.34c-14.59-2.29-29.13-3.43-43.9-3.43"/>
	<path class="st8" d="M964.23,647.21c-8.27-1.3-16.52-1.95-24.89-1.95"/>
	<path class="st8" d="M948.91,744.62c-3.18-0.5-6.35-0.75-9.57-0.75"/>
	<line class="st8" x1="676.33" y1="805.48" x2="939.34" y2="805.48"/>
	<line class="st8" x1="730.33" y1="117.91" x2="939.34" y2="117.91"/>
	<line class="st8" x1="712.33" y1="270.91" x2="939.34" y2="270.91"/>
	<line class="st8" x1="694.33" y1="288.91" x2="939.34" y2="288.91"/>
	<line class="st8" x1="730.33" y1="405.91" x2="939.34" y2="405.91"/>
	<line class="st8" x1="712.33" y1="522.91" x2="939.34" y2="522.91"/>
	<line class="st8" x1="694.33" y1="645.27" x2="939.34" y2="645.27"/>
	<line class="st8" x1="676.33" y1="743.87" x2="939.34" y2="743.87"/>
	<line class="st8" x1="712.33" y1="995.24" x2="712.33" y2="522.91"/>
	<line class="st8" x1="694.33" y1="1013.24" x2="694.33" y2="645.27"/>
	<line class="st8" x1="656.08" y1="1031.24" x2="656.08" y2="805.48"/>
	<line class="st8" x1="514.33" y1="805.48" x2="514.33" y2="1031.24"/>
	<line class="st8" x1="496.33" y1="1031.24" x2="496.33" y2="743.87"/>
	<line class="st8" x1="478.33" y1="1013.24" x2="478.33" y2="645.27"/>
	<line class="st8" x1="1228.86" y1="155" x2="1046.16" y2="126.26"/>
	<line class="st8" x1="1022.39" y1="277.4" x2="1204.85" y2="306.34"/>
	<line class="st8" x1="1019.6" y1="295.18" x2="1237.63" y2="329.52"/>
	<line class="st8" x1="1001.42" y1="410.76" x2="1183.74" y2="439.44"/>
	<line class="st8" x1="983.24" y1="526.34" x2="1432.08" y2="597.29"/>
	<line class="st8" x1="964.23" y1="647.21" x2="1199.86" y2="682.53"/>
	<line class="st8" x1="948.91" y1="744.62" x2="1184.1" y2="781.92"/>
	<line class="st8" x1="939.34" y1="805.48" x2="1174.49" y2="842.53"/>
	<line class="st8" x1="939.34" y1="805.48" x2="1046.16" y2="126.26"/>
	<line class="st8" x1="1198.72" y1="574.81" x2="981" y2="540.57"/>
	<line class="st8" x1="1215.64" y1="468.14" x2="997.78" y2="433.88"/>
	<line class="st8" x1="1212.33" y1="603.91" x2="976.86" y2="566.87"/>
	<path class="st8" d="M997.78,433.88c-19.42-3.05-38.79-4.57-58.44-4.57"/>
	<path class="st8" d="M981,540.57c-13.84-2.18-27.65-3.26-41.66-3.26"/>
	<path class="st8" d="M976.86,566.87c-12.47-1.96-24.9-2.93-37.53-2.93"/>
	<line class="st8" x1="939.34" y1="429.31" x2="694.33" y2="429.27"/>
	<line class="st8" x1="939.34" y1="537.31" x2="694.33" y2="537.27"/>
	<line class="st8" x1="939.34" y1="563.94" x2="676.33" y2="563.87"/>
	<line class="st8" x1="460.33" y1="995.24" x2="460.33" y2="522.91"/>
	<line class="st8" x1="442.33" y1="977.24" x2="442.33" y2="405.91"/>
	<line class="st8" x1="730.33" y1="977.24" x2="1320.43" y2="977.24"/>
	<line class="st8" x1="1320.43" y1="995.24" x2="712.33" y2="995.24"/>
	<line class="st8" x1="694.33" y1="1013.24" x2="1189.07" y2="1013.24"/>
	<line class="st8" x1="1608.43" y1="1389.71" x2="1608.43" y2="1265.24"/>
	<line class="st8" x1="1320.43" y1="1265.24" x2="1320.43" y2="1389.71"/>
	<line class="st8" x1="1455.43" y1="1265.24" x2="1455.43" y2="1407.71"/>
	<line class="st8" x1="1203.43" y1="1247.24" x2="1203.43" y2="1659.71"/>
	<line class="st8" x1="1297.07" y1="1247.24" x2="1297.07" y2="1425.71"/>
	<line class="st8" x1="1081.07" y1="1229.24" x2="1081.07" y2="1641.71"/>
	<line class="st8" x1="1162.47" y1="1229.24" x2="1162.47" y2="1443.71"/>
	<line class="st8" x1="1189.07" y1="1031.24" x2="1189.07" y2="1425.71"/>
	<line class="st8" x1="982.47" y1="1211.24" x2="982.47" y2="1443.71"/>
	<line class="st8" x1="1062.61" y1="1211.24" x2="1062.61" y2="1443.71"/>
	<line class="st8" x1="1144.47" y1="1229.24" x2="1144.47" y2="1443.71"/>
	<line class="st8" x1="1180.07" y1="1443.71" x2="1180.07" y2="1031.24"/>
	<line class="st8" x1="920.86" y1="1031.24" x2="676.33" y2="1031.24"/>
	<line class="st8" x1="656.08" y1="1172.99" x2="920.86" y2="1172.99"/>
	<line class="st8" x1="676.33" y1="1193.24" x2="920.86" y2="1193.24"/>
	<line class="st8" x1="676.33" y1="1211.24" x2="982.47" y2="1211.24"/>
	<line class="st8" x1="694.33" y1="1229.24" x2="1081.07" y2="1229.24"/>
	<line class="st8" x1="712.33" y1="1247.24" x2="1203.43" y2="1247.24"/>
	<line class="st8" x1="730.33" y1="1265.24" x2="1320.43" y2="1265.24"/>
	<line class="st8" x1="442.33" y1="117.91" x2="382.65" y2="117.91"/>
	<path class="st8" d="M1046.16,126.26c-35.5-5.58-70.89-8.35-106.83-8.35"/>
	<line class="st8" x1="676.33" y1="1031.24" x2="676.33" y2="805.48"/>
	<line class="st8" x1="920.86" y1="1193.24" x2="920.86" y2="1585.46"/>
</g>
</svg>
