<?xml version="1.0" encoding="utf-8"?>
<!-- Generator: Adobe Illustrator 24.2.1, SVG Export Plug-In . SVG Version: 6.00 Build 0)  -->
<svg version="1.1" xmlns="http://www.w3.org/2000/svg" xmlns:xlink="http://www.w3.org/1999/xlink" x="0px" y="0px"
	 viewBox="0 0 1728 1875.91" style="enable-background:new 0 0 1728 1875.91;" xml:space="preserve">
<style type="text/css">
	.st0{fill:none;stroke:#000000;stroke-width:0.25;stroke-linecap:round;stroke-linejoin:round;}
	.st1{fill:none;stroke:#000000;stroke-width:0.25;stroke-linecap:round;stroke-linejoin:round;stroke-dasharray:7.2,3.6;}
	.st2{fill:none;stroke:#000000;stroke-linecap:round;stroke-linejoin:round;}
	.st3{fill:none;stroke:#000000;stroke-width:0.5;stroke-linecap:round;stroke-linejoin:round;}
	.st4{opacity:0.25;}
	.st5{stroke:#000000;stroke-linecap:round;stroke-linejoin:round;}
	.st6{fill:none;stroke:#000000;stroke-linecap:round;stroke-linejoin:round;stroke-dasharray:7.2,1.44;}
	.st7{fill:none;stroke:#000000;stroke-width:2;stroke-linecap:round;stroke-linejoin:round;}
	.st8{opacity:0.5;}
	.st9{fill:none;stroke:#000000;stroke-width:3;stroke-linecap:round;stroke-linejoin:round;}
	.st10{fill:none;stroke:#000000;stroke-width:0.5;stroke-linecap:round;stroke-linejoin:round;stroke-dasharray:7.2,3.6;}
</style>
<g id="OrthographicView">
	<g id="Projection_1_">
		<path class="st0" d="M1142.56,1282.69c54.01-54.01,84.35-127.26,84.35-203.65"/>
		<line class="st0" x1="938.91" y1="1079.04" x2="1412.39" y2="1079.04"/>
		<line class="st0" x1="1317.89" y1="980.92" x2="1317.89" y2="1079.04"/>
		<path class="st0" d="M1197.34,1337.47c68.54-68.54,107.05-161.5,107.05-258.43"/>
		<path class="st0" d="M1206.89,1347.02c71.07-71.07,111-167.47,111-267.98"/>
		<path class="st0" d="M1019.83,1159.96c21.46-21.46,33.52-50.57,33.52-80.92"/>
		<line class="st0" x1="1206.89" y1="1347.02" x2="837.57" y2="1716.34"/>
		<path class="st0" d="M1184.46,1324.59c65.12-65.12,101.71-153.45,101.71-245.55"/>
		<line class="st0" x1="837.57" y1="1697.25" x2="1197.34" y2="1337.47"/>
		<line class="st0" x1="1273.71" y1="1413.84" x2="913.93" y2="1773.62"/>
		<path class="st0" d="M1198.69,1338.82c68.9-68.9,107.61-162.34,107.61-259.78"/>
		<line class="st0" x1="1216.44" y1="1356.56" x2="856.66" y2="1716.34"/>
		<line class="st0" x1="1198.69" y1="1338.82" x2="732.74" y2="1804.77"/>
		<path class="st0" d="M1216.44,1356.56c73.6-73.6,114.95-173.43,114.95-277.52"/>
		<path class="st0" d="M1273.71,1413.84c88.79-88.79,138.68-209.23,138.68-334.8"/>
		<line class="st0" x1="1053.35" y1="1048.42" x2="1053.35" y2="1079.04"/>
		<line class="st0" x1="1226.91" y1="1066.42" x2="1226.91" y2="1079.04"/>
		<line class="st0" x1="1306.3" y1="1030.42" x2="1306.3" y2="1079.04"/>
		<line class="st0" x1="1331.39" y1="1012.42" x2="1331.39" y2="1079.04"/>
		<line class="st0" x1="1286.17" y1="1048.42" x2="1286.17" y2="1079.04"/>
		<line class="st0" x1="1184.46" y1="1324.59" x2="698.83" y2="1810.21"/>
		<line class="st0" x1="1142.56" y1="1282.69" x2="824.33" y2="1600.91"/>
		<line class="st0" x1="1019.83" y1="1159.96" x2="466.02" y2="1713.77"/>
		<line class="st0" x1="938.91" y1="1079.04" x2="620.69" y2="1397.27"/>
		<line class="st0" x1="951.64" y1="1091.77" x2="620.69" y2="1422.72"/>
		<line class="st0" x1="968.27" y1="1108.4" x2="572.19" y2="1504.47"/>
		<line class="st0" x1="999.14" y1="1139.26" x2="615.85" y2="1522.55"/>
		<line class="st0" x1="1412.39" y1="994.42" x2="1412.39" y2="1079.04"/>
		<line class="st0" x1="938.91" y1="1079.04" x2="1273.71" y2="1413.84"/>
		<line class="st0" x1="1015.77" y1="1155.89" x2="625.59" y2="1546.07"/>
		<line class="st0" x1="938.91" y1="1066.42" x2="938.91" y2="1079.04"/>
		<line class="st0" x1="956.91" y1="1048.42" x2="956.91" y2="1079.04"/>
		<line class="st0" x1="980.43" y1="1030.42" x2="980.43" y2="1079.04"/>
		<line class="st0" x1="1024.08" y1="1030.42" x2="1024.08" y2="1079.04"/>
		<line class="st0" x1="1047.6" y1="1012.42" x2="1047.6" y2="1079.04"/>
		<line class="st0" x1="1063.09" y1="1030.42" x2="1063.09" y2="1079.04"/>
		<line class="st0" x1="1106.74" y1="1030.42" x2="1106.74" y2="1079.04"/>
		<line class="st0" x1="1026.72" y1="1166.85" x2="489.53" y2="1704.03"/>
		<line class="st0" x1="1116.48" y1="1012.42" x2="1116.48" y2="1079.04"/>
		<line class="st0" x1="1151.39" y1="1012.42" x2="1151.39" y2="1079.04"/>
		<line class="st0" x1="1206.52" y1="814.42" x2="1206.52" y2="1079.04"/>
		<line class="st0" x1="1291.1" y1="1012.42" x2="1291.1" y2="1079.04"/>
		<line class="st0" x1="1262.65" y1="1030.42" x2="1262.65" y2="1079.04"/>
		<line class="st0" x1="1223.64" y1="1030.42" x2="1223.64" y2="1079.04"/>
		<line class="st0" x1="1222.21" y1="1012.42" x2="1222.21" y2="1079.04"/>
		<line class="st0" x1="1189.73" y1="1048.42" x2="1189.73" y2="1079.04"/>
		<line class="st0" x1="1179.99" y1="1030.42" x2="1179.99" y2="1079.04"/>
		<path class="st0" d="M951.64,1091.77c3.38-3.38,5.27-7.95,5.27-12.73"/>
		<line class="st0" x1="1057.58" y1="1197.71" x2="533.19" y2="1722.11"/>
		<path class="st0" d="M968.27,1108.4c7.79-7.79,12.16-18.35,12.16-29.36"/>
		<path class="st0" d="M999.14,1139.26c15.97-15.97,24.95-37.64,24.95-60.22"/>
		<path class="st0" d="M1015.77,1155.89c20.38-20.38,31.83-48.03,31.83-76.85"/>
		<path class="st0" d="M1026.72,1166.85c23.29-23.29,36.37-54.87,36.37-87.81"/>
		<path class="st0" d="M1089.16,1229.29c39.85-39.85,62.23-93.89,62.23-150.25"/>
		<path class="st0" d="M1057.58,1197.71c31.47-31.47,49.16-74.16,49.16-118.67"/>
		<path class="st0" d="M1064.47,1204.6c33.3-33.3,52.01-78.47,52.01-125.56"/>
		<line class="st0" x1="1064.47" y1="1204.6" x2="556.7" y2="1712.37"/>
		<path class="st0" d="M1109.38,1249.51c45.21-45.21,70.61-106.53,70.61-170.47"/>
		<path class="st0" d="M1116.27,1256.4c47.04-47.04,73.46-110.83,73.46-177.35"/>
		<path class="st0" d="M1128.14,1268.27c50.19-50.19,78.38-118.25,78.38-189.23"/>
		<path class="st0" d="M1139.24,1279.36c53.13-53.13,82.98-125.19,82.98-200.32"/>
		<path class="st0" d="M1140.24,1280.37c53.4-53.4,83.39-125.82,83.39-201.33"/>
		<path class="st0" d="M1167.83,1307.96c60.71-60.71,94.82-143.06,94.82-228.92"/>
		<path class="st0" d="M1187.94,1328.07c66.05-66.05,103.15-155.63,103.15-249.03"/>
		<path class="st0" d="M1080.44,1220.57c37.54-37.54,58.62-88.45,58.62-141.53"/>
		<path class="st0" d="M1069.69,1209.82c34.68-34.68,54.17-81.73,54.17-130.78"/>
		<line class="st0" x1="1089.16" y1="1229.29" x2="729.38" y2="1589.4"/>
		<line class="st0" x1="715.62" y1="1563.88" x2="1069.69" y2="1209.82"/>
		<line class="st0" x1="717.05" y1="1583.96" x2="1080.44" y2="1220.57"/>
		<line class="st0" x1="1139.06" y1="1079.04" x2="1139.06" y2="832.42"/>
		<line class="st0" x1="1123.86" y1="814.42" x2="1123.86" y2="1079.04"/>
		<line class="st0" x1="1109.38" y1="1249.51" x2="771.75" y2="1587.13"/>
		<line class="st0" x1="1187.94" y1="1328.07" x2="731.32" y2="1784.7"/>
		<line class="st0" x1="1116.27" y1="1256.4" x2="795.27" y2="1577.39"/>
		<line class="st0" x1="1167.83" y1="1307.96" x2="689.09" y2="1786.69"/>
		<line class="st0" x1="815.4" y1="1605.21" x2="1140.24" y2="1280.37"/>
		<line class="st0" x1="1139.24" y1="1279.36" x2="800.2" y2="1618.4"/>
		<line class="st0" x1="1128.14" y1="1268.27" x2="632.96" y2="1763.44"/>
		<line class="st0" x1="1304.39" y1="994.42" x2="1304.39" y2="1079.04"/>
	</g>
	<g id="Hidden_3_">
		<line class="st1" x1="1304.39" y1="886.42" x2="1304.39" y2="980.92"/>
		<line class="st1" x1="1304.39" y1="980.92" x2="1304.39" y2="994.42"/>
		<line class="st1" x1="1250.39" y1="994.42" x2="1304.39" y2="994.42"/>
		<line class="st1" x1="1169.39" y1="994.42" x2="1250.39" y2="994.42"/>
		<line class="st1" x1="1317.89" y1="980.92" x2="1331.39" y2="980.92"/>
		<line class="st1" x1="1304.39" y1="994.42" x2="1331.39" y2="994.42"/>
		<line class="st1" x1="632.96" y1="1763.44" x2="641.28" y2="1766.89"/>
		<line class="st1" x1="639.85" y1="1746.81" x2="632.96" y2="1763.44"/>
		<line class="st1" x1="648.17" y1="1750.26" x2="639.85" y2="1746.81"/>
		<line class="st1" x1="708.74" y1="1580.51" x2="717.05" y2="1583.96"/>
		<line class="st1" x1="648.17" y1="1750.26" x2="717.05" y2="1583.96"/>
		<line class="st1" x1="708.74" y1="1580.51" x2="639.85" y2="1746.81"/>
		<line class="st1" x1="1215.2" y1="1048.42" x2="1189.73" y2="1048.42"/>
		<line class="st1" x1="1226.91" y1="984.28" x2="1169.39" y2="922.02"/>
		<line class="st1" x1="1179.45" y1="832.42" x2="1172.59" y2="832.42"/>
		<line class="st1" x1="973.54" y1="814.42" x2="1173.1" y2="1030.42"/>
		<line class="st1" x1="723.94" y1="1567.33" x2="715.62" y2="1563.88"/>
		<line class="st1" x1="715.62" y1="1563.88" x2="708.74" y2="1580.51"/>
		<line class="st1" x1="724.43" y1="1801.33" x2="732.74" y2="1804.77"/>
		<line class="st1" x1="815.4" y1="1605.21" x2="807.09" y2="1601.77"/>
		<line class="st1" x1="724.43" y1="1801.33" x2="705.72" y2="1793.58"/>
		<line class="st1" x1="705.72" y1="1793.58" x2="704.13" y2="1792.92"/>
		<line class="st1" x1="704.13" y1="1792.92" x2="660.68" y2="1774.92"/>
		<line class="st1" x1="1053.35" y1="1048.42" x2="1004.6" y2="1048.42"/>
		<line class="st1" x1="653.36" y1="1771.89" x2="641.28" y2="1766.89"/>
		<line class="st1" x1="648.17" y1="1750.26" x2="670.87" y2="1759.66"/>
		<line class="st1" x1="1053.35" y1="796.42" x2="1004.6" y2="796.42"/>
		<line class="st1" x1="690.61" y1="1767.84" x2="710.86" y2="1776.23"/>
		<line class="st1" x1="710.86" y1="1776.23" x2="712.61" y2="1776.95"/>
		<line class="st1" x1="712.61" y1="1776.95" x2="731.32" y2="1784.7"/>
		<line class="st1" x1="723.94" y1="1567.33" x2="807.09" y2="1601.77"/>
		<line class="st1" x1="800.2" y1="1618.4" x2="717.05" y2="1583.96"/>
		<line class="st1" x1="731.32" y1="1784.7" x2="788.05" y2="1647.74"/>
		<line class="st1" x1="973.54" y1="814.42" x2="956.91" y2="796.42"/>
		<line class="st1" x1="795.5" y1="1629.74" x2="800.2" y2="1618.4"/>
		<line class="st1" x1="639.85" y1="1746.81" x2="556.7" y2="1712.37"/>
		<line class="st1" x1="625.59" y1="1546.07" x2="556.7" y2="1712.37"/>
		<line class="st1" x1="708.74" y1="1580.51" x2="625.59" y2="1546.07"/>
		<line class="st1" x1="815.4" y1="1605.21" x2="812.13" y2="1613.11"/>
		<line class="st1" x1="1189.73" y1="1048.42" x2="1173.1" y2="1030.42"/>
		<line class="st1" x1="794.94" y1="1654.62" x2="732.74" y2="1804.77"/>
		<line class="st1" x1="632.96" y1="1763.44" x2="541.81" y2="1725.69"/>
		<line class="st1" x1="1179.45" y1="832.42" x2="1226.91" y2="832.42"/>
		<line class="st1" x1="615.85" y1="1522.55" x2="534.67" y2="1718.54"/>
		<line class="st1" x1="1169.39" y1="994.42" x2="1169.39" y2="832.42"/>
		<line class="st1" x1="1151.39" y1="832.42" x2="1151.39" y2="1012.42"/>
		<line class="st1" x1="614.83" y1="1729.07" x2="602.1" y2="1716.34"/>
		<line class="st1" x1="614.83" y1="1703.62" x2="602.1" y2="1716.34"/>
		<line class="st1" x1="780.29" y1="1792.71" x2="856.66" y2="1716.34"/>
		<line class="st1" x1="742.11" y1="1601.79" x2="782.78" y2="1642.47"/>
		<line class="st1" x1="1252.91" y1="1012.42" x2="1197.75" y2="1012.42"/>
		<line class="st1" x1="668.23" y1="1757.02" x2="627.55" y2="1716.34"/>
		<line class="st1" x1="742.11" y1="1601.79" x2="627.55" y2="1716.34"/>
		<line class="st1" x1="729.38" y1="1589.06" x2="742.11" y2="1601.79"/>
		<line class="st1" x1="1024.08" y1="1030.42" x2="1024.08" y2="814.42"/>
		<line class="st1" x1="614.83" y1="1729.07" x2="655.5" y2="1769.75"/>
		<line class="st1" x1="1063.09" y1="814.42" x2="1106.74" y2="814.42"/>
		<line class="st1" x1="980.43" y1="814.42" x2="1063.09" y2="814.42"/>
		<line class="st1" x1="1063.09" y1="814.42" x2="1063.09" y2="1030.42"/>
		<line class="st1" x1="1063.09" y1="1030.42" x2="980.43" y2="1030.42"/>
		<line class="st1" x1="980.43" y1="1030.42" x2="980.43" y2="814.42"/>
		<line class="st1" x1="1179.99" y1="1030.42" x2="980.43" y2="814.42"/>
		<line class="st1" x1="1106.74" y1="1030.42" x2="1063.09" y2="1030.42"/>
		<line class="st1" x1="1063.09" y1="814.42" x2="1262.65" y2="1030.42"/>
		<line class="st1" x1="1206.52" y1="814.42" x2="1123.86" y2="814.42"/>
		<line class="st1" x1="1106.74" y1="854.21" x2="1106.74" y2="1030.42"/>
		<line class="st1" x1="1269.54" y1="1030.42" x2="1106.74" y2="1030.42"/>
		<line class="st1" x1="1047.6" y1="1012.42" x2="1047.6" y2="832.42"/>
		<line class="st1" x1="1047.6" y1="832.42" x2="1116.48" y2="832.42"/>
		<line class="st1" x1="956.91" y1="796.42" x2="956.91" y2="1048.42"/>
		<line class="st1" x1="1226.91" y1="796.42" x2="1053.35" y2="796.42"/>
		<line class="st1" x1="1004.6" y1="796.42" x2="956.91" y2="796.42"/>
		<line class="st1" x1="1226.91" y1="1048.42" x2="1215.2" y2="1048.42"/>
		<line class="st1" x1="729.38" y1="1589.06" x2="614.83" y2="1703.62"/>
		<line class="st1" x1="1172.59" y1="832.42" x2="1116.48" y2="832.42"/>
		<line class="st1" x1="693.94" y1="1808.18" x2="698.83" y2="1810.21"/>
		<line class="st1" x1="795.27" y1="1577.39" x2="778.64" y2="1570.5"/>
		<line class="st1" x1="1116.48" y1="832.42" x2="1116.48" y2="1012.42"/>
		<line class="st1" x1="579.08" y1="1487.84" x2="562.45" y2="1480.96"/>
		<line class="st1" x1="1151.39" y1="1012.42" x2="1116.48" y2="1012.42"/>
		<line class="st1" x1="484.73" y1="1668.6" x2="562.45" y2="1480.96"/>
		<line class="st1" x1="579.08" y1="1487.84" x2="778.64" y2="1570.5"/>
		<line class="st1" x1="1116.48" y1="1012.42" x2="1047.6" y2="1012.42"/>
		<line class="st1" x1="639.58" y1="1785.67" x2="575.07" y2="1758.95"/>
		<line class="st1" x1="1222.21" y1="1012.42" x2="1139.06" y2="832.42"/>
		<line class="st1" x1="795.27" y1="1577.39" x2="698.83" y2="1810.21"/>
		<line class="st1" x1="572.19" y1="1504.47" x2="498.5" y2="1682.38"/>
		<line class="st1" x1="1132.17" y1="832.42" x2="1215.32" y2="1012.42"/>
		<line class="st1" x1="615.85" y1="1522.55" x2="572.19" y2="1504.47"/>
		<line class="st1" x1="1207.95" y1="832.42" x2="1291.1" y2="1012.42"/>
		<line class="st1" x1="689.09" y1="1786.69" x2="771.75" y2="1587.13"/>
		<line class="st1" x1="1297.98" y1="1012.42" x2="1214.83" y2="832.42"/>
		<line class="st1" x1="1223.64" y1="1030.42" x2="1215.32" y2="1012.42"/>
		<line class="st1" x1="1132.17" y1="832.42" x2="1123.86" y2="814.42"/>
		<line class="st1" x1="1206.52" y1="814.42" x2="1214.83" y2="832.42"/>
		<line class="st1" x1="1317.89" y1="886.42" x2="1317.89" y2="980.92"/>
		<line class="st1" x1="620.69" y1="1422.72" x2="442.5" y2="1600.91"/>
		<line class="st1" x1="811.6" y1="1613.64" x2="620.69" y2="1422.72"/>
		<line class="st1" x1="633.41" y1="1791.83" x2="442.5" y2="1600.91"/>
		<line class="st1" x1="715.62" y1="1563.88" x2="615.85" y2="1522.55"/>
		<line class="st1" x1="1004.6" y1="1048.42" x2="956.91" y2="1048.42"/>
		<line class="st1" x1="1151.39" y1="1012.42" x2="1197.75" y2="1012.42"/>
	</g>
	<g id="VisibleHeavy_3_">
		<line class="st2" x1="811.6" y1="1613.64" x2="633.41" y2="1791.83"/>
		<line class="st2" x1="633.41" y1="1791.83" x2="620.69" y2="1804.56"/>
		<line class="st2" x1="824.33" y1="1600.91" x2="811.6" y2="1613.64"/>
		<line class="st2" x1="1297.98" y1="1012.42" x2="1306.3" y2="1030.42"/>
		<line class="st2" x1="824.33" y1="1600.91" x2="620.69" y2="1397.27"/>
		<line class="st2" x1="620.69" y1="1397.27" x2="417.04" y2="1600.91"/>
		<line class="st2" x1="489.53" y1="1704.03" x2="533.19" y2="1722.11"/>
		<line class="st2" x1="498.5" y1="1682.38" x2="489.53" y2="1704.03"/>
		<line class="st2" x1="575.07" y1="1758.95" x2="482.65" y2="1720.66"/>
		<line class="st2" x1="682.2" y1="1803.32" x2="639.58" y2="1785.67"/>
		<line class="st2" x1="466.02" y1="1713.77" x2="484.73" y2="1668.6"/>
		<line class="st2" x1="466.02" y1="1713.77" x2="482.65" y2="1720.66"/>
		<line class="st2" x1="682.2" y1="1803.32" x2="693.94" y2="1808.18"/>
		<line class="st2" x1="1226.91" y1="1066.42" x2="938.91" y2="1066.42"/>
		<line class="st2" x1="1226.91" y1="1048.42" x2="1226.91" y2="1066.42"/>
		<line class="st2" x1="1306.3" y1="1030.42" x2="1269.54" y2="1030.42"/>
		<line class="st2" x1="1226.91" y1="778.42" x2="1226.91" y2="796.42"/>
		<line class="st2" x1="1106.74" y1="814.42" x2="1106.74" y2="854.21"/>
		<line class="st2" x1="1226.91" y1="778.42" x2="938.91" y2="778.42"/>
		<line class="st2" x1="938.91" y1="778.42" x2="938.91" y2="1066.42"/>
		<line class="st2" x1="1123.86" y1="814.42" x2="1106.74" y2="814.42"/>
		<line class="st2" x1="655.5" y1="1769.75" x2="729.38" y2="1843.62"/>
		<line class="st2" x1="742.11" y1="1830.89" x2="729.38" y2="1843.62"/>
		<line class="st2" x1="1331.39" y1="1012.42" x2="1252.91" y2="1012.42"/>
		<line class="st2" x1="782.78" y1="1642.47" x2="799.38" y2="1659.07"/>
		<line class="st2" x1="1226.91" y1="796.42" x2="1226.91" y2="1048.42"/>
		<line class="st2" x1="1331.39" y1="994.42" x2="1331.39" y2="1012.42"/>
		<line class="st2" x1="534.67" y1="1718.54" x2="533.19" y2="1722.11"/>
		<line class="st2" x1="1331.39" y1="832.42" x2="1331.39" y2="994.42"/>
		<line class="st2" x1="541.81" y1="1725.69" x2="533.19" y2="1722.11"/>
		<line class="st2" x1="1269.54" y1="1030.42" x2="1286.17" y2="1048.42"/>
		<line class="st2" x1="812.13" y1="1613.11" x2="794.94" y2="1654.62"/>
		<line class="st2" x1="1053.35" y1="796.42" x2="1069.98" y2="814.42"/>
		<line class="st2" x1="788.05" y1="1647.74" x2="795.5" y2="1629.74"/>
		<line class="st2" x1="670.87" y1="1759.66" x2="690.61" y2="1767.84"/>
		<line class="st2" x1="1053.35" y1="796.42" x2="1053.35" y2="1048.42"/>
		<line class="st2" x1="660.68" y1="1774.92" x2="653.36" y2="1771.89"/>
		<line class="st2" x1="684.83" y1="1773.62" x2="668.23" y2="1757.02"/>
		<line class="st2" x1="1269.54" y1="1030.42" x2="1226.91" y2="984.28"/>
		<line class="st2" x1="799.38" y1="1811.8" x2="761.2" y2="1773.62"/>
		<line class="st2" x1="828.02" y1="1706.8" x2="761.2" y2="1773.62"/>
		<line class="st2" x1="1169.39" y1="922.02" x2="1069.98" y2="814.42"/>
		<line class="st2" x1="1286.17" y1="1048.42" x2="1226.91" y2="1048.42"/>
		<line class="st2" x1="913.93" y1="1773.62" x2="847.11" y2="1706.8"/>
		<line class="st2" x1="1189.73" y1="1048.42" x2="1053.35" y2="1048.42"/>
		<line class="st2" x1="684.83" y1="1773.62" x2="742.11" y2="1830.89"/>
		<line class="st2" x1="799.38" y1="1659.07" x2="837.57" y2="1697.25"/>
		<line class="st2" x1="913.93" y1="1773.62" x2="904.39" y2="1783.17"/>
		<line class="st2" x1="904.39" y1="1783.17" x2="837.57" y2="1849.99"/>
		<line class="st2" x1="799.38" y1="1811.8" x2="837.57" y2="1849.99"/>
		<line class="st2" x1="770.74" y1="1783.17" x2="837.57" y2="1716.34"/>
		<line class="st2" x1="904.39" y1="1783.17" x2="837.57" y2="1716.34"/>
		<line class="st2" x1="828.02" y1="1706.8" x2="837.57" y2="1697.25"/>
		<line class="st2" x1="1331.39" y1="994.42" x2="1358.39" y2="994.42"/>
		<line class="st2" x1="847.11" y1="1706.8" x2="837.57" y2="1697.25"/>
		<line class="st2" x1="1331.39" y1="980.92" x2="1358.39" y2="980.92"/>
		<line class="st2" x1="1226.91" y1="832.42" x2="1250.39" y2="832.42"/>
		<line class="st2" x1="1304.39" y1="886.42" x2="1358.39" y2="886.42"/>
		<line class="st2" x1="1250.39" y1="832.42" x2="1331.39" y2="832.42"/>
		<line class="st2" x1="1358.39" y1="994.42" x2="1412.39" y2="994.42"/>
		<line class="st2" x1="1412.39" y1="980.92" x2="1412.39" y2="886.42"/>
		<line class="st2" x1="1412.39" y1="886.42" x2="1358.39" y2="886.42"/>
		<line class="st2" x1="1412.39" y1="980.92" x2="1412.39" y2="994.42"/>
		<line class="st2" x1="1358.39" y1="980.92" x2="1412.39" y2="980.92"/>
		<line class="st2" x1="620.69" y1="1804.56" x2="417.04" y2="1600.91"/>
		<line class="st2" x1="742.11" y1="1830.89" x2="780.29" y2="1792.71"/>
	</g>
</g>
<g id="PlanOblique-OblCut">
	<g id="Hidden">
		<line class="st1" x1="1298.08" y1="1485.86" x2="1323.72" y2="1496.48"/>
		<line class="st1" x1="1349.35" y1="1434.59" x2="1330.61" y2="1479.85"/>
		<line class="st1" x1="1342.55" y1="1488.51" x2="1361.38" y2="1443.05"/>
		<line class="st1" x1="1338.12" y1="1718.44" x2="1379.86" y2="1735.73"/>
		<line class="st1" x1="1337.38" y1="1500.99" x2="1313.38" y2="1491.05"/>
		<line class="st1" x1="1346.41" y1="1684.4" x2="1422.07" y2="1715.73"/>
		<line class="st1" x1="1311.86" y1="1660.9" x2="1324.16" y2="1679.3"/>
		<line class="st1" x1="278.69" y1="357.05" x2="100.5" y2="535.24"/>
		<line class="st1" x1="1399.74" y1="1752.78" x2="1451.88" y2="1626.91"/>
		<line class="st1" x1="1380.69" y1="1733.73" x2="1421.93" y2="1634.18"/>
		<line class="st1" x1="1490.95" y1="1549.44" x2="1484.18" y2="1546.63"/>
		<line class="st1" x1="285.57" y1="433.16" x2="285.57" y2="595.16"/>
		<line class="st1" x1="1500.21" y1="1578.58" x2="1502.35" y2="1580.71"/>
		<line class="st1" x1="1322.02" y1="1756.77" x2="1324.16" y2="1758.9"/>
		<line class="st1" x1="1470.33" y1="1296.7" x2="1493.35" y2="1319.71"/>
		<line class="st1" x1="1292.14" y1="1474.89" x2="1324.16" y2="1506.9"/>
		<line class="st1" x1="1502.35" y1="1526.78" x2="1502.35" y2="1580.71"/>
		<line class="st1" x1="1515.07" y1="1514.05" x2="1515.07" y2="1585.98"/>
		<line class="st1" x1="199.85" y1="641.99" x2="199.85" y2="482.58"/>
		<line class="st1" x1="359.89" y1="333.38" x2="378.98" y2="314.29"/>
		<polyline class="st1" points="1356.85,1726.2 1366.83,1716.23 1402.87,1680.19 1448.86,1634.2 		"/>
		<polyline class="st1" points="1343.08,1757.98 1363.25,1737.81 1369.58,1731.48 1374.04,1727.02 1390.14,1710.92 1436.13,1664.93 
					"/>
		<line class="st1" x1="1436.13" y1="1664.93" x2="1515.07" y2="1585.98"/>
		<line class="st1" x1="378.98" y1="314.29" x2="387.39" y2="305.88"/>
		<line class="st1" x1="1448.86" y1="1634.2" x2="1502.35" y2="1580.71"/>
		<line class="st1" x1="1330.35" y1="1752.71" x2="1356.04" y2="1727.02"/>
		<polyline class="st1" points="167.06,357.26 169.24,351.99 230.22,204.78 		"/>
		<line class="st1" x1="1501.19" y1="1541.43" x2="1506.16" y2="1554.25"/>
		<line class="st1" x1="1503.12" y1="1552.99" x2="1506.16" y2="1554.25"/>
		<polyline class="st1" points="1315.69,1488.73 1318.74,1491.78 1320.7,1493.75 1324.84,1497.88 1332.06,1505.11 		"/>
		<line class="st1" x1="1332.06" y1="1505.11" x2="1334.18" y2="1507.22"/>
		<polyline class="st1" points="1474.32,1554.8 1483.87,1564.35 1490.14,1570.62 		"/>
		<polyline class="st1" points="1487.77,1541.36 1490.14,1547.36 1490.95,1549.44 		"/>
		<polyline class="st1" points="1328.42,1476.01 1330.66,1478.25 1333.78,1481.36 1336.31,1483.9 1341.64,1489.22 		"/>
		<line class="st1" x1="1338.88" y1="1691.93" x2="1351.43" y2="1704.47"/>
		<line class="st1" x1="1471.04" y1="1704.26" x2="1547.41" y2="1627.9"/>
		<line class="st1" x1="1480.04" y1="1713.26" x2="1547.41" y2="1645.9"/>
		<line class="st1" x1="1351.61" y1="1661.2" x2="1432.86" y2="1742.45"/>
		<line class="st1" x1="482.33" y1="553.24" x2="278.69" y2="349.6"/>
		<line class="st1" x1="1528.32" y1="1608.8" x2="1604.69" y2="1685.17"/>
		<line class="st1" x1="1466.16" y1="1564.65" x2="1547.41" y2="1645.9"/>
		<line class="st1" x1="387.39" y1="305.88" x2="387.39" y2="485.88"/>
		<polyline class="st1" points="148.01,338.21 150.2,332.94 220.48,163.26 		"/>
		<polyline class="st1" points="202.28,680.48 137.47,615.67 124.05,602.25 		"/>
		<line class="st1" x1="278.69" y1="105.05" x2="437.59" y2="263.96"/>
		<line class="st1" x1="278.69" y1="105.05" x2="100.5" y2="283.24"/>
		<line class="st1" x1="278.69" y1="105.05" x2="278.69" y2="357.05"/>
		<polyline class="st1" points="260.11,433.16 273.86,419.41 283.32,409.95 333.38,359.89 359.89,333.38 		"/>
		<polyline class="st1" points="260.11,433.16 260.11,440.79 260.11,448.25 260.11,468.37 260.11,529.82 260.11,613.16 		"/>
		<line class="st1" x1="435.17" y1="555.46" x2="453.3" y2="511.69"/>
		<line class="st1" x1="1528.32" y1="1608.8" x2="1451.95" y2="1685.17"/>
		<polyline class="st1" points="233.07,693.23 276.46,711.21 278.69,712.13 288.45,716.17 		"/>
		<polyline class="st1" points="199.85,482.58 260.11,572.78 275.73,596.14 		"/>
		<line class="st1" x1="461.69" y1="491.25" x2="468.45" y2="508.69"/>
		<polyline class="st1" points="316.77,401.96 315.38,403.34 285.57,433.16 		"/>
		<line class="st1" x1="387.39" y1="305.88" x2="391.53" y2="310.02"/>
		<line class="st1" x1="297.48" y1="583.25" x2="285.57" y2="595.16"/>
		<line class="st1" x1="311.46" y1="569.27" x2="297.48" y2="583.25"/>
		<line class="st1" x1="387.39" y1="485.88" x2="433.42" y2="531.91"/>
		<line class="st1" x1="285.57" y1="595.16" x2="318.87" y2="628.46"/>
		<line class="st1" x1="1528.32" y1="1500.8" x2="1528.32" y2="1519.9"/>
		<polyline class="st1" points="260.11,613.16 285.43,638.47 306.14,659.19 		"/>
		<line class="st1" x1="285.57" y1="433.16" x2="295.68" y2="443.27"/>
		<polyline class="st1" points="260.11,433.16 271.07,444.11 279.57,452.61 282.95,455.99 		"/>
		<line class="st1" x1="273.86" y1="438.85" x2="470.38" y2="520.25"/>
		<polyline class="st1" points="451.44,513.89 375.07,482.25 366.75,478.81 310,455.3 		"/>
		<line class="st1" x1="214.72" y1="610.67" x2="313.67" y2="651.66"/>
		<line class="st1" x1="1323.9" y1="1496.94" x2="1326.75" y2="1504.3"/>
		<line class="st1" x1="280.64" y1="458.31" x2="213.17" y2="430.36"/>
		<line class="st1" x1="1374.17" y1="1727.21" x2="1379.86" y2="1735.73"/>
		<line class="st1" x1="1351.34" y1="1693.04" x2="1374.17" y2="1727.21"/>
		<line class="st1" x1="191.2" y1="422.41" x2="265.34" y2="453.12"/>
		<polyline class="st1" points="1506.16,1554.25 1501.94,1564.43 1491.4,1589.88 1450.37,1688.94 1437.64,1719.67 1432.86,1731.21 
					"/>
		<polyline class="st1" points="1490.95,1549.44 1484.51,1564.99 1479.24,1577.72 1432.86,1689.69 		"/>
		<line class="st1" x1="1420.13" y1="1752.41" x2="1423.5" y2="1753.81"/>
		<line class="st1" x1="1384.69" y1="1737.73" x2="1420.13" y2="1752.41"/>
		<line class="st1" x1="1429.57" y1="1739.16" x2="1423.5" y2="1753.81"/>
		<line class="st1" x1="1432.86" y1="1731.21" x2="1429.57" y2="1739.16"/>
		<line class="st1" x1="1432.86" y1="1689.69" x2="1422.07" y2="1715.73"/>
		<line class="st1" x1="366.75" y1="280.81" x2="316.61" y2="401.85"/>
		<line class="st1" x1="328.64" y1="410.31" x2="373.52" y2="301.95"/>
		<line class="st1" x1="147.56" y1="620.33" x2="305.06" y2="685.57"/>
		<polyline class="st1" points="1350.3,1565.02 1356.84,1581.91 1358.93,1587.28 1410.37,1719.96 1420.13,1745.13 1423.5,1753.81 		
			"/>
		<line class="st1" x1="100.5" y1="283.24" x2="100.5" y2="535.24"/>
		<polyline class="st1" points="233.07,559.24 278.69,627.51 279.12,628.16 		"/>
		<line class="st1" x1="389.18" y1="601.44" x2="429.78" y2="503.43"/>
		<line class="st1" x1="1350.04" y1="1533.08" x2="1422.07" y2="1715.73"/>
		<line class="st1" x1="1337.38" y1="1500.99" x2="1350.04" y2="1533.08"/>
		<line class="st1" x1="343.61" y1="421.97" x2="467.47" y2="545.84"/>
		<line class="st1" x1="1330.61" y1="1479.85" x2="1323.72" y2="1496.48"/>
		<line class="st1" x1="273.53" y1="708.28" x2="289.28" y2="724.03"/>
		<polyline class="st1" points="100.5,283.24 248.27,431.01 259.4,442.15 		"/>
		<line class="st1" x1="100.5" y1="535.24" x2="273.53" y2="708.28"/>
		<line class="st1" x1="308.9" y1="456.48" x2="308.99" y2="456.58"/>
		<line class="st1" x1="1547.41" y1="1627.9" x2="1547.41" y2="1645.9"/>
		<polyline class="st1" points="191.2,469.64 191.2,485.95 191.2,496.58 191.2,514.98 191.2,638.41 		"/>
		<line class="st1" x1="191.2" y1="422.41" x2="191.2" y2="469.64"/>
		<line class="st1" x1="282.06" y1="264.06" x2="373.52" y2="301.95"/>
		<line class="st1" x1="273.86" y1="222.85" x2="273.86" y2="438.85"/>
		<line class="st1" x1="282.06" y1="264.06" x2="283.6" y2="444.37"/>
		<line class="st1" x1="213.17" y1="430.36" x2="214.72" y2="610.67"/>
		<line class="st1" x1="191.2" y1="638.41" x2="273.86" y2="438.85"/>
		<line class="st1" x1="283.6" y1="444.37" x2="214.72" y2="610.67"/>
		<line class="st1" x1="310" y1="455.3" x2="283.6" y2="444.37"/>
		<line class="st1" x1="373.64" y1="264.18" x2="366.75" y2="280.81"/>
		<line class="st1" x1="373.64" y1="264.18" x2="273.86" y2="222.85"/>
		<line class="st1" x1="191.2" y1="422.41" x2="273.86" y2="222.85"/>
		<line class="st1" x1="278.69" y1="357.05" x2="343.61" y2="421.97"/>
		<polyline class="st1" points="268.67,235.38 273.86,243.14 290.05,267.37 340.83,343.38 350.42,357.72 453.3,511.69 		"/>
		<polyline class="st1" points="261.78,252.01 273.86,270.08 277.38,275.35 282.22,282.59 333.95,360.01 343.53,374.35 
			429.78,503.43 		"/>
		<line class="st1" x1="230.22" y1="204.78" x2="261.78" y2="252.01"/>
		<line class="st1" x1="220.48" y1="163.26" x2="268.67" y2="235.38"/>
		<polyline class="st1" points="230.22,328.2 230.22,389.2 230.22,420.78 		"/>
		<line class="st1" x1="230.22" y1="204.78" x2="230.22" y2="328.2"/>
		<line class="st1" x1="202.79" y1="486.99" x2="230.22" y2="420.78"/>
		<line class="st1" x1="202.79" y1="486.99" x2="147.56" y2="620.33"/>
		<line class="st1" x1="220.48" y1="163.26" x2="220.48" y2="415.26"/>
		<line class="st1" x1="147.56" y1="404.33" x2="147.56" y2="620.33"/>
		<line class="st1" x1="156.54" y1="382.66" x2="167.06" y2="357.26"/>
		<line class="st1" x1="230.22" y1="420.78" x2="429.78" y2="503.43"/>
		<line class="st1" x1="220.48" y1="415.26" x2="453.3" y2="511.69"/>
		<line class="st1" x1="124.05" y1="648.07" x2="220.48" y2="415.26"/>
		<line class="st1" x1="142.77" y1="350.87" x2="148.01" y2="338.21"/>
		<polyline class="st1" points="391.34,309.82 396.24,322.48 400.12,332.48 		"/>
		<polyline class="st1" points="378.56,314.71 385.76,332.97 387.39,337.12 400.12,369.39 		"/>
		<line class="st1" x1="373.64" y1="264.18" x2="391.34" y2="309.82"/>
		<line class="st1" x1="373.52" y1="301.95" x2="378.56" y2="314.71"/>
		<line class="st1" x1="290.98" y1="463.74" x2="291.16" y2="464.2"/>
		<line class="st1" x1="260.11" y1="613.16" x2="387.39" y2="485.88"/>
		<line class="st1" x1="282.06" y1="264.06" x2="213.17" y2="430.36"/>
		<line class="st1" x1="278.69" y1="349.6" x2="75.04" y2="553.24"/>
	</g>
	<g id="Move-Horiz">
		<line class="st3" x1="775.41" y1="873.89" x2="1466.16" y2="1564.65"/>
		<line class="st3" x1="807.28" y1="867.32" x2="1498.04" y2="1558.07"/>
		<line class="st3" x1="670.62" y1="752.3" x2="1361.38" y2="1443.05"/>
		<line class="st3" x1="637.66" y1="785.25" x2="1328.42" y2="1476.01"/>
		<line class="st3" x1="660.86" y1="970.44" x2="1351.61" y2="1661.2"/>
		<line class="st3" x1="731.17" y1="943.43" x2="1421.93" y2="1634.18"/>
		<line class="st3" x1="621.1" y1="970.15" x2="1311.86" y2="1660.9"/>
		<line class="st3" x1="636.58" y1="1060.7" x2="1327.33" y2="1751.46"/>
		<line class="st3" x1="1515.07" y1="1585.98" x2="824.32" y2="895.23"/>
		<line class="st3" x1="1311.43" y1="1789.63" x2="620.67" y2="1098.87"/>
		<line class="st3" x1="1277.28" y1="1467.48" x2="620.67" y2="810.87"/>
		<line class="st3" x1="620.41" y1="691.58" x2="482.33" y2="553.24"/>
		<line class="st3" x1="417.03" y1="895.23" x2="278.69" y2="756.89"/>
		<line class="st3" x1="448.19" y1="231.1" x2="620.67" y2="403.58"/>
		<line class="st3" x1="244.54" y1="434.74" x2="417.03" y2="607.23"/>
		<line class="st3" x1="279.12" y1="628.16" x2="621.1" y2="970.15"/>
		<line class="st3" x1="294.59" y1="718.72" x2="636.58" y2="1060.7"/>
		<line class="st3" x1="465.3" y1="525.33" x2="807.28" y2="867.32"/>
		<line class="st3" x1="775.41" y1="873.89" x2="433.42" y2="531.91"/>
		<line class="st3" x1="731.17" y1="943.43" x2="389.18" y2="601.44"/>
		<line class="st3" x1="660.86" y1="970.44" x2="318.87" y2="628.46"/>
		<line class="st3" x1="637.66" y1="785.25" x2="295.68" y2="443.27"/>
		<line class="st3" x1="328.64" y1="410.31" x2="670.62" y2="752.3"/>
		<line class="st3" x1="804.97" y1="845.52" x2="462.99" y2="503.53"/>
		<line class="st3" x1="824.32" y1="607.23" x2="1480.93" y2="1263.84"/>
		<line class="st3" x1="804.97" y1="845.52" x2="1495.73" y2="1536.27"/>
	</g>
	<g id="CutHiddenHatch" class="st4">
		<path class="st5" d="M620.67,1098.87l-34.15-322.15l203.65-203.65l34.15,322.15L620.67,1098.87z M621.1,970.15l15.49-3.76
			l-29.26-171.28l51.27-51.27l12.02,8.46l-32.96,32.96l23.19,185.19l114.55-114.55v18l18.02-18.02l-4.33-25.36l15.88,15
			l-25.39-239.58L601.39,784.13L621.1,970.15z M807.28,867.32l-76.11,76.11l29.95-7.27l48.34-48.34L807.28,867.32z M630.38,845.69
			l-5.45-47.71l-2.31,2.31L630.38,845.69z"/>
		<path class="st5" d="M1311.43,1789.63l-34.15-322.15l203.65-203.65l34.15,322.15L1311.43,1789.63z M1495.73,1536.27l-25.39-239.58
			l-178.19,178.19l19.72,186.01l15.49-3.76l-29.26-171.28l51.27-51.27l12.02,8.46l-32.96,32.96l23.19,185.19l114.55-114.55v18
			l18.02-18.02l-4.33-25.36L1495.73,1536.27z M1321.14,1536.44l-5.45-47.71l-2.31,2.31L1321.14,1536.44z M1498.04,1558.07
			l-76.11,76.11l29.95-7.27l48.34-48.34L1498.04,1558.07z"/>
	</g>
	<g id="CutHidden">
		<polyline class="st6" points="1495.73,1536.27 1470.33,1296.7 1292.14,1474.89 1311.86,1660.9 		"/>
		<polyline class="st6" points="1451.88,1626.91 1500.21,1578.58 1498.04,1558.07 		"/>
		<polyline class="st6" points="1498.04,1558.07 1421.93,1634.18 1451.88,1626.91 		"/>
		<polyline class="st6" points="1466.16,1564.65 1484.18,1546.63 1479.85,1521.27 1495.73,1536.27 		"/>
		<polyline class="st6" points="1328.42,1476.01 1361.38,1443.05 1349.35,1434.59 1298.08,1485.86 1327.35,1657.14 		"/>
		<line class="st6" x1="1315.69" y1="1488.73" x2="1321.14" y2="1536.44"/>
		<polyline class="st6" points="1321.14,1536.44 1313.38,1491.05 1315.69,1488.73 		"/>
		<polyline class="st6" points="1327.33,1751.46 1311.86,1660.9 1327.35,1657.14 		"/>
		<polygon class="st6" points="1311.43,1789.63 1515.07,1585.98 1480.93,1263.84 1277.28,1467.48 		"/>
		<polyline class="st6" points="1328.42,1476.01 1351.61,1661.2 1466.16,1546.65 1466.16,1564.65 		"/>
		<polygon class="st6" points="620.67,1098.87 824.32,895.23 790.17,573.08 586.53,776.73 		"/>
		<polyline class="st6" points="636.58,1060.7 621.1,970.15 636.59,966.39 		"/>
		<polyline class="st6" points="630.38,845.69 622.63,800.29 624.94,797.98 		"/>
		<line class="st6" x1="624.94" y1="797.98" x2="630.38" y2="845.69"/>
		<polyline class="st6" points="637.66,785.25 670.62,752.3 658.6,743.84 607.33,795.11 636.59,966.39 		"/>
		<polyline class="st6" points="775.41,873.89 793.43,855.88 789.09,830.52 804.97,845.52 		"/>
		<polyline class="st6" points="807.28,867.32 731.17,943.43 761.12,936.16 		"/>
		<polyline class="st6" points="761.12,936.16 809.46,887.82 807.28,867.32 		"/>
		<polyline class="st6" points="804.97,845.52 779.58,605.94 601.39,784.13 621.1,970.15 		"/>
		<polyline class="st6" points="637.66,785.25 660.86,970.44 775.41,855.89 775.41,873.89 		"/>
	</g>
	<g id="VisibleHeavy">
		<line class="st7" x1="400.12" y1="365.46" x2="400.12" y2="318.6"/>
		<line class="st7" x1="244.54" y1="434.74" x2="75.04" y2="265.24"/>
		<line class="st7" x1="1432.86" y1="1580.45" x2="1420.13" y2="1593.18"/>
		<line class="st7" x1="1432.86" y1="1760.45" x2="1420.13" y2="1773.18"/>
		<line class="st7" x1="1432.86" y1="1760.45" x2="1441.86" y2="1751.45"/>
		<line class="st7" x1="1334.61" y1="1507.66" x2="1344.49" y2="1517.53"/>
		<line class="st7" x1="1334.61" y1="1507.66" x2="1337.38" y2="1500.99"/>
		<line class="st7" x1="291.42" y1="619.62" x2="294.61" y2="624.4"/>
		<line class="st7" x1="1344.49" y1="1517.53" x2="1420.13" y2="1593.18"/>
		<polyline class="st7" points="1351.43,1704.47 1382.16,1735.2 1420.13,1773.18 		"/>
		<line class="st7" x1="1334.61" y1="1507.66" x2="1350.3" y2="1565.02"/>
		<line class="st7" x1="1351.43" y1="1704.47" x2="1350.3" y2="1565.02"/>
		<line class="st7" x1="1432.86" y1="1580.45" x2="1432.86" y2="1742.45"/>
		<line class="st7" x1="1399.74" y1="1752.78" x2="1389.6" y2="1777.25"/>
		<polyline class="st7" points="1324.16,1679.3 1356.04,1727.02 1363.25,1737.81 1389.6,1777.25 		"/>
		<line class="st7" x1="1326.75" y1="1504.3" x2="1350.3" y2="1565.02"/>
		<line class="st7" x1="1337.38" y1="1500.99" x2="1342.55" y2="1488.51"/>
		<line class="st7" x1="418.15" y1="415.12" x2="447.11" y2="488.53"/>
		<line class="st7" x1="1341.73" y1="1489.32" x2="1432.86" y2="1580.45"/>
		<line class="st7" x1="400.12" y1="318.6" x2="396.66" y2="322.07"/>
		<line class="st7" x1="1595.14" y1="1586.72" x2="1595.14" y2="1681.22"/>
		<line class="st7" x1="1528.32" y1="1614.4" x2="1528.32" y2="1519.9"/>
		<line class="st7" x1="400.12" y1="433.16" x2="400.12" y2="365.46"/>
		<line class="st7" x1="400.12" y1="480.6" x2="433.42" y2="513.91"/>
		<line class="st7" x1="1451.95" y1="1577.17" x2="1451.95" y2="1685.17"/>
		<line class="st7" x1="147.56" y1="404.33" x2="199.85" y2="482.58"/>
		<line class="st7" x1="233.07" y1="559.24" x2="199.85" y2="482.58"/>
		<line class="st7" x1="400.12" y1="480.6" x2="400.12" y2="433.16"/>
		<line class="st7" x1="366.57" y1="514.16" x2="311.46" y2="569.27"/>
		<line class="st7" x1="1604.69" y1="1577.17" x2="1604.69" y2="1685.17"/>
		<line class="st7" x1="1461.5" y1="1681.22" x2="1490.14" y2="1709.86"/>
		<line class="st7" x1="1490.14" y1="1652.58" x2="1461.5" y2="1681.22"/>
		<line class="st7" x1="391.53" y1="310.02" x2="400.12" y2="318.6"/>
		<line class="st7" x1="341.89" y1="376.84" x2="316.77" y2="401.96"/>
		<polyline class="st7" points="1528.32,1614.4 1499.28,1643.44 1490.14,1652.58 		"/>
		<line class="st7" x1="428.25" y1="405.02" x2="461.69" y2="491.25"/>
		<polyline class="st7" points="1528.32,1748.04 1499.28,1719 1490.14,1709.86 		"/>
		<polyline class="st7" points="1490.14,1723.36 1499.28,1732.5 1528.32,1761.54 		"/>
		<line class="st7" x1="291.42" y1="619.62" x2="275.73" y2="596.14"/>
		<line class="st7" x1="1528.32" y1="1761.54" x2="1604.69" y2="1685.17"/>
		<line class="st7" x1="291.42" y1="717.4" x2="288.45" y2="716.17"/>
		<line class="st7" x1="1595.14" y1="1681.22" x2="1528.32" y2="1614.4"/>
		<line class="st7" x1="435.17" y1="555.46" x2="419.13" y2="594.17"/>
		<line class="st7" x1="1420.13" y1="1593.18" x2="1420.13" y2="1773.18"/>
		<polyline class="st7" points="124.05,648.07 202.28,680.48 233.07,693.23 		"/>
		<line class="st7" x1="124.05" y1="396.07" x2="233.07" y2="559.24"/>
		<line class="st7" x1="409.33" y1="356.24" x2="428.25" y2="405.02"/>
		<line class="st7" x1="400.12" y1="332.48" x2="409.33" y2="356.24"/>
		<line class="st7" x1="124.05" y1="396.07" x2="124.05" y2="648.07"/>
		<line class="st7" x1="233.07" y1="693.23" x2="233.07" y2="559.24"/>
		<line class="st7" x1="147.56" y1="404.33" x2="156.54" y2="382.66"/>
		<line class="st7" x1="400.12" y1="369.39" x2="418.15" y2="415.12"/>
		<line class="st7" x1="124.05" y1="396.07" x2="142.77" y2="350.87"/>
		<line class="st7" x1="156.54" y1="382.66" x2="142.77" y2="350.87"/>
		<line class="st7" x1="386.18" y1="332.55" x2="341.89" y2="376.84"/>
		<line class="st7" x1="124.05" y1="602.25" x2="75.04" y2="553.24"/>
		<line class="st7" x1="278.69" y1="756.89" x2="202.28" y2="680.48"/>
		<line class="st7" x1="1461.5" y1="1586.72" x2="1461.5" y2="1681.22"/>
		<line class="st7" x1="396.66" y1="322.07" x2="386.18" y2="332.55"/>
		<line class="st7" x1="400.12" y1="480.6" x2="366.57" y2="514.16"/>
		<line class="st7" x1="1528.32" y1="1748.04" x2="1528.32" y2="1761.54"/>
		<polyline class="st7" points="1515.07,1514.05 1515.07,1433.56 1515.07,1384.89 1515.07,1297.98 		"/>
		<line class="st7" x1="1595.14" y1="1681.22" x2="1528.32" y2="1748.04"/>
		<line class="st7" x1="1537.87" y1="1510.35" x2="1528.32" y2="1500.8"/>
		<line class="st7" x1="1518.77" y1="1510.35" x2="1528.32" y2="1500.8"/>
		<line class="st7" x1="278.69" y1="61.6" x2="75.04" y2="265.24"/>
		<line class="st7" x1="1595.14" y1="1586.72" x2="1528.32" y2="1519.9"/>
		<line class="st7" x1="448.19" y1="231.1" x2="278.69" y2="61.6"/>
		<line class="st7" x1="1461.5" y1="1586.72" x2="1528.32" y2="1519.9"/>
		<line class="st7" x1="1604.69" y1="1577.17" x2="1595.14" y2="1586.72"/>
		<line class="st7" x1="1604.69" y1="1577.17" x2="1537.87" y2="1510.35"/>
		<line class="st7" x1="1518.77" y1="1510.35" x2="1451.95" y2="1577.17"/>
		<line class="st7" x1="1451.95" y1="1577.17" x2="1461.5" y2="1586.72"/>
		<line class="st7" x1="1451.95" y1="1577.17" x2="1461.5" y2="1586.72"/>
		<line class="st7" x1="1451.95" y1="1685.17" x2="1490.14" y2="1723.36"/>
		<line class="st7" x1="1432.86" y1="1742.45" x2="1471.04" y2="1704.26"/>
		<line class="st7" x1="1441.86" y1="1751.45" x2="1480.04" y2="1713.26"/>
		<line class="st7" x1="1311.43" y1="1501.63" x2="1311.43" y2="1789.63"/>
		<line class="st7" x1="1324.16" y1="1506.9" x2="1324.16" y2="1758.9"/>
		<line class="st7" x1="1324.16" y1="1506.9" x2="1502.35" y2="1328.71"/>
		<line class="st7" x1="1311.43" y1="1501.63" x2="1515.07" y2="1297.98"/>
		<line class="st7" x1="1324.16" y1="1758.9" x2="1330.35" y2="1752.71"/>
		<polyline class="st7" points="1311.43,1789.63 1333.16,1767.9 1343.08,1757.98 		"/>
		<line class="st7" x1="1515.07" y1="1297.98" x2="1480.93" y2="1263.84"/>
		<line class="st7" x1="1311.43" y1="1501.63" x2="1277.28" y2="1467.48"/>
		<polyline class="st7" points="1502.35,1328.71 1502.35,1379.74 1502.35,1420.83 1502.35,1465.91 1502.35,1526.78 		"/>
		<line class="st7" x1="291.42" y1="717.4" x2="294.59" y2="718.72"/>
		<line class="st7" x1="1327.35" y1="1657.14" x2="1351.34" y2="1693.04"/>
		<polyline class="st7" points="1327.33,1751.46 1330.35,1752.71 1343.08,1757.98 1389.6,1777.25 		"/>
		<polyline class="st7" points="1479.85,1521.27 1482.65,1528.39 1487.77,1541.36 		"/>
		<line class="st7" x1="1466.16" y1="1546.65" x2="1474.32" y2="1554.8"/>
		<line class="st7" x1="75.04" y1="265.24" x2="75.04" y2="553.24"/>
	</g>
	<g id="SectionCutLight">
		<line class="st2" x1="468.45" y1="508.69" x2="470.42" y2="520.21"/>
		<line class="st2" x1="462.99" y1="503.53" x2="468.45" y2="508.69"/>
		<line class="st2" x1="465.3" y1="525.33" x2="462.99" y2="503.53"/>
		<line class="st2" x1="289.28" y1="724.03" x2="419.13" y2="594.17"/>
		<line class="st2" x1="279.12" y1="628.16" x2="289.28" y2="724.03"/>
		<line class="st2" x1="305.06" y1="685.57" x2="389.18" y2="601.44"/>
		<line class="st2" x1="294.61" y1="624.4" x2="305.06" y2="685.57"/>
		<polyline class="st2" points="433.42,531.91 313.67,651.66 306.14,659.19 		"/>
		<line class="st2" x1="288.4" y1="503.7" x2="313.67" y2="651.66"/>
		<line class="st2" x1="288.4" y1="503.7" x2="306.14" y2="659.19"/>
		<line class="st2" x1="282.95" y1="455.99" x2="295.68" y2="443.27"/>
		<line class="st2" x1="470.42" y1="520.21" x2="465.3" y2="525.33"/>
	</g>
	<g id="SectionCutHeavyHatch" class="st8">
		<path class="st5" d="M278.69,756.89l-34.15-322.15L448.19,231.1l34.15,322.15L278.69,756.89z M433.42,531.91l18.02-18.02
			l-4.33-25.36l15.88,15l-25.39-239.58L259.4,442.15l19.72,186.01l10.16,95.87l5.31-5.31l-15.47-90.56l15.49-3.76l-29.26-171.28
			l51.27-51.27l12.02,8.46l-32.96,32.96l23.19,185.19l114.55-114.55V531.91z M465.3,525.33l-76.11,76.11l29.95-7.27l48.34-48.34
			L465.3,525.33z M282.95,455.99l-2.31,2.31l7.76,45.4L282.95,455.99z"/>
	</g>
	<g id="SectionCutHeavy">
		<polyline class="st9" points="462.99,503.53 437.59,263.96 259.4,442.15 279.12,628.16 		"/>
		<polyline class="st9" points="465.3,525.33 389.18,601.44 419.13,594.17 		"/>
		<polyline class="st9" points="433.42,531.91 451.44,513.89 447.11,488.53 462.99,503.53 		"/>
		<polyline class="st9" points="295.68,443.27 328.64,410.31 316.61,401.85 265.34,453.12 294.61,624.4 		"/>
		<line class="st9" x1="282.95" y1="455.99" x2="288.4" y2="503.7"/>
		<polyline class="st9" points="288.4,503.7 280.64,458.31 282.95,455.99 		"/>
		<polyline class="st9" points="294.59,718.72 279.12,628.16 294.61,624.4 		"/>
		<polygon class="st9" points="278.69,756.89 482.33,553.24 448.19,231.1 244.54,434.74 		"/>
		<polyline class="st9" points="295.68,443.27 318.87,628.46 433.42,513.91 433.42,531.91 		"/>
		<polyline class="st9" points="419.13,594.17 467.47,545.84 465.3,525.33 		"/>
	</g>
</g>
<g id="PlanObliqueView">
	<g id="Projection">
		<line class="st0" x1="602.1" y1="1716.34" x2="602.1" y2="955.14"/>
		<line class="st0" x1="1169.39" y1="994.42" x2="913.93" y2="994.42"/>
		<line class="st0" x1="729.38" y1="1843.62" x2="729.38" y2="1082.42"/>
		<line class="st0" x1="620.69" y1="1804.56" x2="620.67" y2="1098.87"/>
		<line class="st0" x1="620.67" y1="1098.87" x2="620.67" y2="691.58"/>
		<line class="st0" x1="417.04" y1="1600.91" x2="417.03" y2="895.23"/>
		<line class="st0" x1="824.32" y1="895.23" x2="824.33" y2="1600.91"/>
		<line class="st0" x1="562.45" y1="1480.96" x2="562.47" y2="757.24"/>
		<line class="st0" x1="466.02" y1="1713.77" x2="466.03" y2="990.06"/>
		<line class="st0" x1="795.27" y1="1577.39" x2="795.28" y2="853.68"/>
		<line class="st0" x1="698.83" y1="1810.21" x2="698.85" y2="1086.5"/>
		<line class="st0" x1="533.19" y1="1722.11" x2="533.19" y2="980.39"/>
		<line class="st0" x1="615.85" y1="1522.55" x2="615.85" y2="780.84"/>
		<line class="st0" x1="815.4" y1="1605.21" x2="815.4" y2="863.5"/>
		<line class="st0" x1="732.74" y1="1804.77" x2="732.74" y2="1063.05"/>
		<line class="st0" x1="856.66" y1="1716.34" x2="856.66" y2="955.14"/>
		<line class="st0" x1="913.93" y1="1773.62" x2="913.93" y2="886.42"/>
		<line class="st0" x1="684.83" y1="1773.62" x2="684.83" y2="994.42"/>
		<line class="st0" x1="837.57" y1="1849.99" x2="837.57" y2="1070.78"/>
		<line class="st0" x1="837.57" y1="1057.28" x2="837.57" y2="918.05"/>
		<line class="st0" x1="761.2" y1="1773.62" x2="761.2" y2="994.42"/>
		<line class="st0" x1="913.93" y1="886.42" x2="1304.39" y2="886.42"/>
	</g>
	<g id="Hidden_2_">
		<line class="st1" x1="837.57" y1="810.05" x2="837.57" y2="829.14"/>
		<line class="st1" x1="742.11" y1="707.44" x2="742.11" y2="660.59"/>
		<line class="st1" x1="650.88" y1="798.47" x2="650.98" y2="798.57"/>
		<line class="st1" x1="651.79" y1="797.76" x2="715.51" y2="643.93"/>
		<line class="st1" x1="633.14" y1="806.19" x2="636" y2="813.55"/>
		<line class="st1" x1="742.11" y1="674.46" x2="751.32" y2="698.23"/>
		<line class="st1" x1="498.53" y1="724.64" x2="509.05" y2="699.25"/>
		<line class="st1" x1="837.57" y1="918.05" x2="761.2" y2="994.42"/>
		<line class="st1" x1="484.75" y1="692.86" x2="490" y2="680.2"/>
		<polyline class="st1" points="666.1,1035.45 676.07,1025.47 712.11,989.43 758.1,943.45 		"/>
		<polyline class="st1" points="652.32,1067.23 672.49,1047.05 678.83,1040.72 683.28,1036.26 699.39,1020.16 745.37,974.17 		"/>
		<line class="st1" x1="745.37" y1="974.17" x2="824.32" y2="895.23"/>
		<line class="st1" x1="758.1" y1="943.45" x2="811.59" y2="889.96"/>
		<line class="st1" x1="665.28" y1="1036.26" x2="666.1" y2="1035.45"/>
		<line class="st1" x1="639.59" y1="1061.95" x2="665.28" y2="1036.26"/>
		<polyline class="st1" points="544.26,1022.47 479.45,957.66 466.03,944.23 		"/>
		<line class="st1" x1="729.38" y1="827.86" x2="856.66" y2="955.14"/>
		<line class="st1" x1="856.66" y1="937.14" x2="856.66" y2="955.14"/>
		<line class="st1" x1="837.57" y1="918.05" x2="913.93" y2="994.42"/>
		<line class="st1" x1="729.38" y1="647.86" x2="729.38" y2="827.86"/>
		<line class="st1" x1="729.38" y1="647.86" x2="742.11" y2="660.59"/>
		<line class="st1" x1="824.32" y1="823.3" x2="824.32" y2="895.23"/>
		<line class="st1" x1="811.59" y1="836.02" x2="811.59" y2="889.96"/>
		<line class="st1" x1="627.55" y1="775.14" x2="627.55" y2="937.14"/>
		<line class="st1" x1="701.87" y1="675.37" x2="720.96" y2="656.28"/>
		<line class="st1" x1="789.29" y1="1022.51" x2="856.66" y2="955.14"/>
		<line class="st1" x1="780.29" y1="1013.51" x2="856.66" y2="937.14"/>
		<line class="st1" x1="720.96" y1="656.28" x2="729.38" y2="647.86"/>
		<line class="st1" x1="742.11" y1="660.59" x2="738.64" y2="664.05"/>
		<line class="st1" x1="806.66" y1="840.95" x2="815.4" y2="863.5"/>
		<polyline class="st1" points="797.01,850.6 799.38,856.61 800.2,858.68 		"/>
		<line class="st1" x1="738.64" y1="664.05" x2="728.16" y2="674.54"/>
		<line class="st1" x1="728.16" y1="674.54" x2="683.87" y2="718.83"/>
		<polyline class="st1" points="627.55,775.14 639.9,787.49 643.02,790.61 645.55,793.14 650.88,798.47 		"/>
		<polyline class="st1" points="783.57,864.05 793.11,873.6 799.38,879.87 		"/>
		<polyline class="st1" points="683.87,718.83 657.37,745.33 627.55,775.14 		"/>
		<polyline class="st1" points="602.1,775.14 615.85,761.39 625.3,751.94 675.37,701.87 701.87,675.37 		"/>
		<polyline class="st1" points="602.1,775.14 602.1,782.78 602.1,790.24 602.1,810.35 602.1,871.81 602.1,955.14 		"/>
		<polyline class="st1" points="602.1,775.14 613.05,786.1 621.56,794.6 627.98,801.03 629.95,802.99 634.08,807.13 643.43,816.47 
					"/>
		<polyline class="st1" points="533.19,811.63 533.19,827.93 533.19,838.56 533.19,856.97 533.19,980.39 		"/>
		<line class="st1" x1="533.19" y1="764.39" x2="533.19" y2="811.63"/>
		<line class="st1" x1="624.04" y1="606.05" x2="715.51" y2="643.93"/>
		<line class="st1" x1="615.85" y1="780.84" x2="815.4" y2="863.5"/>
		<line class="st1" x1="556.7" y1="952.65" x2="731.32" y2="1024.98"/>
		<polyline class="st1" points="800.2,858.68 717.05,824.24 708.74,820.8 651.98,797.29 		"/>
		<line class="st1" x1="615.85" y1="564.84" x2="615.85" y2="780.84"/>
		<line class="st1" x1="624.04" y1="606.05" x2="625.59" y2="786.35"/>
		<line class="st1" x1="555.16" y1="772.35" x2="556.7" y2="952.65"/>
		<line class="st1" x1="533.19" y1="980.39" x2="615.85" y2="780.84"/>
		<line class="st1" x1="625.59" y1="786.35" x2="556.7" y2="952.65"/>
		<line class="st1" x1="651.98" y1="797.29" x2="625.59" y2="786.35"/>
		<line class="st1" x1="646.62" y1="810.23" x2="555.16" y2="772.35"/>
		<line class="st1" x1="708.74" y1="622.8" x2="639.85" y2="789.09"/>
		<line class="st1" x1="639.85" y1="789.09" x2="632.96" y2="805.72"/>
		<line class="st1" x1="715.62" y1="606.17" x2="708.74" y2="622.8"/>
		<line class="st1" x1="715.62" y1="606.17" x2="615.85" y2="564.84"/>
		<line class="st1" x1="533.19" y1="764.39" x2="632.96" y2="805.72"/>
		<line class="st1" x1="533.19" y1="764.39" x2="615.85" y2="564.84"/>
		<line class="st1" x1="624.04" y1="606.05" x2="555.16" y2="772.35"/>
		<line class="st1" x1="646.62" y1="810.23" x2="659.28" y2="842.33"/>
		<line class="st1" x1="659.28" y1="842.33" x2="731.32" y2="1024.98"/>
		<line class="st1" x1="708.55" y1="856.14" x2="627.55" y2="937.14"/>
		<line class="st1" x1="627.55" y1="937.14" x2="742.11" y2="1051.69"/>
		<line class="st1" x1="602.1" y1="955.14" x2="729.38" y2="827.86"/>
		<polyline class="st1" points="602.1,955.14 627.42,980.46 660.68,1013.72 		"/>
		<line class="st1" x1="632.96" y1="805.72" x2="633.14" y2="806.19"/>
		<polyline class="st1" points="659.54,874.27 666.09,891.15 668.17,896.52 719.62,1029.21 729.38,1054.37 732.74,1063.05 		"/>
		<line class="st1" x1="742.11" y1="998.93" x2="731.32" y2="1024.98"/>
		<line class="st1" x1="742.11" y1="1040.45" x2="738.81" y2="1048.4"/>
		<line class="st1" x1="738.81" y1="1048.4" x2="732.74" y2="1063.05"/>
		<line class="st1" x1="693.94" y1="1046.98" x2="729.38" y2="1061.66"/>
		<line class="st1" x1="729.38" y1="1061.66" x2="732.74" y2="1063.05"/>
		<line class="st1" x1="715.51" y1="643.93" x2="720.54" y2="656.7"/>
		<line class="st1" x1="715.62" y1="606.17" x2="733.32" y2="651.81"/>
		<polyline class="st1" points="720.54,656.7 727.74,674.95 729.38,679.1 742.11,711.38 		"/>
		<polyline class="st1" points="733.32,651.81 738.23,664.47 742.11,674.46 		"/>
		<polyline class="st1" points="800.2,858.68 793.76,874.24 788.48,886.97 742.11,998.93 		"/>
		<polyline class="st1" points="815.4,863.5 811.19,873.67 800.64,899.13 759.61,998.19 746.88,1028.91 742.11,1040.45 		"/>
		<line class="st1" x1="466.03" y1="990.06" x2="562.47" y2="757.24"/>
		<polyline class="st1" points="490,680.2 492.18,674.93 562.47,505.24 		"/>
		<line class="st1" x1="572.21" y1="762.76" x2="771.77" y2="845.42"/>
		<line class="st1" x1="489.55" y1="962.32" x2="689.11" y2="1044.98"/>
		<line class="st1" x1="489.55" y1="746.32" x2="489.55" y2="962.32"/>
		<line class="st1" x1="562.47" y1="505.24" x2="562.47" y2="757.24"/>
		<line class="st1" x1="544.78" y1="828.98" x2="489.55" y2="962.32"/>
		<line class="st1" x1="544.78" y1="828.98" x2="572.21" y2="762.76"/>
		<line class="st1" x1="572.21" y1="546.76" x2="572.21" y2="670.18"/>
		<polyline class="st1" points="572.21,670.18 572.21,731.19 572.21,762.76 		"/>
		<line class="st1" x1="562.47" y1="505.24" x2="610.66" y2="577.36"/>
		<line class="st1" x1="572.21" y1="546.76" x2="603.77" y2="593.99"/>
		<polyline class="st1" points="603.77,593.99 615.85,612.07 619.37,617.34 624.2,624.57 675.93,701.99 685.52,716.34 
			771.77,845.42 		"/>
		<polyline class="st1" points="610.66,577.36 615.85,585.13 632.03,609.36 682.82,685.36 692.4,699.71 795.28,853.68 		"/>
		<line class="st1" x1="708.98" y1="1062.03" x2="795.28" y2="853.68"/>
		<line class="st1" x1="689.94" y1="1042.98" x2="771.77" y2="845.42"/>
		<line class="st1" x1="689.11" y1="1044.98" x2="689.94" y2="1042.98"/>
		<line class="st1" x1="660.58" y1="1002.29" x2="683.41" y2="1036.45"/>
		<line class="st1" x1="683.41" y1="1036.45" x2="689.11" y2="1044.98"/>
		<line class="st1" x1="685.59" y1="763.96" x2="811.59" y2="889.96"/>
		<line class="st1" x1="620.67" y1="699.04" x2="685.59" y2="763.96"/>
		<line class="st1" x1="442.48" y1="625.23" x2="442.48" y2="877.23"/>
		<line class="st1" x1="620.67" y1="403.58" x2="620.67" y2="699.04"/>
		<line class="st1" x1="620.67" y1="447.04" x2="442.48" y2="625.23"/>
		<line class="st1" x1="442.48" y1="625.23" x2="633.4" y2="816.15"/>
		<line class="st1" x1="620.67" y1="447.04" x2="811.59" y2="637.96"/>
		<line class="st1" x1="620.67" y1="691.58" x2="417.03" y2="895.23"/>
		<line class="st1" x1="824.32" y1="895.23" x2="620.67" y2="691.58"/>
		<line class="st1" x1="442.48" y1="877.23" x2="633.4" y2="1068.15"/>
		<line class="st1" x1="620.67" y1="699.04" x2="442.48" y2="877.23"/>
		<polyline class="st1" points="575.06,901.23 620.67,969.5 633.4,988.55 		"/>
		<polyline class="st1" points="575.06,1035.22 618.45,1053.19 620.67,1054.12 633.4,1059.39 		"/>
		<line class="st1" x1="541.83" y1="983.98" x2="541.83" y2="824.57"/>
		<polyline class="st1" points="541.83,824.57 602.1,914.76 618.27,938.97 620.67,942.56 633.4,961.61 		"/>
		<polyline class="st1" points="509.05,699.25 511.23,693.98 572.21,546.76 		"/>
		<line class="st1" x1="562.47" y1="757.24" x2="795.28" y2="853.68"/>
	</g>
	<g id="VisibleHeavy_2_">
		<line class="st9" x1="653.73" y1="826.78" x2="729.38" y2="902.42"/>
		<line class="st9" x1="643.86" y1="816.9" x2="653.73" y2="826.78"/>
		<polyline class="st9" points="660.68,1013.72 691.4,1044.45 729.38,1082.42 		"/>
		<line class="st9" x1="643.86" y1="816.9" x2="659.54" y2="874.27"/>
		<line class="st9" x1="660.68" y1="1013.72" x2="659.54" y2="874.27"/>
		<line class="st9" x1="742.11" y1="889.69" x2="742.11" y2="1051.69"/>
		<line class="st9" x1="742.11" y1="711.38" x2="760.14" y2="757.11"/>
		<line class="st9" x1="466.03" y1="738.06" x2="466.03" y2="990.06"/>
		<line class="st9" x1="708.98" y1="1062.03" x2="698.85" y2="1086.5"/>
		<line class="st9" x1="417.03" y1="607.23" x2="417.03" y2="895.23"/>
		<line class="st9" x1="620.67" y1="810.87" x2="620.67" y2="1098.87"/>
		<line class="st9" x1="633.4" y1="816.15" x2="633.4" y2="1068.15"/>
		<line class="st9" x1="633.4" y1="816.15" x2="811.59" y2="637.96"/>
		<line class="st9" x1="620.67" y1="810.87" x2="417.03" y2="607.23"/>
		<line class="st9" x1="824.32" y1="607.23" x2="620.67" y2="403.58"/>
		<line class="st9" x1="620.67" y1="403.58" x2="417.03" y2="607.23"/>
		<line class="st9" x1="620.67" y1="810.87" x2="824.32" y2="607.23"/>
		<line class="st9" x1="575.06" y1="1035.22" x2="575.06" y2="901.23"/>
		<line class="st9" x1="466.03" y1="738.06" x2="575.06" y2="901.23"/>
		<polyline class="st9" points="633.4,988.55 665.28,1036.26 672.49,1047.05 698.85,1086.5 		"/>
		<polyline class="st9" points="466.03,990.06 544.26,1022.47 575.06,1035.22 		"/>
		<polyline class="st9" points="633.4,1059.39 639.59,1061.95 652.32,1067.23 698.85,1086.5 		"/>
		<line class="st9" x1="575.06" y1="901.23" x2="541.83" y2="824.57"/>
		<line class="st9" x1="489.55" y1="746.32" x2="541.83" y2="824.57"/>
		<line class="st9" x1="633.4" y1="961.61" x2="660.58" y2="1002.29"/>
		<line class="st9" x1="643.86" y1="816.9" x2="646.62" y2="810.23"/>
		<line class="st9" x1="742.11" y1="822.59" x2="783.57" y2="864.05"/>
		<line class="st9" x1="760.14" y1="757.11" x2="797.01" y2="850.6"/>
		<line class="st9" x1="770.24" y1="747.01" x2="806.66" y2="840.95"/>
		<line class="st9" x1="751.11" y1="1060.69" x2="789.29" y2="1022.51"/>
		<line class="st9" x1="742.11" y1="1051.69" x2="780.29" y2="1013.51"/>
		<line class="st9" x1="811.59" y1="730.08" x2="811.59" y2="836.02"/>
		<line class="st9" x1="742.11" y1="822.59" x2="742.11" y2="775.14"/>
		<line class="st9" x1="824.32" y1="823.3" x2="824.32" y2="742.8"/>
		<line class="st9" x1="742.11" y1="1069.69" x2="751.11" y2="1060.69"/>
		<line class="st9" x1="742.11" y1="1069.69" x2="729.38" y2="1082.42"/>
		<line class="st9" x1="761.2" y1="994.42" x2="799.38" y2="1032.6"/>
		<line class="st9" x1="742.11" y1="889.69" x2="729.38" y2="902.42"/>
		<line class="st9" x1="729.38" y1="902.42" x2="729.38" y2="1082.42"/>
		<line class="st9" x1="761.2" y1="886.42" x2="770.74" y2="895.96"/>
		<line class="st9" x1="761.2" y1="886.42" x2="770.74" y2="895.96"/>
		<line class="st9" x1="828.02" y1="819.6" x2="761.2" y2="886.42"/>
		<line class="st9" x1="742.11" y1="822.59" x2="708.55" y2="856.14"/>
		<line class="st9" x1="620.67" y1="1098.87" x2="544.26" y2="1022.47"/>
		<line class="st9" x1="466.03" y1="944.23" x2="417.03" y2="895.23"/>
		<line class="st9" x1="913.93" y1="886.42" x2="847.11" y2="819.6"/>
		<line class="st9" x1="633.4" y1="1068.15" x2="639.59" y2="1061.95"/>
		<line class="st9" x1="913.93" y1="886.42" x2="904.39" y2="895.96"/>
		<line class="st9" x1="770.74" y1="895.96" x2="837.57" y2="829.14"/>
		<line class="st9" x1="904.39" y1="895.96" x2="837.57" y2="829.14"/>
		<polyline class="st9" points="620.67,1098.87 642.4,1077.15 652.32,1067.23 		"/>
		<line class="st9" x1="828.02" y1="819.6" x2="837.57" y2="810.05"/>
		<line class="st9" x1="847.11" y1="819.6" x2="837.57" y2="810.05"/>
		<line class="st9" x1="904.39" y1="990.46" x2="837.57" y2="1057.28"/>
		<line class="st9" x1="498.53" y1="724.64" x2="484.75" y2="692.86"/>
		<line class="st9" x1="466.03" y1="738.06" x2="484.75" y2="692.86"/>
		<line class="st9" x1="904.39" y1="990.46" x2="837.57" y2="923.64"/>
		<line class="st9" x1="489.55" y1="746.32" x2="498.53" y2="724.64"/>
		<line class="st9" x1="837.57" y1="1070.78" x2="913.93" y2="994.42"/>
		<polyline class="st9" points="799.38,1032.6 808.52,1041.74 837.57,1070.78 		"/>
		<line class="st9" x1="751.32" y1="698.23" x2="770.24" y2="747.01"/>
		<polyline class="st9" points="837.57,1057.28 808.52,1028.24 799.38,1019.1 		"/>
		<line class="st9" x1="636" y1="813.55" x2="659.54" y2="874.27"/>
		<line class="st9" x1="646.62" y1="810.23" x2="651.79" y2="797.76"/>
		<polyline class="st9" points="837.57,923.64 808.52,952.68 799.38,961.83 		"/>
		<line class="st9" x1="799.38" y1="961.83" x2="770.74" y2="990.46"/>
		<line class="st9" x1="650.98" y1="798.57" x2="742.11" y2="889.69"/>
		<line class="st9" x1="742.11" y1="775.14" x2="742.11" y2="707.44"/>
		<line class="st9" x1="770.74" y1="990.46" x2="799.38" y2="1019.1"/>
		<polyline class="st9" points="811.59,637.96 811.59,688.98 811.59,730.08 		"/>
		<polyline class="st9" points="824.32,607.23 824.32,694.14 824.32,742.8 		"/>
		<line class="st9" x1="837.57" y1="1057.28" x2="837.57" y2="1070.78"/>
		<line class="st9" x1="904.39" y1="895.96" x2="904.39" y2="990.46"/>
		<line class="st9" x1="837.57" y1="923.64" x2="837.57" y2="829.14"/>
		<line class="st9" x1="913.93" y1="886.42" x2="913.93" y2="994.42"/>
		<line class="st9" x1="770.74" y1="895.96" x2="770.74" y2="990.46"/>
		<line class="st9" x1="761.2" y1="886.42" x2="761.2" y2="994.42"/>
	</g>
</g>
<g id="PlanOblique-HorizCut">
	<g id="Hidden_1_">
		<line class="st10" x1="571.36" y1="1320.11" x2="578.25" y2="1303.48"/>
		<line class="st10" x1="802.33" y1="1314.68" x2="837.57" y2="1349.92"/>
		<line class="st10" x1="811.6" y1="1285.53" x2="815.41" y2="1295.36"/>
		<line class="st10" x1="793.76" y1="1306.11" x2="788.49" y2="1318.84"/>
		<line class="st10" x1="788.49" y1="1318.84" x2="742.11" y2="1430.8"/>
		<line class="st10" x1="578.25" y1="1303.48" x2="615.85" y2="1212.7"/>
		<line class="st10" x1="811.6" y1="1305.41" x2="811.6" y2="1321.82"/>
		<line class="st10" x1="556.1" y1="1313.79" x2="556.71" y2="1384.52"/>
		<line class="st10" x1="824.32" y1="1292.68" x2="824.32" y2="1311.77"/>
		<line class="st10" x1="824.32" y1="1311.77" x2="824.32" y2="1327.1"/>
		<line class="st10" x1="815.41" y1="1295.36" x2="811.6" y2="1304.56"/>
		<polyline class="st10" points="811,1306 800.65,1331 759.62,1430.05 746.89,1460.78 742.11,1472.32 		"/>
		<line class="st10" x1="615.85" y1="1104.74" x2="615.85" y2="1151.74"/>
		<polyline class="st10" points="762.64,1274.99 717.06,1256.11 708.74,1252.66 665.77,1234.86 		"/>
		<line class="st10" x1="615.85" y1="1151.74" x2="615.85" y2="1212.7"/>
		<line class="st10" x1="588.52" y1="1307.73" x2="588.52" y2="1307.73"/>
		<line class="st10" x1="533.19" y1="1304.26" x2="533.19" y2="1304.3"/>
		<line class="st10" x1="624.84" y1="1130.05" x2="624.84" y2="1130.08"/>
		<line class="st10" x1="533.19" y1="1304.3" x2="533.19" y2="1412.26"/>
		<line class="st10" x1="556.1" y1="1313.79" x2="555.94" y2="1294.56"/>
		<line class="st10" x1="729.38" y1="410.29" x2="729.38" y2="501.82"/>
		<line class="st10" x1="577.68" y1="1196.89" x2="771.77" y2="1277.29"/>
		<line class="st10" x1="729.38" y1="1259.73" x2="856.66" y2="1387.01"/>
		<line class="st10" x1="627.55" y1="603.62" x2="627.55" y2="629.07"/>
		<line class="st10" x1="627.55" y1="537.57" x2="627.55" y2="603.62"/>
		<polyline class="st10" points="602.1,537.57 602.1,545.21 602.1,552.66 602.1,572.78 602.1,629.07 		"/>
		<line class="st10" x1="856.66" y1="1369.01" x2="856.66" y2="1387.01"/>
		<line class="st10" x1="615.85" y1="1212.7" x2="815.41" y2="1295.36"/>
		<line class="st10" x1="556.71" y1="1384.52" x2="731.32" y2="1456.85"/>
		<line class="st10" x1="627.56" y1="1369.01" x2="742.11" y2="1483.56"/>
		<polyline class="st10" points="602.1,1387.01 627.42,1412.33 660.68,1445.59 		"/>
		<line class="st10" x1="632.97" y1="1237.59" x2="633.15" y2="1238.06"/>
		<line class="st10" x1="742.11" y1="1430.8" x2="731.32" y2="1456.85"/>
		<line class="st10" x1="742.11" y1="1472.32" x2="738.82" y2="1480.27"/>
		<line class="st10" x1="738.82" y1="1480.27" x2="732.75" y2="1494.92"/>
		<line class="st10" x1="555.55" y1="580.82" x2="555.93" y2="625.12"/>
		<polyline class="st10" points="533.19,574.05 533.19,590.36 533.19,600.99 533.19,619.4 533.19,634.82 		"/>
		<line class="st10" x1="615.85" y1="327.26" x2="615.85" y2="435.3"/>
		<line class="st10" x1="624.65" y1="438.95" x2="624.83" y2="460.61"/>
		<line class="st10" x1="624.04" y1="368.48" x2="624.65" y2="438.95"/>
		<line class="st10" x1="555.16" y1="534.77" x2="555.55" y2="580.82"/>
		<line class="st10" x1="571.78" y1="541.66" x2="555.16" y2="534.77"/>
		<line class="st10" x1="588.41" y1="548.54" x2="571.78" y2="541.66"/>
		<line class="st10" x1="646.62" y1="572.66" x2="588.41" y2="548.54"/>
		<line class="st10" x1="670.54" y1="477.44" x2="639.85" y2="551.52"/>
		<line class="st10" x1="677.43" y1="460.81" x2="670.54" y2="477.44"/>
		<line class="st10" x1="708.74" y1="385.22" x2="677.43" y2="460.81"/>
		<line class="st10" x1="588" y1="549.53" x2="632.96" y2="568.15"/>
		<line class="st10" x1="571.37" y1="542.64" x2="588" y2="549.53"/>
		<line class="st10" x1="533.19" y1="526.82" x2="571.37" y2="542.64"/>
		<line class="st10" x1="659.28" y1="604.76" x2="688.91" y2="679.88"/>
		<line class="st10" x1="673.87" y1="673.65" x2="682.85" y2="696.82"/>
		<polyline class="st10" points="659.54,636.69 666.09,653.58 668.17,658.95 673.87,673.65 		"/>
		<line class="st10" x1="693.94" y1="1478.85" x2="729.38" y2="1493.53"/>
		<line class="st10" x1="729.38" y1="1493.53" x2="732.75" y2="1494.92"/>
		<line class="st10" x1="562.47" y1="1189.11" x2="795.29" y2="1285.55"/>
		<line class="st10" x1="489.55" y1="1394.19" x2="689.11" y2="1476.85"/>
		<line class="st10" x1="690.68" y1="466.3" x2="715.51" y2="406.36"/>
		<line class="st10" x1="683.79" y1="482.93" x2="690.68" y2="466.3"/>
		<line class="st10" x1="651.79" y1="560.19" x2="683.79" y2="482.93"/>
		<line class="st10" x1="708.99" y1="1493.89" x2="795.29" y2="1285.55"/>
		<line class="st10" x1="489.55" y1="569.67" x2="489.55" y2="616.71"/>
		<line class="st10" x1="489.55" y1="508.75" x2="489.55" y2="569.67"/>
		<line class="st10" x1="562.47" y1="267.67" x2="562.47" y2="393.71"/>
		<line class="st10" x1="572.21" y1="397.75" x2="572.21" y2="417.23"/>
		<line class="st10" x1="572.21" y1="309.19" x2="572.21" y2="397.75"/>
		<line class="st10" x1="654.02" y1="431.63" x2="671.98" y2="458.5"/>
		<polyline class="st10" points="603.77,356.42 615.85,374.5 619.37,379.77 624.2,387 654.02,431.63 		"/>
		<polyline class="st10" points="610.66,339.79 615.85,347.56 632.03,371.79 678.88,441.9 		"/>
		<line class="st10" x1="689.94" y1="1474.85" x2="771.77" y2="1277.29"/>
		<line class="st10" x1="689.11" y1="1476.85" x2="689.94" y2="1474.85"/>
		<line class="st10" x1="660.59" y1="1434.16" x2="683.42" y2="1468.32"/>
		<line class="st10" x1="683.42" y1="1468.32" x2="689.11" y2="1476.85"/>
		<line class="st10" x1="685.6" y1="1195.82" x2="811.6" y2="1321.82"/>
		<line class="st10" x1="575.06" y1="663.66" x2="582.43" y2="674.69"/>
		<line class="st10" x1="541.83" y1="638.44" x2="541.83" y2="587"/>
		<line class="st10" x1="620.68" y1="1130.9" x2="685.6" y2="1195.82"/>
		<line class="st10" x1="824.32" y1="1327.1" x2="620.68" y2="1123.45"/>
		<line class="st10" x1="442.49" y1="1309.1" x2="633.41" y2="1500.01"/>
		<polyline class="st10" points="575.06,1467.09 618.45,1485.06 620.68,1485.98 633.41,1491.25 		"/>
		<polyline class="st10" points="544.27,1454.33 479.46,1389.52 466.04,1376.1 		"/>
		<line class="st10" x1="541.83" y1="587" x2="589.33" y2="658.08"/>
		<line class="st10" x1="639.6" y1="1493.82" x2="665.29" y2="1468.13"/>
		<line class="st10" x1="442.48" y1="513.66" x2="442.48" y2="539.11"/>
		<line class="st10" x1="442.48" y1="488.2" x2="442.48" y2="513.66"/>
		<line class="st10" x1="442.48" y1="387.66" x2="442.48" y2="488.2"/>
		<line class="st10" x1="620.67" y1="310.01" x2="620.67" y2="335.47"/>
		<line class="st10" x1="620.67" y1="166.01" x2="620.67" y2="310.01"/>
		<line class="st10" x1="665.29" y1="1468.13" x2="666.1" y2="1467.32"/>
		<line class="st10" x1="758.11" y1="1375.31" x2="811.6" y2="1321.82"/>
		<line class="st10" x1="745.38" y1="1406.04" x2="824.32" y2="1327.1"/>
		<polyline class="st10" points="652.33,1499.09 672.5,1478.92 678.83,1472.59 683.29,1468.13 699.39,1452.03 745.38,1406.04 		"/>
		<polyline class="st10" points="666.1,1467.32 676.08,1457.34 712.12,1421.3 758.11,1375.31 		"/>
		<line class="st10" x1="650.89" y1="1230.34" x2="650.99" y2="1230.43"/>
		<line class="st10" x1="837.57" y1="1349.92" x2="761.2" y2="1426.28"/>
		<line class="st10" x1="837.57" y1="1349.92" x2="913.94" y2="1426.28"/>
		<line class="st10" x1="789.29" y1="1454.38" x2="856.66" y2="1387.01"/>
		<line class="st10" x1="780.29" y1="1445.38" x2="856.66" y2="1369.01"/>
		<line class="st10" x1="620.68" y1="1130.9" x2="505.49" y2="1246.1"/>
		<line class="st10" x1="505.49" y1="1246.1" x2="492.76" y2="1258.82"/>
		<line class="st10" x1="505.48" y1="450.66" x2="633.4" y2="578.57"/>
		<line class="st10" x1="492.75" y1="437.93" x2="505.48" y2="450.66"/>
		<line class="st10" x1="442.48" y1="387.66" x2="492.75" y2="437.93"/>
		<line class="st10" x1="492.76" y1="1258.82" x2="442.49" y2="1309.1"/>
		<line class="st10" x1="620.68" y1="1123.45" x2="501.76" y2="1242.37"/>
		<line class="st10" x1="501.76" y1="1242.37" x2="489.03" y2="1255.1"/>
		<line class="st10" x1="489.03" y1="1255.1" x2="417.03" y2="1327.1"/>
		<line class="st10" x1="442.49" y1="1208.55" x2="442.49" y2="1309.1"/>
		<polyline class="st10" points="589.34,1327.52 602.1,1346.63 618.28,1370.83 620.68,1374.43 633.41,1393.48 		"/>
		<line class="st10" x1="541.84" y1="1415.84" x2="541.84" y2="1327.37"/>
		<line class="st10" x1="541.84" y1="1327.37" x2="541.84" y2="1307.88"/>
		<polyline class="st10" points="582.43,1344.13 620.68,1401.37 633.41,1420.41 		"/>
		<polyline class="st10" points="671.98,1127.94 675.94,1133.86 685.52,1148.2 771.77,1277.29 		"/>
		<line class="st10" x1="527.72" y1="1302.04" x2="520.84" y2="1318.67"/>
		<line class="st10" x1="837.57" y1="572.48" x2="837.57" y2="591.57"/>
		<line class="st10" x1="520.84" y1="1318.67" x2="489.55" y2="1394.19"/>
		<line class="st10" x1="562.47" y1="1063.15" x2="562.47" y2="1110.11"/>
		<line class="st10" x1="742.11" y1="469.87" x2="742.11" y2="423.02"/>
		<line class="st10" x1="562.47" y1="1110.11" x2="562.47" y2="1189.11"/>
		<line class="st10" x1="489.55" y1="1286.15" x2="489.55" y2="1286.23"/>
		<line class="st10" x1="633.14" y1="568.62" x2="636" y2="575.98"/>
		<line class="st10" x1="742.11" y1="436.89" x2="751.32" y2="460.65"/>
		<line class="st10" x1="498.53" y1="487.07" x2="509.05" y2="461.68"/>
		<line class="st10" x1="489.55" y1="1286.23" x2="489.55" y2="1305.71"/>
		<line class="st10" x1="484.75" y1="455.29" x2="490" y2="442.63"/>
		<line class="st10" x1="489.55" y1="1305.71" x2="489.55" y2="1394.19"/>
		<line class="st10" x1="466.04" y1="1421.93" x2="510.57" y2="1314.41"/>
		<polyline class="st10" points="490,442.63 492.18,437.36 562.47,267.67 		"/>
		<polyline class="st10" points="509.05,461.68 511.23,456.4 572.21,309.19 		"/>
		<line class="st10" x1="620.67" y1="209.47" x2="811.59" y2="400.38"/>
		<line class="st10" x1="620.67" y1="209.47" x2="442.48" y2="387.66"/>
		<line class="st10" x1="510.57" y1="1314.41" x2="517.46" y2="1297.78"/>
		<line class="st10" x1="517.46" y1="1297.78" x2="562.47" y2="1189.11"/>
		<line class="st10" x1="572.21" y1="309.19" x2="603.77" y2="356.42"/>
		<line class="st10" x1="562.47" y1="267.67" x2="610.66" y2="339.79"/>
		<polyline class="st10" points="733.32,414.23 738.23,426.89 742.11,436.89 		"/>
		<polyline class="st10" points="720.54,419.13 727.74,437.38 729.38,441.53 742.11,473.81 		"/>
		<line class="st10" x1="715.62" y1="368.59" x2="733.32" y2="414.23"/>
		<line class="st10" x1="715.51" y1="406.36" x2="720.54" y2="419.13"/>
		<polyline class="st10" points="682.86,1366.26 719.63,1461.07 729.38,1486.24 732.75,1494.92 		"/>
		<line class="st10" x1="588.52" y1="1307.73" x2="581.63" y2="1324.36"/>
		<line class="st10" x1="646.62" y1="572.66" x2="659.28" y2="604.76"/>
		<line class="st10" x1="624.04" y1="368.48" x2="555.16" y2="534.77"/>
		<line class="st10" x1="533.19" y1="526.82" x2="615.85" y2="327.26"/>
		<line class="st10" x1="715.62" y1="368.59" x2="615.85" y2="327.26"/>
		<line class="st10" x1="715.62" y1="368.59" x2="708.74" y2="385.22"/>
		<line class="st10" x1="639.85" y1="551.52" x2="632.96" y2="568.15"/>
		<line class="st10" x1="624.04" y1="368.48" x2="715.51" y2="406.36"/>
		<line class="st10" x1="533.19" y1="526.82" x2="533.19" y2="574.05"/>
		<polyline class="st10" points="602.1,537.57 613.05,548.52 621.56,557.03 627.98,563.46 629.95,565.42 634.08,569.56 
			643.43,578.9 		"/>
		<polyline class="st10" points="602.1,537.57 615.85,523.82 625.3,514.36 675.37,464.3 701.87,437.8 		"/>
		<polyline class="st10" points="683.87,481.25 657.37,507.76 627.55,537.57 		"/>
		<polyline class="st10" points="627.55,537.57 639.9,549.92 643.02,553.04 645.55,555.57 650.88,560.9 		"/>
		<line class="st10" x1="728.16" y1="436.96" x2="683.87" y2="481.25"/>
		<line class="st10" x1="738.64" y1="426.48" x2="728.16" y2="436.96"/>
		<line class="st10" x1="742.11" y1="423.02" x2="738.64" y2="426.48"/>
		<line class="st10" x1="720.96" y1="418.71" x2="729.38" y2="410.29"/>
		<line class="st10" x1="701.87" y1="437.8" x2="720.96" y2="418.71"/>
		<line class="st10" x1="729.38" y1="410.29" x2="742.11" y2="423.02"/>
		<line class="st10" x1="581.63" y1="1324.36" x2="556.71" y2="1384.52"/>
		<line class="st10" x1="602.1" y1="1387.01" x2="646.34" y2="1342.77"/>
		<line class="st10" x1="646.34" y1="1342.77" x2="659.07" y2="1330.05"/>
		<line class="st10" x1="537.6" y1="1278.19" x2="530.14" y2="1296.19"/>
		<line class="st10" x1="527.73" y1="1302.03" x2="527.72" y2="1302.04"/>
		<line class="st10" x1="659.07" y1="1330.05" x2="729.38" y2="1259.73"/>
		<line class="st10" x1="527.73" y1="1302.03" x2="530.14" y2="1296.19"/>
		<line class="st10" x1="620.68" y1="1004.9" x2="620.68" y2="1004.92"/>
		<line class="st10" x1="620.68" y1="1087.25" x2="620.68" y2="1130.9"/>
		<line class="st10" x1="662.79" y1="1333.77" x2="650.07" y2="1346.5"/>
		<line class="st10" x1="650.07" y1="1346.5" x2="627.56" y2="1369.01"/>
		<line class="st10" x1="776.46" y1="1194.91" x2="811.6" y2="1285.53"/>
		<line class="st10" x1="602.1" y1="1298.51" x2="602.1" y2="1298.54"/>
		<line class="st10" x1="794.38" y1="1275.78" x2="800.21" y2="1290.55"/>
		<polyline class="st10" points="602.1,1298.54 602.1,1303.68 602.1,1387.01 		"/>
		<line class="st10" x1="627.56" y1="1298.51" x2="627.56" y2="1298.54"/>
		<line class="st10" x1="627.56" y1="1298.54" x2="627.56" y2="1323.99"/>
		<line class="st10" x1="794.13" y1="1288.03" x2="800.21" y2="1290.55"/>
		<line class="st10" x1="800.21" y1="1290.55" x2="793.76" y2="1306.11"/>
		<line class="st10" x1="689.38" y1="1350.51" x2="689.39" y2="1350.52"/>
		<line class="st10" x1="695.79" y1="1366.76" x2="731.32" y2="1456.85"/>
		<line class="st10" x1="627.56" y1="1323.99" x2="627.56" y2="1369.01"/>
		<line class="st10" x1="729.38" y1="1196.69" x2="729.38" y2="1259.73"/>
		<line class="st10" x1="729.38" y1="1171.26" x2="729.38" y2="1196.69"/>
		<line class="st10" x1="696.91" y1="1138.31" x2="795.29" y2="1285.55"/>
		<line class="st10" x1="678.89" y1="1111.33" x2="678.89" y2="1111.34"/>
		<line class="st10" x1="533.19" y1="1412.26" x2="571.36" y2="1320.11"/>
	</g>
	<g id="Move-Vert">
		<line class="st2" x1="913.92" y1="686.36" x2="913.92" y2="923.93"/>
		<line class="st2" x1="837.55" y1="609.99" x2="837.55" y2="866.66"/>
		<line class="st2" x1="770.73" y1="695.91" x2="770.73" y2="933.48"/>
		<line class="st2" x1="761.18" y1="686.36" x2="761.18" y2="923.93"/>
		<line class="st2" x1="741.38" y1="744.35" x2="742.11" y2="822.59"/>
		<line class="st2" x1="729.36" y1="993.94" x2="729.36" y2="756.37"/>
		<line class="st2" x1="602.09" y1="629.09" x2="602.09" y2="866.66"/>
		<line class="st2" x1="627.54" y1="629.09" x2="627.54" y2="866.66"/>
		<line class="st2" x1="729.36" y1="501.81" x2="729.36" y2="739.38"/>
		<line class="st2" x1="742.09" y1="514.54" x2="742.09" y2="752.11"/>
		<line class="st2" x1="682.84" y1="696.85" x2="682.84" y2="934.42"/>
		<line class="st2" x1="533.01" y1="635.24" x2="533.17" y2="872.43"/>
		<line class="st2" x1="615.83" y1="435.3" x2="615.83" y2="672.87"/>
		<line class="st2" x1="678.85" y1="441.92" x2="678.89" y2="679.4"/>
		<line class="st2" x1="765.5" y1="734.86" x2="765.5" y2="497.29"/>
		<line class="st2" x1="562.44" y1="631.27" x2="562.44" y2="393.7"/>
		<line class="st2" x1="466" y1="864.09" x2="466" y2="626.52"/>
		<line class="st2" x1="824.32" y1="513.66" x2="824.32" y2="751.23"/>
		<line class="st2" x1="620.67" y1="310.01" x2="620.67" y2="547.58"/>
		<line class="st2" x1="417.03" y1="513.66" x2="417.03" y2="751.23"/>
		<line class="st2" x1="417.03" y1="895.23" x2="417.03" y2="1183.1"/>
		<line class="st2" x1="620.69" y1="979.45" x2="620.67" y2="691.58"/>
		<line class="st2" x1="824.32" y1="1183.1" x2="824.32" y2="895.23"/>
		<line class="st2" x1="620.68" y1="1386.74" x2="620.67" y2="1098.87"/>
		<line class="st2" x1="466.04" y1="1295.97" x2="466.03" y2="990.06"/>
		<line class="st2" x1="562.47" y1="1063.15" x2="562.47" y2="757.24"/>
		<line class="st2" x1="678.89" y1="1111.33" x2="678.89" y2="679.4"/>
		<line class="st2" x1="582.43" y1="1344.13" x2="582.41" y2="912.31"/>
		<line class="st2" x1="615.85" y1="1104.74" x2="615.85" y2="780.84"/>
		<line class="st2" x1="533.19" y1="1304.3" x2="533.19" y2="980.39"/>
		<line class="st2" x1="765.53" y1="1166.72" x2="765.5" y2="734.86"/>
		<line class="st2" x1="682.78" y1="1366.26" x2="682.84" y2="934.42"/>
		<line class="st2" x1="729.38" y1="1171.25" x2="729.38" y2="827.86"/>
		<line class="st2" x1="602.1" y1="1298.51" x2="602.1" y2="955.14"/>
		<line class="st2" x1="729.38" y1="1425.79" x2="729.38" y2="1171.25"/>
		<line class="st2" x1="742.11" y1="1183.97" x2="742.11" y2="822.59"/>
		<line class="st2" x1="742.11" y1="1413.93" x2="742.11" y2="1051.69"/>
		<line class="st2" x1="761.2" y1="1355.79" x2="761.2" y2="994.42"/>
		<line class="st2" x1="837.57" y1="1300.83" x2="837.57" y2="923.64"/>
		<line class="st2" x1="904.06" y1="1365.02" x2="904.39" y2="990.46"/>
		<line class="st2" x1="913.93" y1="994.42" x2="913.94" y2="1355.8"/>
		<line class="st2" x1="904.37" y1="695.91" x2="904.37" y2="933.48"/>
		<line class="st2" x1="770.75" y1="1365.35" x2="770.74" y2="990.46"/>
	</g>
	<g id="CutHiddenHatch_1_" class="st4">
		<path class="st5" d="M689.73,917.79l-3.24,7.82l12.64,12.64l42.96,42.96l-12.73,12.73l-68.7-68.7l-71.36-29.56l-0.69,1.68
			l44.79,44.79l-12.73,12.73l-45.61-45.61L466,864.09l18.71-45.17l-67.69-67.69l203.65-203.65l203.65,203.65l-12.73,12.73
			L620.67,573.04L442.48,751.23l49.69,49.69l70.27-169.65l116.41,48.22l-6.89,16.63l93.54,38.75l-6.89,16.63l-133.04-55.11
			l-68.88,166.3l70.71,29.29l-25.32-25.32l127.28-127.28l12.73,12.73L627.54,866.66l43.32,43.32L689.73,917.79z M505.95,814.69
			l36.16,36.16l73.72-177.98l-43.65-18.08L505.95,814.69z M533.17,872.43l1.48-3.57l-36.16-36.16l-8.97,21.65L533.17,872.43z"/>
		<polygon class="st5" points="498.51,1264.56 484.73,1250.78 492.19,1232.78 505.96,1246.56 		"/>
		<path class="st5" d="M689.73,680.22l-3.24,7.82l55.6,55.6l-12.73,12.73l-68.7-68.7L589.3,658.1l-0.69,1.68l44.79,44.79
			l-12.73,12.73l-45.61-45.61L466,626.52l18.71-45.17l-67.69-67.69l203.65-203.65l203.65,203.65l-12.73,12.73L620.67,335.47
			L442.48,513.66l49.69,49.69l70.27-169.65l116.41,48.22l-6.89,16.63l93.54,38.75l-6.89,16.63l-133.04-55.11l-68.88,166.3
			l70.71,29.29l-25.32-25.32l127.28-127.28l12.73,12.73L627.54,629.09l43.32,43.32L689.73,680.22z M505.95,577.12l36.16,36.16
			l73.72-177.98l-43.65-18.08L505.95,577.12z M533.17,634.86l1.48-3.57l-36.16-36.16l-8.97,21.65L533.17,634.86z"/>
		<path class="st5" d="M699.14,700.68l42.96,42.96l-12.73,12.73l-68.7-68.7L589.3,658.1l-0.69,1.68l44.79,44.79l-12.73,12.73
			l-45.61-45.61L466,626.52l18.71-45.17l-67.69-67.69l203.65-203.65l203.65,203.65l-12.73,12.73L620.67,335.47L442.48,513.66
			l49.69,49.69l70.27-169.65l116.41,48.22l-6.89,16.63l93.54,38.75l-6.89,16.63l-133.04-55.11l-68.88,166.3l70.71,29.29
			l-25.32-25.32l127.28-127.28l12.73,12.73L627.54,629.09l43.32,43.32l18.87,7.82l-3.24,7.82L699.14,700.68z M505.95,577.12
			l36.16,36.16l73.72-177.98l-43.65-18.08L505.95,577.12z M533.17,634.86l1.48-3.57l-36.16-36.16l-8.97,21.65L533.17,634.86z"/>
		<polygon class="st5" points="913.92,686.36 904.37,695.91 837.55,629.09 770.73,695.91 761.18,686.36 837.55,609.99 		"/>
		<path class="st5" d="M689.73,680.22l-3.24,7.82l55.6,55.6l-12.73,12.73l-68.7-68.7L589.3,658.1l-0.69,1.68l44.79,44.79
			l-12.73,12.73l-45.61-45.61L466,626.52l18.71-45.17l-67.69-67.69l203.65-203.65l203.65,203.65l-12.73,12.73L620.67,335.47
			L442.48,513.66l49.69,49.69l70.27-169.65l116.41,48.22l-6.89,16.63l93.54,38.75l-6.89,16.63l-133.04-55.11l-68.88,166.3
			l70.71,29.29l-25.32-25.32l127.28-127.28l12.73,12.73L627.54,629.09l43.32,43.32L689.73,680.22z M505.95,577.12l36.16,36.16
			l73.72-177.98l-43.65-18.08L505.95,577.12z M533.17,634.86l1.48-3.57l-36.16-36.16l-8.97,21.65L533.17,634.86z"/>
		<path class="st5" d="M689.73,680.22l-3.24,7.82l55.6,55.6l-12.73,12.73l-68.7-68.7L589.3,658.1l-0.69,1.68l44.79,44.79
			l-12.73,12.73l-45.61-45.61L466,626.52l18.71-45.17l-67.69-67.69l203.65-203.65l203.65,203.65l-12.73,12.73L620.67,335.47
			L442.48,513.66l49.69,49.69l70.27-169.65l116.41,48.22l-6.89,16.63l57.42,23.78v0.27l0.19-0.19l35.93,14.88l-6.89,16.63
			l-133.04-55.11l-68.88,166.3l70.71,29.29l-25.32-25.32l127.28-127.28l12.73,12.73L627.54,629.09l43.32,43.32L689.73,680.22z
			 M505.95,577.12l36.16,36.16l73.72-177.98l-43.65-18.08L505.95,577.12z M533.17,634.86l1.48-3.57l-36.16-36.16l-8.97,21.65
			L533.17,634.86z"/>
		<path class="st5" d="M698.95,937.93l42.96,42.96l-12.73,12.73l-68.7-68.7l-71.36-29.56l-0.69,1.68l44.79,44.79l-12.73,12.73
			l-45.61-45.61l-109.06-45.17l18.71-45.17l-67.69-67.69l203.65-203.65L824.13,750.9l-12.73,12.73L620.48,572.71L442.29,750.9
			l49.69,49.69l70.27-169.65l116.41,48.22l-6.89,16.63l93.54,38.75l-6.89,16.63l-133.04-55.11l-68.88,166.3l70.71,29.29
			l-25.32-25.32l127.28-127.28l12.73,12.73L627.35,866.33l43.32,43.32l18.87,7.82l-3.24,7.82L698.95,937.93z M505.76,814.37
			l36.16,36.16l73.72-177.98l-43.65-18.08L505.76,814.37z M532.98,872.1l1.48-3.57l-36.16-36.16l-8.97,21.65L532.98,872.1z"/>
		<polygon class="st5" points="913.73,923.61 904.18,933.16 837.36,866.33 770.54,933.16 761,923.61 837.36,847.24 		"/>
		<path class="st5" d="M689.73,680.22l-3.24,7.82l55.6,55.6l-12.73,12.73l-68.7-68.7L589.3,658.1l-0.69,1.68l44.79,44.79
			l-12.73,12.73l-45.61-45.61L466,626.52l18.71-45.17l-67.69-67.69l203.65-203.65l203.65,203.65l-12.73,12.73L620.67,335.47
			L442.48,513.66l49.69,49.69l70.27-169.65l116.41,48.22l-6.89,16.63l93.54,38.75l-6.89,16.63l-133.04-55.11l-68.88,166.3
			l70.71,29.29l-25.32-25.32l127.28-127.28l12.73,12.73L627.54,629.09l43.32,43.32L689.73,680.22z M505.95,577.12l36.16,36.16
			l73.72-177.98l-43.65-18.08L505.95,577.12z M533.17,634.86l1.48-3.57l-36.16-36.16l-8.97,21.65L533.17,634.86z"/>
	</g>
	<g id="CutHidden_1_">
		<line class="st6" x1="913.92" y1="923.93" x2="1412.39" y2="923.93"/>
		<polygon class="st6" points="913.73,923.61 837.36,847.24 761,923.61 770.54,933.16 837.36,866.33 904.18,933.16 		"/>
		<line class="st6" x1="686.3" y1="925.29" x2="698.95" y2="937.93"/>
		<polygon class="st6" points="689.54,917.47 670.67,909.65 627.35,866.33 741.9,751.78 729.18,739.06 601.9,866.33 627.21,891.65 
			556.5,862.36 625.38,696.06 758.42,751.17 765.31,734.54 671.77,695.79 678.66,679.16 562.25,630.95 491.98,800.59 442.29,750.9 
			620.48,572.71 811.4,763.63 824.13,750.9 620.48,547.26 416.84,750.9 484.53,818.59 465.81,863.76 574.87,908.94 620.48,954.55 
			633.21,941.82 588.42,897.03 589.11,895.35 660.47,924.91 729.18,993.61 741.9,980.89 686.3,925.29 		"/>
		<polygon class="st6" points="505.76,814.37 571.99,654.46 615.64,672.55 541.92,850.53 		"/>
		<polygon class="st6" points="913.92,686.36 837.55,609.99 761.18,686.36 770.73,695.91 837.55,629.09 904.37,695.91 		"/>
		<line class="st6" x1="686.49" y1="688.04" x2="699.14" y2="700.68"/>
		<polygon class="st6" points="689.73,680.22 670.86,672.4 627.54,629.09 742.09,514.54 729.36,501.81 602.09,629.09 627.4,654.4 
			556.69,625.11 625.57,458.82 758.61,513.92 765.5,497.29 671.96,458.55 678.85,441.92 562.44,393.7 492.17,563.34 442.48,513.66 
			620.67,335.47 811.59,526.38 824.32,513.66 620.67,310.01 417.03,513.66 484.71,581.34 466,626.52 575.06,671.69 620.67,717.3 
			633.4,704.57 588.61,659.78 589.3,658.1 660.66,687.66 729.36,756.37 742.09,743.64 686.49,688.04 		"/>
		<polygon class="st6" points="532.98,872.1 489.33,854.02 498.3,832.37 534.46,868.53 		"/>
		<polygon class="st6" points="505.95,577.12 572.18,417.22 615.83,435.3 542.11,613.28 		"/>
		<polygon class="st6" points="533.17,634.86 489.52,616.77 498.49,595.12 534.65,631.28 		"/>
	</g>
	<g id="VisibleHeavy_1_">
		<line class="st7" x1="904.39" y1="1365.33" x2="904.39" y2="1422.33"/>
		<line class="st7" x1="837.57" y1="1355.51" x2="837.57" y2="1298.54"/>
		<line class="st7" x1="770.75" y1="1365.33" x2="770.75" y2="1422.33"/>
		<line class="st7" x1="761.2" y1="1355.81" x2="761.2" y2="1426.28"/>
		<line class="st7" x1="761.2" y1="1355.79" x2="761.2" y2="1355.81"/>
		<line class="st7" x1="913.94" y1="1355.8" x2="913.94" y2="1426.28"/>
		<line class="st7" x1="659.96" y1="1356.81" x2="659.96" y2="1356.8"/>
		<line class="st7" x1="678.89" y1="1111.33" x2="696.91" y2="1138.31"/>
		<line class="st7" x1="729.38" y1="1425.79" x2="729.38" y2="1514.29"/>
		<line class="st7" x1="689.75" y1="1349.66" x2="695.79" y2="1366.76"/>
		<line class="st7" x1="762.64" y1="1274.99" x2="794.13" y2="1288.03"/>
		<line class="st7" x1="794.38" y1="1275.78" x2="793.76" y2="1306.11"/>
		<line class="st7" x1="776.46" y1="1194.91" x2="794.38" y2="1275.78"/>
		<line class="st7" x1="760.15" y1="1188.97" x2="794.38" y2="1275.78"/>
		<line class="st7" x1="770.24" y1="1178.88" x2="776.46" y2="1194.91"/>
		<line class="st7" x1="620.68" y1="1087.25" x2="620.69" y2="1004.9"/>
		<line class="st7" x1="708.56" y1="1288.01" x2="662.79" y2="1333.77"/>
		<line class="st7" x1="527.73" y1="1302.03" x2="527.72" y2="1302.04"/>
		<line class="st7" x1="572.21" y1="1194.63" x2="537.6" y2="1278.19"/>
		<line class="st7" x1="572.21" y1="1194.63" x2="577.68" y2="1196.89"/>
		<line class="st7" x1="742.11" y1="1413.08" x2="742.11" y2="1483.56"/>
		<line class="st7" x1="742.11" y1="1207.01" x2="742.11" y2="1183.97"/>
		<line class="st7" x1="572.2" y1="1086.66" x2="572.21" y2="1194.63"/>
		<line class="st7" x1="625.59" y1="1218.22" x2="625.59" y2="1128.26"/>
		<line class="st7" x1="625.59" y1="1218.22" x2="588.52" y2="1307.73"/>
		<line class="st7" x1="665.77" y1="1234.86" x2="625.59" y2="1218.22"/>
		<line class="st7" x1="811.6" y1="1304.56" x2="811" y2="1306"/>
		<line class="st7" x1="824.32" y1="1255.16" x2="824.32" y2="1292.68"/>
		<line class="st7" x1="811.6" y1="1267.89" x2="811.6" y2="1305.41"/>
		<line class="st7" x1="742.11" y1="1254.46" x2="802.33" y2="1314.68"/>
		<line class="st7" x1="904.39" y1="676.83" x2="904.39" y2="695.9"/>
		<line class="st7" x1="742.11" y1="652.12" x2="729.38" y2="664.85"/>
		<line class="st7" x1="643.86" y1="579.33" x2="646.62" y2="572.66"/>
		<line class="st7" x1="643.86" y1="579.33" x2="659.54" y2="636.69"/>
		<line class="st7" x1="660.68" y1="1445.59" x2="659.96" y2="1356.81"/>
		<line class="st7" x1="757.8" y1="1183.02" x2="760.15" y2="1188.97"/>
		<line class="st7" x1="765.53" y1="1166.72" x2="770.24" y2="1178.88"/>
		<line class="st7" x1="824.32" y1="369.66" x2="620.67" y2="166.01"/>
		<line class="st7" x1="620.67" y1="166.01" x2="417.03" y2="369.66"/>
		<line class="st7" x1="498.53" y1="487.07" x2="484.75" y2="455.29"/>
		<line class="st7" x1="466.04" y1="1295.97" x2="466.04" y2="1421.93"/>
		<line class="st7" x1="466.04" y1="1295.89" x2="466.04" y2="1295.97"/>
		<line class="st7" x1="466.03" y1="500.49" x2="484.75" y2="455.29"/>
		<line class="st7" x1="489.55" y1="508.75" x2="498.53" y2="487.07"/>
		<line class="st7" x1="636" y1="575.98" x2="659.54" y2="636.69"/>
		<line class="st7" x1="646.62" y1="572.66" x2="651.79" y2="560.19"/>
		<polyline class="st7" points="811.59,400.38 811.59,451.41 811.59,492.5 		"/>
		<polyline class="st7" points="824.32,369.66 824.32,456.57 824.32,505.23 		"/>
		<line class="st7" x1="847.11" y1="582.02" x2="837.57" y2="572.48"/>
		<line class="st7" x1="828.02" y1="582.02" x2="837.57" y2="572.48"/>
		<line class="st7" x1="575.06" y1="1467.09" x2="575.06" y2="1341.13"/>
		<line class="st7" x1="904.39" y1="658.39" x2="837.57" y2="591.57"/>
		<line class="st7" x1="770.74" y1="658.39" x2="837.57" y2="591.57"/>
		<line class="st7" x1="913.93" y1="648.85" x2="904.39" y2="658.39"/>
		<line class="st7" x1="913.93" y1="648.85" x2="847.11" y2="582.02"/>
		<line class="st7" x1="417.03" y1="1183.1" x2="417.03" y2="1327.1"/>
		<line class="st7" x1="828.02" y1="582.02" x2="761.2" y2="648.85"/>
		<line class="st7" x1="620.68" y1="1386.74" x2="620.68" y2="1530.74"/>
		<line class="st7" x1="633.41" y1="1374.01" x2="633.41" y2="1500.01"/>
		<line class="st7" x1="761.2" y1="648.85" x2="770.74" y2="658.39"/>
		<line class="st7" x1="811.59" y1="492.5" x2="811.59" y2="500.93"/>
		<line class="st7" x1="811.59" y1="500.93" x2="811.59" y2="526.38"/>
		<line class="st7" x1="824.32" y1="513.66" x2="824.32" y2="505.23"/>
		<line class="st7" x1="620.67" y1="573.3" x2="739.59" y2="454.38"/>
		<line class="st7" x1="739.59" y1="454.38" x2="752.32" y2="441.66"/>
		<line class="st7" x1="824.32" y1="1255.16" x2="824.32" y2="1183.1"/>
		<line class="st7" x1="811.6" y1="1195.82" x2="811.6" y2="1267.89"/>
		<line class="st7" x1="751.11" y1="1492.56" x2="789.29" y2="1454.38"/>
		<line class="st7" x1="742.11" y1="1483.56" x2="780.29" y2="1445.38"/>
		<line class="st7" x1="752.32" y1="441.66" x2="824.32" y2="369.66"/>
		<line class="st7" x1="620.67" y1="573.3" x2="501.75" y2="454.38"/>
		<line class="st7" x1="761.2" y1="1426.28" x2="799.39" y2="1464.47"/>
		<line class="st7" x1="501.75" y1="454.38" x2="489.03" y2="441.66"/>
		<line class="st7" x1="904.39" y1="1422.33" x2="837.57" y2="1489.15"/>
		<line class="st7" x1="904.39" y1="1422.33" x2="837.57" y2="1355.51"/>
		<line class="st7" x1="489.03" y1="441.66" x2="417.03" y2="369.66"/>
		<line class="st7" x1="837.57" y1="1502.65" x2="913.94" y2="1426.28"/>
		<polyline class="st7" points="799.39,1464.47 808.53,1473.61 837.57,1502.65 		"/>
		<polyline class="st7" points="837.57,1489.15 808.53,1460.11 799.39,1450.97 		"/>
		<polyline class="st7" points="837.57,1355.51 808.53,1384.55 799.39,1393.69 		"/>
		<line class="st7" x1="799.39" y1="1393.69" x2="770.75" y2="1422.33"/>
		<line class="st7" x1="770.75" y1="1422.33" x2="799.39" y2="1450.97"/>
		<line class="st7" x1="837.57" y1="1489.15" x2="837.57" y2="1502.65"/>
		<line class="st7" x1="633.4" y1="578.57" x2="748.59" y2="463.38"/>
		<line class="st7" x1="748.59" y1="463.38" x2="761.32" y2="450.66"/>
		<line class="st7" x1="761.32" y1="450.66" x2="811.59" y2="400.38"/>
		<line class="st7" x1="633.4" y1="578.57" x2="633.4" y2="704.57"/>
		<polyline class="st7" points="620.68,1530.74 642.41,1509.01 652.33,1499.09 		"/>
		<line class="st7" x1="620.67" y1="573.3" x2="620.67" y2="691.85"/>
		<line class="st7" x1="620.67" y1="691.85" x2="620.67" y2="717.3"/>
		<line class="st7" x1="417.03" y1="369.66" x2="417.03" y2="513.66"/>
		<line class="st7" x1="904.39" y1="658.39" x2="904.39" y2="676.83"/>
		<line class="st7" x1="489.55" y1="508.75" x2="505.13" y2="532.06"/>
		<line class="st7" x1="466.04" y1="1376.1" x2="417.03" y2="1327.1"/>
		<line class="st7" x1="620.68" y1="1530.74" x2="544.27" y2="1454.33"/>
		<line class="st7" x1="633.41" y1="1393.48" x2="660.59" y2="1434.16"/>
		<polyline class="st7" points="633.41,1491.25 639.6,1493.82 652.33,1499.09 698.85,1518.36 		"/>
		<line class="st7" x1="505.13" y1="532.06" x2="517.15" y2="550.06"/>
		<polyline class="st7" points="466.04,1421.93 544.27,1454.33 575.06,1467.09 		"/>
		<polyline class="st7" points="633.41,1420.41 665.29,1468.13 672.5,1478.92 698.85,1518.36 		"/>
		<line class="st7" x1="517.15" y1="550.06" x2="541.83" y2="587"/>
		<line class="st7" x1="575.06" y1="663.66" x2="569.01" y2="649.7"/>
		<line class="st7" x1="569.01" y1="649.7" x2="541.83" y2="587"/>
		<line class="st7" x1="466.03" y1="500.49" x2="498.24" y2="548.69"/>
		<line class="st7" x1="498.24" y1="548.69" x2="510.27" y2="566.69"/>
		<line class="st7" x1="510.27" y1="566.69" x2="564.48" y2="647.82"/>
		<line class="st7" x1="564.48" y1="647.82" x2="575.06" y2="663.66"/>
		<line class="st7" x1="575.06" y1="671.69" x2="575.06" y2="663.66"/>
		<line class="st7" x1="466.03" y1="500.49" x2="466.03" y2="626.45"/>
		<line class="st7" x1="708.99" y1="1493.89" x2="698.85" y2="1518.36"/>
		<line class="st7" x1="751.32" y1="460.65" x2="765.52" y2="497.28"/>
		<line class="st7" x1="742.11" y1="473.81" x2="748.61" y2="490.3"/>
		<line class="st7" x1="748.61" y1="490.3" x2="757.79" y2="513.58"/>
		<line class="st7" x1="659.79" y1="667.82" x2="659.54" y2="636.69"/>
		<line class="st7" x1="742.11" y1="514.54" x2="742.11" y2="469.87"/>
		<line class="st7" x1="650.98" y1="561" x2="660.58" y2="570.59"/>
		<line class="st7" x1="660.58" y1="570.59" x2="673.31" y2="583.32"/>
		<line class="st7" x1="673.31" y1="583.32" x2="742.11" y2="652.12"/>
		<polyline class="st7" points="660.68,1445.59 691.41,1476.31 729.38,1514.29 		"/>
		<line class="st7" x1="742.11" y1="652.12" x2="742.11" y2="743.64"/>
		<line class="st7" x1="653.73" y1="589.21" x2="660.58" y2="596.05"/>
		<line class="st7" x1="660.58" y1="596.05" x2="729.38" y2="664.85"/>
		<line class="st7" x1="643.86" y1="579.33" x2="647.85" y2="583.32"/>
		<line class="st7" x1="742.11" y1="1254.46" x2="742.11" y2="1207.01"/>
		<line class="st7" x1="742.11" y1="1501.56" x2="751.11" y2="1492.56"/>
		<line class="st7" x1="742.11" y1="1501.56" x2="729.38" y2="1514.29"/>
		<line class="st7" x1="647.85" y1="583.32" x2="653.73" y2="589.21"/>
		<line class="st7" x1="729.38" y1="664.85" x2="729.38" y2="730.92"/>
		<line class="st7" x1="742.11" y1="1254.46" x2="708.56" y2="1288.01"/>
		<line class="st7" x1="729.38" y1="730.92" x2="729.38" y2="756.35"/>
		<line class="st7" x1="913.93" y1="648.85" x2="913.93" y2="686.36"/>
		<line class="st7" x1="761.2" y1="648.85" x2="761.2" y2="686.35"/>
		<line class="st7" x1="770.74" y1="658.39" x2="770.74" y2="676.8"/>
		<line class="st7" x1="770.74" y1="676.8" x2="770.74" y2="695.9"/>
		<line class="st7" x1="837.57" y1="629.1" x2="837.57" y2="610.01"/>
		<line class="st7" x1="837.57" y1="610.01" x2="837.57" y2="591.57"/>
		<line class="st7" x1="633.41" y1="1500.01" x2="639.6" y2="1493.82"/>
	</g>
	<g id="SectionCutLight_1_">
		<line class="st2" x1="542.13" y1="1282.72" x2="534.67" y2="1300.72"/>
		<line class="st2" x1="588.62" y1="1329.22" x2="582.43" y2="1344.13"/>
		<line class="st2" x1="615.85" y1="1104.74" x2="671.98" y2="1127.99"/>
		<line class="st2" x1="498.51" y1="1264.56" x2="505.96" y2="1246.56"/>
		<line class="st2" x1="505.96" y1="1246.56" x2="492.19" y2="1232.78"/>
		<line class="st2" x1="492.19" y1="1232.78" x2="484.73" y2="1250.78"/>
		<line class="st2" x1="484.73" y1="1250.78" x2="498.51" y2="1264.56"/>
		<line class="st2" x1="542.13" y1="1282.72" x2="588.62" y2="1329.22"/>
		<line class="st2" x1="534.67" y1="1300.72" x2="575.08" y2="1341.13"/>
		<line class="st2" x1="533.19" y1="1304.3" x2="589.34" y2="1327.52"/>
		<line class="st2" x1="542.13" y1="1282.72" x2="534.67" y2="1300.72"/>
		<line class="st2" x1="588.62" y1="1329.22" x2="582.43" y2="1344.13"/>
		<line class="st2" x1="574.74" y1="1340.99" x2="582.43" y2="1344.13"/>
		<line class="st2" x1="627.42" y1="1323.84" x2="660.68" y2="1357.1"/>
		<line class="st2" x1="627.56" y1="1323.99" x2="670.88" y2="1341.84"/>
		<line class="st2" x1="686.51" y1="1357.48" x2="682.86" y2="1366.26"/>
		<line class="st2" x1="682.86" y1="1366.26" x2="660.68" y2="1357.1"/>
		<line class="st2" x1="574.74" y1="1340.99" x2="582.43" y2="1344.13"/>
		<line class="st2" x1="627.42" y1="1323.84" x2="660.68" y2="1357.1"/>
		<line class="st2" x1="627.56" y1="1323.99" x2="670.88" y2="1341.84"/>
		<line class="st2" x1="682.86" y1="1366.26" x2="660.68" y2="1357.1"/>
		<line class="st2" x1="686.51" y1="1357.48" x2="682.86" y2="1366.26"/>
		<line class="st2" x1="533.19" y1="1304.3" x2="589.34" y2="1327.52"/>
		<line class="st2" x1="534.67" y1="1300.72" x2="575.08" y2="1341.13"/>
		<line class="st2" x1="615.85" y1="1104.74" x2="671.98" y2="1127.99"/>
		<line class="st2" x1="498.51" y1="1264.56" x2="505.96" y2="1246.56"/>
		<line class="st2" x1="505.96" y1="1246.56" x2="492.19" y2="1232.78"/>
		<line class="st2" x1="492.19" y1="1232.78" x2="484.73" y2="1250.78"/>
		<line class="st2" x1="484.73" y1="1250.78" x2="498.51" y2="1264.56"/>
		<line class="st2" x1="542.13" y1="1282.72" x2="588.62" y2="1329.22"/>
	</g>
	<g id="SectionCutHeavyHatch_1_" class="st8">
		<path class="st5" d="M729.38,1425.8l-68.7-68.7l-71.36-29.56l-0.69,1.68l44.79,44.79l-12.73,12.73l-45.61-45.61l-109.06-45.17
			l18.71-45.17l-67.69-67.69l203.65-203.65l203.65,203.65l-12.73,12.73L620.69,1004.9L442.5,1183.1l49.69,49.69l70.27-169.65
			l116.41,48.22l-6.89,16.63l93.54,38.75l-6.89,16.63l-133.04-55.11l-68.88,166.3l70.71,29.29l-25.32-25.32l127.28-127.28
			l12.73,12.73l-114.55,114.55l43.32,43.32l18.87,7.82l-3.24,7.82l55.6,55.6L729.38,1425.8z M533.19,1304.29l1.48-3.57l-36.16-36.16
			l-8.97,21.65L533.19,1304.29z M615.85,1104.74l-43.65-18.08l-66.23,159.9l36.16,36.16L615.85,1104.74z"/>
		<polygon class="st5" points="913.94,1355.8 904.39,1365.35 837.57,1298.53 770.75,1365.35 761.2,1355.8 837.57,1279.43 		"/>
	</g>
	<g id="SectionCutHeavy_1_">
		<polygon class="st9" points="913.94,1355.8 837.57,1279.43 761.2,1355.8 770.75,1365.35 837.57,1298.53 904.39,1365.35 		"/>
		<polygon class="st9" points="533.19,1304.29 489.54,1286.21 498.51,1264.56 534.67,1300.72 		"/>
		<polygon class="st9" points="615.85,1104.74 542.13,1282.72 505.96,1246.56 572.2,1086.66 		"/>
		<polygon class="st9" points="729.38,1425.8 742.11,1413.08 686.51,1357.48 689.75,1349.66 670.88,1341.84 627.56,1298.53 
			742.11,1183.97 729.38,1171.25 602.1,1298.53 627.42,1323.84 556.71,1294.55 625.59,1128.26 758.63,1183.36 765.52,1166.73 
			671.98,1127.99 678.87,1111.36 562.46,1063.14 492.19,1232.78 442.5,1183.1 620.69,1004.9 811.61,1195.82 824.34,1183.1 
			620.69,979.45 417.04,1183.1 484.73,1250.78 466.02,1295.96 575.08,1341.13 620.69,1386.74 633.42,1374.01 588.62,1329.22 
			589.32,1327.54 660.68,1357.1 		"/>
		<polygon class="st9" points="615.85,1104.74 542.13,1282.72 505.96,1246.56 572.2,1086.66 		"/>
		<polygon class="st9" points="533.19,1304.29 489.54,1286.21 498.51,1264.56 534.67,1300.72 		"/>
		<polygon class="st9" points="913.94,1355.8 837.57,1279.43 761.2,1355.8 770.75,1365.35 837.57,1298.53 904.39,1365.35 		"/>
	</g>
</g>
</svg>
