<?xml version="1.0" encoding="utf-8"?>
<!-- Generator: Adobe Illustrator 24.2.1, SVG Export Plug-In . SVG Version: 6.00 Build 0)  -->
<svg version="1.1" xmlns="http://www.w3.org/2000/svg" xmlns:xlink="http://www.w3.org/1999/xlink" x="0px" y="0px"
	 viewBox="0 0 1728 1728" style="enable-background:new 0 0 1728 1728;" xml:space="preserve">
<style type="text/css">
	.st0{fill:none;stroke:#000000;stroke-width:0.5;stroke-miterlimit:10;}
	.st1{fill:none;stroke:#000000;stroke-width:0.5;stroke-linecap:round;stroke-linejoin:round;}
	.st2{fill:#999999;stroke:#999999;stroke-miterlimit:10;}
	.st3{fill:none;stroke:#000000;stroke-width:2;stroke-linecap:round;stroke-linejoin:round;}
	.st4{fill:#999999;}
	.st5{fill:none;stroke:#000000;stroke-width:0.25;stroke-linecap:round;stroke-linejoin:round;stroke-dasharray:5.6693,5.6693;}
	.st6{fill:none;stroke:#000000;stroke-linecap:round;stroke-linejoin:round;}
</style>
<g id="Projection1">
	<line class="st0" x1="863.06" y1="411.46" x2="964.89" y2="470.25"/>
	<line class="st0" x1="1168.53" y1="587.82" x2="1270.36" y2="646.61"/>
	<line class="st0" x1="761.24" y1="822.98" x2="659.42" y2="764.19"/>
	<line class="st0" x1="303.08" y1="323.3" x2="608.51" y2="499.64"/>
	<line class="st0" x1="812.15" y1="852.37" x2="913.98" y2="911.16"/>
	<line class="st0" x1="964.89" y1="940.55" x2="1066.71" y2="999.34"/>
	<line class="st0" x1="506.72" y1="205.73" x2="812.15" y2="382.07"/>
	<line class="st0" x1="1238.34" y1="1061.92" x2="1136.52" y2="1003.13"/>
	<line class="st0" x1="1136.52" y1="950.76" x2="1238.34" y2="1009.55"/>
	<line class="st0" x1="812.15" y1="617.22" x2="913.98" y2="676.01"/>
	<line class="st0" x1="964.89" y1="705.4" x2="1066.71" y2="764.19"/>
	<line class="st0" x1="506.72" y1="440.88" x2="812.15" y2="617.22"/>
	<polyline class="st0" points="608.51,734.79 339.6,579.54 303.08,558.45 	"/>
	<line class="st0" x1="1381.54" y1="935.15" x2="1280.08" y2="876.53"/>
	<line class="st0" x1="1279.72" y1="891.06" x2="1381.54" y2="949.84"/>
	<line class="st0" x1="1305.17" y1="1052.72" x2="1406.99" y2="1111.51"/>
	<line class="st0" x1="1534.27" y1="1023.33" x2="1432.45" y2="964.54"/>
	<line class="st0" x1="1432.45" y1="979.24" x2="1534.27" y2="1038.03"/>
	<line class="st0" x1="1015.8" y1="499.64" x2="1117.62" y2="558.43"/>
</g>
<g id="Drawing::Projection">
	<line class="st1" x1="964.89" y1="705.4" x2="715.98" y2="849.11"/>
	<line class="st1" x1="715.98" y1="1084.26" x2="964.89" y2="940.55"/>
	<line class="st1" x1="563.25" y1="760.92" x2="812.15" y2="617.22"/>
	<line class="st1" x1="659.42" y1="764.19" x2="410.51" y2="907.89"/>
	<line class="st1" x1="1117.62" y1="1028.73" x2="868.72" y2="1172.44"/>
	<line class="st1" x1="868.72" y1="937.29" x2="1117.62" y2="793.58"/>
	<line class="st1" x1="886.34" y1="1309.23" x2="1324.12" y2="1056.48"/>
	<line class="st1" x1="563.25" y1="996.08" x2="812.15" y2="852.37"/>
	<line class="st1" x1="865.35" y1="1159.69" x2="1305.17" y2="905.75"/>
	<line class="st1" x1="979.9" y1="1240.52" x2="1306.12" y2="1052.18"/>
	<line class="st1" x1="659.42" y1="529.04" x2="410.51" y2="672.74"/>
	<line class="st1" x1="102.52" y1="1085.71" x2="102.52" y2="1420.84"/>
	<line class="st1" x1="333.1" y1="1420.84" x2="451.24" y2="1420.84"/>
	<line class="st1" x1="333.1" y1="1651.42" x2="451.24" y2="1651.42"/>
	<line class="st1" x1="681.82" y1="1420.84" x2="789.54" y2="1420.84"/>
	<line class="st1" x1="681.82" y1="1651.42" x2="789.54" y2="1651.42"/>
	<line class="st1" x1="1020.12" y1="1420.84" x2="1145.22" y2="1420.84"/>
	<line class="st1" x1="1020.12" y1="1651.42" x2="1145.22" y2="1651.42"/>
	<line class="st1" x1="1199.05" y1="1464.07" x2="1473.41" y2="1464.07"/>
	<line class="st1" x1="1473.41" y1="1608.18" x2="1343.16" y2="1608.18"/>
	<line class="st1" x1="206.86" y1="1025.47" x2="102.52" y2="1085.71"/>
</g>
<g id="Drawing::Orthographic::OrthographicHatch">
	<path class="st2" d="M1375.8,1651.42h-14.41h-201.76h-14.41v-14.41v-201.76v-14.41h14.41h201.76h14.41v14.41v201.76V1651.42z
		 M1199.05,1593.77h129.7v14.41h14.4l18.23,13.96v0.46h-98.25l37.66,14.41h60.6v-14.41h0.6l-0.6-0.46v-186.89h-201.76v201.76h6.98
		v-51.35l15.6,5.97V1485l2.43,1.86v121.32h13.17v-111.24l-13.17-10.08v-22.79h14.41V1593.77z"/>
	<path class="st2" d="M102.52,1420.84H333.1v230.58H102.52V1420.84z M186.03,1449.66v172.94h69.03v-146.52l15.6,5.97v154.96h48.03
		v-201.76H148.37h-31.45v201.76h31.45v-201.76L186.03,1449.66z"/>
	<polygon class="st2" points="1494.86,1622.6 1494.86,1609.79 1511.59,1622.6 	"/>
	<polygon class="st2" points="1487.82,1593.77 1617.52,1593.77 1617.52,1608.18 1473.41,1608.18 1473.41,1464.07 1487.82,1464.07 	
		"/>
	<path class="st2" d="M451.24,1637.01h-26.36v-176.14l15.6,5.97v155.76h10.76v-201.76h230.58v230.58H451.24V1637.01z
		 M627.66,1538.47l15.6,5.97v92.57h24.15v-201.76H465.65v187.35h28.79v-172.94h133.22V1538.47z M532.09,1464.07v144.11h79.97
		v-144.11H532.09z"/>
	<path class="st2" d="M973.07,1608.18h1.17v-116.65l15.6,11.94v97.39l15.6,5.97v30.17h0.27v-201.76H803.95v14.41h-1.3v79.57
		l-13.11-5.02v-103.38h230.58v230.58H789.54v-14.41h14.41v-14.41v-172.94h115.57l18.83,14.41h34.72v129.7V1608.18z M828.96,1464.07
		h-10.71v144.11h10.71V1464.07z"/>
	<polygon class="st2" points="789.54,1524.21 789.54,1637.01 787.06,1637.01 787.06,1523.26 	"/>
</g>
<g id="Drawing::Orthographic::Section">
	<rect x="818.25" y="1464.07" class="st3" width="10.71" height="144.11"/>
	<polygon class="st3" points="627.66,1538.47 627.66,1449.66 494.43,1449.66 494.43,1622.6 465.65,1622.6 465.65,1435.25 
		667.41,1435.25 667.41,1637.01 643.26,1637.01 643.26,1544.44 	"/>
	<polygon class="st3" points="451.24,1637.01 451.24,1651.42 681.82,1651.42 681.82,1420.84 451.24,1420.84 451.24,1622.6 
		440.47,1622.6 440.47,1466.84 424.87,1460.87 424.87,1637.01 	"/>
	<polygon class="st3" points="1487.82,1593.77 1487.82,1464.07 1473.41,1464.07 1473.41,1608.18 1617.52,1608.18 1617.52,1593.77 	
		"/>
	<polygon class="st3" points="1494.86,1622.6 1511.59,1622.6 1494.86,1609.79 	"/>
	<polygon class="st3" points="1199.05,1593.77 1199.05,1464.07 1184.64,1464.07 1184.64,1486.86 1197.81,1496.94 1197.81,1608.18 
		1184.64,1608.18 1184.64,1486.86 1182.21,1485 1182.21,1591.63 1166.61,1585.66 1166.61,1637.01 1159.63,1637.01 1159.63,1435.25 
		1361.39,1435.25 1361.39,1622.14 1361.99,1622.6 1361.39,1622.6 1361.39,1637.01 1300.79,1637.01 1263.14,1622.6 1361.39,1622.6 
		1361.39,1622.14 1343.16,1608.18 1328.75,1608.18 1328.75,1593.77 	"/>
	<polygon class="st3" points="1375.8,1651.42 1375.8,1637.01 1375.8,1435.25 1375.8,1420.84 1361.39,1420.84 1159.63,1420.84 
		1145.22,1420.84 1145.22,1435.25 1145.22,1637.01 1145.22,1651.42 1159.63,1651.42 1361.39,1651.42 	"/>
	<polygon class="st3" points="973.07,1608.18 973.07,1593.77 973.07,1464.07 938.35,1464.07 919.52,1449.66 803.95,1449.66 
		803.95,1622.6 803.95,1637.01 789.54,1637.01 789.54,1651.42 1020.12,1651.42 1020.12,1420.84 789.54,1420.84 789.54,1524.21 
		802.65,1529.23 802.65,1449.66 803.95,1449.66 803.95,1435.25 1005.71,1435.25 1005.71,1637.01 1005.44,1637.01 1005.44,1606.83 
		989.84,1600.86 989.84,1503.48 974.24,1491.54 974.24,1608.18 	"/>
	<rect x="532.09" y="1464.07" class="st3" width="79.97" height="144.11"/>
	<polygon class="st3" points="789.54,1524.21 787.06,1523.26 787.06,1637.01 789.54,1637.01 	"/>
	<rect x="102.52" y="1420.84" class="st3" width="230.58" height="230.58"/>
	<polygon class="st3" points="186.03,1449.66 148.37,1435.25 148.37,1637.01 116.93,1637.01 116.93,1435.25 148.37,1435.25 
		318.69,1435.25 318.69,1637.01 270.66,1637.01 270.66,1482.04 255.06,1476.07 255.06,1622.6 186.03,1622.6 	"/>
</g>
<g id="Drawing::SectionPull::SectionHatch">
	<polygon class="st4" points="886.34,1309.23 871.56,1317.76 871.56,1304.71 	"/>
	<polygon class="st4" points="247.37,987.39 247.37,781.63 280.63,777.13 280.63,953.49 341.59,918.29 341.59,768.87 355.37,767 
		355.37,925.03 	"/>
	<path class="st4" d="M397.75,1062.23l0.01-176.37l117.66-67.93V994.3L397.75,1062.23z M501.64,987.56V840.59l-70.62,40.78v146.97
		L501.64,987.56z"/>
	<polygon class="st4" points="397.75,1062.23 515.41,994.3 515.41,908.51 529.19,906.64 529.19,1001.04 372.33,1091.61 
		372.33,1076.91 	"/>
	<polygon class="st4" points="359.6,1098.95 336.32,1112.4 336.32,932.77 350.09,930.9 350.09,1089.75 359.6,1084.26 	"/>
	<polygon class="st4" points="372.33,1076.91 359.6,1084.26 359.6,878.5 563.25,760.92 563.25,996.08 359.6,1113.65 359.6,1098.95 
		372.33,1091.61 529.19,1001.04 550.52,988.73 550.52,782.97 372.33,885.85 	"/>
	<path class="st4" d="M410.51,907.89l-203.65,117.58V790.32l203.65-117.58V907.89z M397.78,900.55v-14.68V694.79l-150.42,86.84
		l-27.77,16.04v205.76l27.77-16.04l108-62.35L397.78,900.55z"/>
	<polygon class="st4" points="643.76,934.89 674.43,917.19 674.43,1049.46 665.07,1054.86 665.07,1069.56 547.15,1137.64 
		547.15,990.67 559.88,983.32 627.13,944.49 	"/>
	<polygon class="st4" points="665.07,1084.26 525.06,1165.09 525.06,988.73 627.13,929.8 643.76,934.89 627.13,944.49 
		559.88,983.32 547.15,990.67 537.69,996.13 537.69,1143.1 547.15,1137.64 665.07,1069.56 	"/>
	<polygon class="st4" points="674.43,1049.46 674.43,1064.16 665.07,1069.56 665.07,1054.8 	"/>
	<polygon class="st4" points="675.46,944.6 689.24,948.83 689.24,1070.3 665.07,1084.26 665.07,1069.56 675.46,1063.56 	"/>
	<polygon class="st4" points="703.01,1046.28 703.01,1077.05 525.06,1179.79 525.06,1165.09 689.24,1070.3 689.24,1048.14 	"/>
	<polygon class="st4" points="852.62,1314 852.62,1167.04 865.35,1159.69 865.35,1291.96 979.9,1225.82 979.9,1240.52 	"/>
	<polygon class="st4" points="699.88,1102.09 699.88,1078.85 712.61,1071.51 712.61,1203.78 827.16,1137.64 827.16,1152.34 
		711.52,1219.11 711.52,1105.66 	"/>
	<polygon class="st4" points="855.99,1150.39 697.74,1241.76 697.74,1101.44 699.88,1102.09 699.88,1225.82 839.88,1144.99 
		855.99,1149.93 	"/>
	<polygon class="st4" points="683.96,1264.41 683.96,1212.04 697.74,1210.18 697.74,1241.76 769.21,1200.49 802.47,1195.99 	"/>
	<path class="st4" d="M665.07,1054.86l203.65-117.58v235.15l-203.65,117.58V1054.86z M677.8,1062.21v205.76l178.19-102.88V959.33
		L677.8,1062.21z"/>
	<polygon class="st4" points="512.33,1072.11 512.33,966.68 715.98,849.11 715.98,1084.26 512.33,1201.83 512.33,1187.14 
		703.25,1076.81 703.25,871.15 525.06,974.03 525.06,988.73 523.92,989.39 523.92,1070.54 	"/>
	<polygon class="st4" points="510.14,1072.4 512.33,1072.11 512.33,1187.14 510.14,1188.4 	"/>
</g>
<g id="Drawing::SectionPull::Section">
	<line class="st3" x1="802.47" y1="1195.99" x2="769.21" y2="1200.49"/>
	<line class="st3" x1="699.88" y1="1078.85" x2="525.06" y2="1179.79"/>
	<line class="st3" x1="865.35" y1="1159.69" x2="868.72" y2="1157.74"/>
	<line class="st3" x1="547.15" y1="990.67" x2="547.15" y2="1137.64"/>
	<polygon class="st3" points="410.51,907.89 410.51,672.74 206.86,790.32 206.86,1025.47 	"/>
	<polyline class="st3" points="397.78,900.55 355.37,925.03 247.37,987.39 219.59,1003.42 219.59,797.67 247.37,781.63 
		397.78,694.79 397.78,885.87 	"/>
	<polyline class="st3" points="537.69,996.13 529.19,1001.04 372.33,1091.61 	"/>
	<polyline class="st3" points="397.75,1062.23 372.33,1076.91 359.6,1084.26 359.6,878.5 563.25,760.92 563.25,996.08 
		359.6,1113.65 359.6,1098.95 359.6,1084.26 350.09,1089.75 350.09,930.9 336.32,932.77 336.32,1112.4 359.6,1098.95 
		372.33,1091.61 372.33,1076.91 372.33,885.85 550.52,782.97 550.52,988.73 	"/>
	<polygon class="st3" points="501.64,987.56 431.01,1028.33 431.01,881.36 501.64,840.59 	"/>
	<polygon class="st3" points="397.75,1062.23 515.41,994.3 515.41,817.93 397.76,885.86 	"/>
	<polygon class="st3" points="852.62,1314 979.9,1240.52 979.9,1225.82 865.35,1291.96 865.35,1159.69 852.62,1167.04 	"/>
	<polyline class="st3" points="529.19,1001.04 529.19,906.64 515.41,908.51 	"/>
	<polygon class="st3" points="886.34,1309.23 871.56,1304.71 871.56,1317.76 	"/>
	<polyline class="st3" points="525.06,1165.09 525.06,1179.79 512.33,1187.14 510.14,1188.4 510.14,1072.4 512.33,1072.11 
		512.33,1187.14 512.33,1201.83 715.98,1084.26 715.98,849.11 512.33,966.68 512.33,1072.11 523.92,1070.54 523.92,989.39 
		525.06,988.73 525.06,974.03 703.25,871.15 703.25,1076.91 	"/>
	<polyline class="st3" points="703.01,1077.05 703.01,1046.28 689.24,1048.14 	"/>
	<polyline class="st3" points="674.43,1064.16 674.43,1049.46 674.43,917.19 643.76,934.89 	"/>
	<polyline class="st3" points="677.8,1047.51 677.8,1062.21 855.99,959.33 855.99,1149.93 839.88,1144.99 827.16,1152.34 
		827.16,1137.64 712.61,1203.78 712.61,1071.51 699.88,1078.85 699.88,1102.09 711.52,1105.66 711.52,1219.11 827.16,1152.34 	"/>
	<polyline class="st3" points="852.62,1167.04 802.47,1195.99 683.96,1264.41 677.8,1267.97 677.8,1282.67 	"/>
	<polyline class="st3" points="665.07,1275.32 677.8,1267.97 677.8,1062.21 665.07,1069.56 665.07,1054.86 677.8,1047.51 
		855.99,944.64 868.72,937.29 868.72,951.98 868.72,1157.74 868.72,1172.44 855.99,1179.79 677.8,1282.67 665.07,1290.01 
		665.07,1275.32 665.07,1069.56 547.15,1137.64 537.69,1143.1 537.69,996.13 547.15,990.67 559.88,983.32 627.13,944.49 
		643.76,934.89 627.13,929.8 525.06,988.73 525.06,1165.09 689.24,1070.3 689.24,948.83 675.46,944.6 675.46,1063.56 	"/>
	<polyline class="st3" points="711.52,1219.11 699.88,1225.82 699.88,1102.09 697.74,1101.44 697.74,1241.76 855.99,1150.39 
		855.99,1149.93 856.51,1150.09 855.99,1150.39 855.99,1165.09 855.99,1179.79 	"/>
	<polyline class="st3" points="697.74,1210.18 683.96,1212.04 683.96,1264.41 	"/>
	<polygon class="st3" points="247.37,987.39 355.37,925.03 355.37,767 341.59,768.87 341.59,918.29 280.63,953.49 280.63,777.13 
		247.37,781.63 	"/>
</g>
<g id="Drawing::SectionPullApart::Hidden">
	<line class="st5" x1="964.89" y1="470.25" x2="964.89" y2="705.4"/>
	<line class="st5" x1="1003.07" y1="727.45" x2="1015.8" y2="734.79"/>
	<line class="st5" x1="791.79" y1="811.22" x2="799.25" y2="800.83"/>
	<line class="st5" x1="1015.8" y1="617.22" x2="1015.8" y2="734.79"/>
	<line class="st5" x1="799.25" y1="624.47" x2="791.79" y2="634.86"/>
	<line class="st5" x1="778.02" y1="817.96" x2="785.47" y2="807.57"/>
	<line class="st5" x1="778.02" y1="612.21" x2="785.47" y2="601.82"/>
	<line class="st5" x1="801.74" y1="784.9" x2="773.97" y2="800.93"/>
	<line class="st5" x1="802.65" y1="817.49" x2="791.79" y2="811.22"/>
	<line class="st5" x1="791.79" y1="811.22" x2="791.79" y2="657.43"/>
	<line class="st5" x1="785.47" y1="807.57" x2="773.97" y2="800.93"/>
	<line class="st5" x1="773.97" y1="800.93" x2="773.97" y2="595.17"/>
	<line class="st5" x1="778.02" y1="817.96" x2="778.02" y2="612.21"/>
	<line class="st5" x1="812.15" y1="837.67" x2="778.02" y2="817.96"/>
	<line class="st5" x1="773.97" y1="595.17" x2="801.74" y2="579.14"/>
	<line class="st5" x1="954.19" y1="726.27" x2="890.69" y2="762.93"/>
	<line class="st5" x1="799.42" y1="845.02" x2="761.24" y2="822.98"/>
	<line class="st5" x1="761.24" y1="822.98" x2="761.24" y2="635.59"/>
	<line class="st5" x1="954.19" y1="652.79" x2="954.19" y2="726.25"/>
	<line class="st5" x1="954.19" y1="579.3" x2="918.88" y2="570.86"/>
	<line class="st5" x1="761.24" y1="822.98" x2="964.89" y2="705.4"/>
	<line class="st5" x1="967.97" y1="644.84" x2="967.97" y2="647.22"/>
	<line class="st5" x1="890.69" y1="807.02" x2="990.25" y2="749.55"/>
	<line class="st5" x1="909.13" y1="718.95" x2="909.13" y2="542.58"/>
	<line class="st5" x1="997.21" y1="745.53" x2="1015.8" y2="734.79"/>
	<line class="st5" x1="952.16" y1="492.29" x2="952.16" y2="551.08"/>
	<line class="st5" x1="949.97" y1="552.35" x2="909.13" y2="542.58"/>
	<line class="st5" x1="952.16" y1="552.87" x2="952.16" y2="683.37"/>
	<line class="st5" x1="977.62" y1="712.75" x2="1003.07" y2="727.45"/>
	<line class="st5" x1="909.13" y1="542.58" x2="868.3" y2="599.5"/>
	<line class="st5" x1="1003.07" y1="624.57" x2="1003.07" y2="727.45"/>
	<line class="st5" x1="824.88" y1="624.57" x2="812.15" y2="617.22"/>
	<line class="st5" x1="801.74" y1="579.14" x2="952.16" y2="492.29"/>
	<line class="st5" x1="850.3" y1="800.95" x2="909.13" y2="718.95"/>
	<line class="st5" x1="952.14" y1="698.06" x2="909.74" y2="722.54"/>
	<line class="st5" x1="990.25" y1="734.85" x2="981.74" y2="739.76"/>
	<line class="st5" x1="918.88" y1="570.86" x2="883.56" y2="620.08"/>
	<line class="st5" x1="918.88" y1="599.69" x2="918.88" y2="570.86"/>
	<line class="st5" x1="918.88" y1="717.83" x2="918.88" y2="673.18"/>
	<line class="st5" x1="913.98" y1="724.66" x2="918.88" y2="717.83"/>
	<line class="st5" x1="890.69" y1="757.11" x2="908.25" y2="732.65"/>
	<line class="st5" x1="918.88" y1="717.83" x2="951.81" y2="725.7"/>
	<line class="st5" x1="981.74" y1="739.76" x2="890.69" y2="792.33"/>
	<line class="st5" x1="759.31" y1="844.04" x2="778.02" y2="817.96"/>
	<line class="st5" x1="782.82" y1="823.72" x2="791.79" y2="811.22"/>
	<line class="st5" x1="967.97" y1="733.02" x2="890.69" y2="777.63"/>
	<line class="st5" x1="981.74" y1="645.36" x2="967.97" y2="647.22"/>
	<line class="st5" x1="799.25" y1="800.83" x2="824.88" y2="815.63"/>
	<line class="st5" x1="802.65" y1="828.46" x2="782.82" y2="823.72"/>
	<line class="st5" x1="967.97" y1="647.22" x2="967.97" y2="733.02"/>
	<line class="st5" x1="895.97" y1="715.8" x2="967.97" y2="733.02"/>
	<line class="st5" x1="895.97" y1="566.37" x2="895.97" y2="715.8"/>
	<line class="st5" x1="967.97" y1="647.22" x2="895.97" y2="566.37"/>
	<line class="st5" x1="791.79" y1="811.22" x2="785.47" y2="807.57"/>
	<line class="st5" x1="981.74" y1="645.36" x2="981.74" y2="739.76"/>
	<line class="st5" x1="812.15" y1="411.46" x2="812.15" y2="382.07"/>
	<line class="st5" x1="909.74" y1="722.54" x2="981.74" y2="739.76"/>
	<line class="st5" x1="909.74" y1="564.51" x2="909.74" y2="722.54"/>
	<line class="st5" x1="608.51" y1="734.79" x2="633.96" y2="720.1"/>
	<line class="st5" x1="753.92" y1="650.84" x2="812.15" y2="617.22"/>
	<line class="st5" x1="812.15" y1="617.22" x2="812.15" y2="558.43"/>
	<line class="st5" x1="976.76" y1="639.76" x2="981.74" y2="645.36"/>
	<line class="st5" x1="812.15" y1="455.55" x2="812.15" y2="411.46"/>
	<line class="st5" x1="812.15" y1="411.46" x2="753.92" y2="445.08"/>
	<line class="st5" x1="753.92" y1="445.08" x2="633.96" y2="514.34"/>
	<line class="st5" x1="633.96" y1="514.34" x2="633.96" y2="720.1"/>
	<line class="st5" x1="633.96" y1="720.1" x2="672.15" y2="698.05"/>
	<line class="st5" x1="909.74" y1="564.51" x2="967.97" y2="629.89"/>
	<line class="st5" x1="699.92" y1="682.02" x2="753.92" y2="650.84"/>
	<line class="st5" x1="895.97" y1="715.8" x2="850.3" y2="742.16"/>
	<line class="st5" x1="850.3" y1="639.25" x2="863.06" y2="646.61"/>
	<line class="st5" x1="909.74" y1="722.54" x2="801.74" y2="784.9"/>
	<line class="st5" x1="863.06" y1="529.04" x2="863.06" y2="602.52"/>
	<line class="st5" x1="799.25" y1="800.83" x2="824.88" y2="765.1"/>
	<line class="st5" x1="863.06" y1="606.8" x2="863.06" y2="646.61"/>
	<line class="st5" x1="799.25" y1="624.47" x2="799.25" y2="800.83"/>
	<line class="st5" x1="835" y1="618.72" x2="835" y2="574.63"/>
	<line class="st5" x1="785.47" y1="807.57" x2="801.74" y2="784.9"/>
	<line class="st5" x1="785.47" y1="601.82" x2="785.47" y2="807.57"/>
	<line class="st5" x1="801.74" y1="784.9" x2="801.74" y2="579.14"/>
	<line class="st5" x1="759.31" y1="706.52" x2="835" y2="662.81"/>
	<line class="st5" x1="835" y1="574.63" x2="799.25" y2="624.47"/>
	<line class="st5" x1="850.3" y1="653.98" x2="863.06" y2="646.61"/>
	<line class="st5" x1="850.34" y1="433.51" x2="812.15" y2="411.46"/>
	<line class="st5" x1="824.88" y1="624.57" x2="835" y2="630.41"/>
	<line class="st5" x1="785.47" y1="601.82" x2="799.25" y2="624.47"/>
	<line class="st5" x1="801.74" y1="579.14" x2="785.47" y2="601.82"/>
	<line class="st5" x1="850.34" y1="536.39" x2="850.34" y2="609.87"/>
	<line class="st5" x1="909.74" y1="564.51" x2="895.97" y2="566.37"/>
	<line class="st5" x1="928.3" y1="755.16" x2="928.3" y2="892.95"/>
	<line class="st5" x1="672.15" y1="536.39" x2="659.42" y2="529.04"/>
	<line class="st5" x1="928.3" y1="892.95" x2="929.78" y2="890.89"/>
	<line class="st5" x1="672.15" y1="742.14" x2="633.96" y2="720.1"/>
	<line class="st5" x1="1155.57" y1="785" x2="1141.79" y2="786.86"/>
	<line class="st5" x1="1083.57" y1="704.15" x2="1069.79" y2="706.01"/>
	<line class="st5" x1="835" y1="648.12" x2="807.92" y2="663.75"/>
	<line class="st5" x1="1141.79" y1="786.86" x2="1069.79" y2="706.01"/>
	<line class="st5" x1="807.92" y1="663.75" x2="759.31" y2="691.82"/>
	<line class="st5" x1="964.89" y1="911.16" x2="936.93" y2="895.01"/>
	<line class="st5" x1="763.66" y1="473.36" x2="751.18" y2="490.76"/>
	<line class="st5" x1="1155.57" y1="785" x2="1155.57" y2="815.77"/>
	<line class="st5" x1="770.55" y1="463.76" x2="753.92" y2="445.08"/>
	<line class="st5" x1="753.92" y1="445.08" x2="699.92" y2="520.35"/>
	<line class="st5" x1="1083.57" y1="798.55" x2="1155.57" y2="815.77"/>
	<line class="st5" x1="699.92" y1="726.11" x2="753.92" y2="650.84"/>
	<line class="st5" x1="753.92" y1="650.84" x2="753.92" y2="445.08"/>
	<line class="st5" x1="1083.57" y1="704.15" x2="1083.57" y2="798.55"/>
	<line class="st5" x1="770.55" y1="463.76" x2="779.85" y2="474.2"/>
	<line class="st5" x1="1083.57" y1="704.15" x2="1155.57" y2="785"/>
	<line class="st5" x1="753.92" y1="650.84" x2="807.92" y2="663.75"/>
	<line class="st5" x1="952.13" y1="859.74" x2="926.7" y2="874.41"/>
	<line class="st5" x1="807.92" y1="560.87" x2="807.92" y2="663.75"/>
	<line class="st5" x1="1128.01" y1="802.28" x2="1126.98" y2="802.88"/>
	<line class="st5" x1="759.31" y1="655.79" x2="763.66" y2="649.72"/>
	<line class="st5" x1="763.66" y1="649.72" x2="763.66" y2="586.43"/>
	<line class="st5" x1="1141.79" y1="809.02" x2="1066.71" y2="852.37"/>
	<line class="st5" x1="763.66" y1="483.55" x2="763.66" y2="473.36"/>
	<line class="st5" x1="1103.85" y1="649.53" x2="1056.01" y2="638.09"/>
	<line class="st5" x1="990.25" y1="734.85" x2="951.82" y2="725.66"/>
	<line class="st5" x1="769.65" y1="480.09" x2="763.66" y2="473.36"/>
	<line class="st5" x1="763.66" y1="649.72" x2="794.14" y2="657.01"/>
	<line class="st5" x1="1141.79" y1="720.84" x2="1141.79" y2="809.02"/>
	<line class="st5" x1="794.14" y1="568.83" x2="794.14" y2="657.01"/>
	<line class="st5" x1="1110.74" y1="625.23" x2="1069.79" y2="615.44"/>
	<line class="st5" x1="794.14" y1="657.01" x2="759.31" y2="677.12"/>
	<line class="st5" x1="952.13" y1="683.37" x2="937.23" y2="704.13"/>
	<line class="st5" x1="937.23" y1="880.49" x2="964.89" y2="896.46"/>
	<line class="st5" x1="937.23" y1="880.49" x2="952.13" y2="859.74"/>
	<line class="st5" x1="1069.79" y1="791.8" x2="1141.79" y2="809.02"/>
	<line class="st5" x1="990.25" y1="881.82" x2="951.82" y2="872.63"/>
	<line class="st5" x1="1126.98" y1="681.25" x2="1124.49" y2="676.26"/>
	<line class="st5" x1="1124.49" y1="676.26" x2="1116.06" y2="659.34"/>
	<line class="st5" x1="1125.64" y1="655.13" x2="1126.98" y2="657.83"/>
	<line class="st5" x1="1103.85" y1="634.84" x2="1097.69" y2="643.43"/>
	<line class="st5" x1="985.39" y1="678.87" x2="1056.01" y2="638.09"/>
	<line class="st5" x1="990.25" y1="823.03" x2="985.39" y2="825.84"/>
	<line class="st5" x1="1056.01" y1="785.06" x2="997.21" y2="819.01"/>
	<line class="st5" x1="952.13" y1="683.37" x2="1069.79" y2="615.44"/>
	<line class="st5" x1="1069.79" y1="791.8" x2="952.13" y2="859.74"/>
	<line class="st5" x1="1056.01" y1="638.09" x2="1056.01" y2="785.06"/>
	<line class="st5" x1="1103.85" y1="649.53" x2="1112.16" y2="651.52"/>
	<line class="st5" x1="952.13" y1="859.74" x2="952.13" y2="683.37"/>
	<line class="st5" x1="951.82" y1="725.66" x2="951.82" y2="872.63"/>
	<line class="st5" x1="985.39" y1="678.87" x2="951.82" y2="725.66"/>
	<line class="st5" x1="985.39" y1="825.84" x2="985.39" y2="678.87"/>
	<line class="st5" x1="1110.74" y1="625.23" x2="1103.85" y2="634.84"/>
	<line class="st5" x1="1114.86" y1="633.51" x2="1110.74" y2="625.23"/>
	<line class="st5" x1="937.23" y1="704.13" x2="929.78" y2="714.52"/>
	<line class="st5" x1="976.47" y1="728.11" x2="936.93" y2="718.65"/>
	<line class="st5" x1="926.7" y1="874.41" x2="926.7" y2="683.35"/>
	<line class="st5" x1="937.23" y1="880.49" x2="926.7" y2="874.41"/>
	<line class="st5" x1="937.23" y1="880.49" x2="937.23" y2="704.13"/>
	<line class="st5" x1="937.23" y1="704.13" x2="977.62" y2="727.45"/>
	<line class="st5" x1="936.93" y1="764.85" x2="976.47" y2="809.26"/>
	<line class="st5" x1="1152.44" y1="817.57" x2="1066.71" y2="867.07"/>
	<line class="st5" x1="1083.57" y1="798.55" x2="926.7" y2="889.11"/>
	<line class="st5" x1="1092.07" y1="793.64" x2="1083.57" y2="798.55"/>
	<line class="st5" x1="926.7" y1="683.35" x2="1104.89" y2="580.48"/>
	<line class="st5" x1="977.62" y1="712.75" x2="964.89" y2="705.4"/>
	<line class="st5" x1="1155.81" y1="712.75" x2="1155.81" y2="815.63"/>
	<line class="st5" x1="1130.35" y1="800.93" x2="1155.81" y2="815.63"/>
	<line class="st5" x1="1155.81" y1="609.87" x2="1104.89" y2="580.48"/>
	<line class="st5" x1="1064.52" y1="883.03" x2="1168.53" y2="822.98"/>
	<line class="st5" x1="913.98" y1="911.16" x2="1117.62" y2="793.58"/>
	<line class="st5" x1="913.98" y1="881.76" x2="913.98" y2="739.08"/>
	<line class="st5" x1="929.78" y1="890.89" x2="929.78" y2="714.52"/>
	<line class="st5" x1="913.98" y1="911.16" x2="913.98" y2="896.46"/>
	<line class="st5" x1="926.73" y1="918.52" x2="913.98" y2="911.16"/>
	<line class="st5" x1="1168.53" y1="705.4" x2="1168.53" y2="822.98"/>
	<line class="st5" x1="1155.81" y1="815.63" x2="1168.53" y2="822.98"/>
	<line class="st5" x1="1117.62" y1="558.43" x2="1117.62" y2="793.58"/>
	<line class="st5" x1="926.7" y1="889.11" x2="913.98" y2="896.46"/>
	<line class="st5" x1="926.7" y1="874.41" x2="913.98" y2="881.76"/>
	<line class="st5" x1="929.78" y1="890.89" x2="937.23" y2="880.49"/>
	<line class="st5" x1="913.98" y1="896.46" x2="913.98" y2="881.76"/>
	<line class="st5" x1="913.98" y1="896.46" x2="964.89" y2="925.85"/>
	<line class="st5" x1="913.98" y1="881.76" x2="904.47" y2="887.25"/>
	<line class="st5" x1="913.98" y1="896.46" x2="890.69" y2="909.9"/>
	<line class="st5" x1="913.98" y1="881.76" x2="936.93" y2="895.01"/>
	<line class="st5" x1="936.93" y1="895.01" x2="904.47" y2="887.25"/>
	<line class="st5" x1="936.93" y1="895.01" x2="936.93" y2="764.85"/>
	<line class="st5" x1="904.47" y1="887.25" x2="904.47" y2="728.41"/>
	<line class="st5" x1="1066.71" y1="984.64" x2="1066.71" y2="869.61"/>
	<line class="st5" x1="1079.44" y1="977.29" x2="1066.71" y2="984.64"/>
	<line class="st5" x1="1082.2" y1="787.83" x2="1078.29" y2="786.89"/>
	<line class="st5" x1="1078.29" y1="868.04" x2="1078.29" y2="786.89"/>
	<line class="st5" x1="1291.47" y1="879.26" x2="1312.34" y2="884.25"/>
	<line class="st5" x1="1312.34" y1="884.25" x2="1309.07" y2="888.81"/>
	<line class="st5" x1="1079.44" y1="786.23" x2="1079.44" y2="771.54"/>
	<line class="st5" x1="1291.47" y1="842.37" x2="1304.02" y2="867.56"/>
	<line class="st5" x1="1312.34" y1="884.25" x2="1304.02" y2="867.56"/>
	<line class="st5" x1="1078.29" y1="868.04" x2="1082.2" y2="872.44"/>
	<line class="st5" x1="1078.29" y1="868.04" x2="1066.71" y2="869.61"/>
	<line class="st5" x1="1115.46" y1="998.09" x2="1072.01" y2="987.7"/>
	<line class="st5" x1="1115.46" y1="927.11" x2="1072.01" y2="878.32"/>
	<line class="st5" x1="1258.21" y1="844.71" x2="1275.58" y2="864.21"/>
	<line class="st5" x1="1258.21" y1="874.75" x2="1292.21" y2="882.88"/>
	<line class="st5" x1="1292.21" y1="882.88" x2="1275.58" y2="864.21"/>
	<line class="st5" x1="1252.12" y1="951.08" x2="1308.54" y2="918.51"/>
	<line class="st5" x1="1255.02" y1="934.71" x2="1305.17" y2="905.75"/>
	<line class="st5" x1="1130.35" y1="800.93" x2="1117.62" y2="793.58"/>
	<line class="st5" x1="1079.44" y1="771.54" x2="1257.63" y2="668.66"/>
	<line class="st5" x1="1308.54" y1="698.05" x2="1257.63" y2="668.66"/>
	<line class="st5" x1="1308.54" y1="903.81" x2="1308.54" y2="893"/>
	<line class="st5" x1="1286.37" y1="891.01" x2="1308.54" y2="903.81"/>
	<line class="st5" x1="1257.63" y1="874.41" x2="1258.21" y2="874.75"/>
	<line class="st5" x1="1257.63" y1="774.46" x2="1257.63" y2="874.41"/>
	<line class="st5" x1="1257.63" y1="668.66" x2="1257.63" y2="727.45"/>
	<line class="st5" x1="1308.54" y1="918.51" x2="1317.9" y2="913.1"/>
	<line class="st5" x1="1066.71" y1="999.34" x2="1165.16" y2="942.5"/>
	<line class="st5" x1="1072.01" y1="987.7" x2="1066.71" y2="984.64"/>
	<line class="st5" x1="1066.71" y1="986.43" x2="1066.71" y2="984.64"/>
	<line class="st5" x1="1308.54" y1="903.81" x2="1321.27" y2="911.16"/>
	<line class="st5" x1="1270.36" y1="646.61" x2="1270.36" y2="881.76"/>
	<line class="st5" x1="1292.44" y1="883.71" x2="1279.72" y2="891.06"/>
	<line class="st5" x1="1305.17" y1="891.06" x2="1252.12" y2="921.69"/>
	<line class="st5" x1="1124.35" y1="801.36" x2="1141.54" y2="811.28"/>
	<line class="st5" x1="1152.44" y1="964.54" x2="1124.35" y2="948.33"/>
	<line class="st5" x1="1268.69" y1="873.81" x2="1291.47" y2="879.26"/>
	<line class="st5" x1="1308.54" y1="889.11" x2="1291.47" y2="879.26"/>
	<line class="st5" x1="1092.07" y1="793.64" x2="1101.52" y2="788.18"/>
	<line class="st5" x1="1101.52" y1="935.15" x2="1092.07" y2="940.61"/>
	<line class="st5" x1="1229.84" y1="861.07" x2="1228.8" y2="861.66"/>
	<line class="st5" x1="1079.44" y1="786.23" x2="1181.51" y2="727.3"/>
	<line class="st5" x1="1124.35" y1="801.36" x2="1092.07" y2="793.64"/>
	<line class="st5" x1="1092.07" y1="940.61" x2="1092.07" y2="793.64"/>
	<line class="st5" x1="1082.2" y1="872.44" x2="1082.2" y2="787.83"/>
	<line class="st5" x1="1079.44" y1="962.6" x2="1079.44" y2="786.23"/>
	<line class="st5" x1="1291.47" y1="879.26" x2="1291.47" y2="842.37"/>
	<line class="st5" x1="1243.61" y1="746.33" x2="1243.61" y2="845.65"/>
	<line class="st5" x1="1082.2" y1="787.83" x2="1079.44" y2="786.23"/>
	<line class="st5" x1="1129.9" y1="799.24" x2="1082.2" y2="787.83"/>
	<line class="st5" x1="1229.84" y1="861.07" x2="1269.77" y2="870.62"/>
	<line class="st5" x1="1229.84" y1="742.11" x2="1229.84" y2="861.07"/>
	<line class="st5" x1="1124.35" y1="948.33" x2="1092.07" y2="940.61"/>
	<line class="st5" x1="1239.04" y1="760.59" x2="1229.84" y2="742.11"/>
	<line class="st5" x1="1239.04" y1="744.93" x2="1229.84" y2="742.11"/>
	<line class="st5" x1="1129.9" y1="799.24" x2="1130.66" y2="800.75"/>
	<line class="st5" x1="1136.79" y1="789.64" x2="1129.9" y2="799.24"/>
	<line class="st5" x1="1183.66" y1="752.58" x2="1198.14" y2="732.4"/>
	<line class="st5" x1="1162.14" y1="782.58" x2="1183.66" y2="752.58"/>
	<line class="st5" x1="1181.51" y1="727.3" x2="1136.79" y2="789.64"/>
	<line class="st5" x1="1198.14" y1="732.4" x2="1181.51" y2="727.3"/>
	<line class="st5" x1="1255.02" y1="934.71" x2="1252.12" y2="936.39"/>
	<line class="st5" x1="1082.2" y1="872.44" x2="1115.46" y2="927.11"/>
	<line class="st5" x1="1082.2" y1="872.44" x2="1130.35" y2="926.5"/>
	<line class="st5" x1="1082.2" y1="964.19" x2="1082.2" y2="872.44"/>
	<line class="st5" x1="1150.29" y1="980.48" x2="1082.2" y2="964.19"/>
	<line class="st5" x1="1079.44" y1="962.6" x2="1082.2" y2="964.19"/>
	<line class="st5" x1="1130.35" y1="943.84" x2="1115.46" y2="927.12"/>
	<line class="st5" x1="1115.46" y1="998.09" x2="1115.46" y2="927.12"/>
	<line class="st5" x1="1130.35" y1="1001.65" x2="1115.46" y2="998.09"/>
	<line class="st5" x1="1255.02" y1="934.71" x2="1252.12" y2="935.1"/>
	<line class="st5" x1="1221.76" y1="939.21" x2="1268.69" y2="873.81"/>
	<line class="st5" x1="1286.37" y1="891.01" x2="1272.6" y2="868.36"/>
	<line class="st5" x1="1255.02" y1="934.71" x2="1286.37" y2="891.01"/>
	<line class="st5" x1="1254.26" y1="876.36" x2="1079.44" y2="977.29"/>
	<line class="st5" x1="1243.61" y1="867.81" x2="1079.44" y2="962.6"/>
	<line class="st5" x1="1079.44" y1="977.29" x2="1079.44" y2="962.6"/>
	<line class="st5" x1="1272.6" y1="868.36" x2="1258.21" y2="844.71"/>
	<line class="st5" x1="1257.39" y1="843.78" x2="1243.61" y2="845.65"/>
	<line class="st5" x1="1268.69" y1="873.81" x2="1243.61" y2="845.65"/>
	<line class="st5" x1="1243.61" y1="867.81" x2="1268.69" y2="873.81"/>
	<line class="st5" x1="1243.61" y1="845.65" x2="1243.61" y2="867.81"/>
	<line class="st5" x1="1258.21" y1="874.75" x2="1286.37" y2="891.01"/>
	<line class="st5" x1="1115.46" y1="998.09" x2="1079.44" y2="977.29"/>
	<line class="st5" x1="1257.39" y1="843.78" x2="1258.21" y2="844.71"/>
	<line class="st5" x1="1258.21" y1="874.75" x2="1258.21" y2="844.71"/>
	<line class="st5" x1="1257.39" y1="874.55" x2="1258.21" y2="874.75"/>
	<line class="st5" x1="1257.39" y1="843.78" x2="1257.39" y2="874.55"/>
	<line class="st5" x1="1145.1" y1="806.32" x2="1136.79" y2="804.33"/>
	<line class="st5" x1="1136.79" y1="804.33" x2="1124.5" y2="801.39"/>
	<line class="st5" x1="1152.44" y1="955.04" x2="1124.35" y2="948.33"/>
	<line class="st5" x1="1145.1" y1="806.32" x2="1164.07" y2="844.38"/>
	<line class="st5" x1="1279.72" y1="891.06" x2="1252.12" y2="906.99"/>
	<line class="st5" x1="1124.35" y1="948.33" x2="1101.52" y2="935.15"/>
	<line class="st5" x1="1228.8" y1="861.66" x2="1101.52" y2="935.15"/>
	<line class="st5" x1="1228.8" y1="861.66" x2="1239.04" y2="867.57"/>
	<line class="st5" x1="1279.72" y1="891.06" x2="1279.72" y2="876.36"/>
	<line class="st5" x1="1254.26" y1="876.36" x2="1239.04" y2="867.57"/>
	<line class="st5" x1="1142.11" y1="796.91" x2="1149" y2="800.89"/>
	<line class="st5" x1="1124.49" y1="786.74" x2="1142.11" y2="796.91"/>
	<line class="st5" x1="1124.49" y1="919.01" x2="1124.49" y2="786.74"/>
	<line class="st5" x1="1279.72" y1="876.36" x2="1254.26" y2="891.06"/>
	<line class="st5" x1="1124.49" y1="919.01" x2="1165.16" y2="942.5"/>
	<line class="st5" x1="1165.16" y1="895.53" x2="1124.49" y2="919.01"/>
	<line class="st5" x1="1198.14" y1="732.4" x2="1181.51" y2="742"/>
	<line class="st5" x1="1228.8" y1="714.69" x2="1198.14" y2="732.4"/>
	<line class="st5" x1="1101.52" y1="788.18" x2="1114.25" y2="780.83"/>
	<line class="st5" x1="1228.8" y1="846.97" x2="1228.8" y2="861.66"/>
	<line class="st5" x1="1181.51" y1="742" x2="1114.25" y2="780.83"/>
	<line class="st5" x1="1111.76" y1="794.09" x2="1124.35" y2="801.36"/>
	<line class="st5" x1="1228.8" y1="714.69" x2="1239.04" y2="720.6"/>
	<line class="st5" x1="1228.8" y1="846.97" x2="1228.8" y2="714.69"/>
	<line class="st5" x1="1167.03" y1="762.18" x2="1124.49" y2="786.74"/>
	<line class="st5" x1="1183.66" y1="752.58" x2="1167.03" y2="762.18"/>
	<line class="st5" x1="1239.04" y1="720.6" x2="1183.66" y2="752.58"/>
	<line class="st5" x1="1239.04" y1="738.18" x2="1239.04" y2="720.6"/>
	<line class="st5" x1="1124.35" y1="801.36" x2="1124.35" y2="948.33"/>
	<line class="st5" x1="1101.52" y1="788.18" x2="1111.76" y2="794.09"/>
	<line class="st5" x1="1101.52" y1="935.15" x2="1101.52" y2="788.18"/>
	<line class="st5" x1="1269.63" y1="1002.81" x2="1302.89" y2="1022.01"/>
	<line class="st5" x1="1314.87" y1="1024.88" x2="1302.89" y2="1000.83"/>
	<line class="st5" x1="1269.63" y1="910.67" x2="1317.9" y2="1007.53"/>
	<line class="st5" x1="1432.45" y1="979.24" x2="1432.45" y2="964.54"/>
	<line class="st5" x1="1381.54" y1="949.84" x2="1381.54" y2="935.15"/>
	<line class="st5" x1="1386.81" y1="952.89" x2="1381.54" y2="949.84"/>
	<line class="st5" x1="1406.99" y1="964.54" x2="1386.81" y2="952.89"/>
	<line class="st5" x1="1432.45" y1="979.24" x2="1429.96" y2="977.8"/>
	<line class="st5" x1="1266.99" y1="1001.28" x2="1266.99" y2="869.01"/>
	<line class="st5" x1="1269.63" y1="910.67" x2="1269.63" y2="1002.81"/>
	<line class="st5" x1="1302.89" y1="1000.83" x2="1269.63" y2="910.67"/>
	<line class="st5" x1="1302.89" y1="1000.83" x2="1302.89" y2="1022.01"/>
	<line class="st5" x1="1432.45" y1="964.54" x2="1406.99" y2="979.24"/>
	<line class="st5" x1="1302.89" y1="1022.01" x2="1317.9" y2="1030.68"/>
	<line class="st5" x1="1266.99" y1="1001.28" x2="1269.63" y2="1002.81"/>
	<line class="st5" x1="1317.9" y1="971.89" x2="1266.99" y2="1001.28"/>
	<line class="st5" x1="1432.45" y1="979.24" x2="1406.99" y2="993.94"/>
	<line class="st5" x1="1302.89" y1="1022.01" x2="1314.87" y2="1024.88"/>
	<line class="st5" x1="1330.08" y1="1031.96" x2="1265.89" y2="1016.61"/>
	<line class="st5" x1="1269.63" y1="1002.81" x2="1321.76" y2="1015.28"/>
	<line class="st5" x1="1265.89" y1="1016.61" x2="1265.89" y2="903.17"/>
	<line class="st5" x1="1265.89" y1="903.17" x2="1269.63" y2="910.67"/>
	<line class="st5" x1="1302.89" y1="1000.83" x2="1259.44" y2="913.63"/>
	<line class="st5" x1="1265.89" y1="903.17" x2="1254.26" y2="899.6"/>
	<line class="st5" x1="1321.76" y1="1015.28" x2="1330.08" y2="1031.96"/>
	<line class="st5" x1="1323.19" y1="1041.56" x2="1314.87" y2="1024.88"/>
	<line class="st5" x1="1317.9" y1="1020.66" x2="1314.87" y2="1024.88"/>
	<line class="st5" x1="1269.2" y1="1031.96" x2="1271.22" y2="1029.14"/>
	<line class="st5" x1="1271.22" y1="1029.14" x2="1278.53" y2="1037.34"/>
	<line class="st5" x1="1269.2" y1="1031.96" x2="1259.44" y2="1026.32"/>
	<line class="st5" x1="1356.85" y1="993.49" x2="1313.48" y2="1053.94"/>
	<line class="st5" x1="1287.85" y1="1047.81" x2="1323.59" y2="998"/>
	<line class="st5" x1="1356.85" y1="993.49" x2="1323.59" y2="998"/>
	<line class="st5" x1="1323.19" y1="1041.56" x2="1259.44" y2="1026.32"/>
	<line class="st5" x1="1252.12" y1="1039.26" x2="1252.12" y2="1007.68"/>
	<line class="st5" x1="1287.85" y1="1047.81" x2="1252.12" y2="1039.26"/>
	<line class="st5" x1="1306.12" y1="1052.18" x2="1302.89" y2="1051.41"/>
	<line class="st5" x1="1410.89" y1="947.6" x2="1410.36" y2="947.9"/>
	<line class="st5" x1="1323.19" y1="1041.56" x2="1323.48" y2="1042.15"/>
	<line class="st5" x1="1323.19" y1="1041.56" x2="1330.08" y2="1031.96"/>
	<line class="st5" x1="1330.08" y1="1031.96" x2="1386.81" y2="952.89"/>
	<line class="st5" x1="1386.81" y1="952.89" x2="1394.26" y2="942.5"/>
	<line class="st5" x1="1408.61" y1="950.78" x2="1356.89" y2="1022.86"/>
	<line class="st5" x1="1381.54" y1="949.84" x2="1265.89" y2="1016.61"/>
	<line class="st5" x1="1394.26" y1="942.5" x2="1381.54" y2="949.84"/>
	<line class="st5" x1="1410.36" y1="947.9" x2="1252.12" y2="1039.26"/>
	<line class="st5" x1="1265.89" y1="1016.61" x2="1254.26" y2="1023.33"/>
	<line class="st5" x1="1259.44" y1="1026.32" x2="1254.26" y2="1023.33"/>
	<line class="st5" x1="1259.44" y1="1026.32" x2="1259.44" y2="1015.9"/>
	<line class="st5" x1="1254.26" y1="1023.33" x2="1254.26" y2="899.6"/>
	<line class="st5" x1="1440.71" y1="1106.74" x2="1425.94" y2="1115.27"/>
	<line class="st5" x1="1425.94" y1="1115.27" x2="1425.94" y2="1102.21"/>
	<line class="st5" x1="1433.33" y1="1117.04" x2="1425.94" y2="1115.27"/>
	<line class="st5" x1="1440.71" y1="1106.74" x2="1433.33" y2="1117.04"/>
	<line class="st5" x1="1425.94" y1="1102.21" x2="1433.33" y2="1117.04"/>
	<line class="st5" x1="1440.71" y1="1106.74" x2="1425.94" y2="1102.21"/>
	<line class="st5" x1="1557.24" y1="1051.29" x2="1557.24" y2="1036.59"/>
	<line class="st5" x1="1493.6" y1="1088.03" x2="1557.24" y2="1051.29"/>
	<line class="st5" x1="1557.24" y1="1051.29" x2="1534.27" y2="1038.03"/>
	<line class="st5" x1="1534.27" y1="1038.03" x2="1534.27" y2="1023.33"/>
	<line class="st5" x1="1419.72" y1="1089.47" x2="1419.72" y2="957.19"/>
	<line class="st5" x1="1534.27" y1="1023.33" x2="1538.15" y2="1025.57"/>
	<line class="st5" x1="1480.87" y1="1080.68" x2="1557.24" y2="1036.59"/>
	<line class="st5" x1="1419.72" y1="1089.47" x2="1442.69" y2="1102.73"/>
	<line class="st5" x1="1442.69" y1="1076.21" x2="1419.72" y2="1089.47"/>
	<line class="st5" x1="1534.27" y1="1023.33" x2="1461.78" y2="1065.18"/>
	<line class="st5" x1="1534.27" y1="1038.03" x2="1406.99" y2="1111.51"/>
	<line class="st5" x1="1461.78" y1="1069.66" x2="1471.33" y2="1064.15"/>
	<line class="st5" x1="1604.97" y1="1064.15" x2="1614.52" y2="1069.66"/>
	<line class="st5" x1="1538.15" y1="937.38" x2="1538.15" y2="948.41"/>
	<line class="st5" x1="1099.84" y1="668.7" x2="1083.21" y2="678.3"/>
	<line class="st5" x1="1126.98" y1="802.88" x2="1066.71" y2="837.67"/>
	<line class="st5" x1="997.21" y1="874.92" x2="1124.49" y2="801.44"/>
	<line class="st5" x1="1126.98" y1="788.18" x2="1126.98" y2="802.88"/>
	<line class="st5" x1="1083.21" y1="678.3" x2="1009.94" y2="720.6"/>
	<line class="st5" x1="1126.98" y1="788.18" x2="1126.98" y2="729.39"/>
	<line class="st5" x1="1124.49" y1="676.26" x2="1124.49" y2="654.47"/>
	<line class="st5" x1="1124.49" y1="786.74" x2="1124.49" y2="676.26"/>
	<line class="st5" x1="997.21" y1="727.95" x2="999.7" y2="729.39"/>
	<line class="st5" x1="997.21" y1="727.95" x2="997.21" y2="730.83"/>
	<line class="st5" x1="1009.94" y1="720.6" x2="997.21" y2="727.95"/>
	<line class="st5" x1="1356.85" y1="993.49" x2="1238.34" y2="1061.92"/>
	<line class="st5" x1="1259.44" y1="1015.9" x2="1271.22" y2="1029.14"/>
	<line class="st5" x1="1292.21" y1="882.88" x2="1286.37" y2="891.01"/>
	<line class="st5" x1="1130.35" y1="1006.69" x2="1115.46" y2="998.09"/>
	<line class="st5" x1="1078.29" y1="786.89" x2="1079.44" y2="786.23"/>
	<line class="st5" x1="1066.71" y1="984.64" x2="1064.52" y2="985.91"/>
	<line class="st5" x1="1104.89" y1="580.48" x2="1104.89" y2="786.23"/>
	<line class="st5" x1="1056.01" y1="785.06" x2="1092.06" y2="793.68"/>
	<line class="st5" x1="951.82" y1="872.63" x2="985.39" y2="825.84"/>
	<line class="st5" x1="1069.79" y1="615.44" x2="1069.79" y2="791.8"/>
	<line class="st5" x1="926.7" y1="889.11" x2="926.7" y2="874.41"/>
	<line class="st5" x1="835" y1="574.63" x2="801.74" y2="579.14"/>
	<line class="st5" x1="1003.07" y1="521.69" x2="952.16" y2="492.29"/>
	<line class="st5" x1="782.82" y1="647.36" x2="782.82" y2="823.72"/>
	<line class="st5" x1="1128.01" y1="728.8" x2="1128.01" y2="802.26"/>
</g>
<g id="Drawing::SectionPullApart::Hatch">
	<polygon class="st4" points="699.92,726.11 699.92,520.35 733.18,515.84 733.18,692.21 794.14,657.01 794.14,507.59 807.92,505.72 
		807.92,663.75 	"/>
	<polygon class="st4" points="1338.89,1047.95 1324.12,1056.48 1324.12,1043.43 	"/>
	<polygon class="st4" points="1152.44,840.81 1152.44,817.57 1165.16,810.22 1165.16,942.5 1279.72,876.36 1279.72,891.06 
		1164.07,957.83 1164.07,844.38 	"/>
	<polygon class="st4" points="1308.54,889.11 1150.29,980.48 1150.29,840.16 1152.44,840.81 1152.44,964.54 1292.44,883.71 
		1308.54,888.65 	"/>
	<polygon class="st4" points="1136.52,1003.13 1136.52,950.76 1150.29,948.89 1150.29,980.48 1221.76,939.21 1255.02,934.71 	"/>
	<path class="st4" d="M1117.62,793.58l203.65-117.58v235.15l-203.65,117.58V793.58z M1130.35,800.93v205.76l178.19-102.88V698.05
		L1130.35,800.93z"/>
	<polygon class="st4" points="964.89,810.83 964.89,705.4 1168.53,587.82 1168.53,822.98 964.89,940.55 964.89,925.85 
		1155.81,815.53 1155.81,609.87 977.62,712.75 977.62,727.45 976.47,728.11 976.47,809.26 	"/>
	<polygon class="st4" points="962.69,811.12 964.89,810.83 964.89,925.85 962.69,927.12 	"/>
	<polygon class="st4" points="1155.57,785 1155.57,815.77 977.62,918.51 977.62,903.81 1141.79,809.02 1141.79,786.86 	"/>
	<path class="st4" d="M850.3,800.95l0.01-176.37l117.66-67.93v176.36L850.3,800.95z M954.19,726.27V579.3l-70.62,40.78v146.97
		L954.19,726.27z"/>
	<polygon class="st4" points="1128.01,683.32 1141.79,687.54 1141.79,809.02 1117.62,822.98 1117.62,808.28 1128.01,802.28 	"/>
	<polygon class="st4" points="1126.98,788.18 1126.98,802.88 1117.62,808.28 1117.62,793.52 	"/>
	<polygon class="st4" points="1117.62,822.98 977.62,903.81 977.62,727.45 1079.69,668.52 1096.32,673.61 1079.69,683.21 
		1012.43,722.04 999.7,729.39 990.25,734.85 990.25,881.82 999.7,876.36 1117.62,808.28 	"/>
	<polygon class="st4" points="1096.32,673.61 1126.98,655.91 1126.98,788.18 1117.62,793.58 1117.62,808.28 999.7,876.36 
		999.7,729.39 1012.43,722.04 1079.69,683.21 	"/>
	<path class="st4" d="M863.06,646.61L659.42,764.19V529.04l203.65-117.58V646.61z M850.34,639.26v-14.68V433.51l-150.42,86.84
		l-27.77,16.04v205.76l27.77-16.04l108-62.35L850.34,639.26z"/>
	<polygon class="st4" points="824.88,815.63 812.15,822.98 812.15,617.22 1015.8,499.64 1015.8,734.79 812.15,852.37 812.15,837.67 
		824.88,830.32 981.74,739.76 1003.07,727.45 1003.07,521.69 824.88,624.57 	"/>
	<polygon class="st4" points="812.15,837.67 788.87,851.11 788.87,671.49 802.65,669.62 802.65,828.46 812.15,822.98 	"/>
	<polygon class="st4" points="850.3,800.95 967.97,733.02 967.97,647.22 981.74,645.36 981.74,739.76 824.88,830.32 824.88,815.63 	
		"/>
	<polygon class="st4" points="1305.17,1052.72 1305.17,905.75 1317.9,898.41 1317.9,1030.68 1432.45,964.54 1432.45,979.24 	"/>
</g>
<g id="Drawing::SectionPullApart::Visible">
	<line class="st6" x1="1149" y1="800.89" x2="1162.14" y2="782.58"/>
	<line class="st6" x1="1252.12" y1="936.39" x2="1136.52" y2="1003.13"/>
	<line class="st6" x1="1221.76" y1="939.21" x2="1150.29" y2="980.48"/>
	<line class="st6" x1="1150.29" y1="948.89" x2="1136.52" y2="950.76"/>
	<line class="st6" x1="1150.29" y1="980.48" x2="1150.29" y2="948.89"/>
	<line class="st6" x1="1130.66" y1="800.75" x2="1138.22" y2="815.92"/>
	<line class="st6" x1="1243.61" y1="746.33" x2="1239.04" y2="744.93"/>
	<line class="st6" x1="1130.35" y1="926.5" x2="1150.29" y2="948.89"/>
	<line class="st6" x1="1297.14" y1="877.16" x2="1239.04" y2="760.59"/>
	<line class="st6" x1="1136.52" y1="1003.13" x2="1136.52" y2="950.76"/>
	<line class="st6" x1="1301.87" y1="870.56" x2="1291.47" y2="842.37"/>
	<line class="st6" x1="1243.61" y1="746.33" x2="1291.47" y2="842.37"/>
	<line class="st6" x1="1136.52" y1="950.76" x2="1130.35" y2="943.84"/>
	<line class="st6" x1="1136.52" y1="1003.13" x2="1130.35" y2="1001.65"/>
	<line class="st6" x1="1252.12" y1="935.1" x2="1221.76" y2="939.21"/>
	<line class="st6" x1="1269.77" y1="870.62" x2="1297.14" y2="877.16"/>
	<line class="st6" x1="1164.07" y1="957.83" x2="1164.07" y2="844.38"/>
	<line class="st6" x1="1164.07" y1="957.83" x2="1152.44" y2="955.04"/>
	<line class="st6" x1="1141.54" y1="811.28" x2="1145.1" y2="806.32"/>
	<line class="st6" x1="1165.16" y1="810.22" x2="1152.44" y2="817.57"/>
	<line class="st6" x1="1308.54" y1="889.11" x2="1308.54" y2="888.65"/>
	<line class="st6" x1="1141.54" y1="811.28" x2="1152.44" y2="817.57"/>
	<line class="st6" x1="1152.44" y1="840.81" x2="1152.44" y2="817.57"/>
	<line class="st6" x1="1152.44" y1="840.81" x2="1141.54" y2="811.28"/>
	<line class="st6" x1="1252.12" y1="906.99" x2="1164.07" y2="957.83"/>
	<line class="st6" x1="1165.16" y1="942.5" x2="1165.16" y2="810.22"/>
	<line class="st6" x1="1165.16" y1="810.22" x2="1149" y2="800.89"/>
	<line class="st6" x1="1254.26" y1="891.06" x2="1165.16" y2="942.5"/>
	<line class="st6" x1="1239.04" y1="852.88" x2="1165.16" y2="895.53"/>
	<line class="st6" x1="1308.54" y1="888.65" x2="1301.87" y2="870.56"/>
	<line class="st6" x1="1308.54" y1="888.65" x2="1292.44" y2="883.71"/>
	<line class="st6" x1="1239.04" y1="852.88" x2="1266.99" y2="869.01"/>
	<line class="st6" x1="1239.04" y1="852.88" x2="1239.04" y2="738.18"/>
	<line class="st6" x1="1317.9" y1="1007.53" x2="1321.76" y2="1015.28"/>
	<line class="st6" x1="1317.9" y1="898.41" x2="1305.17" y2="905.75"/>
	<line class="st6" x1="1152.44" y1="964.54" x2="1152.44" y2="840.81"/>
	<line class="st6" x1="1150.29" y1="840.16" x2="1138.22" y2="815.92"/>
	<line class="st6" x1="1152.44" y1="840.81" x2="1150.29" y2="840.16"/>
	<line class="st6" x1="1150.29" y1="948.89" x2="1150.29" y2="840.16"/>
	<line class="st6" x1="1164.07" y1="957.83" x2="1152.44" y2="964.54"/>
	<line class="st6" x1="1308.54" y1="889.11" x2="1305.17" y2="891.06"/>
	<line class="st6" x1="1254.26" y1="876.36" x2="1305.17" y2="905.75"/>
	<line class="st6" x1="1252.12" y1="921.69" x2="1221.76" y2="939.21"/>
	<line class="st6" x1="1266.99" y1="869.01" x2="1254.26" y2="876.36"/>
	<line class="st6" x1="1305.17" y1="1052.72" x2="1305.17" y2="905.75"/>
	<line class="st6" x1="1254.26" y1="899.6" x2="1254.26" y2="876.36"/>
	<line class="st6" x1="1321.27" y1="911.16" x2="1321.27" y2="896.46"/>
	<line class="st6" x1="1321.27" y1="690.7" x2="1321.27" y2="676.01"/>
	<line class="st6" x1="1321.27" y1="676.01" x2="1270.36" y2="646.61"/>
	<line class="st6" x1="1066.71" y1="764.19" x2="1270.36" y2="646.61"/>
	<line class="st6" x1="1321.27" y1="676.01" x2="1308.54" y2="683.35"/>
	<line class="st6" x1="1130.35" y1="786.23" x2="1117.62" y2="793.58"/>
	<line class="st6" x1="1117.62" y1="793.58" x2="1066.71" y2="764.19"/>
	<line class="st6" x1="1066.71" y1="869.61" x2="1066.71" y2="764.19"/>
	<line class="st6" x1="1117.62" y1="793.58" x2="1117.62" y2="808.28"/>
	<line class="st6" x1="1117.62" y1="1014.04" x2="1117.62" y2="1028.73"/>
	<line class="st6" x1="1117.62" y1="1028.73" x2="1066.71" y2="999.34"/>
	<line class="st6" x1="1066.71" y1="999.34" x2="1066.71" y2="986.43"/>
	<line class="st6" x1="1317.9" y1="1030.68" x2="1317.9" y2="898.41"/>
	<line class="st6" x1="1317.9" y1="898.41" x2="1266.99" y2="869.01"/>
	<line class="st6" x1="1072.01" y1="878.32" x2="1072.01" y2="987.7"/>
	<line class="st6" x1="1072.01" y1="878.32" x2="1066.71" y2="869.61"/>
	<line class="st6" x1="1406.99" y1="979.24" x2="1317.9" y2="1030.68"/>
	<line class="st6" x1="1117.62" y1="1028.73" x2="1130.35" y2="1021.38"/>
	<line class="st6" x1="1381.54" y1="935.15" x2="1317.9" y2="971.89"/>
	<line class="st6" x1="1317.9" y1="913.1" x2="1321.27" y2="911.16"/>
	<line class="st6" x1="1381.54" y1="935.15" x2="1419.72" y2="957.19"/>
	<line class="st6" x1="1257.63" y1="727.45" x2="1257.63" y2="774.46"/>
	<line class="st6" x1="1406.99" y1="993.94" x2="1305.17" y2="1052.72"/>
	<line class="st6" x1="1305.17" y1="1052.72" x2="1269.2" y2="1031.96"/>
	<line class="st6" x1="1321.76" y1="1015.28" x2="1317.9" y2="1020.66"/>
	<line class="st6" x1="1259.44" y1="1015.9" x2="1269.2" y2="1031.96"/>
	<line class="st6" x1="1308.54" y1="893" x2="1308.54" y2="889.11"/>
	<line class="st6" x1="1308.54" y1="888.65" x2="1308.54" y2="698.05"/>
	<line class="st6" x1="1252.12" y1="1007.68" x2="1238.34" y2="1009.55"/>
	<line class="st6" x1="1278.53" y1="1037.34" x2="1287.85" y2="1047.81"/>
	<line class="st6" x1="1308.54" y1="698.05" x2="1130.35" y2="800.93"/>
	<line class="st6" x1="1252.12" y1="1007.68" x2="1259.44" y2="1015.9"/>
	<line class="st6" x1="1297.59" y1="1076.09" x2="1238.34" y2="1061.92"/>
	<line class="st6" x1="1130.35" y1="1021.38" x2="1252.12" y2="951.08"/>
	<line class="st6" x1="1280.96" y1="1057.41" x2="1238.34" y2="1009.55"/>
	<line class="st6" x1="1308.54" y1="888.65" x2="1309.07" y2="888.81"/>
	<line class="st6" x1="1308.54" y1="889.11" x2="1309.07" y2="888.81"/>
	<line class="st6" x1="1321.27" y1="896.46" x2="1321.27" y2="690.7"/>
	<line class="st6" x1="1308.54" y1="683.35" x2="1130.35" y2="786.23"/>
	<line class="st6" x1="1117.62" y1="808.28" x2="1117.62" y2="1014.04"/>
	<line class="st6" x1="1238.34" y1="1061.92" x2="1238.34" y2="1009.55"/>
	<line class="st6" x1="1313.48" y1="1053.94" x2="1297.59" y2="1076.09"/>
	<line class="st6" x1="1280.96" y1="1057.41" x2="1297.59" y2="1076.09"/>
	<line class="st6" x1="1130.35" y1="1006.69" x2="1136.52" y2="1003.13"/>
	<line class="st6" x1="1324.12" y1="1056.48" x2="1324.12" y2="1043.43"/>
	<line class="st6" x1="1252.12" y1="1007.68" x2="1252.12" y2="898.94"/>
	<line class="st6" x1="1302.89" y1="1051.41" x2="1287.85" y2="1047.81"/>
	<line class="st6" x1="1324.12" y1="1056.48" x2="1306.12" y2="1052.18"/>
	<line class="st6" x1="1338.89" y1="1047.95" x2="1324.12" y2="1043.43"/>
	<line class="st6" x1="1323.48" y1="1042.15" x2="1324.12" y2="1043.43"/>
	<line class="st6" x1="1410.36" y1="947.43" x2="1394.26" y2="942.5"/>
	<line class="st6" x1="1130.35" y1="800.93" x2="1130.35" y2="1006.69"/>
	<line class="st6" x1="1410.89" y1="947.6" x2="1410.36" y2="947.43"/>
	<line class="st6" x1="1356.89" y1="1022.86" x2="1338.89" y2="1047.95"/>
	<line class="st6" x1="1410.89" y1="947.6" x2="1408.61" y2="950.78"/>
	<line class="st6" x1="1259.44" y1="913.63" x2="1252.12" y2="898.94"/>
	<line class="st6" x1="1254.26" y1="899.6" x2="1252.12" y2="898.94"/>
	<line class="st6" x1="1064.52" y1="985.91" x2="1064.52" y2="869.91"/>
	<line class="st6" x1="1072.01" y1="878.32" x2="1064.52" y2="869.91"/>
	<line class="st6" x1="1072.01" y1="987.7" x2="1064.52" y2="985.91"/>
	<line class="st6" x1="1066.71" y1="869.61" x2="1064.52" y2="869.91"/>
	<line class="st6" x1="1259.44" y1="1015.9" x2="1259.44" y2="913.63"/>
	<line class="st6" x1="1254.26" y1="899.6" x2="1259.44" y2="913.63"/>
	<line class="st6" x1="904.47" y1="728.41" x2="936.93" y2="764.85"/>
	<line class="st6" x1="1406.99" y1="964.54" x2="1429.96" y2="977.8"/>
	<line class="st6" x1="1419.72" y1="957.19" x2="1406.99" y2="964.54"/>
	<line class="st6" x1="1429.96" y1="1110.07" x2="1429.96" y2="1124.77"/>
	<line class="st6" x1="1406.99" y1="1111.51" x2="1406.99" y2="964.54"/>
	<line class="st6" x1="1442.69" y1="970.45" x2="1429.96" y2="977.8"/>
	<line class="st6" x1="962.69" y1="927.12" x2="890.69" y2="909.9"/>
	<line class="st6" x1="890.69" y1="909.9" x2="890.69" y2="730.27"/>
	<line class="st6" x1="962.69" y1="811.12" x2="890.69" y2="730.27"/>
	<line class="st6" x1="962.69" y1="927.12" x2="962.69" y2="811.12"/>
	<line class="st6" x1="1429.96" y1="977.8" x2="1429.96" y2="1110.07"/>
	<line class="st6" x1="936.93" y1="764.85" x2="964.89" y2="810.83"/>
	<line class="st6" x1="1442.69" y1="1117.42" x2="1493.6" y2="1088.03"/>
	<line class="st6" x1="964.89" y1="925.85" x2="964.89" y2="810.83"/>
	<line class="st6" x1="964.89" y1="925.85" x2="962.69" y2="927.12"/>
	<line class="st6" x1="1442.69" y1="970.45" x2="1442.69" y2="1102.73"/>
	<line class="st6" x1="1442.69" y1="970.45" x2="1419.72" y2="957.19"/>
	<line class="st6" x1="1442.69" y1="1102.73" x2="1480.87" y2="1080.68"/>
	<line class="st6" x1="1168.53" y1="587.82" x2="1117.62" y2="558.43"/>
	<line class="st6" x1="1461.78" y1="1065.18" x2="1442.69" y2="1076.21"/>
	<line class="st6" x1="1429.96" y1="1124.77" x2="1442.69" y2="1117.42"/>
	<line class="st6" x1="1168.53" y1="587.82" x2="1168.53" y2="705.4"/>
	<line class="st6" x1="1429.96" y1="1124.77" x2="1406.99" y2="1111.51"/>
	<line class="st6" x1="964.89" y1="705.4" x2="913.98" y2="676.01"/>
	<line class="st6" x1="913.98" y1="676.01" x2="1117.62" y2="558.43"/>
	<line class="st6" x1="964.89" y1="705.4" x2="1168.53" y2="587.82"/>
	<line class="st6" x1="964.89" y1="940.55" x2="926.73" y2="918.52"/>
	<line class="st6" x1="1471.33" y1="1075.17" x2="1538.15" y2="1113.75"/>
	<line class="st6" x1="1461.78" y1="981.48" x2="1461.78" y2="1058.63"/>
	<line class="st6" x1="964.89" y1="940.55" x2="964.89" y2="925.85"/>
	<line class="st6" x1="936.93" y1="718.65" x2="936.93" y2="764.85"/>
	<line class="st6" x1="929.78" y1="714.52" x2="936.93" y2="718.65"/>
	<line class="st6" x1="1461.78" y1="981.48" x2="1471.33" y2="986.99"/>
	<line class="st6" x1="1528.6" y1="942.9" x2="1461.78" y2="981.48"/>
	<line class="st6" x1="913.98" y1="739.08" x2="913.98" y2="676.01"/>
	<line class="st6" x1="964.89" y1="810.83" x2="964.89" y2="705.4"/>
	<line class="st6" x1="1614.52" y1="981.48" x2="1547.69" y2="942.9"/>
	<line class="st6" x1="964.89" y1="940.55" x2="1064.52" y2="883.03"/>
	<line class="st6" x1="1614.52" y1="981.48" x2="1604.97" y2="986.99"/>
	<line class="st6" x1="1614.52" y1="1058.63" x2="1614.52" y2="981.48"/>
	<line class="st6" x1="1538.15" y1="1102.73" x2="1538.15" y2="1113.75"/>
	<line class="st6" x1="1155.81" y1="609.87" x2="1155.81" y2="712.75"/>
	<line class="st6" x1="1538.15" y1="1113.75" x2="1604.97" y2="1075.17"/>
	<line class="st6" x1="1604.97" y1="1064.15" x2="1538.15" y2="1102.73"/>
	<line class="st6" x1="1471.33" y1="1064.15" x2="1538.15" y2="1102.73"/>
	<line class="st6" x1="977.62" y1="712.75" x2="1155.81" y2="609.87"/>
	<line class="st6" x1="1471.33" y1="986.99" x2="1471.33" y2="1064.15"/>
	<line class="st6" x1="1471.33" y1="986.99" x2="1538.15" y2="948.41"/>
	<line class="st6" x1="1471.33" y1="1064.15" x2="1538.15" y2="1025.57"/>
	<line class="st6" x1="1066.71" y1="867.07" x2="977.62" y2="918.51"/>
	<line class="st6" x1="1604.97" y1="986.99" x2="1538.15" y2="948.41"/>
	<line class="st6" x1="976.47" y1="809.26" x2="964.89" y2="810.83"/>
	<line class="st6" x1="1604.97" y1="1064.15" x2="1604.97" y2="986.99"/>
	<line class="st6" x1="1538.15" y1="1025.57" x2="1604.97" y2="1064.15"/>
	<line class="st6" x1="1538.15" y1="948.41" x2="1538.15" y2="1025.57"/>
	<line class="st6" x1="1614.52" y1="1069.66" x2="1604.97" y2="1075.17"/>
	<line class="st6" x1="977.62" y1="727.45" x2="977.62" y2="712.75"/>
	<line class="st6" x1="1461.78" y1="1069.66" x2="1471.33" y2="1075.17"/>
	<line class="st6" x1="976.47" y1="809.26" x2="976.47" y2="728.11"/>
	<line class="st6" x1="1461.78" y1="1058.63" x2="1461.78" y2="1069.66"/>
	<line class="st6" x1="976.47" y1="728.11" x2="977.62" y2="727.45"/>
	<line class="st6" x1="977.62" y1="918.51" x2="964.89" y2="925.85"/>
	<line class="st6" x1="1119.05" y1="641.92" x2="1114.86" y2="633.51"/>
	<line class="st6" x1="1528.6" y1="942.9" x2="1538.15" y2="937.38"/>
	<line class="st6" x1="1547.69" y1="942.9" x2="1538.15" y2="937.38"/>
	<line class="st6" x1="1614.52" y1="1069.66" x2="1614.52" y2="1058.63"/>
	<line class="st6" x1="1096.32" y1="673.61" x2="1079.69" y2="683.21"/>
	<line class="st6" x1="1126.98" y1="655.91" x2="1096.32" y2="673.61"/>
	<line class="st6" x1="1124.49" y1="654.47" x2="1099.84" y2="668.7"/>
	<line class="st6" x1="1066.71" y1="837.67" x2="999.7" y2="876.36"/>
	<line class="st6" x1="999.7" y1="876.36" x2="997.21" y2="874.92"/>
	<line class="st6" x1="999.7" y1="729.39" x2="1012.43" y2="722.04"/>
	<line class="st6" x1="1079.69" y1="683.21" x2="1012.43" y2="722.04"/>
	<line class="st6" x1="1126.98" y1="729.39" x2="1126.98" y2="655.91"/>
	<line class="st6" x1="997.21" y1="819.01" x2="990.25" y2="823.03"/>
	<line class="st6" x1="1124.49" y1="654.47" x2="1126.98" y2="655.91"/>
	<line class="st6" x1="999.7" y1="876.36" x2="999.7" y2="729.39"/>
	<line class="st6" x1="1096.32" y1="673.61" x2="1099.84" y2="668.7"/>
	<line class="st6" x1="1099.84" y1="668.7" x2="1112.16" y2="651.52"/>
	<line class="st6" x1="997.21" y1="730.83" x2="997.21" y2="874.92"/>
	<line class="st6" x1="1097.69" y1="643.43" x2="1079.69" y2="668.52"/>
	<line class="st6" x1="1096.32" y1="673.61" x2="1079.69" y2="668.52"/>
	<line class="st6" x1="1119.05" y1="641.92" x2="1125.64" y2="655.13"/>
	<line class="st6" x1="1338.89" y1="1047.95" x2="1324.12" y2="1056.48"/>
	<line class="st6" x1="1126.98" y1="657.83" x2="1141.79" y2="687.54"/>
	<line class="st6" x1="1164.07" y1="844.38" x2="1152.44" y2="840.81"/>
	<line class="st6" x1="1116.06" y1="659.34" x2="1112.16" y2="651.52"/>
	<line class="st6" x1="1128.01" y1="683.32" x2="1126.98" y2="681.25"/>
	<line class="st6" x1="1292.44" y1="883.71" x2="1297.14" y2="877.16"/>
	<line class="st6" x1="1141.79" y1="687.54" x2="1128.01" y2="683.32"/>
	<line class="st6" x1="904.47" y1="728.41" x2="890.69" y2="730.27"/>
	<line class="st6" x1="1128.01" y1="683.32" x2="1128.01" y2="728.8"/>
	<line class="st6" x1="936.93" y1="718.65" x2="928.3" y2="716.59"/>
	<line class="st6" x1="964.89" y1="810.83" x2="962.69" y2="811.12"/>
	<line class="st6" x1="977.62" y1="727.45" x2="1079.69" y2="668.52"/>
	<line class="st6" x1="1015.8" y1="499.64" x2="964.89" y2="470.25"/>
	<line class="st6" x1="964.89" y1="896.46" x2="977.62" y2="903.81"/>
	<line class="st6" x1="759.31" y1="677.12" x2="733.18" y2="692.21"/>
	<line class="st6" x1="807.92" y1="505.72" x2="794.14" y2="507.59"/>
	<line class="st6" x1="1141.79" y1="687.54" x2="1141.79" y2="720.84"/>
	<line class="st6" x1="794.14" y1="507.59" x2="794.14" y2="568.83"/>
	<line class="st6" x1="977.62" y1="903.81" x2="977.62" y2="727.45"/>
	<line class="st6" x1="794.14" y1="507.59" x2="769.65" y2="480.09"/>
	<line class="st6" x1="990.25" y1="881.82" x2="990.25" y2="734.85"/>
	<line class="st6" x1="733.18" y1="692.21" x2="733.18" y2="515.84"/>
	<line class="st6" x1="763.66" y1="586.43" x2="763.66" y2="483.55"/>
	<line class="st6" x1="1066.71" y1="852.37" x2="977.62" y2="903.81"/>
	<line class="st6" x1="733.18" y1="692.21" x2="759.31" y2="655.79"/>
	<line class="st6" x1="999.7" y1="876.36" x2="990.25" y2="881.82"/>
	<line class="st6" x1="990.25" y1="734.85" x2="999.7" y2="729.39"/>
	<line class="st6" x1="807.92" y1="505.72" x2="807.92" y2="560.87"/>
	<line class="st6" x1="779.85" y1="474.2" x2="807.92" y2="505.72"/>
	<line class="st6" x1="699.92" y1="726.11" x2="699.92" y2="520.35"/>
	<line class="st6" x1="733.18" y1="515.84" x2="699.92" y2="520.35"/>
	<line class="st6" x1="751.18" y1="490.76" x2="733.18" y2="515.84"/>
	<line class="st6" x1="977.62" y1="918.51" x2="964.89" y2="911.16"/>
	<line class="st6" x1="759.31" y1="691.82" x2="699.92" y2="726.11"/>
	<line class="st6" x1="699.92" y1="726.11" x2="672.15" y2="742.14"/>
	<line class="st6" x1="850.32" y1="639.27" x2="835" y2="648.12"/>
	<line class="st6" x1="672.15" y1="742.14" x2="672.15" y2="536.39"/>
	<line class="st6" x1="977.62" y1="918.51" x2="977.62" y2="903.81"/>
	<line class="st6" x1="672.15" y1="536.39" x2="699.92" y2="520.35"/>
	<line class="st6" x1="928.3" y1="716.59" x2="928.3" y2="755.16"/>
	<line class="st6" x1="699.92" y1="520.35" x2="850.34" y2="433.51"/>
	<line class="st6" x1="850.34" y1="609.87" x2="850.34" y2="624.59"/>
	<line class="st6" x1="929.78" y1="714.52" x2="928.3" y2="716.59"/>
	<line class="st6" x1="850.34" y1="433.51" x2="850.34" y2="536.39"/>
	<line class="st6" x1="835" y1="630.41" x2="850.3" y2="639.25"/>
	<line class="st6" x1="835" y1="662.81" x2="850.3" y2="653.98"/>
	<line class="st6" x1="659.42" y1="764.19" x2="759.31" y2="706.52"/>
	<line class="st6" x1="659.42" y1="764.19" x2="659.42" y2="529.04"/>
	<line class="st6" x1="659.42" y1="764.19" x2="608.51" y2="734.79"/>
	<line class="st6" x1="835" y1="751" x2="835" y2="618.72"/>
	<line class="st6" x1="659.42" y1="529.04" x2="863.06" y2="411.46"/>
	<line class="st6" x1="659.42" y1="529.04" x2="608.51" y2="499.64"/>
	<line class="st6" x1="863.06" y1="602.52" x2="863.06" y2="606.8"/>
	<line class="st6" x1="824.88" y1="765.1" x2="835" y2="751"/>
	<line class="st6" x1="863.06" y1="411.46" x2="863.06" y2="529.04"/>
	<line class="st6" x1="863.06" y1="411.46" x2="812.15" y2="382.07"/>
	<line class="st6" x1="850.3" y1="742.16" x2="835" y2="751"/>
	<line class="st6" x1="672.15" y1="698.05" x2="699.92" y2="682.02"/>
	<line class="st6" x1="967.97" y1="629.89" x2="976.76" y2="639.76"/>
	<line class="st6" x1="812.15" y1="558.43" x2="812.15" y2="455.55"/>
	<line class="st6" x1="608.51" y1="499.64" x2="608.51" y2="734.79"/>
	<line class="st6" x1="812.15" y1="382.07" x2="608.51" y2="499.64"/>
	<line class="st6" x1="812.15" y1="822.98" x2="802.65" y2="828.46"/>
	<line class="st6" x1="824.88" y1="830.32" x2="812.15" y2="822.98"/>
	<line class="st6" x1="812.15" y1="837.67" x2="788.87" y2="851.11"/>
	<line class="st6" x1="812.15" y1="837.67" x2="812.15" y2="822.98"/>
	<line class="st6" x1="802.65" y1="669.62" x2="788.87" y2="671.49"/>
	<line class="st6" x1="802.65" y1="828.46" x2="802.65" y2="669.62"/>
	<line class="st6" x1="782.82" y1="647.36" x2="802.65" y2="669.62"/>
	<line class="st6" x1="788.87" y1="851.11" x2="788.87" y2="671.49"/>
	<line class="st6" x1="1145.1" y1="806.32" x2="1149" y2="800.89"/>
	<line class="st6" x1="788.87" y1="671.49" x2="775.94" y2="656.96"/>
	<line class="st6" x1="824.88" y1="830.32" x2="824.88" y2="815.63"/>
	<line class="st6" x1="788.87" y1="851.11" x2="759.31" y2="844.04"/>
	<line class="st6" x1="890.69" y1="777.63" x2="824.88" y2="815.63"/>
	<line class="st6" x1="759.31" y1="638.29" x2="759.31" y2="844.04"/>
	<line class="st6" x1="890.69" y1="792.33" x2="824.88" y2="830.32"/>
	<line class="st6" x1="791.79" y1="634.86" x2="782.82" y2="647.36"/>
	<line class="st6" x1="883.56" y1="767.05" x2="890.69" y2="757.11"/>
	<line class="st6" x1="759.31" y1="638.29" x2="775.94" y2="656.96"/>
	<line class="st6" x1="908.25" y1="732.65" x2="913.98" y2="724.66"/>
	<line class="st6" x1="759.31" y1="638.29" x2="778.02" y2="612.21"/>
	<line class="st6" x1="824.88" y1="830.32" x2="812.15" y2="837.67"/>
	<line class="st6" x1="918.88" y1="673.18" x2="918.88" y2="599.69"/>
	<line class="st6" x1="824.88" y1="815.63" x2="812.15" y2="822.98"/>
	<line class="st6" x1="824.88" y1="815.63" x2="824.88" y2="624.57"/>
	<line class="st6" x1="883.56" y1="767.05" x2="883.56" y2="620.08"/>
	<line class="st6" x1="824.88" y1="624.57" x2="1003.07" y2="521.69"/>
	<line class="st6" x1="1003.07" y1="521.69" x2="1003.07" y2="624.57"/>
	<line class="st6" x1="868.3" y1="599.5" x2="850.3" y2="624.59"/>
	<line class="st6" x1="967.97" y1="556.65" x2="949.97" y2="552.35"/>
	<line class="st6" x1="952.16" y1="551.08" x2="952.16" y2="552.87"/>
	<line class="st6" x1="990.25" y1="749.55" x2="997.21" y2="745.53"/>
	<line class="st6" x1="967.97" y1="556.65" x2="967.97" y2="644.84"/>
	<line class="st6" x1="812.15" y1="852.37" x2="890.69" y2="807.02"/>
	<line class="st6" x1="850.3" y1="800.95" x2="850.3" y2="624.59"/>
	<line class="st6" x1="812.15" y1="822.98" x2="812.15" y2="617.22"/>
	<line class="st6" x1="954.19" y1="579.3" x2="954.19" y2="652.79"/>
	<line class="st6" x1="761.24" y1="635.59" x2="761.24" y2="587.82"/>
	<line class="st6" x1="850.3" y1="624.59" x2="967.97" y2="556.65"/>
	<line class="st6" x1="812.15" y1="852.37" x2="799.42" y2="845.02"/>
	<line class="st6" x1="890.69" y1="762.93" x2="883.56" y2="767.05"/>
	<line class="st6" x1="883.56" y1="620.08" x2="954.19" y2="579.3"/>
	<line class="st6" x1="812.15" y1="852.37" x2="812.15" y2="837.67"/>
	<line class="st6" x1="791.79" y1="634.86" x2="778.02" y2="612.21"/>
	<line class="st6" x1="791.79" y1="657.43" x2="791.79" y2="634.86"/>
	<line class="st6" x1="812.15" y1="822.98" x2="802.65" y2="817.49"/>
	<line class="st6" x1="812.15" y1="617.22" x2="1015.8" y2="499.64"/>
	<line class="st6" x1="761.24" y1="587.82" x2="964.89" y2="470.25"/>
	<line class="st6" x1="812.15" y1="617.22" x2="761.24" y2="587.82"/>
	<line class="st6" x1="1015.8" y1="499.64" x2="1015.8" y2="617.22"/>
</g>
<g id="Drawing::SectionPullApart::Section">
	<polygon class="st3" points="1305.17,1052.72 1432.45,979.24 1432.45,964.54 1317.9,1030.68 1317.9,898.41 1305.17,905.75 	"/>
	<polygon class="st3" points="863.06,646.61 863.06,411.46 659.42,529.04 659.42,764.19 	"/>
	<line class="st3" x1="999.7" y1="729.39" x2="999.7" y2="876.36"/>
	<line class="st3" x1="1317.9" y1="898.41" x2="1321.27" y2="896.46"/>
	<line class="st3" x1="1152.44" y1="817.57" x2="977.62" y2="918.51"/>
	<line class="st3" x1="1255.02" y1="934.71" x2="1221.76" y2="939.21"/>
	<polyline class="st3" points="1321.27,690.7 1308.54,698.05 1308.54,683.35 	"/>
	<polyline class="st3" points="1305.17,905.75 1255.02,934.71 1136.52,1003.13 1130.35,1006.69 1130.35,1021.38 	"/>
	<polyline class="st3" points="1130.35,786.23 1130.35,800.93 1308.54,698.05 1308.54,888.65 1292.44,883.71 1279.72,891.06 
		1279.72,876.36 1165.16,942.5 1165.16,810.22 1152.44,817.57 1152.44,840.81 1164.07,844.38 1164.07,957.83 1279.72,891.06 	"/>
	<polyline class="st3" points="1126.98,802.88 1126.98,788.18 1126.98,655.91 1096.32,673.61 	"/>
	<polyline class="st3" points="1155.57,815.77 1155.57,785 1141.79,786.86 	"/>
	<polyline class="st3" points="977.62,903.81 977.62,918.51 964.89,925.85 962.69,927.12 962.69,811.12 964.89,810.83 
		964.89,925.85 964.89,940.55 1168.53,822.98 1168.53,587.82 964.89,705.4 964.89,810.83 976.47,809.26 976.47,728.11 
		977.62,727.45 977.62,712.75 1155.81,609.87 1155.81,815.63 	"/>
	<polygon class="st3" points="1338.89,1047.95 1324.12,1043.43 1324.12,1056.48 	"/>
	<polyline class="st3" points="981.74,739.76 981.74,645.36 967.97,647.22 	"/>
	<polygon class="st3" points="850.3,800.95 967.97,733.02 967.97,556.65 850.31,624.58 	"/>
	<polygon class="st3" points="954.19,726.27 883.56,767.05 883.56,620.08 954.19,579.3 	"/>
	<polyline class="st3" points="850.3,800.95 824.88,815.63 812.15,822.98 812.15,617.22 1015.8,499.64 1015.8,734.79 812.15,852.37 
		812.15,837.67 812.15,822.98 802.65,828.46 802.65,669.62 788.87,671.49 788.87,851.11 812.15,837.67 824.88,830.32 824.88,815.63 
		824.88,624.57 1003.07,521.69 1003.07,727.45 	"/>
	<polyline class="st3" points="990.25,734.85 981.74,739.76 824.88,830.32 	"/>
	<polyline class="st3" points="850.34,639.26 807.92,663.75 699.92,726.11 672.15,742.14 672.15,536.39 699.92,520.35 
		850.34,433.51 850.34,624.59 	"/>
	<polyline class="st3" points="1164.07,957.83 1152.44,964.54 1152.44,840.81 1150.29,840.16 1150.29,980.48 1308.54,889.11 
		1308.54,888.65 1309.07,888.81 1308.54,889.11 1308.54,903.81 1308.54,918.51 	"/>
	<polyline class="st3" points="1150.29,948.89 1136.52,950.76 1136.52,1003.13 	"/>
	<polyline class="st3" points="1117.62,1014.04 1130.35,1006.69 1130.35,800.93 1117.62,808.28 1117.62,793.58 1130.35,786.23 
		1308.54,683.35 1321.27,676.01 1321.27,690.7 1321.27,896.46 1321.27,911.16 1308.54,918.51 1130.35,1021.38 1117.62,1028.73 
		1117.62,1014.04 1117.62,808.28 999.7,876.36 990.25,881.82 990.25,734.85 999.7,729.39 1012.43,722.04 1079.69,683.21 
		1096.32,673.61 1079.69,668.52 977.62,727.45 977.62,903.81 1141.79,809.02 1141.79,687.54 1128.01,683.32 1128.01,802.28 	"/>
	<polyline class="st3" points="807.92,663.75 807.92,505.72 794.14,507.59 794.14,657.01 733.18,692.21 733.18,515.84 
		699.92,520.35 699.92,726.11 	"/>
</g>
<g id="BoxHidden">
	<line class="st5" x1="303.08" y1="117.55" x2="303.08" y2="88.15"/>
	<line class="st5" x1="386.52" y1="492.95" x2="424.5" y2="514.87"/>
	<line class="st5" x1="462.68" y1="492.83" x2="539.05" y2="448.74"/>
	<line class="st5" x1="297.22" y1="309.11" x2="284.49" y2="316.46"/>
	<line class="st5" x1="411.77" y1="389.95" x2="411.77" y2="375.25"/>
	<line class="st5" x1="99.43" y1="440.88" x2="124.89" y2="426.18"/>
	<line class="st5" x1="494" y1="433.53" x2="506.72" y2="440.88"/>
	<line class="st5" x1="506.72" y1="440.88" x2="506.72" y2="426.18"/>
	<line class="st5" x1="453.13" y1="399.13" x2="519.96" y2="437.71"/>
	<line class="st5" x1="411.77" y1="389.95" x2="309.94" y2="448.74"/>
	<line class="st5" x1="309.94" y1="448.74" x2="353.26" y2="473.74"/>
	<line class="st5" x1="284.49" y1="316.46" x2="297.22" y2="323.81"/>
	<line class="st5" x1="284.49" y1="316.46" x2="284.49" y2="463.43"/>
	<line class="st5" x1="180.89" y1="458.52" x2="224.2" y2="483.52"/>
	<line class="st5" x1="309.94" y1="448.74" x2="309.94" y2="316.46"/>
	<line class="st5" x1="224.2" y1="483.52" x2="224.2" y2="353.36"/>
	<line class="st5" x1="352.83" y1="502.89" x2="354.85" y2="500.07"/>
	<line class="st5" x1="309.94" y1="316.46" x2="327.57" y2="326.64"/>
	<line class="st5" x1="224.2" y1="483.52" x2="171.92" y2="471.02"/>
	<line class="st5" x1="267.66" y1="402.16" x2="315.8" y2="456.22"/>
	<line class="st5" x1="180.89" y1="304.73" x2="180.89" y2="458.52"/>
	<line class="st5" x1="171.92" y1="471.02" x2="180.89" y2="458.52"/>
	<line class="st5" x1="171.92" y1="294.66" x2="171.92" y2="471.02"/>
	<line class="st5" x1="167.12" y1="465.26" x2="257.46" y2="517.42"/>
	<line class="st5" x1="354.85" y1="500.07" x2="362.16" y2="508.28"/>
	<line class="st5" x1="352.83" y1="502.89" x2="343.07" y2="497.25"/>
	<line class="st5" x1="167.12" y1="259.5" x2="167.12" y2="465.26"/>
	<line class="st5" x1="254.58" y1="355.81" x2="298.24" y2="366.24"/>
	<line class="st5" x1="148.41" y1="491.34" x2="167.12" y2="465.26"/>
	<line class="st5" x1="254.58" y1="355.81" x2="254.58" y2="179.44"/>
	<line class="st5" x1="214.01" y1="507.03" x2="148.41" y2="469.16"/>
	<line class="st5" x1="327.57" y1="326.64" x2="334.45" y2="330.61"/>
	<line class="st5" x1="424.5" y1="267.9" x2="424.5" y2="250.33"/>
	<line class="st5" x1="188.35" y1="448.13" x2="254.58" y2="355.81"/>
	<line class="st5" x1="180.89" y1="458.52" x2="174.57" y2="454.87"/>
	<line class="st5" x1="300.92" y1="527.81" x2="224.2" y2="483.52"/>
	<line class="st5" x1="443.66" y1="404.47" x2="471.83" y2="420.73"/>
	<line class="st5" x1="424.5" y1="250.33" x2="369.11" y2="282.3"/>
	<line class="st5" x1="217.06" y1="479.4" x2="217.06" y2="303.03"/>
	<line class="st5" x1="315.8" y1="531.37" x2="300.92" y2="527.81"/>
	<line class="st5" x1="369.11" y1="282.3" x2="352.48" y2="291.9"/>
	<line class="st5" x1="352.48" y1="291.9" x2="309.94" y2="316.46"/>
	<line class="st5" x1="494" y1="448.23" x2="506.72" y2="440.88"/>
	<line class="st5" x1="411.77" y1="375.25" x2="411.77" y2="264.77"/>
	<line class="st5" x1="315.8" y1="473.56" x2="300.92" y2="456.84"/>
	<line class="st5" x1="244.84" y1="356.92" x2="303.08" y2="323.3"/>
	<line class="st5" x1="411.77" y1="264.77" x2="411.77" y2="242.98"/>
	<line class="st5" x1="303.08" y1="323.3" x2="303.08" y2="117.55"/>
	<line class="st5" x1="244.84" y1="356.92" x2="443.66" y2="404.47"/>
	<line class="st5" x1="261.47" y1="169.84" x2="443.66" y2="374.43"/>
	<line class="st5" x1="303.08" y1="117.55" x2="244.84" y2="151.17"/>
	<line class="st5" x1="244.84" y1="356.92" x2="244.84" y2="151.17"/>
	<line class="st5" x1="487.32" y1="400.29" x2="494" y2="418.37"/>
	<line class="st5" x1="494" y1="418.37" x2="494" y2="364.52"/>
	<line class="st5" x1="411.77" y1="242.98" x2="424.5" y2="250.33"/>
	<line class="st5" x1="494" y1="227.77" x2="303.08" y2="117.55"/>
	<line class="st5" x1="174.57" y1="454.87" x2="244.84" y2="356.92"/>
	<line class="st5" x1="315.8" y1="330.65" x2="443.59" y2="404.43"/>
	<line class="st5" x1="244.84" y1="151.17" x2="174.57" y2="249.11"/>
	<line class="st5" x1="443.66" y1="374.43" x2="443.66" y2="404.47"/>
	<line class="st5" x1="443.66" y1="374.43" x2="458.05" y2="398.08"/>
	<line class="st5" x1="261.47" y1="169.84" x2="244.84" y2="151.17"/>
	<line class="st5" x1="458.05" y1="398.08" x2="471.83" y2="420.73"/>
	<line class="st5" x1="471.83" y1="420.73" x2="494" y2="433.53"/>
	<line class="st5" x1="254.58" y1="179.44" x2="188.35" y2="271.76"/>
	<line class="st5" x1="440.48" y1="464.43" x2="471.83" y2="420.73"/>
	<line class="st5" x1="443.59" y1="481.8" x2="453.13" y2="476.29"/>
	<line class="st5" x1="440.48" y1="464.43" x2="395.3" y2="527.41"/>
	<line class="st5" x1="539.05" y1="463.43" x2="470.44" y2="423.82"/>
	<line class="st5" x1="371.48" y1="518.74" x2="454.14" y2="403.53"/>
	<line class="st5" x1="353.26" y1="473.74" x2="386.52" y2="492.95"/>
	<line class="st5" x1="386.52" y1="492.95" x2="386.52" y2="471.77"/>
	<line class="st5" x1="398.5" y1="495.81" x2="386.52" y2="492.95"/>
	<line class="st5" x1="353.26" y1="473.74" x2="353.26" y2="381.6"/>
	<line class="st5" x1="494" y1="433.53" x2="494" y2="418.83"/>
	<line class="st5" x1="405.39" y1="486.21" x2="353.26" y2="473.74"/>
	<line class="st5" x1="476.92" y1="408.98" x2="494" y2="418.83"/>
	<line class="st5" x1="476.92" y1="372.09" x2="476.92" y2="408.98"/>
	<line class="st5" x1="470.44" y1="423.82" x2="424.5" y2="397.3"/>
	<line class="st5" x1="398.5" y1="495.81" x2="386.52" y2="471.77"/>
	<line class="st5" x1="353.26" y1="381.6" x2="386.52" y2="471.77"/>
	<line class="st5" x1="353.26" y1="381.6" x2="405.39" y2="486.21"/>
	<line class="st5" x1="398.5" y1="495.81" x2="405.39" y2="486.21"/>
	<line class="st5" x1="477.62" y1="373.97" x2="487.32" y2="400.29"/>
	<line class="st5" x1="406.82" y1="512.5" x2="343.07" y2="497.25"/>
	<line class="st5" x1="391.13" y1="238.04" x2="307.98" y2="218.16"/>
	<line class="st5" x1="309.81" y1="331.08" x2="239.09" y2="314.17"/>
	<line class="st5" x1="586.78" y1="476.29" x2="596.32" y2="481.8"/>
	<line class="st5" x1="330.56" y1="336.04" x2="353.26" y2="381.6"/>
	<line class="st5" x1="315.8" y1="330.65" x2="303.08" y2="323.3"/>
	<line class="st5" x1="391.13" y1="238.04" x2="399.44" y2="240.03"/>
	<line class="st5" x1="309.81" y1="331.08" x2="327" y2="341.01"/>
	<line class="st5" x1="309.81" y1="478.05" x2="309.81" y2="331.08"/>
	<line class="st5" x1="343.07" y1="497.25" x2="309.81" y2="478.05"/>
	<line class="st5" x1="413.71" y1="502.9" x2="309.81" y2="478.05"/>
	<line class="st5" x1="440.48" y1="464.43" x2="494" y2="433.53"/>
	<line class="st5" x1="322.24" y1="334.05" x2="309.96" y2="331.12"/>
	<line class="st5" x1="339.97" y1="537.15" x2="494" y2="448.23"/>
	<line class="st5" x1="494" y1="418.37" x2="494.52" y2="418.53"/>
	<line class="st5" x1="494" y1="418.83" x2="494.52" y2="418.53"/>
	<line class="st5" x1="343.07" y1="497.25" x2="343.07" y2="486.83"/>
	<line class="st5" x1="506.72" y1="426.18" x2="506.72" y2="357.17"/>
	<line class="st5" x1="330.56" y1="336.04" x2="322.24" y2="334.05"/>
	<line class="st5" x1="267.66" y1="493.92" x2="267.66" y2="402.16"/>
	<line class="st5" x1="494" y1="418.83" x2="494" y2="418.37"/>
	<line class="st5" x1="298.24" y1="366.24" x2="298.24" y2="189.88"/>
	<line class="st5" x1="315.36" y1="328.96" x2="267.66" y2="317.55"/>
	<line class="st5" x1="343.07" y1="486.83" x2="354.85" y2="500.07"/>
	<line class="st5" x1="398.01" y1="213.74" x2="298.24" y2="189.88"/>
	<line class="st5" x1="298.24" y1="189.88" x2="224.51" y2="292.64"/>
	<line class="st5" x1="371.48" y1="518.74" x2="267.66" y2="493.92"/>
	<line class="st5" x1="475.41" y1="500.17" x2="539.05" y2="463.43"/>
	<line class="st5" x1="415.13" y1="529.18" x2="386.52" y2="522.34"/>
	<line class="st5" x1="224.51" y1="469" x2="267.66" y2="493.92"/>
	<line class="st5" x1="224.51" y1="469" x2="298.24" y2="366.24"/>
	<line class="st5" x1="298.24" y1="366.24" x2="476.92" y2="408.98"/>
	<line class="st5" x1="239.09" y1="314.17" x2="239.09" y2="461.14"/>
	<line class="st5" x1="307.98" y1="218.16" x2="239.09" y2="314.17"/>
	<line class="st5" x1="307.98" y1="365.13" x2="307.98" y2="218.16"/>
	<line class="st5" x1="411.77" y1="389.95" x2="482.59" y2="406.88"/>
	<line class="st5" x1="539.05" y1="463.43" x2="539.05" y2="448.74"/>
	<line class="st5" x1="477.66" y1="412.6" x2="461.03" y2="393.93"/>
	<line class="st5" x1="309.81" y1="478.05" x2="239.09" y2="461.14"/>
	<line class="st5" x1="239.09" y1="461.14" x2="307.98" y2="365.13"/>
	<line class="st5" x1="307.98" y1="365.13" x2="411.77" y2="389.95"/>
	<line class="st5" x1="443.66" y1="404.47" x2="477.66" y2="412.6"/>
	<line class="st5" x1="424.5" y1="290.31" x2="411.77" y2="264.77"/>
	<line class="st5" x1="519.96" y1="349.53" x2="519.96" y2="360.55"/>
	<line class="st5" x1="482.59" y1="406.88" x2="468.74" y2="379.1"/>
	<line class="st5" x1="443.66" y1="374.43" x2="461.03" y2="393.93"/>
	<line class="st5" x1="477.66" y1="412.6" x2="471.83" y2="420.73"/>
	<line class="st5" x1="411.77" y1="264.77" x2="399.44" y2="240.03"/>
	<line class="st5" x1="297.22" y1="323.81" x2="309.81" y2="331.08"/>
	<line class="st5" x1="406.33" y1="230.43" x2="424.89" y2="267.67"/>
	<line class="st5" x1="494.52" y1="418.53" x2="415.13" y2="529.18"/>
	<line class="st5" x1="406.82" y1="512.5" x2="415.13" y2="529.18"/>
	<line class="st5" x1="406.82" y1="512.5" x2="413.71" y2="502.9"/>
	<line class="st5" x1="244.84" y1="151.17" x2="124.89" y2="220.42"/>
	<line class="st5" x1="124.89" y1="220.42" x2="124.89" y2="426.18"/>
	<line class="st5" x1="124.89" y1="426.18" x2="244.84" y2="356.92"/>
	<line class="st5" x1="174.57" y1="454.87" x2="124.89" y2="426.18"/>
	<line class="st5" x1="174.57" y1="454.87" x2="174.57" y2="249.11"/>
	<line class="st5" x1="413.71" y1="502.9" x2="470.44" y2="423.82"/>
	<line class="st5" x1="370.48" y1="266.81" x2="297.22" y2="309.11"/>
	<line class="st5" x1="321.97" y1="532.85" x2="440.48" y2="464.43"/>
	<line class="st5" x1="470.44" y1="423.82" x2="482.59" y2="406.88"/>
	<line class="st5" x1="398.01" y1="213.74" x2="391.13" y2="223.34"/>
	<line class="st5" x1="406.33" y1="230.43" x2="398.01" y2="213.74"/>
	<line class="st5" x1="167.12" y1="259.5" x2="174.57" y2="249.11"/>
	<line class="st5" x1="406.82" y1="512.5" x2="398.5" y2="495.81"/>
	<line class="st5" x1="405.39" y1="486.21" x2="413.71" y2="502.9"/>
	<line class="st5" x1="315.36" y1="328.96" x2="316.11" y2="330.47"/>
	<line class="st5" x1="322.24" y1="319.36" x2="315.36" y2="328.96"/>
	<line class="st5" x1="387.11" y1="257.21" x2="399.44" y2="240.03"/>
	<line class="st5" x1="369.11" y1="282.3" x2="387.11" y2="257.21"/>
	<line class="st5" x1="347.59" y1="312.3" x2="369.11" y2="282.3"/>
	<line class="st5" x1="411.77" y1="389.95" x2="424.5" y2="397.3"/>
	<line class="st5" x1="284.49" y1="463.43" x2="309.94" y2="448.74"/>
	<line class="st5" x1="391.13" y1="223.34" x2="322.24" y2="319.36"/>
	<line class="st5" x1="309.81" y1="478.05" x2="284.49" y2="463.43"/>
	<line class="st5" x1="411.77" y1="242.98" x2="387.11" y2="257.21"/>
	<line class="st5" x1="215.58" y1="343.67" x2="215.58" y2="481.46"/>
	<line class="st5" x1="454.14" y1="403.53" x2="254.58" y2="179.44"/>
	<line class="st5" x1="215.58" y1="481.46" x2="217.06" y2="479.4"/>
	<line class="st5" x1="224.51" y1="292.64" x2="217.06" y2="303.03"/>
	<line class="st5" x1="267.66" y1="317.55" x2="224.2" y2="307.16"/>
	<line class="st5" x1="476.92" y1="408.98" x2="497.79" y2="413.97"/>
	<line class="st5" x1="167.12" y1="465.26" x2="174.57" y2="454.87"/>
	<line class="st5" x1="300.92" y1="456.84" x2="257.46" y2="408.04"/>
	<line class="st5" x1="497.79" y1="413.97" x2="494.52" y2="418.53"/>
	<line class="st5" x1="267.66" y1="317.55" x2="267.66" y2="402.16"/>
	<line class="st5" x1="300.92" y1="527.81" x2="257.46" y2="517.42"/>
	<line class="st5" x1="300.92" y1="456.84" x2="267.66" y2="402.16"/>
	<line class="st5" x1="188.35" y1="271.76" x2="180.89" y2="282.16"/>
	<line class="st5" x1="300.92" y1="456.84" x2="300.92" y2="527.81"/>
	<line class="st5" x1="315.8" y1="536.41" x2="300.92" y2="527.81"/>
	<line class="st5" x1="387.11" y1="257.21" x2="370.48" y2="266.81"/>
	<line class="st5" x1="188.35" y1="271.76" x2="174.57" y2="249.11"/>
	<line class="st5" x1="180.89" y1="458.52" x2="188.35" y2="448.13"/>
	<line class="st5" x1="217.06" y1="479.4" x2="224.51" y2="469"/>
	<line class="st5" x1="188.35" y1="448.13" x2="188.35" y2="271.76"/>
	<line class="st5" x1="224.2" y1="353.36" x2="267.66" y2="402.16"/>
	<line class="st5" x1="497.79" y1="413.97" x2="489.48" y2="397.28"/>
	<line class="st5" x1="224.51" y1="469" x2="188.35" y2="448.13"/>
	<line class="st5" x1="476.92" y1="372.09" x2="489.48" y2="397.28"/>
	<line class="st5" x1="224.51" y1="469" x2="224.51" y2="292.64"/>
	<line class="st5" x1="224.51" y1="292.64" x2="267.66" y2="317.55"/>
	<line class="st5" x1="386.52" y1="471.77" x2="343.07" y2="384.57"/>
</g>
<g id="Box_Visible">
	<line class="st6" x1="303.08" y1="338" x2="303.08" y2="543.76"/>
	<line class="st6" x1="386.52" y1="522.34" x2="371.48" y2="518.74"/>
	<line class="st6" x1="468.74" y1="379.1" x2="424.5" y2="290.31"/>
	<line class="st6" x1="494" y1="213.08" x2="315.8" y2="315.95"/>
	<line class="st6" x1="327" y1="341.01" x2="343.07" y2="384.57"/>
	<line class="st6" x1="506.72" y1="357.17" x2="506.72" y2="220.42"/>
	<line class="st6" x1="315.8" y1="551.11" x2="339.97" y2="537.15"/>
	<line class="st6" x1="343.07" y1="486.83" x2="343.07" y2="384.57"/>
	<line class="st6" x1="494" y1="227.77" x2="315.8" y2="330.65"/>
	<line class="st6" x1="529.5" y1="355.04" x2="519.96" y2="349.53"/>
	<line class="st6" x1="411.77" y1="389.95" x2="411.77" y2="522.22"/>
	<line class="st6" x1="424.5" y1="382.6" x2="411.77" y2="389.95"/>
	<line class="st6" x1="424.89" y1="267.67" x2="476.92" y2="372.09"/>
	<line class="st6" x1="315.8" y1="536.41" x2="321.97" y2="532.85"/>
	<line class="st6" x1="327" y1="341.01" x2="330.56" y2="336.04"/>
	<line class="st6" x1="316.11" y1="330.47" x2="323.67" y2="345.64"/>
	<line class="st6" x1="334.45" y1="330.61" x2="347.59" y2="312.3"/>
	<line class="st6" x1="330.56" y1="336.04" x2="334.45" y2="330.61"/>
	<line class="st6" x1="217.06" y1="303.03" x2="215.58" y2="305.1"/>
	<line class="st6" x1="411.77" y1="522.22" x2="411.77" y2="536.92"/>
	<line class="st6" x1="327" y1="341.01" x2="411.77" y2="389.95"/>
	<line class="st6" x1="224.2" y1="307.16" x2="215.58" y2="305.1"/>
	<line class="st6" x1="510.41" y1="355.04" x2="519.96" y2="349.53"/>
	<line class="st6" x1="315.8" y1="330.65" x2="315.8" y2="536.41"/>
	<line class="st6" x1="596.32" y1="481.8" x2="596.32" y2="470.78"/>
	<line class="st6" x1="343.07" y1="384.57" x2="323.67" y2="345.64"/>
	<line class="st6" x1="586.78" y1="476.29" x2="586.78" y2="399.13"/>
	<line class="st6" x1="596.32" y1="470.78" x2="596.32" y2="393.62"/>
	<line class="st6" x1="596.32" y1="393.62" x2="586.78" y2="399.13"/>
	<line class="st6" x1="424.5" y1="529.57" x2="475.41" y2="500.17"/>
	<line class="st6" x1="476.92" y1="372.09" x2="477.62" y2="373.97"/>
	<line class="st6" x1="443.59" y1="470.78" x2="443.59" y2="481.8"/>
	<line class="st6" x1="364.59" y1="528.35" x2="381.22" y2="547.02"/>
	<line class="st6" x1="395.3" y1="527.41" x2="381.22" y2="547.02"/>
	<line class="st6" x1="494" y1="364.52" x2="494" y2="227.77"/>
	<line class="st6" x1="364.59" y1="528.35" x2="315.8" y2="473.56"/>
	<line class="st6" x1="443.59" y1="481.8" x2="453.13" y2="487.31"/>
	<line class="st6" x1="381.22" y1="547.02" x2="321.97" y2="532.85"/>
	<line class="st6" x1="596.32" y1="481.8" x2="586.78" y2="487.31"/>
	<line class="st6" x1="321.97" y1="532.85" x2="315.8" y2="531.37"/>
	<line class="st6" x1="519.96" y1="360.55" x2="519.96" y2="437.71"/>
	<line class="st6" x1="303.08" y1="558.45" x2="315.8" y2="551.11"/>
	<line class="st6" x1="519.96" y1="437.71" x2="586.78" y2="476.29"/>
	<line class="st6" x1="217.06" y1="303.03" x2="224.2" y2="307.16"/>
	<line class="st6" x1="586.78" y1="399.13" x2="519.96" y2="360.55"/>
	<line class="st6" x1="224.2" y1="307.16" x2="224.2" y2="353.36"/>
	<line class="st6" x1="453.13" y1="476.29" x2="519.96" y2="437.71"/>
	<line class="st6" x1="453.13" y1="399.13" x2="519.96" y2="360.55"/>
	<line class="st6" x1="453.13" y1="399.13" x2="453.13" y2="476.29"/>
	<line class="st6" x1="424.5" y1="382.6" x2="424.5" y2="267.9"/>
	<line class="st6" x1="453.13" y1="476.29" x2="519.96" y2="514.87"/>
	<line class="st6" x1="586.78" y1="476.29" x2="519.96" y2="514.87"/>
	<line class="st6" x1="519.96" y1="525.89" x2="586.78" y2="487.31"/>
	<line class="st6" x1="424.5" y1="382.6" x2="424.5" y2="514.87"/>
	<line class="st6" x1="424.5" y1="382.6" x2="334.45" y2="330.61"/>
	<line class="st6" x1="519.96" y1="514.87" x2="519.96" y2="525.89"/>
	<line class="st6" x1="596.32" y1="393.62" x2="529.5" y2="355.04"/>
	<line class="st6" x1="148.41" y1="469.16" x2="99.43" y2="440.88"/>
	<line class="st6" x1="510.41" y1="355.04" x2="443.59" y2="393.62"/>
	<line class="st6" x1="443.59" y1="393.62" x2="453.13" y2="399.13"/>
	<line class="st6" x1="443.59" y1="393.62" x2="443.59" y2="470.78"/>
	<line class="st6" x1="453.13" y1="487.31" x2="519.96" y2="525.89"/>
	<line class="st6" x1="148.41" y1="285.58" x2="167.12" y2="259.5"/>
	<line class="st6" x1="148.41" y1="285.58" x2="165.04" y2="304.26"/>
	<line class="st6" x1="180.89" y1="282.16" x2="171.92" y2="294.66"/>
	<line class="st6" x1="167.12" y1="259.5" x2="180.89" y2="282.16"/>
	<line class="st6" x1="148.41" y1="285.58" x2="148.41" y2="491.34"/>
	<line class="st6" x1="303.08" y1="558.45" x2="214.01" y2="507.03"/>
	<line class="st6" x1="215.58" y1="305.1" x2="215.58" y2="343.67"/>
	<line class="st6" x1="257.46" y1="517.42" x2="148.41" y2="491.34"/>
	<line class="st6" x1="257.46" y1="408.04" x2="165.04" y2="304.26"/>
	<line class="st6" x1="257.46" y1="517.42" x2="257.46" y2="408.04"/>
	<line class="st6" x1="303.08" y1="543.76" x2="303.08" y2="558.45"/>
	<line class="st6" x1="303.08" y1="323.3" x2="303.08" y2="338"/>
	<line class="st6" x1="362.16" y1="508.28" x2="371.48" y2="518.74"/>
	<line class="st6" x1="180.89" y1="282.16" x2="180.89" y2="304.73"/>
	<line class="st6" x1="303.08" y1="323.3" x2="99.43" y2="205.73"/>
	<line class="st6" x1="315.8" y1="315.95" x2="303.08" y2="323.3"/>
	<line class="st6" x1="315.8" y1="456.22" x2="343.07" y2="486.83"/>
	<line class="st6" x1="171.92" y1="294.66" x2="224.2" y2="353.36"/>
	<line class="st6" x1="343.07" y1="486.83" x2="352.83" y2="502.89"/>
	<line class="st6" x1="411.77" y1="536.92" x2="352.83" y2="502.89"/>
	<line class="st6" x1="411.77" y1="536.92" x2="424.5" y2="529.57"/>
	<line class="st6" x1="506.72" y1="205.73" x2="494" y2="213.08"/>
	<line class="st6" x1="506.72" y1="205.73" x2="303.08" y2="88.15"/>
	<line class="st6" x1="224.2" y1="353.36" x2="257.46" y2="408.04"/>
	<line class="st6" x1="506.72" y1="220.42" x2="506.72" y2="205.73"/>
	<line class="st6" x1="424.5" y1="382.6" x2="443.59" y2="393.62"/>
	<line class="st6" x1="99.43" y1="205.73" x2="99.43" y2="440.88"/>
	<line class="st6" x1="424.5" y1="514.87" x2="462.68" y2="492.83"/>
	<line class="st6" x1="303.08" y1="88.15" x2="99.43" y2="205.73"/>
</g>
</svg>
