<svg id="Final" xmlns="http://www.w3.org/2000/svg" viewBox="0 0 495.45 204.54"><defs><style>.cls-1{fill:#231f20;}</style></defs><title>Logo</title><polygon class="cls-1" points="118.02 0 239.7 0 271.37 54.86 303.04 0 389.33 0.13 389.17 82.01 436.44 0.13 495.45 0.13 436.44 102.34 495.45 204.54 436.44 204.54 389.33 122.94 389.33 204.54 338.23 204.54 338.33 41.08 291.22 122.68 251.52 122.68 204.41 41.08 204.41 102.33 153.31 102.2 153.31 41.08 118.02 102.2 59.01 102.2 118.02 0"/><polygon class="cls-1" points="106.3 122.49 59.01 204.41 0 204.41 47.3 122.49 106.3 122.49"/><rect class="cls-1" x="153.31" y="122.49" width="51.1" height="81.92"/></svg>