<svg xmlns="http://www.w3.org/2000/svg" viewBox="0 0 789.01 577.92"><defs><style>.cls-1,.cls-2,.cls-5{fill:none;}.cls-2,.cls-4{stroke:#231f20;}.cls-2{stroke-linecap:round;stroke-linejoin:round;stroke-width:0.25px;}.cls-3{fill:#231f20;}.cls-4{fill:#00aeef;stroke-miterlimit:10;stroke-width:0.5px;}.cls-5{stroke:#efc519;stroke-width:3px;}</style></defs><g id="Wall"><rect class="cls-1" x="277.27" y="55.54" width="3.57" height="2.06" transform="translate(0.54 99.48) rotate(-23.68)"/><rect class="cls-1" x="263.17" y="63.45" width="3.57" height="2.06" transform="translate(110.4 271.93) rotate(-69.21)"/><rect class="cls-1" x="302.56" y="44.93" width="2.06" height="3.57" transform="translate(253.89 332.5) rotate(-89.48)"/><rect class="cls-1" x="318.82" y="41" width="3.57" height="2.06" transform="translate(10.76 117.91) rotate(-24.23)"/><rect class="cls-1" x="336.47" y="33.06" width="3.57" height="2.06" transform="translate(15.57 124.45) rotate(-24.23)"/><rect class="cls-1" x="347.3" y="39.43" width="2.06" height="3.57" transform="translate(1.96 80.64) rotate(-16.06)"/><rect class="cls-1" x="352.41" y="57.16" width="2.06" height="3.57" transform="translate(-2.75 82.74) rotate(-16.06)"/><rect class="cls-1" x="374.26" y="80.52" width="2.06" height="3.57" transform="translate(82.37 313.85) rotate(-52.75)"/><rect class="cls-1" x="388.28" y="91.99" width="2.06" height="3.57" transform="translate(12.72 213.21) rotate(-33.52)"/><rect class="cls-1" x="394.74" y="89.41" width="3.57" height="2.06" transform="translate(66.34 310.87) rotate(-48.63)"/><rect class="cls-1" x="407.32" y="76.81" width="3.57" height="2.06" transform="translate(10.04 180.32) rotate(-27.5)"/><rect class="cls-1" x="437.53" y="67.46" width="3.57" height="2.06" transform="translate(15.9 187.53) rotate(-26.73)"/><rect class="cls-1" x="449.4" y="56.21" width="3.57" height="2.06" transform="translate(10.52 153.31) rotate(-21.67)"/><rect class="cls-1" x="469.72" y="54.1" width="3.57" height="2.06" transform="translate(-3.03 17.78) rotate(-4.26)"/><rect class="cls-1" x="487.72" y="52.76" width="3.57" height="2.06" transform="translate(-2.88 19.11) rotate(-4.26)"/><rect class="cls-1" x="506.79" y="51.35" width="3.57" height="2.06" transform="translate(-2.72 20.53) rotate(-4.26)"/><rect class="cls-1" x="525.4" y="49.96" width="3.57" height="2.06" transform="translate(-2.57 21.9) rotate(-4.26)"/><rect class="cls-1" x="543.9" y="55.87" width="2.06" height="3.57" transform="translate(191.05 458.87) rotate(-55.85)"/><rect class="cls-1" x="558.43" y="65.73" width="2.06" height="3.57" transform="translate(189.27 475.23) rotate(-55.85)"/><rect class="cls-1" x="573.25" y="77.9" width="2.06" height="3.57" transform="translate(353.48 598.51) rotate(-75.54)"/><rect class="cls-1" x="602.72" y="73.81" width="3.57" height="2.06" transform="translate(18.35 223.98) rotate(-22.92)"/><rect class="cls-1" x="619.52" y="68.16" width="2.06" height="3.57" transform="translate(272.3 571.11) rotate(-62.56)"/><rect class="cls-1" x="628.71" y="84.88" width="2.06" height="3.57" transform="translate(21.69 255.41) rotate(-24.86)"/><rect class="cls-1" x="636.24" y="101.11" width="2.06" height="3.57" transform="translate(15.56 260.08) rotate(-24.86)"/><rect class="cls-1" x="640.97" y="118.24" width="3.57" height="2.06" transform="translate(214.25 595.82) rotate(-59.58)"/><rect class="cls-1" x="621.82" y="150.23" width="2.06" height="3.57" transform="translate(-15.61 73.68) rotate(-8.26)"/><rect class="cls-1" x="626.89" y="166.02" width="2.06" height="3.57" transform="translate(-7.12 289.96) rotate(-27.36)"/><rect class="cls-1" x="635.87" y="183.39" width="2.06" height="3.57" transform="translate(-14.1 296.03) rotate(-27.36)"/><rect class="cls-1" x="643.99" y="199.06" width="2.06" height="3.57" transform="translate(-20.39 301.51) rotate(-27.36)"/><rect class="cls-1" x="653.83" y="215.14" width="2.06" height="3.57" transform="matrix(0.85, -0.53, 0.53, 0.85, -15.19, 364.63)"/><rect class="cls-1" x="664.26" y="230.08" width="2.06" height="3.57" transform="translate(10.67 475.57) rotate(-40.96)"/><rect class="cls-1" x="675.29" y="242.79" width="2.06" height="3.57" transform="translate(5.04 485.92) rotate(-40.96)"/><rect class="cls-1" x="687.46" y="257.32" width="2.06" height="3.57" transform="translate(-24.48 423.84) rotate(-34.95)"/><rect class="cls-1" x="708.5" y="287.42" width="2.06" height="3.57" transform="translate(-37.93 441.32) rotate(-34.95)"/><rect class="cls-1" x="722.76" y="310.79" width="2.06" height="3.57" transform="translate(117.72 799.73) rotate(-63.14)"/><rect class="cls-1" x="739.01" y="319.02" width="2.06" height="3.57" transform="translate(119.29 818.74) rotate(-63.14)"/><rect class="cls-1" x="753.11" y="328.19" width="2.06" height="3.57" transform="translate(-48.49 128.83) rotate(-10.73)"/><rect class="cls-1" x="745.22" y="344.69" width="3.57" height="2.06" transform="translate(25.8 725.52) rotate(-53.68)"/><rect class="cls-1" x="731.31" y="355.17" width="3.57" height="2.06" transform="translate(-46.18 99.26) rotate(-8.82)"/><rect class="cls-1" x="705.23" y="360.32" width="3.57" height="2.06" transform="translate(-86.07 301.12) rotate(-23.98)"/><rect class="cls-1" x="689.53" y="367.3" width="3.57" height="2.06" transform="translate(-90.26 295.34) rotate(-23.98)"/><rect class="cls-1" x="671.72" y="375.22" width="3.57" height="2.06" transform="translate(-95.01 288.78) rotate(-23.98)"/><rect class="cls-1" x="657" y="381.77" width="3.57" height="2.06" transform="translate(-98.94 283.37) rotate(-23.98)"/><rect class="cls-1" x="634.2" y="393.72" width="3.57" height="2.06" transform="translate(-91.57 200.46) rotate(-18.15)"/><rect class="cls-1" x="615.61" y="405.02" width="3.57" height="2.06" transform="translate(-121.43 365.63) rotate(-31.54)"/><rect class="cls-1" x="599.53" y="414.9" width="3.57" height="2.06" transform="translate(-128.98 358.67) rotate(-31.54)"/><rect class="cls-1" x="585.21" y="419.06" width="3.57" height="2.06" transform="translate(-32.47 31.79) rotate(-4.67)"/><rect class="cls-1" x="566.85" y="422.96" width="3.57" height="2.06" transform="translate(-116.37 221.69) rotate(-21.6)"/><rect class="cls-1" x="553.28" y="440.27" width="2.06" height="3.57" transform="translate(-132.5 247.82) rotate(-24.13)"/><rect class="cls-1" x="560.81" y="455.86" width="2.06" height="3.57" transform="translate(-162.1 477.14) rotate(-42.08)"/><rect class="cls-1" x="573.1" y="469.12" width="2.06" height="3.57" transform="translate(-155.81 591.03) rotate(-50.03)"/><rect class="cls-1" x="588.98" y="483.05" width="2.06" height="3.57" transform="translate(-172.21 416.96) rotate(-35.62)"/><rect class="cls-1" x="593.9" y="502.12" width="2.06" height="3.57" transform="translate(-91.98 117.31) rotate(-12)"/><rect class="cls-1" x="595.05" y="521.47" width="2.06" height="3.57" transform="translate(-179.5 338.74) rotate(-29.11)"/><rect class="cls-1" x="602.87" y="536.3" width="3.57" height="2.06" transform="translate(19.98 1079.23) rotate(-85.36)"/><rect class="cls-1" x="592.5" y="548.17" width="3.57" height="2.06" transform="translate(-150.19 214.19) rotate(-19.63)"/><rect class="cls-1" x="575.69" y="553.76" width="3.57" height="2.06" transform="translate(-71 67.27) rotate(-7.9)"/><rect class="cls-1" x="555.79" y="554.53" width="3.57" height="2.06" transform="translate(-14.57 -2.59) rotate(-1.5)"/><rect class="cls-1" x="537.89" y="554.08" width="2.06" height="3.57" transform="translate(-55.68 1034.63) rotate(-85.74)"/><rect class="cls-1" x="508.32" y="542.1" width="2.06" height="3.57" transform="translate(-104.31 949.55) rotate(-81.47)"/><rect class="cls-1" x="490.47" y="538.23" width="2.06" height="3.57" transform="translate(-238.92 518.06) rotate(-47.33)"/><rect class="cls-1" x="476.47" y="525.32" width="2.06" height="3.57" transform="translate(-233.94 503.6) rotate(-47.33)"/><rect class="cls-1" x="462.88" y="512.8" width="2.06" height="3.57" transform="translate(-229.11 489.58) rotate(-47.33)"/><rect class="cls-1" x="450.72" y="501.59" width="2.06" height="3.57" transform="translate(-224.78 477.02) rotate(-47.33)"/><rect class="cls-1" x="438.93" y="508.36" width="3.57" height="2.06" transform="translate(-224.97 387.71) rotate(-40.22)"/><rect class="cls-1" x="421.65" y="518.13" width="3.57" height="2.06" transform="translate(-111.77 98.53) rotate(-13.79)"/><rect class="cls-1" x="400.58" y="517.83" width="2.06" height="3.57" transform="translate(-119.48 902.24) rotate(-89.82)"/><rect class="cls-1" x="368.5" y="532.68" width="3.57" height="2.06" transform="translate(-253.99 336) rotate(-39.13)"/><rect class="cls-1" x="355.3" y="543.43" width="3.57" height="2.06" transform="translate(-263.74 330.08) rotate(-39.13)"/><rect class="cls-1" x="340.74" y="555.27" width="3.57" height="2.06" transform="translate(-274.47 323.54) rotate(-39.13)"/><rect class="cls-1" x="327.49" y="566.05" width="3.57" height="2.06" transform="translate(-284.24 317.6) rotate(-39.13)"/><rect class="cls-1" x="310.34" y="576.13" width="3.57" height="2.06" transform="translate(-180.33 125.91) rotate(-20.2)"/><rect class="cls-1" x="290.56" y="580.47" width="2.06" height="3.57" transform="translate(-313.98 324.87) rotate(-41.77)"/><rect class="cls-1" x="283.59" y="564.67" width="2.06" height="3.57" transform="translate(-189.53 128.04) rotate(-21.7)"/><rect class="cls-1" x="276.71" y="547.39" width="2.06" height="3.57" transform="matrix(0.93, -0.37, 0.37, 0.93, -183.63, 124.27)"/><rect class="cls-1" x="269.49" y="529.25" width="2.06" height="3.57" transform="translate(-177.43 120.32) rotate(-21.7)"/><rect class="cls-1" x="263.61" y="514.15" width="3.57" height="2.06" transform="translate(-265.22 731.37) rotate(-86.51)"/><rect class="cls-1" x="265.24" y="494.43" width="3.57" height="2.06" transform="translate(-284.23 592.82) rotate(-73.44)"/><rect class="cls-1" x="262.89" y="473.57" width="2.06" height="3.57" transform="translate(-277.97 410.84) rotate(-55.99)"/><rect class="cls-1" x="245.95" y="460.01" width="2.06" height="3.57" transform="translate(-41.18 7) rotate(-5.21)"/><rect class="cls-1" x="246.2" y="445.62" width="3.57" height="2.06" transform="translate(-221.8 630.6) rotate(-84.17)"/><rect class="cls-1" x="243.8" y="428.45" width="2.06" height="3.57" transform="translate(-188.15 172.51) rotate(-31.31)"/><rect class="cls-1" x="219.54" y="400.63" width="2.06" height="3.57" transform="translate(-211.71 230.37) rotate(-41.57)"/><rect class="cls-1" x="204.44" y="391.23" width="2.06" height="3.57" transform="translate(-237.06 408.15) rotate(-66.6)"/><rect class="cls-1" x="187.07" y="386.66" width="2.06" height="3.57" transform="translate(-234.65 459.15) rotate(-75.93)"/><rect class="cls-1" x="171.39" y="383.66" width="2.06" height="3.57" transform="translate(-249.86 355.08) rotate(-64.13)"/><rect class="cls-1" x="159.49" y="365.25" width="3.57" height="2.06" transform="translate(-227.5 444.89) rotate(-80.11)"/><rect class="cls-1" x="177.17" y="357.82" width="3.57" height="2.06" transform="translate(-140.7 99.06) rotate(-26.3)"/><rect class="cls-1" x="192.58" y="350.2" width="3.57" height="2.06" transform="translate(-135.73 105.11) rotate(-26.3)"/><rect class="cls-1" x="203.99" y="338.59" width="3.57" height="2.06" transform="translate(-189.13 366.02) rotate(-65.12)"/><rect class="cls-1" x="214.84" y="321.78" width="3.57" height="2.06" transform="translate(-161.93 215.95) rotate(-42.83)"/><rect class="cls-1" x="229.35" y="309.95" width="3.57" height="2.06" transform="translate(-138.79 177.61) rotate(-35.96)"/><rect class="cls-1" x="245.06" y="292.97" width="2.06" height="3.57" transform="translate(-135.91 236.24) rotate(-43.99)"/><rect class="cls-1" x="232.45" y="279.9" width="2.06" height="3.57" transform="translate(-130.38 223.82) rotate(-43.99)"/><rect class="cls-1" x="217.6" y="269.88" width="2.06" height="3.57" transform="translate(-129.61 232.16) rotate(-47.53)"/><rect class="cls-1" x="206.92" y="256.05" width="2.06" height="3.57" transform="translate(-112.29 154.95) rotate(-36.15)"/><rect class="cls-1" x="196.32" y="241.54" width="2.06" height="3.57" transform="translate(-105.78 145.9) rotate(-36.15)"/><rect class="cls-1" x="186.46" y="226.92" width="2.06" height="3.57" transform="matrix(0.96, -0.28, 0.28, 0.96, -57.6, 45.51)"/><rect class="cls-1" x="184.2" y="209.2" width="3.57" height="2.06" transform="translate(-42.35 356.44) rotate(-84.15)"/><rect class="cls-1" x="237.11" y="186.21" width="3.57" height="2.06" transform="matrix(0.98, -0.2, 0.2, 0.98, -32.56, 33.61)"/><rect class="cls-1" x="252.05" y="180.35" width="3.57" height="2.06" transform="translate(-55.6 122.48) rotate(-27.9)"/><rect class="cls-1" x="280.89" y="160.79" width="3.57" height="2.06" transform="translate(-37.28 206.68) rotate(-40.8)"/><rect class="cls-1" x="286.25" y="146.63" width="3.57" height="2.06" transform="translate(65.73 365.78) rotate(-73.82)"/><rect class="cls-1" x="289.17" y="129.26" width="3.57" height="2.06" transform="translate(153.93 400.88) rotate(-88.71)"/><rect class="cls-1" x="288.37" y="109.82" width="2.06" height="3.57" transform="translate(-17.4 47.1) rotate(-12.35)"/><rect class="cls-1" x="278.92" y="93.83" width="2.06" height="3.57" transform="translate(-5.29 157.55) rotate(-34.4)"/><rect class="cls-1" x="270.73" y="79.08" width="2.06" height="3.57" transform="translate(-6.34 119.91) rotate(-28.05)"/><polygon class="cls-1" points="256.14 451.65 257.71 449.32 250.09 444.18 252.49 420.67 247.93 410.38 219.41 378.23 206.03 371.68 180.27 365.22 173.43 365.11 170.13 365.05 171.81 367.89 179.9 368.03 205.06 374.33 217.68 380.51 245.54 411.92 249.61 421.12 247.12 445.57 256.14 451.65"/><polygon class="cls-1" points="586 69.37 590.87 64.26 620.28 51.83 643.39 101.7 618.52 113.6 615.87 114.87 615.44 111.96 639.67 100.36 618.87 55.48 586 69.37"/><polygon class="cls-1" points="380.77 501.16 382.11 498.35 379.37 498.34 371.68 508.56 373.35 511.02 380.77 501.16"/><polygon class="cls-1" points="222.69 177.02 222.33 174.22 244.15 169.82 244.15 172.69 222.69 177.02"/><polygon class="cls-1" points="270.9 155.79 272.74 157.91 287.47 145.2 294.37 121.42 291.57 120.98 285 143.61 270.9 155.79"/><polygon class="cls-1" points="505.19 36.28 506.92 38.97 519.98 38 519.5 35.22 505.19 36.28"/><polygon class="cls-1" points="523.4 34.93 523.88 37.71 533.03 37.03 561.55 56.38 564.17 60.65 566.57 59.17 563.63 54.39 533.8 34.15 523.4 34.93"/><polygon class="cls-1" points="210.54 179.47 210.45 176.62 218.96 174.91 219.12 177.74 210.54 179.47"/><rect class="cls-1" x="245.92" y="180.12" width="25.64" height="2.81" transform="translate(-55.1 124.8) rotate(-27.9)"/><polygon class="cls-1" points="195.1 186.34 191.34 186.34 197.69 179.2 206.96 177.33 206.95 180.2 199.17 181.77 195.1 186.34"/><polygon class="cls-1" points="251.56 283.39 249.91 281.11 250.47 280.7 231.67 261.22 218.69 253.76 187.85 211.53 186.38 191.91 188.14 189.93 191.9 189.93 189.27 192.89 190.59 210.52 220.61 251.62 233.42 258.98 254.75 281.07 251.56 283.39"/><polygon class="cls-1" points="296.15 35.8 295.02 33.23 263.85 46.9 280.39 77.96 288.42 86.06 291.99 102.34 291.65 117.1 294.47 117.16 294.81 102.06 291 84.66 282.68 76.27 267.75 48.26 296.15 35.8"/><polygon class="cls-1" points="568.23 61.88 566.43 64.32 581.34 68.17 583.79 65.9 568.23 61.88"/><polygon class="cls-1" points="229.26 299.56 226.35 299.58 226.27 298.25 241.19 287.44 242.84 289.71 229.26 299.56"/><polygon class="cls-1" points="619.16 118.03 616.52 119.37 620.12 144.19 642.67 187.77 651.66 202.07 655.89 203.51 645.12 186.38 622.84 143.31 619.16 118.03"/><polygon class="cls-1" points="224.75 302.94 214.21 312.71 204.86 332.85 179.47 345.4 176.41 343.78 202.73 330.77 211.89 311.02 223.49 300.27 224.75 302.94"/><polygon class="cls-1" points="660.49 210.82 659 213.4 683.37 241.47 711.13 281.17 713.86 282.81 713.98 280.35 685.59 239.74 660.49 210.82"/><path class="cls-1" d="M722.23,356.84a7,7,0,0,1-2,3.22,7,7,0,0,1-7.17,1.39,7.19,7.19,0,0,1-3.08-2.22l-1.26.24-52.31,23.26-.28.16-2.15-2,1.18-.65,52.71-23.44,3.58-.69a4.2,4.2,0,0,0,1.87,2.39,4.24,4.24,0,0,0,6.4-4l2-.4,14.37-2.23,7.88-8.11,7.1-13L710.79,310.3c.09-1.77.17-3.54.26-5.3l2.77,1-.13,2.62L755,329.51l-8.68,15.9-8.8,9.07Z" transform="translate(-0.23 -17.36)"/><polygon class="cls-1" points="166.79 353.86 164.37 355.29 160.24 348.31 171.96 345.98 174.85 347.68 172.87 348.66 164.68 350.3 166.79 353.86"/><polygon class="cls-1" points="168.15 361.7 171.46 361.78 169.06 357.7 166.31 358.58 168.15 361.7"/><polygon class="cls-1" points="600.74 517.86 603.77 515.3 603.14 522.98 596.31 529.94 588.26 532.81 587.31 530.16 594.76 527.51 600.42 521.73 600.74 517.86"/><polygon class="cls-1" points="650.56 365.25 652.56 367.36 635.39 376.81 621.66 378.06 620.53 375.34 634.55 374.06 650.56 365.25"/><polygon class="cls-1" points="618.99 380.29 617.19 378.13 615.05 379.91 618.08 383.62 594.23 398.26 575.16 399.82 555.34 407.67 549.63 413.08 551.89 414.81 556.88 410.08 575.81 402.59 595.13 401.01 622.29 384.34 618.99 380.29"/><rect class="cls-1" x="263.43" y="469.44" width="2.81" height="7.18" transform="translate(-275.64 410.58) rotate(-55.99)"/><polygon class="cls-1" points="550.05 418.23 547.44 417.14 546.92 418.12 557.26 441.21 569.91 455.22 587.19 469.7 591.17 488.44 594.21 489.2 589.74 468.17 571.87 453.19 559.64 439.65 550.05 418.23"/><polygon class="cls-1" points="589.33 490.64 591.49 492.45 590.13 494.06 595 507.34 601.78 511.82 599.66 513.79 592.67 509.17 586.93 493.5 589.33 490.64"/><polygon class="cls-1" points="559.01 534.31 560.99 537.08 537.3 537.7 527.34 533.1 516.63 525.06 537.88 534.87 559.01 534.31"/><polygon class="cls-1" points="585.1 533.94 584.15 531.29 577 533.84 563.3 534.2 565.27 536.96 577.52 536.64 585.1 533.94"/><polygon class="cls-1" points="369.5 511.47 371.03 514.11 370.79 514.43 320.06 555.7 292.19 565.95 266.04 500.24 267.36 478.69 273.8 463.57 275.2 461.13 277.29 462.54 270.13 479.34 268.89 499.78 293.79 562.37 318.64 553.22 368.75 512.47 369.5 511.47"/><polygon class="cls-1" points="363.02 57.08 363.02 60.62 385.15 77.45 390.48 85.49 408.55 64.97 424.29 56.78 424.71 56.85 427.33 54.44 423.83 53.85 406.79 62.72 390.8 80.88 387.23 75.5 363.02 57.08"/><polygon class="cls-1" points="299.35 34.4 298.22 31.83 303.88 29.34 306.75 31.93 344.46 14.96 354.79 50.83 359.01 54.03 359.01 57.57 352.35 52.51 342.66 18.85 306.23 35.25 303.35 32.65 299.35 34.4"/><polygon class="cls-1" points="445 46.9 446.63 49.31 443.1 53.41 433.35 58.31 428.88 57.56 431.5 55.15 432.91 55.39 441.33 51.15 445 46.9"/><polygon class="cls-1" points="504.52 524.79 503.14 521.74 508.6 522.56 511.67 525.87 504.52 524.79"/><polygon class="cls-1" points="499.52 521.2 500.28 524.16 493.27 523.11 447.93 481.31 440.05 491.56 423.09 501.29 384.67 501.17 386.05 498.36 422.35 498.48 438.16 489.4 447.58 477.16 494.55 520.45 499.52 521.2"/><polygon class="cls-1" points="447.37 44.16 450.67 40.34 501.21 36.58 502.94 39.27 452.04 43.06 449.01 46.56 447.37 44.16"/></g><g id="Streets"><line class="cls-2" x1="288.91" y1="12.3" x2="357.29" y2="196.55"/><line class="cls-2" x1="299.8" y1="41.65" x2="293.95" y2="147.3"/><polyline class="cls-2" points="299.8 41.65 361.26 93.01 384.69 152.11"/><line class="cls-2" x1="375.79" y1="129.67" x2="302.66" y2="159.79"/><line class="cls-2" x1="312.73" y1="52.45" x2="346.98" y2="141.54"/><line class="cls-2" x1="358.05" y1="136.98" x2="330.53" y2="67.33"/><line class="cls-2" x1="337.81" y1="73.42" x2="357.66" y2="123.82"/><polyline class="cls-2" points="368.55 111.41 331.19 126.23 295.31 122.7"/><line class="cls-2" x1="295.7" y1="115.65" x2="328.46" y2="118.86"/><line class="cls-2" x1="329.85" y1="97" x2="314.41" y2="102.93"/><line class="cls-2" x1="321.77" y1="118.21" x2="344.16" y2="179.16"/><line class="cls-2" x1="299.9" y1="116.06" x2="320.85" y2="166.39"/><polyline class="cls-2" points="293.95 147.3 249.25 174.64 209.34 181.27"/><line class="cls-2" x1="30.57" y1="168.09" x2="0.13" y2="197.69"/><polyline class="cls-2" points="27.72 170.86 37.31 180.73 207.38 164.7 211.72 215.56"/><polyline class="cls-2" points="178.86 130.13 169.27 186.38 193 188.62 344.16 179.16 350.47 178.19 356.35 176 378.81 164.48 384.69 152.11"/><polyline class="cls-2" points="384.69 152.11 392.21 136.29 392.88 132.64 396.27 116.9 407.97 82.08 414.54 70.51 429.8 54.17 444.98 42.74 456.01 32.59 464.02 14.2"/><polyline class="cls-2" points="444.98 42.74 462.94 72.28 468.04 104.24 465.45 112.17 448.9 124.24 420.62 138.3 384.69 152.11 325.76 174.94"/><polyline class="cls-2" points="344.58 162.32 378.79 149.63 384.69 152.11"/><line class="cls-2" x1="384.69" y1="152.11" x2="399.17" y2="162.18"/><polyline class="cls-2" points="364.91 102.23 365.77 93.45 354.49 14.65"/><polyline class="cls-2" points="365.77 93.45 383.13 122.08 392.54 134.47 397.9 141.53 384.69 152.11"/><polyline class="cls-2" points="261.71 167.02 266.11 176.83 272.43 246.19"/><polyline class="cls-2" points="293.95 147.3 302.66 159.79 307.04 166.06 313.92 263.32"/><line class="cls-2" x1="261.71" y1="167.02" x2="314.76" y2="168.82"/><polyline class="cls-2" points="284.56 153.05 293.77 168.11 294.66 182.26"/><polyline class="cls-2" points="273.14 160.03 277.75 167.57 281.4 183.09"/><line class="cls-2" x1="249.25" y1="174.64" x2="250.97" y2="184.99"/><line class="cls-2" x1="224.24" y1="178.8" x2="224.73" y2="186.63"/><polyline class="cls-2" points="201.47 181.3 209.33 187.6 239.68 214.85 270.24 222.19 287.57 221.48"/><polyline class="cls-2" points="284.5 182.89 287.57 221.48 290.59 264.6"/><polyline class="cls-2" points="193 188.62 211.72 215.56 225.48 231.53 243.01 248.85 267.17 268.27 275.49 276.16 301.96 295.51 317.32 295.65 352.52 311.43 360.14 328.34"/><line class="cls-2" x1="203.68" y1="203.98" x2="190.51" y2="209.46"/><line class="cls-2" x1="211.72" y1="215.56" x2="199.27" y2="222.4"/><line class="cls-2" x1="222.77" y1="228.39" x2="209.45" y2="236.33"/><line class="cls-2" x1="231.4" y1="237.39" x2="218.07" y2="248.13"/><polyline class="cls-2" points="233.42 258.98 243.01 248.85 249.8 241.98 252.49 238.39"/><polyline class="cls-2" points="225.48 231.53 240.7 234.55 252.49 238.39 266.04 246.22 276.36 253.46"/><polyline class="cls-2" points="266.04 246.22 272.43 246.19 283.02 245.63 341.41 244.05 351.84 256.64 355.03 264.05"/><polyline class="cls-2" points="240.7 234.55 249.8 241.98 262.81 250.27 273.94 258.72 282.64 265.08 290.59 264.6 313.92 263.32 345.18 259.98 351.84 256.64 369.19 251.11 377.39 247.13"/><polyline class="cls-2" points="266.04 246.22 262.81 250.27 244.08 270.03"/><polyline class="cls-2" points="283.02 245.63 276.36 253.46 273.94 258.72 267.17 268.27 252.58 284.7"/><polyline class="cls-2" points="282.64 265.08 353.74 297.33 359.01 308.54 366.72 326.8 369.77 336.7 370 346.94 351.33 381.57 323.1 416.75 325.19 426.66 329.26 435.2 334.07 444.48 375.08 517.39 375.43 545.43 377.67 559.74"/><line class="cls-2" x1="352.22" y1="164.69" x2="362.97" y2="192.43"/><line class="cls-2" x1="347.59" y1="170.43" x2="360.4" y2="165.67"/><line class="cls-2" x1="318.52" y1="180.77" x2="324.67" y2="262.17"/><polyline class="cls-2" points="286.41 206.84 343.36 203.53 357.29 196.56 362.97 192.43 383.8 176.99 385.27 176.78 399.17 162.18 418.3 149.61 438.94 148.57"/><line class="cls-2" x1="345.78" y1="178.91" x2="353.24" y2="198.59"/><polyline class="cls-2" points="378.81 164.48 383.8 176.99 401.14 223.18 403.3 229.77 409.37 236.71 409.55 240.11 413.04 239.84 416.49 242.79 417.5 245.69 417.38 249.22 418.27 250 422.21 249.88"/><line class="cls-2" x1="380.36" y1="161.23" x2="386.63" y2="175.35"/><polyline class="cls-2" points="343.36 203.53 343.36 220.67 338.59 228.86 339.58 260.57"/><line class="cls-2" x1="338.83" y1="236.67" x2="322.75" y2="236.88"/><line class="cls-2" x1="312.1" y1="237.63" x2="288.82" y2="239.26"/><line class="cls-2" x1="331.55" y1="204.22" x2="333.91" y2="236.73"/><polyline class="cls-2" points="284.41 265.88 275.49 276.16 259.82 292.66"/><polyline class="cls-2" points="270.63 263.4 280.6 270.27 289.4 274.21"/><polyline class="cls-2" points="343.36 203.53 354.4 200.85 364.23 200.42 384.67 185.67"/><polyline class="cls-2" points="383.8 176.99 384.67 185.67 390.01 228.01"/><polyline class="cls-2" points="346.98 313.95 359.01 308.54 370.21 306.57 377.15 303.6 383.35 299.74 389.45 294.8 392.82 291.35 395.86 287.34 397.94 279.77 396.75 271.34 395.3 266.81 392.6 261.92 389.51 257.28 387.1 254.08 382.24 249.85 380.28 248.75 377.39 247.13 373.33 240.09 358.54 200.67 384.32 182.24 385.59 181.77 403.31 187.9 415.73 187.38 449.61 209.88 469.88 253.17 484.19 280.59 500.23 288.01 505.58 293.96 503.76 310.08"/><polyline class="cls-2" points="343.36 217.77 367.18 207.35 393.88 203.84"/><polyline class="cls-2" points="371.79 236 401.14 223.18 418.63 216.61 431.14 223.18 441.06 233.02"/><line class="cls-2" x1="369" y1="196.98" x2="382.35" y2="231.39"/><line class="cls-2" x1="364.23" y1="200.42" x2="377.04" y2="233.71"/><line class="cls-2" x1="366.69" y1="222.4" x2="377.27" y2="218.29"/><line class="cls-2" x1="354.4" y1="200.85" x2="372.22" y2="249.64"/><line class="cls-2" x1="367.22" y1="251.73" x2="349.36" y2="202.07"/><polyline class="cls-2" points="403.3 229.77 397.01 231.83 388.9 231.65 385.79 234.09 373.33 240.09"/><polyline class="cls-2" points="369.19 251.11 355.03 264.05 345.3 272.96 295.99 271.13"/><line class="cls-2" x1="295.99" y1="271.13" x2="295.62" y2="264.33"/><line class="cls-2" x1="315.84" y1="263.11" x2="316.43" y2="271.89"/><line class="cls-2" x1="345.3" y1="272.96" x2="345.18" y2="259.98"/><line class="cls-2" x1="338.31" y1="305.06" x2="335.03" y2="309.57"/><polyline class="cls-2" points="353.74 297.33 353.73 284.26 360.65 276.6 367.14 262.22 370.23 257.65 378.21 249.98 382.24 249.85"/><polyline class="cls-2" points="355.97 263.2 385.25 276.26 387.12 276.32 387.4 273.26 389.1 272.02 390.86 272.76 392.05 272.59 393.13 270.8 390.43 264.61 389.31 263.94"/><polyline class="cls-2" points="368.56 260.11 371.11 262.76 371.21 270"/><line class="cls-2" x1="371.16" y1="266.73" x2="375.11" y2="268.42"/><polyline class="cls-2" points="396.07 286.57 394.1 284.74 392.23 284.65 384.18 292.61 380.93 294.09 377.47 293.94 375.55 292.64 374.22 290.48"/><line class="cls-2" x1="370.21" y1="306.57" x2="372.84" y2="314.63"/><line class="cls-2" x1="362.31" y1="316.35" x2="353.5" y2="320.94"/><polyline class="cls-2" points="387.61 326.94 366.72 326.8 360.14 328.34 354.81 330.48"/><polyline class="cls-2" points="357.51 336.12 369.77 336.7 387.61 326.94 394.28 322.55 413.39 306.46 412.95 296.11 395.86 287.34"/><polyline class="cls-2" points="408.08 293.61 394.28 322.55 391.74 330.51 373.45 358.62"/><line class="cls-2" x1="392.82" y1="291.35" x2="406.13" y2="297.7"/><polyline class="cls-2" points="369.77 336.7 383.92 342.54 452.47 386.26 528.32 452.89 550.44 474.79 569.09 496.51 578.59 512.16 584.02 525.25 593.61 557.05"/><polyline class="cls-2" points="528.32 452.89 558.47 470.3 581.73 483.73 605.84 498.72 626.29 505.1"/><line class="cls-2" x1="581.73" y1="483.73" x2="569.09" y2="496.51"/><polyline class="cls-2" points="536.68 442.39 528.32 452.89 512.06 472.37 534.65 492.37 570.61 549.28"/><line class="cls-2" x1="550.44" y1="474.79" x2="534.65" y2="492.37"/><polyline class="cls-2" points="475.56 478.69 495.53 511.12 542.26 545.52"/><line class="cls-2" x1="499.03" y1="513.69" x2="512.49" y2="556.16"/><line class="cls-2" x1="523.82" y1="458.28" x2="444.45" y2="392.56"/><polyline class="cls-2" points="475.23 406.26 469.44 413.25 465.55 423.23 463.46 442.12 456.21 465.25 433.31 490.04 414.18 496.89 384.09 496.77 357.54 486.2"/><polyline class="cls-2" points="375.08 517.39 384.09 496.77 406.17 439.01 426.25 421.76 443.9 404.56 450.02 397.17 452.47 386.26 464.84 315.69"/><polyline class="cls-2" points="453.01 440.55 446.21 458.3 427.67 483.5 405.95 487.02"/><polyline class="cls-2" points="417.61 485.13 417.46 469.5 407.45 442.34"/><line class="cls-2" x1="434.63" y1="450.26" x2="405.32" y2="476.85"/><polyline class="cls-2" points="381.09 406.49 398.25 442.54 409.62 442.34 427.76 426.89 445.31 414.43 462.39 394.98"/><polyline class="cls-2" points="406.17 439.01 382.18 385.58 382.52 382.77 386.67 379.35 386.12 375.75 378.32 368.4 373.45 358.62"/><polyline class="cls-2" points="336.5 430.86 369.68 388.9 382.18 385.58"/><polyline class="cls-2" points="369.68 388.9 362.04 379.74 362.1 375.38 364.07 373.12 363.91 365.03 361.84 362.07"/><line class="cls-2" x1="384.84" y1="391.51" x2="361.72" y2="421.51"/><polyline class="cls-2" points="346.67 418 350.57 438.87 354.78 454.78 352.82 477.8"/><polyline class="cls-2" points="403.39 410.05 425.05 441.08 445.23 423.83 465.68 397.87 456.55 362.96"/><line class="cls-2" x1="352.48" y1="365.14" x2="359.07" y2="367.21"/><line class="cls-2" x1="346.1" y1="379.02" x2="351.33" y2="381.57"/><polyline class="cls-2" points="366.11 354.15 373.45 358.62 443.9 404.56"/><polyline class="cls-2" points="635.87 488.08 625.65 490.03 596.43 520.14 573.52 530.58 538.49 531.56 487.79 491.19 475.56 478.69 434.63 450.26 426.25 421.76 437.03 400.07"/><polyline class="cls-2" points="443.9 404.56 465.55 423.23 483.72 437.46 506.91 411.2 523.79 403.77"/><polyline class="cls-2" points="325.19 426.66 279.94 471.04 288.75 481.55"/><polyline class="cls-2" points="334.07 444.48 306.83 460.2 288.75 481.55 270.74 502.81"/><line class="cls-2" x1="285.44" y1="477.6" x2="329.26" y2="435.2"/><line class="cls-2" x1="313.53" y1="450.42" x2="316.09" y2="454.86"/><line class="cls-2" x1="327.93" y1="436.49" x2="313.7" y2="419.95"/><polyline class="cls-2" points="320.9 412.97 313.7 419.95 300.15 433.68"/><polyline class="cls-2" points="319.97 416.57 280.49 455.77 287.85 463.28"/><line class="cls-2" x1="290.23" y1="446.1" x2="297.65" y2="453.67"/><line class="cls-2" x1="300.22" y1="436.18" x2="307.7" y2="443.81"/><polyline class="cls-2" points="272.56 477.83 283.07 488.25 312.44 555.51"/><polyline class="cls-2" points="292.5 477.12 300.3 484.3 326.92 546.49"/><line class="cls-2" x1="322.77" y1="451" x2="361.09" y2="518.69"/><line class="cls-2" x1="279.32" y1="525.99" x2="295.93" y2="517.7"/><line class="cls-2" x1="299.03" y1="524.79" x2="282.11" y2="533.02"/><line class="cls-2" x1="302.82" y1="533.49" x2="318.07" y2="525.82"/><line class="cls-2" x1="292.66" y1="510.22" x2="308.29" y2="502.96"/><polyline class="cls-2" points="287.47 498.32 300.3 484.3 331.1 465.72"/><line class="cls-2" x1="305.02" y1="495.33" x2="336.87" y2="475.9"/><line class="cls-2" x1="311.73" y1="477.41" x2="343.28" y2="533.18"/><line class="cls-2" x1="302.48" y1="465.34" x2="310.29" y2="478.28"/><line class="cls-2" x1="455.12" y1="371.15" x2="447.5" y2="383.09"/><polyline class="cls-2" points="397.94 279.77 410.82 288.44 425.65 294.9 442.9 300.51"/><polygon class="cls-2" points="442.9 300.51 441.76 305.66 461.52 311.26 463.98 299.83 444.91 294.33 442.9 300.51"/><polyline class="cls-2" points="412.95 296.11 425.65 294.9 441.29 280.76 452.15 273.29 509.25 253.9 514.01 252.25 562.53 224.49 574.41 207.17 573.71 165.57 560.52 143.85"/><polyline class="cls-2" points="441.76 305.66 437.11 310.13 430.83 332.76"/><line class="cls-2" x1="437.11" y1="310.13" x2="413.19" y2="301.81"/><polyline class="cls-2" points="444.91 294.33 446.45 288.97 458.44 286.29"/><polyline class="cls-2" points="463.98 299.83 464.59 296.98 484.19 280.59 498.32 274.63"/><polyline class="cls-2" points="493.04 284.68 498.32 274.63 509.25 253.9"/><line class="cls-2" x1="479.98" y1="272.52" x2="489.28" y2="267.67"/><polyline class="cls-2" points="464.59 296.98 458.44 286.29 452.15 273.29 447.08 262.68"/><polyline class="cls-2" points="577.52 325.66 540.44 317.27 503.76 310.08 500.09 309.67 486.65 303.2 476.15 301.57 464.59 296.98 454.73 294.14 446.45 288.97 441.29 280.76 431.61 268.42 429.11 266.98 431.42 261.66 437.53 246.5 441.06 233.02 443.3 221.89 449.61 209.88 514.57 97.37"/><polyline class="cls-2" points="431.42 261.66 422.67 251.85 422.21 249.88 421.54 226.1 418.63 216.61 416.32 210.45 416.11 198.95 443.69 170.86 479.28 133.63 486.26 126.62 514.57 97.37 519.61 92.81 533.29 84.15 566.47 61.88 579.88 48.2 595.06 13.74"/><polyline class="cls-2" points="431.61 268.42 447.08 262.68 480.36 249.34 491.56 252.51 514.01 252.25"/><polyline class="cls-2" points="514.01 252.25 511.42 232.99 544.68 212.51 562.53 224.49"/><line class="cls-2" x1="516.79" y1="236.1" x2="523.07" y2="247.07"/><polyline class="cls-2" points="474.56 231.69 477.53 209.68 491.38 185.19 552.13 148.34 560.52 143.85 646.09 103.65 708.26 96.17 744.12 88.96"/><polyline class="cls-2" points="661.79 101.76 670.4 114.2 672.4 164.27 665.99 208.85"/><line class="cls-2" x1="458.53" y1="258.09" x2="464.2" y2="269.19"/><polyline class="cls-2" points="409.37 236.71 421.73 232.77 440.46 235.3 446.01 243.3 452.85 260.37"/><polyline class="cls-2" points="461.52 311.26 464.84 315.69 470.91 321.68 476.96 324.43 490.03 324.88 516.34 376.73 524.23 394.19 523.79 403.77 526.36 451.17"/><line class="cls-2" x1="443.68" y1="170.86" x2="464.57" y2="183.98"/><line class="cls-2" x1="449.26" y1="174.36" x2="432.99" y2="198.85"/><polyline class="cls-2" points="480.36 249.34 517.95 194.18 552.13 148.34"/><polyline class="cls-2" points="392.88 132.64 405.54 134.23 420.62 138.3 428.93 141.73 438.94 148.57 444.26 153.05 472.45 170.32 488.44 190.39 510.68 204.85 525.99 212.39"/><line class="cls-2" x1="448.9" y1="124.24" x2="444.26" y2="153.05"/><polyline class="cls-2" points="516.49 14.87 530.49 71.88 533.29 84.15 543.92 104.27 581.9 168.36 582.77 213.12 573.28 233.53"/><line class="cls-2" x1="524.71" y1="89.58" x2="558.95" y2="151.22"/><polyline class="cls-2" points="552.66 143.01 568.75 134.85 582.27 153.32 625.17 193.94 656.52 205.63 659.19 209.2 665.99 208.85 669.81 208.85 695.02 211.82 708.88 213.8 726.41 216.93 744.16 220.11 761.12 221.79 784.84 224.01"/><line class="cls-2" x1="669.81" y1="208.85" x2="700.44" y2="195.4"/><polyline class="cls-2" points="530.49 71.88 506.95 42.48 487.04 10.71"/><line class="cls-2" x1="506.95" y1="42.48" x2="460.33" y2="67.99"/><line class="cls-2" x1="541.7" y1="78.51" x2="576.05" y2="136.55"/><line class="cls-2" x1="595.74" y1="57.21" x2="472.46" y2="170.32"/><polyline class="cls-2" points="517.95 194.18 573.71 165.57 619.77 141.79"/><polyline class="cls-2" points="659.19 209.2 624 195.56 581.9 168.36 576.74 164.01 572.53 157.73 564.68 162.24 570.88 170.89 569.79 208.76 559.59 222.51 558.24 259.98 553.33 270.42 537.55 270.68"/><polyline class="cls-2" points="570.11 197.51 564.07 210.58 554.6 219.16 541.51 226.78 545.71 234.12"/><polyline class="cls-2" points="545.71 234.12 573.28 233.53 582.33 238.76 701.35 286.91"/><polyline class="cls-2" points="701.35 286.91 704.95 291.26 723.65 316.67 719.31 326.39"/><line class="cls-2" x1="582.33" y1="238.76" x2="659.19" y2="209.2"/><line class="cls-2" x1="659.19" y1="209.2" x2="638.11" y2="261.32"/><polyline class="cls-2" points="657.06 214.48 630.81 225.65 621.37 237.41 599.08 243.92 582.33 238.76"/><line class="cls-2" x1="581.9" y1="168.36" x2="712.96" y2="284.32"/><line class="cls-2" x1="643.16" y1="248.83" x2="705.52" y2="273.14"/><polyline class="cls-2" points="669.78 225.81 658.8 236.41 650.01 251.5 640.83 313.29"/><polyline class="cls-2" points="658.19 269.45 656.15 274.51 670.23 302.25"/><polyline class="cls-2" points="588.47 241.24 585.64 251.76 589.01 348.53 600.18 359.96 627.25 385.33 637.24 391.9 672.99 394.27 703.09 394.53"/><polyline class="cls-2" points="680.88 394.33 651.37 363.94 646.48 357.24 642.5 347.32 621.68 291.78"/><polyline class="cls-2" points="587.53 306.24 621.68 291.78 634.66 290.81"/><polyline class="cls-2" points="500.09 309.67 498.73 321.79 544.45 332.4 556.76 331.59 577.52 325.66 627.1 306.24 666.89 303.59"/><polyline class="cls-2" points="631.15 317.05 640.83 313.29 666.89 303.59 670.23 302.25 682.77 298.22 701.35 286.91 706.99 284.25 712.96 284.32 718.72 285.23 779.19 285.36 788.88 287.61"/><line class="cls-2" x1="718.72" y1="285.23" x2="788.72" y2="314.62"/><line class="cls-2" x1="706.99" y1="284.25" x2="788.81" y2="318.67"/><polyline class="cls-2" points="486.26 126.62 496.31 148.44 525.99 212.39 527.73 222.95 529.35 243.48 527.96 264.24 534.69 259.93 558.84 240.55 565.85 233.69 562.53 224.49"/><polyline class="cls-2" points="565.85 233.69 566.81 260.51 560.2 279.69 544.56 303.22 543.02 317.85"/><polyline class="cls-2" points="534.69 259.93 560 259.93 560.2 279.69"/><polyline class="cls-2" points="710.6 292.02 704.57 290.8 683.5 305.07 677.22 309.77 671.56 314.13 663.66 321.65 649.46 334.52 605.25 352.52 592.57 352.18"/><polyline class="cls-2" points="704.57 290.8 703.2 295.33 682.25 307.35 658.49 328.56 643.84 345.64 643.76 331.58"/><polyline class="cls-2" points="682.77 298.22 652.14 326.47 643.76 331.58 638.02 335.37 606.68 348.27 589.01 348.53"/><line class="cls-2" x1="642.5" y1="347.32" x2="616.38" y2="347.99"/><line class="cls-2" x1="624.46" y1="340.95" x2="624.64" y2="347.78"/><line class="cls-2" x1="588.59" y1="336.6" x2="632.34" y2="320.21"/><polyline class="cls-2" points="636.67 331.77 613.3 342.09 574.43 345.43 556.27 339.09 544.45 332.4"/><polyline class="cls-2" points="630.85 347.62 632.22 359.37 604.94 364.42"/><line class="cls-2" x1="613.07" y1="362.92" x2="610.94" y2="346.52"/><polyline class="cls-2" points="611.5 349.97 600.18 359.96 546.53 414.99 526.23 448.69"/><polyline class="cls-2" points="523.85 402.63 535.88 409.82 546.53 414.99 570.16 425.83"/><polyline class="cls-2" points="588.97 347.32 583.6 347.5 568.31 354.24 546.95 365.82 526.92 377.65 516.34 376.73 500.27 368.77 490.19 366.21 485.88 365.02 474.79 365.11 444.68 358.28"/><polyline class="cls-2" points="610.28 388.42 568.31 354.24 540.38 351.8"/><polyline class="cls-2" points="595.77 355.45 581.25 364.77 571.53 369.2 559.31 372.63 543.87 392.25"/><line class="cls-2" x1="559.31" y1="372.62" x2="553.65" y2="362.19"/><polyline class="cls-2" points="499.38 427.48 535.88 409.82 544.93 394.69 543.87 392.25 533.99 373.47"/><line class="cls-2" x1="544.93" y1="394.69" x2="568.41" y2="392.54"/><polyline class="cls-2" points="524.23 394.19 526.01 398.12 542.88 398.12"/><polyline class="cls-2" points="511.26 421.73 506.91 411.2 488.42 374.51 490.19 366.21"/><line class="cls-2" x1="479.75" y1="410.23" x2="518.44" y2="381.38"/><polyline class="cls-2" points="516.34 376.73 540.38 351.8 534.33 342.29"/><polyline class="cls-2" points="540.44 317.27 537.51 339.63 534.33 342.29 514.15 344.49"/><polyline class="cls-2" points="516.1 312.5 513.39 339.92 514.15 344.49 515.74 359.08 516.34 376.73"/><line class="cls-2" x1="574.43" y1="345.42" x2="519.68" y2="373.26"/><polyline class="cls-2" points="568.31 354.24 556.83 358.15 539.04 369.31 516.34 376.73"/><polyline class="cls-2" points="514.15 344.49 501.99 323.86 486.32 331.33"/><polyline class="cls-2" points="514.76 350.15 485.88 365.02 460.83 379.32 452.47 386.26"/><line class="cls-2" x1="485.88" y1="365.02" x2="463.66" y2="322.4"/><line class="cls-2" x1="472.07" y1="338.53" x2="480.19" y2="334.3"/><line class="cls-2" x1="482.8" y1="359.11" x2="457.73" y2="356.25"/><line class="cls-2" x1="469.41" y1="357.58" x2="479.31" y2="352.42"/><line class="cls-2" x1="496.36" y1="326.55" x2="509.82" y2="352.69"/><line class="cls-2" x1="516.34" y1="376.73" x2="498.17" y2="358.69"/><polyline class="cls-2" points="516.34 376.73 490.28 378.21 464.05 391.62"/><polyline class="cls-2" points="516.34 376.73 492.27 382.16 465.14 395.8"/><polyline class="cls-2" points="516.34 376.73 494.97 387.5 480.04 395.03 465.14 395.8"/><polyline class="cls-2" points="143.35 170.73 179.26 222.97 219.82 285.54 225.54 301.2 243.77 333.75"/><line class="cls-2" x1="219.82" y1="285.54" x2="232.96" y2="277.02"/><line class="cls-2" x1="213.01" y1="275.03" x2="219.43" y2="265.86"/><polyline class="cls-2" points="164.23 201.1 147.36 206.08 128.73 214.1 99.42 206.43 51.22 212.98 23.97 214.02 4.22 193.7"/><polyline class="cls-2" points="341.76 334.31 292.66 333.47 286.38 331.93 256.97 331.86 243.77 333.75 232.8 335.32 195.93 342.27"/><polyline class="cls-2" points="249.69 302.09 195.93 342.27 178.41 351.26 103.57 382.74"/><polyline class="cls-2" points="84.17 344.25 169.2 343.06 207.23 359.79 229.82 362.64"/><polyline class="cls-2" points="110.49 343.88 131.09 363.76 194.21 364.19"/><polyline class="cls-2" points="178.41 351.26 206.62 362.72 227.15 363.85 229.82 362.64 243.87 358.76 296.73 355.31 336.14 374.28"/><polyline class="cls-2" points="217.44 309.71 232.8 335.32 237.38 339.49 278.54 340.4 342.78 361.94"/><line class="cls-2" x1="249.69" y1="302.09" x2="225.54" y2="301.2"/><line class="cls-2" x1="249.69" y1="302.09" x2="238.86" y2="324.98"/><line class="cls-2" x1="239.14" y1="293.22" x2="257.25" y2="319.33"/><polyline class="cls-2" points="257.25 319.33 258.85 396.1 252.37 433.08"/><line class="cls-2" x1="252.37" y1="433.08" x2="272.93" y2="447.16"/><line class="cls-2" x1="234.13" y1="296.03" x2="257.46" y2="329.53"/><polyline class="cls-2" points="232.8 335.32 257.25 319.33 266.43 321.09 310.43 321.37"/><line class="cls-2" x1="277.51" y1="321.16" x2="279.01" y2="397.45"/><polyline class="cls-2" points="278.96 394.88 258.85 396.1 237.04 398.1"/><line class="cls-2" x1="269.12" y1="395.48" x2="266.43" y2="321.09"/><line class="cls-2" x1="252.45" y1="348.46" x2="281.08" y2="346.9"/><polyline class="cls-2" points="243.87 358.76 246.28 367.48 292.54 365.44 326.17 383.21"/><line class="cls-2" x1="246.28" y1="367.48" x2="236.41" y2="374.33"/><polyline class="cls-2" points="315.33 323.34 296.73 355.31 292.54 365.44 279.01 397.45 252.37 433.08"/><polyline class="cls-2" points="325.19 326.44 314.24 363.74 313.09 373.09 265.53 431.2"/><polyline class="cls-2" points="279.01 397.45 265.53 431.2 256.74 457.24 247.9 476.43 239.38 519.33 232.57 539.67"/><line class="cls-2" x1="266.83" y1="413.75" x2="287.7" y2="427.57"/><polyline class="cls-2" points="256.74 457.24 280.53 422.82 316.96 378.35 323.87 368.37 341.76 334.31"/><line class="cls-2" x1="305.77" y1="339.77" x2="342.44" y2="353.55"/><line class="cls-2" x1="307.25" y1="360.37" x2="279.01" y2="397.45"/><line class="cls-2" x1="280.77" y1="395.15" x2="304.66" y2="409.61"/><line class="cls-2" x1="285.29" y1="382.61" x2="313.72" y2="399.54"/><line class="cls-2" x1="288.9" y1="374.06" x2="319.2" y2="391"/></g><g id="Poche"><rect class="cls-3" x="336.47" y="33.06" width="3.57" height="2.06" transform="translate(15.57 124.45) rotate(-24.23)"/><rect class="cls-3" x="347.3" y="39.43" width="2.06" height="3.57" transform="translate(1.96 80.64) rotate(-16.06)"/><rect class="cls-3" x="352.41" y="57.16" width="2.06" height="3.57" transform="matrix(0.96, -0.28, 0.28, 0.96, -2.75, 82.74)"/><rect class="cls-3" x="374.26" y="80.52" width="2.06" height="3.57" transform="translate(82.37 313.85) rotate(-52.75)"/><rect class="cls-3" x="388.28" y="91.99" width="2.06" height="3.57" transform="translate(12.72 213.21) rotate(-33.52)"/><rect class="cls-3" x="394.74" y="89.41" width="3.57" height="2.06" transform="translate(66.34 310.87) rotate(-48.63)"/><rect class="cls-3" x="407.32" y="76.81" width="3.57" height="2.06" transform="translate(10.04 180.32) rotate(-27.5)"/><rect class="cls-3" x="437.53" y="67.46" width="3.57" height="2.06" transform="translate(15.9 187.53) rotate(-26.73)"/><rect class="cls-3" x="506.79" y="51.35" width="3.57" height="2.06" transform="translate(-2.72 20.52) rotate(-4.26)"/><rect class="cls-3" x="525.4" y="49.96" width="3.57" height="2.06" transform="matrix(1, -0.07, 0.07, 1, -2.57, 21.9)"/><rect class="cls-3" x="543.9" y="55.87" width="2.06" height="3.57" transform="translate(191.05 458.88) rotate(-55.85)"/><rect class="cls-3" x="558.43" y="65.73" width="2.06" height="3.57" transform="translate(189.26 475.23) rotate(-55.85)"/><rect class="cls-3" x="573.25" y="77.9" width="2.06" height="3.57" transform="translate(353.48 598.51) rotate(-75.54)"/><rect class="cls-3" x="602.72" y="73.81" width="3.57" height="2.06" transform="translate(18.35 223.98) rotate(-22.92)"/><rect class="cls-3" x="619.52" y="68.16" width="2.06" height="3.57" transform="translate(272.3 571.11) rotate(-62.56)"/><rect class="cls-3" x="628.71" y="84.88" width="2.06" height="3.57" transform="translate(21.69 255.42) rotate(-24.86)"/><rect class="cls-3" x="636.24" y="101.11" width="2.06" height="3.57" transform="translate(15.56 260.08) rotate(-24.86)"/><rect class="cls-3" x="640.97" y="118.24" width="3.57" height="2.06" transform="translate(214.25 595.81) rotate(-59.58)"/><rect class="cls-3" x="621.82" y="150.23" width="2.06" height="3.57" transform="translate(-15.61 73.68) rotate(-8.26)"/><rect class="cls-3" x="626.89" y="166.02" width="2.06" height="3.57" transform="translate(-7.12 289.95) rotate(-27.36)"/><rect class="cls-3" x="635.87" y="183.39" width="2.06" height="3.57" transform="translate(-14.1 296.03) rotate(-27.36)"/><rect class="cls-3" x="643.99" y="199.06" width="2.06" height="3.57" transform="translate(-20.39 301.5) rotate(-27.36)"/><rect class="cls-3" x="653.83" y="215.14" width="2.06" height="3.57" transform="translate(-15.19 364.63) rotate(-32.17)"/><polygon class="cls-3" points="499.52 521.2 500.28 524.16 493.27 523.11 447.93 481.31 440.05 491.56 423.09 501.29 384.67 501.17 386.05 498.36 422.35 498.48 438.16 489.4 447.58 477.16 494.55 520.45 499.52 521.2"/><polygon class="cls-3" points="504.52 524.79 503.14 521.74 508.6 522.56 511.67 525.87 504.52 524.79"/><rect class="cls-3" x="302.56" y="44.93" width="2.06" height="3.57" transform="translate(253.89 332.5) rotate(-89.48)"/><rect class="cls-3" x="263.17" y="63.45" width="3.57" height="2.06" transform="translate(110.39 271.93) rotate(-69.21)"/><rect class="cls-3" x="664.26" y="230.08" width="2.06" height="3.57" transform="translate(10.67 475.58) rotate(-40.96)"/><rect class="cls-3" x="675.29" y="242.79" width="2.06" height="3.57" transform="translate(5.04 485.92) rotate(-40.96)"/><rect class="cls-3" x="687.46" y="257.32" width="2.06" height="3.57" transform="translate(-24.48 423.84) rotate(-34.96)"/><rect class="cls-3" x="708.5" y="287.42" width="2.06" height="3.57" transform="translate(-37.93 441.33) rotate(-34.96)"/><rect class="cls-3" x="722.76" y="310.79" width="2.06" height="3.57" transform="translate(117.72 799.73) rotate(-63.14)"/><rect class="cls-3" x="739.01" y="319.02" width="2.06" height="3.57" transform="translate(119.29 818.74) rotate(-63.14)"/><rect class="cls-3" x="753.11" y="328.19" width="2.06" height="3.57" transform="translate(-48.49 128.83) rotate(-10.73)"/><rect class="cls-3" x="745.22" y="344.69" width="3.57" height="2.06" transform="translate(25.8 725.52) rotate(-53.68)"/><rect class="cls-3" x="731.31" y="355.17" width="3.57" height="2.06" transform="translate(-46.18 99.26) rotate(-8.82)"/><rect class="cls-3" x="705.23" y="360.32" width="3.57" height="2.06" transform="translate(-86.07 301.11) rotate(-23.98)"/><rect class="cls-3" x="689.53" y="367.3" width="3.57" height="2.06" transform="translate(-90.26 295.34) rotate(-23.98)"/><rect class="cls-3" x="671.72" y="375.22" width="3.57" height="2.06" transform="translate(-95.01 288.79) rotate(-23.98)"/><rect class="cls-3" x="657" y="381.77" width="3.57" height="2.06" transform="translate(-98.94 283.37) rotate(-23.98)"/><rect class="cls-3" x="634.2" y="393.72" width="3.57" height="2.06" transform="translate(-91.57 200.46) rotate(-18.15)"/><rect class="cls-3" x="615.61" y="405.02" width="3.57" height="2.06" transform="matrix(0.85, -0.52, 0.52, 0.85, -121.43, 365.63)"/><rect class="cls-3" x="599.53" y="414.9" width="3.57" height="2.06" transform="translate(-128.98 358.68) rotate(-31.54)"/><rect class="cls-3" x="585.21" y="419.06" width="3.57" height="2.06" transform="translate(-32.47 31.79) rotate(-4.67)"/><rect class="cls-3" x="566.85" y="422.96" width="3.57" height="2.06" transform="translate(-116.37 221.69) rotate(-21.6)"/><rect class="cls-3" x="553.28" y="440.27" width="2.06" height="3.57" transform="translate(-132.5 247.82) rotate(-24.13)"/><rect class="cls-3" x="560.81" y="455.86" width="2.06" height="3.57" transform="translate(-162.1 477.13) rotate(-42.08)"/><rect class="cls-3" x="573.1" y="469.12" width="2.06" height="3.57" transform="matrix(0.64, -0.77, 0.77, 0.64, -155.81, 591.03)"/><rect class="cls-3" x="588.98" y="483.05" width="2.06" height="3.57" transform="translate(-172.21 416.96) rotate(-35.62)"/><rect class="cls-3" x="593.9" y="502.12" width="2.06" height="3.57" transform="translate(-91.98 117.31) rotate(-12)"/><rect class="cls-3" x="595.05" y="521.47" width="2.06" height="3.57" transform="translate(-179.5 338.74) rotate(-29.11)"/><rect class="cls-3" x="602.87" y="536.3" width="3.57" height="2.06" transform="translate(19.98 1079.23) rotate(-85.36)"/><rect class="cls-3" x="592.5" y="548.17" width="3.57" height="2.06" transform="translate(-150.19 214.19) rotate(-19.63)"/><rect class="cls-3" x="575.69" y="553.76" width="3.57" height="2.06" transform="translate(-71 67.27) rotate(-7.9)"/><rect class="cls-3" x="555.79" y="554.53" width="3.57" height="2.06" transform="translate(-14.57 -2.59) rotate(-1.5)"/><rect class="cls-3" x="537.89" y="554.08" width="2.06" height="3.57" transform="translate(-55.68 1034.64) rotate(-85.74)"/><rect class="cls-3" x="508.32" y="542.1" width="2.06" height="3.57" transform="translate(-104.31 949.55) rotate(-81.47)"/><rect class="cls-3" x="490.47" y="538.23" width="2.06" height="3.57" transform="translate(-238.92 518.06) rotate(-47.33)"/><rect class="cls-3" x="476.47" y="525.32" width="2.06" height="3.57" transform="translate(-233.94 503.6) rotate(-47.33)"/><rect class="cls-3" x="462.88" y="512.8" width="2.06" height="3.57" transform="translate(-229.11 489.58) rotate(-47.33)"/><rect class="cls-3" x="450.72" y="501.59" width="2.06" height="3.57" transform="translate(-224.78 477.03) rotate(-47.33)"/><rect class="cls-3" x="438.93" y="508.36" width="3.57" height="2.06" transform="translate(-224.97 387.71) rotate(-40.22)"/><rect class="cls-3" x="421.65" y="518.13" width="3.57" height="2.06" transform="translate(-111.77 98.53) rotate(-13.79)"/><rect class="cls-3" x="400.58" y="517.83" width="2.06" height="3.57" transform="translate(-119.48 902.25) rotate(-89.82)"/><rect class="cls-3" x="368.5" y="532.68" width="3.57" height="2.06" transform="translate(-253.99 335.99) rotate(-39.13)"/><rect class="cls-3" x="355.3" y="543.43" width="3.57" height="2.06" transform="translate(-263.74 330.07) rotate(-39.13)"/><rect class="cls-3" x="340.74" y="555.27" width="3.57" height="2.06" transform="translate(-274.47 323.54) rotate(-39.13)"/><rect class="cls-3" x="327.49" y="566.05" width="3.57" height="2.06" transform="translate(-284.24 317.6) rotate(-39.13)"/><rect class="cls-3" x="310.34" y="576.13" width="3.57" height="2.06" transform="translate(-180.33 125.92) rotate(-20.2)"/><rect class="cls-3" x="290.56" y="580.47" width="2.06" height="3.57" transform="translate(-313.98 324.87) rotate(-41.77)"/><rect class="cls-3" x="283.59" y="564.67" width="2.06" height="3.57" transform="translate(-189.53 128.04) rotate(-21.7)"/><rect class="cls-3" x="276.71" y="547.39" width="2.06" height="3.57" transform="translate(-183.62 124.27) rotate(-21.7)"/><rect class="cls-3" x="269.49" y="529.25" width="2.06" height="3.57" transform="translate(-177.43 120.32) rotate(-21.7)"/><rect class="cls-3" x="263.61" y="514.15" width="3.57" height="2.06" transform="translate(-265.22 731.37) rotate(-86.51)"/><rect class="cls-3" x="265.24" y="494.43" width="3.57" height="2.06" transform="translate(-284.23 592.83) rotate(-73.44)"/><rect class="cls-3" x="262.89" y="473.57" width="2.06" height="3.57" transform="matrix(0.56, -0.83, 0.83, 0.56, -277.97, 410.84)"/><rect class="cls-3" x="245.95" y="460.01" width="2.06" height="3.57" transform="matrix(1, -0.09, 0.09, 1, -41.18, 7)"/><rect class="cls-3" x="246.2" y="445.62" width="3.57" height="2.06" transform="matrix(0.1, -0.99, 0.99, 0.1, -221.8, 630.6)"/><rect class="cls-3" x="243.8" y="428.45" width="2.06" height="3.57" transform="translate(-188.15 172.51) rotate(-31.31)"/><rect class="cls-3" x="219.54" y="400.63" width="2.06" height="3.57" transform="translate(-211.71 230.38) rotate(-41.57)"/><rect class="cls-3" x="204.44" y="391.23" width="2.06" height="3.57" transform="translate(-237.06 408.15) rotate(-66.6)"/><rect class="cls-3" x="187.07" y="386.66" width="2.06" height="3.57" transform="translate(-234.65 459.15) rotate(-75.93)"/><rect class="cls-3" x="171.39" y="383.66" width="2.06" height="3.57" transform="translate(-249.86 355.08) rotate(-64.13)"/><rect class="cls-3" x="159.49" y="365.25" width="3.57" height="2.06" transform="translate(-227.5 444.89) rotate(-80.11)"/><rect class="cls-3" x="177.17" y="357.82" width="3.57" height="2.06" transform="translate(-140.7 99.07) rotate(-26.3)"/><rect class="cls-3" x="192.58" y="350.2" width="3.57" height="2.06" transform="translate(-135.73 105.1) rotate(-26.3)"/><rect class="cls-3" x="203.99" y="338.59" width="3.57" height="2.06" transform="translate(-189.13 366.02) rotate(-65.12)"/><rect class="cls-3" x="214.84" y="321.78" width="3.57" height="2.06" transform="translate(-161.93 215.94) rotate(-42.83)"/><rect class="cls-3" x="229.35" y="309.95" width="3.57" height="2.06" transform="translate(-138.79 177.61) rotate(-35.96)"/><rect class="cls-3" x="245.06" y="292.97" width="2.06" height="3.57" transform="translate(-135.91 236.24) rotate(-43.99)"/><rect class="cls-3" x="232.45" y="279.9" width="2.06" height="3.57" transform="translate(-130.38 223.82) rotate(-43.99)"/><rect class="cls-3" x="217.6" y="269.88" width="2.06" height="3.57" transform="translate(-129.61 232.16) rotate(-47.53)"/><rect class="cls-3" x="206.92" y="256.05" width="2.06" height="3.57" transform="translate(-112.3 154.95) rotate(-36.15)"/><rect class="cls-3" x="196.32" y="241.54" width="2.06" height="3.57" transform="translate(-105.78 145.9) rotate(-36.15)"/><rect class="cls-3" x="186.46" y="226.92" width="2.06" height="3.57" transform="translate(-57.6 45.51) rotate(-16.55)"/><rect class="cls-3" x="184.2" y="209.2" width="3.57" height="2.06" transform="translate(-42.35 356.44) rotate(-84.15)"/><rect class="cls-3" x="237.11" y="186.21" width="3.57" height="2.06" transform="translate(-32.56 33.61) rotate(-11.41)"/><rect class="cls-3" x="252.05" y="180.35" width="3.57" height="2.06" transform="translate(-55.6 122.49) rotate(-27.9)"/><rect class="cls-3" x="280.89" y="160.79" width="3.57" height="2.06" transform="translate(-37.28 206.68) rotate(-40.8)"/><polygon class="cls-3" points="445 46.9 446.63 49.31 443.1 53.41 433.35 58.31 428.88 57.56 431.5 55.15 432.91 55.39 441.33 51.15 445 46.9"/><polygon class="cls-3" points="447.37 44.16 450.67 40.34 501.21 36.58 502.94 39.27 452.04 43.06 449.01 46.56 447.37 44.16"/><rect class="cls-3" x="277.27" y="55.54" width="3.57" height="2.06" transform="translate(0.54 99.48) rotate(-23.68)"/><rect class="cls-3" x="318.82" y="41" width="3.57" height="2.06" transform="translate(10.76 117.91) rotate(-24.23)"/><rect class="cls-3" x="449.4" y="56.21" width="3.57" height="2.06" transform="translate(10.52 153.31) rotate(-21.67)"/><rect class="cls-3" x="469.72" y="54.1" width="3.57" height="2.06" transform="translate(-3.03 17.78) rotate(-4.26)"/><rect class="cls-3" x="487.72" y="52.76" width="3.57" height="2.06" transform="translate(-2.88 19.11) rotate(-4.26)"/><rect class="cls-3" x="286.25" y="146.63" width="3.57" height="2.06" transform="translate(65.73 365.78) rotate(-73.82)"/><rect class="cls-3" x="289.17" y="129.26" width="3.57" height="2.06" transform="translate(153.93 400.88) rotate(-88.71)"/><rect class="cls-3" x="288.37" y="109.82" width="2.06" height="3.57" transform="translate(-17.4 47.1) rotate(-12.35)"/><rect class="cls-3" x="278.92" y="93.83" width="2.06" height="3.57" transform="translate(-5.29 157.55) rotate(-34.41)"/><rect class="cls-3" x="270.73" y="79.08" width="2.06" height="3.57" transform="translate(-6.34 119.91) rotate(-28.05)"/><polygon class="cls-3" points="256.14 451.65 247.12 445.57 249.61 421.12 245.54 411.92 217.68 380.51 205.06 374.33 179.9 368.03 171.81 367.89 170.13 365.05 173.43 365.11 180.27 365.22 206.03 371.68 219.41 378.23 247.93 410.38 252.49 420.67 250.09 444.18 257.71 449.32 256.14 451.65"/><polygon class="cls-3" points="380.77 501.16 373.35 511.02 371.68 508.56 379.37 498.34 382.11 498.35 380.77 501.16"/><polygon class="cls-3" points="270.9 155.79 285 143.61 291.57 120.98 294.37 121.42 287.47 145.2 272.74 157.91 270.9 155.79"/><polygon class="cls-3" points="505.19 36.28 519.5 35.22 519.98 38 506.92 38.97 505.19 36.28"/><polygon class="cls-3" points="523.4 34.93 533.8 34.15 563.63 54.39 566.57 59.17 564.17 60.65 561.55 56.38 533.03 37.03 523.88 37.71 523.4 34.93"/><rect class="cls-3" x="245.92" y="180.12" width="25.64" height="2.81" transform="translate(-55.1 124.8) rotate(-27.9)"/><polygon class="cls-3" points="296.15 35.8 267.75 48.26 282.68 76.27 291 84.66 294.81 102.06 294.47 117.16 291.65 117.1 291.99 102.34 288.42 86.06 280.39 77.96 263.85 46.9 295.02 33.23 296.15 35.8"/><polygon class="cls-3" points="568.23 61.88 583.79 65.9 581.34 68.17 566.43 64.32 568.23 61.88"/><polygon class="cls-3" points="619.16 118.03 622.84 143.31 645.12 186.38 655.89 203.51 651.66 202.07 642.67 187.77 620.12 144.19 616.52 119.37 619.16 118.03"/><polygon class="cls-3" points="660.49 210.82 685.59 239.74 713.98 280.35 713.86 282.81 711.13 281.17 683.37 241.47 659 213.4 660.49 210.82"/><polygon class="cls-3" points="168.15 361.7 166.31 358.58 169.06 357.7 171.46 361.78 168.15 361.7"/><polygon class="cls-3" points="618.99 380.29 622.29 384.34 595.13 401.01 575.81 402.59 556.88 410.08 551.89 414.81 549.63 413.08 555.34 407.67 575.16 399.82 594.23 398.26 618.08 383.62 615.05 379.91 617.19 378.13 618.99 380.29"/><polygon class="cls-3" points="299.35 34.4 298.22 31.83 303.88 29.34 306.75 31.93 344.46 14.96 354.79 50.83 359.01 54.03 359.01 57.57 352.35 52.51 342.66 18.85 306.23 35.25 303.35 32.65 299.35 34.4"/><polygon class="cls-3" points="369.5 511.47 371.03 514.11 370.79 514.43 320.06 555.7 292.19 565.95 266.04 500.24 267.36 478.69 273.8 463.57 275.2 461.13 277.29 462.54 270.13 479.34 268.89 499.78 293.79 562.37 318.64 553.22 368.75 512.47 369.5 511.47"/><polygon class="cls-3" points="559.01 534.31 560.99 537.08 537.3 537.7 527.34 533.1 516.63 525.06 537.88 534.87 559.01 534.31"/><polygon class="cls-3" points="589.33 490.64 591.49 492.45 590.13 494.06 595 507.34 601.78 511.82 599.66 513.79 592.67 509.17 586.93 493.5 589.33 490.64"/><rect class="cls-3" x="263.43" y="469.44" width="2.81" height="7.18" transform="translate(-275.64 410.58) rotate(-55.99)"/><polygon class="cls-3" points="650.56 365.25 652.56 367.36 635.39 376.81 621.66 378.06 620.53 375.34 634.55 374.06 650.56 365.25"/><polygon class="cls-3" points="600.74 517.86 603.77 515.3 603.14 522.98 596.31 529.94 588.26 532.81 587.31 530.16 594.76 527.51 600.42 521.73 600.74 517.86"/><polygon class="cls-3" points="166.79 353.86 164.37 355.29 160.24 348.31 171.96 345.98 174.85 347.68 172.87 348.66 164.68 350.3 166.79 353.86"/><path class="cls-3" d="M722.23,356.84a7.18,7.18,0,0,1-.77,1.72,6.65,6.65,0,0,1-1.25,1.5,7,7,0,0,1-3.4,1.7,7,7,0,0,1-1.88.1,7.25,7.25,0,0,1-1.9-.41,6.8,6.8,0,0,1-1.72-.93,7.24,7.24,0,0,1-.73-.62c-.12-.11-.22-.22-.33-.33l-.15-.18-.07-.09,0,0,0,0h0l-.83.16-.42.08h-.06l-.1.05-.2.09-.4.18-.8.35-3.21,1.43-6.42,2.85-12.84,5.71-20.15,9-5,2.24L657,382.47l-.32.14-.16.07-.08,0h0l-.25.14s0,0,0,0h0l0,0-.07-.07-.13-.13-.28-.26-.55-.52-.55-.51-.27-.26-.14-.13-.07-.07h0l0,0,.06,0,1-.56.07,0h.06l.12-.05.24-.11.49-.22L658,379l3.88-1.73,39.24-17.45,4.85-2.15,1.21-.54.61-.27.07,0H708l.24-.05.48-.09,1.92-.37.48-.1.24,0h.11v.06l0,.09.06.17.15.34a4.43,4.43,0,0,0,.41.65,4.07,4.07,0,0,0,1.19,1.07,4.26,4.26,0,0,0,1.5.56,3.94,3.94,0,0,0,.77.05,4.39,4.39,0,0,0,.72-.07,5.75,5.75,0,0,0,.71-.2,5.52,5.52,0,0,0,.69-.34,4.2,4.2,0,0,0,1.18-1.08,4.13,4.13,0,0,0,.71-1.44,4.7,4.7,0,0,0,.13-.75c0-.13,0-.25,0-.37v-.19s0-.06,0-.09v-.06h.07l.24,0,.49-.09,1-.19.24-.05h.06l.12,0,.23,0,.92-.15,1.84-.28,7.36-1.14,3.68-.57.11,0h.11l.13-.13.26-.28.53-.54,1.06-1.09,3.77-3.88,1.89-2,.12-.12.05-.06,0,0h0l.24-.43.46-.85.93-1.7,3.71-6.81.93-1.7.47-.85L751,331l.11-.21,0,0h0l-.14-.07-1.16-.59-2.32-1.17-4.64-2.35-9.27-4.7-22.09-11.18-.34-.17-.18-.09-.08-.05,0,0h0v-.21c.06-1.09.11-2.19.16-3.29l.08-1.64V305h0l.06,0,.11.05.24.08.47.17.94.34.47.17.23.08.12,0,.06,0h.05v.32l0,.35,0,.7,0,.69,0,.35v.17h0l.08,0,.17.08.33.17,5.26,2.66,21.4,10.84,10.7,5.42,2.67,1.35.34.17.17.09.08,0,0,0h0l-.14.25-.28.52-1.12,2.06-6.12,11.22-.77,1.4-.19.35-.05.09h0l0,0-.1.1-.39.4-1.55,1.6c-1,1.06-2.07,2.13-3.11,3.2L738,354l-.39.4-.1.1,0,0h0l-.09,0-.33.05-1.35.21-2.68.42Z" transform="translate(-0.23 -17.36)"/><polygon class="cls-3" points="229.26 299.56 226.35 299.58 226.27 298.25 241.19 287.44 242.84 289.71 229.26 299.56"/><polygon class="cls-3" points="251.56 283.39 249.91 281.11 250.47 280.7 231.67 261.22 218.69 253.76 187.85 211.53 186.38 191.91 188.14 189.93 191.9 189.93 189.27 192.89 190.59 210.52 220.61 251.62 233.42 258.98 254.75 281.07 251.56 283.39"/><polygon class="cls-3" points="195.1 186.34 191.34 186.34 197.69 179.2 206.96 177.33 206.95 180.2 199.17 181.77 195.1 186.34"/><polygon class="cls-3" points="210.54 179.47 210.45 176.62 218.96 174.91 219.12 177.74 210.54 179.47"/><polygon class="cls-3" points="222.69 177.02 222.33 174.22 244.15 169.82 244.15 172.69 222.69 177.02"/><polygon class="cls-3" points="586 69.37 590.87 64.26 620.28 51.83 643.39 101.7 618.52 113.6 615.87 114.87 615.44 111.96 639.67 100.36 618.87 55.48 586 69.37"/><polygon class="cls-3" points="363.02 57.08 387.23 75.5 390.8 80.88 406.79 62.72 423.83 53.85 427.33 54.44 424.71 56.85 424.29 56.78 408.55 64.97 390.48 85.49 385.15 77.45 363.02 60.62 363.02 57.08"/><polygon class="cls-3" points="585.1 533.94 577.52 536.64 565.27 536.96 563.3 534.2 577 533.84 584.15 531.29 585.1 533.94"/><polygon class="cls-3" points="550.05 418.23 559.64 439.65 571.87 453.19 589.74 468.17 594.21 489.2 591.17 488.44 587.19 469.7 569.91 455.22 557.26 441.21 546.92 418.12 547.44 417.14 550.05 418.23"/><polygon class="cls-3" points="224.75 302.94 214.21 312.71 204.86 332.85 179.47 345.4 176.41 343.78 202.73 330.77 211.89 311.02 223.49 300.27 224.75 302.94"/></g><g id="River"><path class="cls-4" d="M285.9,595c-14.18-28.13-16.94-34-19-39.7a76.47,76.47,0,0,1-4-17.06,98.55,98.55,0,0,1-.35-16.33c.28-4.89.82-8.92,1.3-12.39s.89-6.37,1.45-9.25,1.26-5.72,1.86-7.78a26.35,26.35,0,0,1,2.09-5.22c1-1.89,2.38-4.38,3.62-6.48a47.84,47.84,0,0,1,5.24-7.36c3-3.58,7.83-9,17.93-20.23s25.43-28.14,34.34-38.15S341.77,402,344,398.48A103.12,103.12,0,0,0,350,387.56,89.73,89.73,0,0,0,354,377.9c1.11-3.18,2-6.56,2.68-8.94a26,26,0,0,0,1.24-5.81,31.8,31.8,0,0,0-.42-6.88,24.24,24.24,0,0,0-1.63-5.5,53.06,53.06,0,0,0-2.43-4.95,37.79,37.79,0,0,0-4.1-6.29,49,49,0,0,0-6.67-6.39,68.44,68.44,0,0,0-7.38-5.32,32.2,32.2,0,0,0-7.7-3.58,55,55,0,0,0-9.73-1.76,84.43,84.43,0,0,0-11-.57,37.06,37.06,0,0,0-7.69,1,44.58,44.58,0,0,1-5.5,1.15,30,30,0,0,1-7.51,0,37,37,0,0,1-7.57-2.16,51.31,51.31,0,0,1-8.5-3.94,56,56,0,0,1-10.72-8.2c-3.66-3.56-7.17-8-10.4-11.79s-6.2-7.12-8.69-9.51a51.57,51.57,0,0,0-7.78-6.06c-3.27-2.19-7.8-5.07-11.36-7.71a50.75,50.75,0,0,1-9.35-8.83c-3.19-3.79-7-9-10.86-14.64s-7.94-11.82-10.41-16a44.24,44.24,0,0,1-4.05-8.42,22.27,22.27,0,0,1-1.32-6.08,81.76,81.76,0,0,1-.15-8.32,8.25,8.25,0,0,1,1.6-5.17,31.86,31.86,0,0,1,7.62-9c3.54-2.62,7.93-3.82,11.87-4.73s7.43-1.51,11.46-2.2,8.59-1.49,12.73-2.38a100.13,100.13,0,0,0,11.62-3.16,93.28,93.28,0,0,0,11-4.55c3.35-1.66,6.21-3.38,8.9-4.87s5.2-2.75,8.15-4.65a73.38,73.38,0,0,0,8.83-6.66,24.26,24.26,0,0,0,5.3-6.42,31.37,31.37,0,0,0,2.93-8,111.1,111.1,0,0,0,2.22-12.31,125.64,125.64,0,0,0,1-13.67,27.39,27.39,0,0,0-.91-7.93,65,65,0,0,0-2-6.22,25.16,25.16,0,0,0-2.35-4.78c-1.09-1.75-2.69-4-4.67-7s-4.32-6.7-6.82-10.4-5.18-7.38-8.56-12.63-7.44-12.09-11.88-20-9.23-17-16.31-38.06h-10.9c10.26,26.3,13.93,34.23,17.24,41S249.3,71,251.92,75.71a136.89,136.89,0,0,0,7.51,12.14c2.63,3.77,5.62,7.59,7.71,10.24s3.26,4.11,4.58,5.7,2.79,3.32,3.74,4.67a16,16,0,0,1,2.17,4.6,72.71,72.71,0,0,1,2.56,9,35.88,35.88,0,0,1,.63,8.16,66.13,66.13,0,0,1-.58,6.64c-.27,2.2-.59,4.52-1.1,7.05a30.05,30.05,0,0,1-2.58,7.85,25.74,25.74,0,0,1-5.87,7.34,54.33,54.33,0,0,1-11,7.28,173.48,173.48,0,0,1-20.25,9.09c-7.9,3-16.55,5.52-23.69,7.71s-12.78,4-17.31,5.49-7.94,2.67-10.7,3.86a30.47,30.47,0,0,0-6.57,3.71,21,21,0,0,0-4.2,4.3,18.56,18.56,0,0,0-3,6.09,24.07,24.07,0,0,0-1,9.56c.44,3,2,5.33,4.05,9.06s4.73,8.92,9,16.2,10.12,16.69,14.16,22.65,6.25,8.49,8,10.09a18.79,18.79,0,0,0,4.47,2.92,17.68,17.68,0,0,1,3.38,2.07c.88.74,1.42,1.58,2.78,2.71s3.5,2.57,5.79,4.23,4.7,3.52,6.64,5.11a53,53,0,0,1,5.5,5.16,80.23,80.23,0,0,1,6.74,8.15,48.08,48.08,0,0,1,4.18,7.57c1.18,2.51,2.45,5.18,3.35,7.43s1.45,4.1,1.93,5.34a4.59,4.59,0,0,0,1.62,2.4c.75.53,1.84,1,5.26,2.32a108.8,108.8,0,0,0,15.64,5.19,111.6,111.6,0,0,0,19.27,2.55c5.62.27,9.67.07,12.79.11a27.64,27.64,0,0,1,8.66,1.35,103.87,103.87,0,0,1,12.55,4.92c4.64,2.14,9.39,4.67,12.14,6.25s3.54,2.21,4.19,3.26a19,19,0,0,1,1.75,4.63,20.44,20.44,0,0,1,.68,9,61.33,61.33,0,0,1-4.13,13.72,66.64,66.64,0,0,1-4.9,9.25c-1.5,2.45-2.82,4.65-4.43,7a120.62,120.62,0,0,1-7.91,10c-4.43,5.2-11.39,13.14-16.74,19.05s-9.11,9.8-13.33,14.39-8.93,9.87-12,13.63a104.41,104.41,0,0,0-6.25,8.71c-1.84,2.71-4.14,5.9-6.3,8.95s-4.15,6-6,9-3.58,6.2-4.94,8.89-2.37,4.9-3.44,7.52a93.57,93.57,0,0,0-3.22,9.09c-1,3.45-1.9,7.31-2.57,10.68a87.77,87.77,0,0,0-1.43,9.13,39.56,39.56,0,0,0,0,9,88,88,0,0,0,2.55,11.29c1.29,4.88,3,11.37,5.56,18.72s6,15.56,11.5,30Z" transform="translate(-0.23 -17.36)"/></g><g id="Layer_2" data-name="Layer 2"><circle class="cls-5" cx="711.99" cy="284.99" r="15.38"/></g></svg>