<svg xmlns="http://www.w3.org/2000/svg" viewBox="0 0 432 432"><defs><style>.cls-1{fill:#c7c8c9;}.cls-1,.cls-2,.cls-4{stroke:#000;stroke-miterlimit:10;}.cls-1,.cls-4{stroke-width:2px;}.cls-1,.cls-3{opacity:0.75;}.cls-2,.cls-4{fill:none;}.cls-2{stroke-width:1.25px;}.cls-3{fill:#404040;}</style></defs><title>Icons</title><g id="Base"><polygon class="cls-1" points="131.01 79.49 287.72 79.49 287.72 340.96 220.61 340.96 195.03 266.29 209.37 254.29 176.68 162.29 161.04 167.11 131.01 79.49"/><line class="cls-2" x1="209.37" y1="39.33" x2="258.09" y2="372.67"/><polygon class="cls-3" points="133.96 175.45 176.68 162.29 209.37 254.29 144.09 308.92 133.96 175.45"/><line class="cls-2" x1="82.39" y1="218.74" x2="355.72" y2="218.74"/><path class="cls-2" d="M355.72,235.6H153.06s-44.06-3.06-59.84,34"/></g><g id="Outline"><polygon class="cls-4" points="133.96 175.45 176.68 162.29 209.37 254.29 144.09 308.92 133.96 175.45"/><polyline class="cls-4" points="195.03 266.29 220.61 340.96 287.72 340.96 287.72 79.49 131.01 79.49 160.7 166.11"/></g></svg>