<svg xmlns="http://www.w3.org/2000/svg" viewBox="0 0 432 432"><defs><style>.cls-1{fill:#f1f2f2;}.cls-2,.cls-3,.cls-4{fill:none;stroke-width:2px;}.cls-2,.cls-3,.cls-4,.cls-5{stroke:#231f20;stroke-miterlimit:10;}.cls-3{stroke-dasharray:12.52 12.52;}.cls-4{stroke-dasharray:12.52 12.52;}.cls-5{fill:#fff;stroke-width:3px;}</style></defs><title>Icons</title><g id="Base"><line class="cls-2" x1="88.88" y1="268.71" x2="94.42" y2="266.42"/><line class="cls-3" x1="105.99" y1="261.62" x2="331.49" y2="168.16"/><line class="cls-2" x1="337.28" y1="165.76" x2="342.82" y2="163.47"/><line class="cls-2" x1="342.97" y1="268.65" x2="337.42" y2="266.36"/><line class="cls-4" x1="325.85" y1="261.57" x2="100.21" y2="168.16"/><line class="cls-2" x1="94.43" y1="165.76" x2="88.88" y2="163.47"/><line class="cls-2" x1="163.3" y1="89.05" x2="165.6" y2="94.59"/><line class="cls-3" x1="170.39" y1="106.15" x2="263.85" y2="331.66"/><line class="cls-2" x1="266.25" y1="337.44" x2="268.55" y2="342.98"/><line class="cls-2" x1="163.36" y1="343.13" x2="165.66" y2="337.59"/><line class="cls-4" x1="170.45" y1="326.02" x2="263.86" y2="100.38"/><line class="cls-2" x1="266.25" y1="94.59" x2="268.55" y2="89.05"/><polygon class="cls-5" points="196.74 262.41 235.14 262.41 252.5 304.31 252.5 343.1 179.39 343.1 179.39 304.31 196.74 262.41"/><line class="cls-5" x1="252.5" y1="304.31" x2="179.39" y2="304.31"/><polygon class="cls-5" points="262.43 235.25 262.43 196.85 304.32 179.48 343.12 179.48 343.12 252.59 304.32 252.59 262.43 235.25"/><line class="cls-5" x1="304.33" y1="179.48" x2="304.33" y2="252.59"/><polygon class="cls-5" points="235.26 169.56 196.86 169.56 179.5 127.66 179.5 88.87 252.61 88.87 252.61 127.66 235.26 169.56"/><line class="cls-5" x1="179.5" y1="127.66" x2="252.61" y2="127.66"/><polygon class="cls-5" points="169.57 196.72 169.57 235.12 127.67 252.49 88.88 252.49 88.88 179.38 127.67 179.38 169.57 196.72"/><line class="cls-5" x1="127.67" y1="252.49" x2="127.67" y2="179.38"/></g></svg>