<svg xmlns="http://www.w3.org/2000/svg" viewBox="0 0 432 432"><defs><style>.cls-1{fill:#f1f2f2;}.cls-2,.cls-4{fill:#fff;}.cls-2,.cls-3{stroke:#231f20;stroke-miterlimit:10;stroke-width:6px;}.cls-3{fill:none;}.cls-5{fill:#231f20;}</style></defs><title>Icons</title><g id="Base"><rect class="cls-2" x="123.15" y="174.43" width="57.89" height="57.89"/><polyline class="cls-3" points="181.04 218.93 231.76 218.93 231.76 315.59"/><path class="cls-4" d="M209.2,315.59A22.56,22.56,0,1,0,231.76,293,22.56,22.56,0,0,0,209.2,315.59Z"/><path class="cls-5" d="M206.2,315.59a25.56,25.56,0,1,1,25.56,25.56,25.59,25.59,0,0,1-25.56-25.56Zm45.12,0a19.56,19.56,0,1,0-19.56,19.56,19.58,19.58,0,0,0,19.56-19.56Z"/><polyline class="cls-3" points="181.04 203.37 249.76 203.37 249.76 279.59 289.61 279.59"/><path class="cls-4" d="M289.61,302.15a22.56,22.56,0,1,0-22.56-22.56A22.56,22.56,0,0,0,289.61,302.15Z"/><path class="cls-5" d="M289.61,305.15a25.56,25.56,0,1,1,25.56-25.56,25.59,25.59,0,0,1-25.56,25.56Zm0-45.12a19.56,19.56,0,1,0,19.56,19.56A19.58,19.58,0,0,0,289.61,260Z"/><polyline class="cls-3" points="181.04 185.59 213.09 185.59 213.09 122.26 271.09 122.26"/><path class="cls-4" d="M271.09,144.82a22.56,22.56,0,1,0-22.56-22.56A22.56,22.56,0,0,0,271.09,144.82Z"/><path class="cls-5" d="M271.09,147.82a25.56,25.56,0,1,1,25.56-25.56,25.59,25.59,0,0,1-25.56,25.56Zm0-45.12a19.56,19.56,0,1,0,19.56,19.56,19.58,19.58,0,0,0-19.56-19.56Z"/></g></svg>