<svg xmlns="http://www.w3.org/2000/svg" xmlns:xlink="http://www.w3.org/1999/xlink" viewBox="0 0 432 432"><defs><style>.cls-1,.cls-4,.cls-5{fill:none;}.cls-1,.cls-2,.cls-4,.cls-5{stroke:#231f20;}.cls-1,.cls-2,.cls-5{stroke-miterlimit:10;}.cls-1{stroke-width:2px;}.cls-2{fill:#636466;opacity:0.25;}.cls-3{clip-path:url(#clip-path);}.cls-4{stroke-linecap:round;stroke-linejoin:round;}.cls-5{stroke-width:1.5px;}</style><clipPath id="clip-path"><circle class="cls-1" cx="669.29" cy="217.63" r="125.63"/></clipPath></defs><title>Icons</title><g id="Base"><path class="cls-2" d="M272.83,51.27c-1,.21-2.46-.68-2.9,1.13a8.62,8.62,0,0,1-.78,1.66c-1-1-2.27-2.37-3.33-.59-.42.71,1,2.35,1.19,3.63a3.13,3.13,0,0,1-.54,2.57c-4.22,3.22-5.3,8.4-7.87,12.63-.85,1.41-1.37,2.72-2.92,3.45a6.46,6.46,0,0,0-2.25,1.45c-3.59,4.17-2.87,7.11,2.54,8.47,2.44.61,3.06,1.87,4.24,3.73s.35,2.7-.67,3.09c-2.51,1-3.41,1.52-1.22,4.15,2.93,3.52,2.44,8.5,4.15,12.61-1.85,2.7-1.55,5,1.17,7,.17.12.1.94.07,1-3.77.56-2.68,4.2-3.64,6.32-1.07,2.34.66,5.55-1.58,8-.36.39-.14,1.4,0,2.11.63,4.45,0,7.82-1.9,11a7.4,7.4,0,0,0-.95,3.18,37.66,37.66,0,0,0,0,6.46c.16,1.55-2.47,3-.06,4.56a76.85,76.85,0,0,1-3.95,7.53c-.4.61-2.83.19-.78,1.73,1.82,1.37,2,3,1.87,5-.07,1.2-.46,2.66.07,3.55,2,3.43,2.36,6-2.32,7.21-.35.09-.8,1.57-.59,1.77,2.74,2.69.81,3.41-1.48,4.71-1.74,1-2.93,3-4.31,4.6-.4.48-.47,1.5-.89,1.65-2.4.79-5,1.5-6.26,3.77-3,5.42-6.29,10.81-8.54,16.58a135.34,135.34,0,0,1-5.66,13.48c-1.61,3.08-3.21,6.27-3.39,10.18-.12,2.54-2.84,4.95-4.35,7.45a5,5,0,0,0-1.08,2.4c.29,6.73-3,10.94-9.56,10.78-4.27-.1-4.32,3.63-6.1,5.5-1.2,1.25-.59,4.55,1.86,6.13,1.68,1.07,2.15,2.16.93,4.29-1.05,1.84.51,4.41-1.4,6.66-1.09,1.28.48,4.07-1.52,5.84-.45.39,0,2.36.54,3.2,1.71,2.46.38,5.09.74,7.6,0,.34-.78,1.06-1.29,1.18-3.59.85-3.81,1.09-4.42,3.49a43.25,43.25,0,0,0-1.45,13.06c.12,2.46-.33,4.7,2.9,6,2.09.85,2.62,4.79,3.07,9.73a9.82,9.82,0,0,0,1.83,4.85c1.06,1.42-1.26,3.24.84,4.28.11.05-.13.84-.21,1.29-.51-.19-1.31-.23-1.47-.58-.65-1.4-1.11-2.89-1.93-5.16l-1.34,5.55-4.24-8.47c-2.17,3.63,1,6,1,8.83,0,1.06,1.26,2.57.88,3.09-2.35,3.17-.3,4.94,1.77,6.82a26.81,26.81,0,0,1,1.73,2.15c-3-.79-5.56-.78-7.06-2-1.31-1.1-1.87-3.58-2-5.5-.24-3.46-2.5-4.62-6.27-6.6,1,2.05,1.92,3,1.78,3.68-.8,4.39,1.54,7.13,4.53,9.7a5.77,5.77,0,0,1,1.24,2.22c-2.5,1.62.54,3.14,0,4.64-.09.28-.83.65-.86.62-2.42-2.9-3.51,0-5.05,1.09a5.78,5.78,0,0,1-1.9.58c-1.68.45-4-1.07-5,1.11-1.45,3.23-5.24,5.56-4.31,9.66.54,2.42-1.3,3.84-1.69,5.84s-4.75,2.25-3.17,5c1.48,2.58-2.24,3.59-1,5.7h-7.19v-5.75c.48-.62,1.33-1.21,1.38-1.87.31-4,1.25-7.63,4.39-10.43a3.6,3.6,0,0,0,1.35-2.26,13.55,13.55,0,0,1,1.52-7.31c1.11-2-3-3.14-.77-5.65,1-1.17.62-3.51,1.18-5.21.63-1.88,1.82-3.57,2.4-5.46.49-1.61-.27-3-1.3-4.47-2.09-3-1.65-6.13-.19-9.58,2.15-5.1,5-10.32,1.67-16.2-.44-.78-1.23-3,1.69-3.77,1.44-.37,2.94-3.25,2.5-5.74-.33-1.82-1-.77-1.73-.24-.5.35-1.76.56-1.84.4-.8-1.57-1.81-3.2-2-4.88a4.72,4.72,0,0,1,1.82-3.37c.95-.76,2.12-.46,2.38,1.28.08.52,1.24.88,1.9,1.31.3-.56.83-1.12.85-1.69.13-3.45-.39-7,1.4-10.23.29-.53-.45-1.63-.71-2.47a9,9,0,0,0-2.39,1.11c-.64.56-.95,1.48-2,1.86-.05-3.16-1.55-5.94,1.34-8.72,2.48-2.39,3.2-9.66,2.41-12.83-.08-.3-.07-4.38,0-4.55.49-1.24,1.38-2.48,1.38-3.72,0-8.08,3.47-15.4,4.84-23.18a60.37,60.37,0,0,1,2.45-8.32,5.63,5.63,0,0,1,1.62-2.85,4.81,4.81,0,0,1,3.27-.54c.4.07.75,1.53.8,2.37a36.54,36.54,0,0,1,0,6.45c-.17,1.26-1.18,2.37-1.65,3.61s-1.45,2.85-1,3.79c2.14,4.89.83,10.1,1.54,15.08,4.77-3.37,9.35-6.61,14-9.83.73-.51,1.76-.75,2.25-1.41.92-1.24,2.48-3.08,2.11-4-1.07-2.65,4.23-.44,2.29-3.5-.55-.87.53-2.71.75-4.13.78-4.91,3.33-9.46,2.93-14.62,0-.36.46-1.09.68-1.08a5,5,0,0,0,4.78-3.65c1.15-5.57,5-10,6-15.52.37-2,.43-4.3,1.55-5.78,1.39-1.84,1.24-4.81,4.61-5.52,1.93-.4,3.53-2.62,4.29-5.09.7-2.29,2.31-4.3,3.43-6.47.69-1.34.76-2.82,3.12-2.75,2.6.08,3.54-1.53,1.68-3.88.76-5.77-1.57-11.77,1.38-17.4.35-.66-.07-1.82-.32-2.69-.61-2.13-1.84-4.23-1.85-6.35,0-1.69,1.43-3.38,2.24-5.07.38-.8,1.34-2,1.11-2.31-2.26-2.86-.29-6.33-1.48-9.28-.33-.82-1.08-1.65-1-2.43a8.06,8.06,0,0,0-3-7.45c-1.83-1.57-2-5.64-.68-7.71,1.09-1.73,2-3.93,3.6-4.89,3.8-2.26,3.6-6.94,6.5-9.64a1.47,1.47,0,0,0-.2-1.43,32.69,32.69,0,0,0-2.92-1.58c-1.11-.64-2.19-1.35-3.28-2,2.31-3.1-2.93-4.17-1.8-7.68,1.19-3.69.35-8.06.23-12.12-.05-1.84.47-2.49,2.38-2.48,1,0,2.16-1.47,3-1.25,3.56,1,4.1-2.4,4.53-3.89.68-2.36.69-4.52,3.75-5,.28,0,.6-1.54.5-2.3-.32-2.31.36-3.78,2-3.21s2.64,1.21,3.75-.51c.38-.59,1.45-1.05,1.43-1.53-.21-4.46,5.07-6.56,4.64-11.05h4.32Z"/><g class="cls-3"><path class="cls-4" d="M905.14,386.9C747,301.28,726,292.31,706.83,284.69s-36.55-13.9-50.33-18.55-24-7.68-33-10-16.88-3.92-22.94-4.94a104.25,104.25,0,0,0-13.39-1.54,26.28,26.28,0,0,0-7.44.69c-2.43.56-5.36,1.45-9.79,2.95s-10.35,3.65-25.77,9.82-40.35,16.39-160,70.4"/></g><circle class="cls-1" cx="669.29" cy="217.63" r="125.63"/></g><g id="Outline"><path class="cls-5" d="M272.83,51.27c-1,.21-2.46-.68-2.9,1.13a8.62,8.62,0,0,1-.78,1.66c-1-1-2.27-2.37-3.33-.59-.42.71,1,2.35,1.19,3.63a3.13,3.13,0,0,1-.54,2.57c-4.22,3.22-5.3,8.4-7.87,12.63-.85,1.41-1.37,2.72-2.92,3.45a6.46,6.46,0,0,0-2.25,1.45c-3.59,4.17-2.87,7.11,2.54,8.47,2.44.61,3.06,1.87,4.24,3.73s.35,2.7-.67,3.09c-2.51,1-3.41,1.52-1.22,4.15,2.93,3.52,2.44,8.5,4.15,12.61-1.85,2.7-1.55,5,1.17,7,.17.12.1.94.07,1-3.77.56-2.68,4.2-3.64,6.32-1.07,2.34.66,5.55-1.58,8-.36.39-.14,1.4,0,2.11.63,4.45,0,7.82-1.9,11a7.4,7.4,0,0,0-.95,3.18,37.66,37.66,0,0,0,0,6.46c.16,1.55-2.47,3-.06,4.56a76.85,76.85,0,0,1-3.95,7.53c-.4.61-2.83.19-.78,1.73,1.82,1.37,2,3,1.87,5-.07,1.2-.46,2.66.07,3.55,2,3.43,2.36,6-2.32,7.21-.35.09-.8,1.57-.59,1.77,2.74,2.69.81,3.41-1.48,4.71-1.74,1-2.93,3-4.31,4.6-.4.48-.47,1.5-.89,1.65-2.4.79-5,1.5-6.26,3.77-3,5.42-6.29,10.81-8.54,16.58a135.34,135.34,0,0,1-5.66,13.48c-1.61,3.08-3.21,6.27-3.39,10.18-.12,2.54-2.84,4.95-4.35,7.45a5,5,0,0,0-1.08,2.4c.29,6.73-3,10.94-9.56,10.78-4.27-.1-4.32,3.63-6.1,5.5-1.2,1.25-.59,4.55,1.86,6.13,1.68,1.07,2.15,2.16.93,4.29-1.05,1.84.51,4.41-1.4,6.66-1.09,1.28.48,4.07-1.52,5.84-.45.39,0,2.36.54,3.2,1.71,2.46.38,5.09.74,7.6,0,.34-.78,1.06-1.29,1.18-3.59.85-3.81,1.09-4.42,3.49a43.25,43.25,0,0,0-1.45,13.06c.12,2.46-.33,4.7,2.9,6,2.09.85,2.62,4.79,3.07,9.73a9.82,9.82,0,0,0,1.83,4.85c1.06,1.42-1.26,3.24.84,4.28.11.05-.13.84-.21,1.29-.51-.19-1.31-.23-1.47-.58-.65-1.4-1.11-2.89-1.93-5.16l-1.34,5.55-4.24-8.47c-2.17,3.63,1,6,1,8.83,0,1.06,1.26,2.57.88,3.09-2.35,3.17-.3,4.94,1.77,6.82a26.81,26.81,0,0,1,1.73,2.15c-3-.79-5.56-.78-7.06-2-1.31-1.1-1.87-3.58-2-5.5-.24-3.46-2.5-4.62-6.27-6.6,1,2.05,1.92,3,1.78,3.68-.8,4.39,1.54,7.13,4.53,9.7a5.77,5.77,0,0,1,1.24,2.22c-2.5,1.62.54,3.14,0,4.64-.09.28-.83.65-.86.62-2.42-2.9-3.51,0-5.05,1.09a5.78,5.78,0,0,1-1.9.58c-1.68.45-4-1.07-5,1.11-1.45,3.23-5.24,5.56-4.31,9.66.54,2.42-1.3,3.84-1.69,5.84s-4.75,2.25-3.17,5c1.48,2.58-2.24,3.59-1,5.7h-7.19v-5.75c.48-.62,1.33-1.21,1.38-1.87.31-4,1.25-7.63,4.39-10.43a3.6,3.6,0,0,0,1.35-2.26,13.55,13.55,0,0,1,1.52-7.31c1.11-2-3-3.14-.77-5.65,1-1.17.62-3.51,1.18-5.21.63-1.88,1.82-3.57,2.4-5.46.49-1.61-.27-3-1.3-4.47-2.09-3-1.65-6.13-.19-9.58,2.15-5.1,5-10.32,1.67-16.2-.44-.78-1.23-3,1.69-3.77,1.44-.37,2.94-3.25,2.5-5.74-.33-1.82-1-.77-1.73-.24-.5.35-1.76.56-1.84.4-.8-1.57-1.81-3.2-2-4.88a4.72,4.72,0,0,1,1.82-3.37c.95-.76,2.12-.46,2.38,1.28.08.52,1.24.88,1.9,1.31.3-.56.83-1.12.85-1.69.13-3.45-.39-7,1.4-10.23.29-.53-.45-1.63-.71-2.47a9,9,0,0,0-2.39,1.11c-.64.56-.95,1.48-2,1.86-.05-3.16-1.55-5.94,1.34-8.72,2.48-2.39,3.2-9.66,2.41-12.83-.08-.3-.07-4.38,0-4.55.49-1.24,1.38-2.48,1.38-3.72,0-8.08,3.47-15.4,4.84-23.18a60.37,60.37,0,0,1,2.45-8.32,5.63,5.63,0,0,1,1.62-2.85,4.81,4.81,0,0,1,3.27-.54c.4.07.75,1.53.8,2.37a36.54,36.54,0,0,1,0,6.45c-.17,1.26-1.18,2.37-1.65,3.61s-1.45,2.85-1,3.79c2.14,4.89.83,10.1,1.54,15.08,4.77-3.37,9.35-6.61,14-9.83.73-.51,1.76-.75,2.25-1.41.92-1.24,2.48-3.08,2.11-4-1.07-2.65,4.23-.44,2.29-3.5-.55-.87.53-2.71.75-4.13.78-4.91,3.33-9.46,2.93-14.62,0-.36.46-1.09.68-1.08a5,5,0,0,0,4.78-3.65c1.15-5.57,5-10,6-15.52.37-2,.43-4.3,1.55-5.78,1.39-1.84,1.24-4.81,4.61-5.52,1.93-.4,3.53-2.62,4.29-5.09.7-2.29,2.31-4.3,3.43-6.47.69-1.34.76-2.82,3.12-2.75,2.6.08,3.54-1.53,1.68-3.88.76-5.77-1.57-11.77,1.38-17.4.35-.66-.07-1.82-.32-2.69-.61-2.13-1.84-4.23-1.85-6.35,0-1.69,1.43-3.38,2.24-5.07.38-.8,1.34-2,1.11-2.31-2.26-2.86-.29-6.33-1.48-9.28-.33-.82-1.08-1.65-1-2.43a8.06,8.06,0,0,0-3-7.45c-1.83-1.57-2-5.64-.68-7.71,1.09-1.73,2-3.93,3.6-4.89,3.8-2.26,3.6-6.94,6.5-9.64a1.47,1.47,0,0,0-.2-1.43,32.69,32.69,0,0,0-2.92-1.58c-1.11-.64-2.19-1.35-3.28-2,2.31-3.1-2.93-4.17-1.8-7.68,1.19-3.69.35-8.06.23-12.12-.05-1.84.47-2.49,2.38-2.48,1,0,2.16-1.47,3-1.25,3.56,1,4.1-2.4,4.53-3.89.68-2.36.69-4.52,3.75-5,.28,0,.6-1.54.5-2.3-.32-2.31.36-3.78,2-3.21s2.64,1.21,3.75-.51c.38-.59,1.45-1.05,1.43-1.53-.21-4.46,5.07-6.56,4.64-11.05h4.32Z"/></g></svg>