<svg xmlns="http://www.w3.org/2000/svg" viewBox="0 0 432 432"><defs><style>.cls-1{fill:#636466;opacity:0.25;}.cls-2,.cls-3{fill:#fff;}.cls-2{opacity:0.75;}.cls-3,.cls-4{stroke:#010101;}.cls-3{stroke-linecap:round;stroke-linejoin:round;}.cls-4{fill:none;stroke-width:2px;}</style></defs><title>Icons</title><g id="Base"><path class="cls-1" d="M219,278.17s8.91-18.82,9.71-38.28-8.86-35-11.25-44.89-4-27.4,3.25-41.3H205.12c-5.52,11.52-5.62,31.39-3.24,41.3s12.05,25.43,11.25,44.89-9.71,38.28-9.71,38.28Z"/><rect class="cls-2" x="123.55" y="190.72" width="137.79" height="73.32"/><rect class="cls-3" x="237.86" y="176.78" width="138.09" height="79.75"/><rect class="cls-3" x="55.69" y="167.6" width="133.23" height="73.2"/></g><g id="Outline"><polygon class="cls-4" points="55.69 167.96 189.38 167.96 189.38 191 237.37 191 237.37 176.78 376.31 176.78 376.31 257.02 261.72 257.02 261.72 264.04 123.55 264.04 123.55 241.41 55.69 241.41 55.69 167.96"/></g></svg>