<svg xmlns="http://www.w3.org/2000/svg" xmlns:xlink="http://www.w3.org/1999/xlink" viewBox="0 0 432 432"><defs><style>.cls-1,.cls-10,.cls-11,.cls-4,.cls-5,.cls-6,.cls-7,.cls-8,.cls-9{fill:none;stroke:#231f20;}.cls-1{stroke-miterlimit:10;stroke-width:2px;}.cls-2{fill:#231f20;}.cls-3{clip-path:url(#clip-path);}.cls-10,.cls-11,.cls-4,.cls-5,.cls-6,.cls-7,.cls-8,.cls-9{stroke-linecap:round;stroke-linejoin:round;}.cls-4{stroke-width:0.3px;}.cls-5{stroke-width:0.4px;}.cls-6{stroke-width:0.5px;}.cls-7{stroke-width:0.6px;}.cls-8{stroke-width:0.7px;}.cls-9{stroke-width:0.8px;}.cls-10{stroke-width:0.9px;}</style><clipPath id="clip-path"><circle class="cls-1" cx="217.29" cy="217.63" r="125.63"/></clipPath></defs><title>Icons</title><g id="Base"><rect x="181.9" y="206.29" width="76.92" height="22.67"/><rect x="91.45" y="212.72" width="251.67" height="9.82"/><g class="cls-3"><path class="cls-4" d="M-19.15,310.9c5.62-4.74,6.28-6.53,6.54-8.5a25.66,25.66,0,0,0-.06-6c-.19-1.88-.46-3.49-.85-5.58s-.88-4.65-1.83-9.9-2.37-13.17-3.13-19.59a102.82,102.82,0,0,1-.64-17.17,88.67,88.67,0,0,1,3.06-20.89A112.87,112.87,0,0,1-4.55,196.4a111,111,0,0,1,20.26-24.67,204.81,204.81,0,0,1,29.11-22.34,179.4,179.4,0,0,1,31.68-16,270.81,270.81,0,0,1,39.8-12,438.7,438.7,0,0,1,49.08-8,313.81,313.81,0,0,1,45.12-1.62,290.33,290.33,0,0,1,39.63,4.31,270,270,0,0,1,33.24,8.2,232.49,232.49,0,0,1,33.37,12.92,159,159,0,0,1,32,20.29c9.26,7.79,16.4,16.38,20.74,23.84a52,52,0,0,1,6.81,20.1,61.8,61.8,0,0,1,.2,18.34,54.07,54.07,0,0,1-5.42,15.59,66.85,66.85,0,0,1-8.48,13.15,80,80,0,0,1-13.13,12.29,150.52,150.52,0,0,1-18.72,12,129.46,129.46,0,0,1-22.36,9.67,221.46,221.46,0,0,1-28.47,7,260.18,260.18,0,0,1-27,3.31,201.22,201.22,0,0,1-25.22.41,252.66,252.66,0,0,1-32-3.32,153.66,153.66,0,0,1-26.3-7.17,131.17,131.17,0,0,1-31.13-16.46,69.49,69.49,0,0,1-11.66-10.27,50.35,50.35,0,0,1-9.92-15.94,47.92,47.92,0,0,1-2.84-20.5,36.56,36.56,0,0,1,5.71-15.93,43.28,43.28,0,0,1,10.37-11.47,99.75,99.75,0,0,1,16.95-10.69,101.4,101.4,0,0,1,18.29-7,145.2,145.2,0,0,1,17.78-3.72,153.21,153.21,0,0,1,15.66-1.54c4.75-.22,9-.17,13.26,0s8.64.47,13.24,1.07a98,98,0,0,1,12.5,2.38c3.08.87,4.4,1.71,2.8,1.93s-6.11-.17-11-.55-10.1-.73-15.59-.86a135,135,0,0,0-17.39.61,139,139,0,0,0-18.4,3.3,92,92,0,0,0-16.63,5.68,90.59,90.59,0,0,0-16.6,9.72,52.82,52.82,0,0,0-11.65,12,35.81,35.81,0,0,0-5.73,12.64,33.78,33.78,0,0,0-.23,12.91,34.3,34.3,0,0,0,4.61,12.7,53.36,53.36,0,0,0,10.14,11.36,90.82,90.82,0,0,0,13.76,10.1A106,106,0,0,0,174,272.9a143.38,143.38,0,0,0,24.87,6.46,252.37,252.37,0,0,0,31.81,3.15,221.6,221.6,0,0,0,29.16-.73,125,125,0,0,0,25.2-4.87,174.58,174.58,0,0,0,28.22-11.21A98.76,98.76,0,0,0,334.81,251a70.4,70.4,0,0,0,12.47-15,57.94,57.94,0,0,0,5.91-12.52,26,26,0,0,0,1.38-9.51,53.87,53.87,0,0,0-1.89-12.17,58.17,58.17,0,0,0-6.64-15.5A85.61,85.61,0,0,0,332,169.14,97.13,97.13,0,0,0,314,156a155.19,155.19,0,0,0-20.18-9.75,248.11,248.11,0,0,0-24.45-8.54,191.39,191.39,0,0,0-24.87-5.34C235.7,131,226,130,216,129.43a267.71,267.71,0,0,0-31.52-.2,301.2,301.2,0,0,0-34,4,190.64,190.64,0,0,0-30.56,7.71,228.46,228.46,0,0,0-30.5,13.34c-9.95,5.21-19.35,11-26.94,17.37a101.53,101.53,0,0,0-17.76,19.69,67.81,67.81,0,0,0-9.44,18,74.16,74.16,0,0,0-3.34,19.41,65.87,65.87,0,0,0,1.47,18.45c1.36,5.57,3.69,10.37,6.83,15.94a142.86,142.86,0,0,0,11.16,17.12,86.24,86.24,0,0,0,14.1,14.12A217.72,217.72,0,0,0,87.3,310.15,228.47,228.47,0,0,0,116.92,326a285,285,0,0,0,38.93,13.95,430.82,430.82,0,0,0,47.29,10,518.71,518.71,0,0,0,54.67,6.2c18,.92,34.79.33,47.68-.27s21.9-1.18,30.18-1.81,15.84-1.31,21.34-1.78,8.94-.73,12.95-.88,8.6-.21,18.74.17"/><path class="cls-4" d="M507.88,224.08c-7.2,4.57-10.19,7.21-13.26,10.24s-6.25,6.44-10,10.39-8,8.43-13,13.4-10.8,10.44-17.21,15.82A222,222,0,0,1,434,289.2a232.88,232.88,0,0,1-22.5,12.86c-8.35,4.26-18,8.8-27.75,12.65s-19.75,7-28.62,9.53-16.64,4.42-24.76,6-16.6,2.82-26,4-19.73,2.35-31.19,3-24.08.85-36,.37a331.44,331.44,0,0,1-34.19-3.17,324.54,324.54,0,0,1-32.05-6.15,286.07,286.07,0,0,1-32.31-9.95A231.29,231.29,0,0,1,109,304.87a146.23,146.23,0,0,1-22.27-15A164.16,164.16,0,0,1,68,272.17a82.07,82.07,0,0,1-11.26-15.92,50.94,50.94,0,0,1-5.21-14A50.41,50.41,0,0,1,51,225.2a77.84,77.84,0,0,1,6.62-23.77c3.71-7.65,9.05-13.93,15.85-20.17A129.72,129.72,0,0,1,99.07,163,208.38,208.38,0,0,1,134.64,148a196,196,0,0,1,36.47-7.88,261.1,261.1,0,0,1,40.54-1.8,242,242,0,0,1,41.14,4.79,183,183,0,0,1,32,10.09c9.34,3.82,17.74,7.83,24.91,12.55a76.07,76.07,0,0,1,17.55,15.71,57.07,57.07,0,0,1,9.47,17.2,39.4,39.4,0,0,1,2.28,18.58,47.94,47.94,0,0,1-7.48,19.08c-3.65,5.49-8,9.43-13.17,13.31a111.3,111.3,0,0,1-18.35,11.23,125.87,125.87,0,0,1-24.74,9,128.46,128.46,0,0,1-28.81,3.44,213.88,213.88,0,0,1-35.71-2.19,165.91,165.91,0,0,1-30.92-7.82A66.16,66.16,0,0,1,162,254a73.83,73.83,0,0,1-12.12-11.36,22.93,22.93,0,0,1-5.27-10,32.56,32.56,0,0,1-.5-11.67,25.22,25.22,0,0,1,3.77-10.16,35.16,35.16,0,0,1,7.91-8.57A73,73,0,0,1,167.12,195a62.93,62.93,0,0,1,11.26-4.6,117.1,117.1,0,0,1,13-3.13,70.43,70.43,0,0,1,12.38-1.16,132.69,132.69,0,0,1,15.33.77,72.05,72.05,0,0,1,12.51,2.43,25.22,25.22,0,0,1,6.48,2.8c.86.64.26.76-1.42.6s-4.42-.58-8.34-1.06a109.22,109.22,0,0,0-14.73-.9,111.08,111.08,0,0,0-17.6,1.78,53.48,53.48,0,0,0-14.8,4.69,60.08,60.08,0,0,0-12.84,8.69,22.69,22.69,0,0,0-6.23,8.59,25.71,25.71,0,0,0-2,9.69,20.6,20.6,0,0,0,2.77,10.17A41.44,41.44,0,0,0,171.82,245a51.58,51.58,0,0,0,12.43,7.72,90.79,90.79,0,0,0,13.87,4.77,106.79,106.79,0,0,0,16.7,3.1,181.6,181.6,0,0,0,25.4,1.06,140.91,140.91,0,0,0,25.25-3.07,80,80,0,0,0,17.65-6.05,71.11,71.11,0,0,0,12.29-7.5,58.94,58.94,0,0,0,9.2-8.6,39.73,39.73,0,0,0,6.35-10,33.31,33.31,0,0,0,2.79-11.9A36.1,36.1,0,0,0,312,202a33.91,33.91,0,0,0-6.55-11.27,77,77,0,0,0-13.14-12.58c-5.07-3.73-10.46-6.38-17.37-9.31a164.54,164.54,0,0,0-24.4-8.35,169.81,169.81,0,0,0-27.83-4.17,224.25,224.25,0,0,0-26.54-.35,243.43,243.43,0,0,0-26.2,2.46,127.91,127.91,0,0,0-20.69,5.05,176.21,176.21,0,0,0-19,7.44,84.34,84.34,0,0,0-15.16,8.85,97.17,97.17,0,0,0-12.89,11.76,72.22,72.22,0,0,0-9.88,12.92,35.14,35.14,0,0,0-4.13,12.43,48,48,0,0,0-.13,15.3,60.1,60.1,0,0,0,6.12,17.92,61.74,61.74,0,0,0,12,15.69,112.24,112.24,0,0,0,18.57,14.32,151.71,151.71,0,0,0,25,12.61,234.06,234.06,0,0,0,32.53,10,286.21,286.21,0,0,0,37.08,6.26,227.69,227.69,0,0,0,35.71.57A307.19,307.19,0,0,0,293.29,305a258.31,258.31,0,0,0,37.4-9.71,146.1,146.1,0,0,0,32.22-15.51c10.87-6.93,22.67-16.2,30.94-25.32a71,71,0,0,0,15.92-27.65,65.81,65.81,0,0,0,2.54-29.65c-1.58-9.92-5.91-19.63-11.37-28.52A106.81,106.81,0,0,0,380,143.88c-8.82-7.77-19.86-15.23-32.3-22.18a321,321,0,0,0-41.39-19.22A331.15,331.15,0,0,0,259,88c-15.92-3.47-31.4-5.22-47.63-6.71s-33.23-2.7-47.88-3.26-26.93-.45-36.79-.37-17.29.14-23.92-.09a131.55,131.55,0,0,1-18.86-1.87"/><path class="cls-5" d="M507.88,224.08c-8.65,4.76-11.1,6.44-13.44,8.34s-4.56,4-7.48,6.73-6.54,6-11.82,10.81-12.22,11.12-19,16.77a190.62,190.62,0,0,1-21.83,16,309,309,0,0,1-29.45,16.12,299.08,299.08,0,0,1-32,13.32A265,265,0,0,1,339,321.24c-13,2.67-28.51,5.27-42,6.95a291.87,291.87,0,0,1-37.64,2.44,330.26,330.26,0,0,1-39.41-2.38c-12.75-1.6-24.27-4-35-6.44a301.8,301.8,0,0,1-31.13-8.44A209.51,209.51,0,0,1,123,300.15,132.11,132.11,0,0,1,99.2,283.94a97.2,97.2,0,0,1-17.06-18.73A84.05,84.05,0,0,1,71.85,245,37.8,37.8,0,0,1,70,229.76a61.93,61.93,0,0,1,2.72-14.52,57.93,57.93,0,0,1,7-14.8,73.23,73.23,0,0,1,12.79-14.35,111,111,0,0,1,17.91-12.62,121.89,121.89,0,0,1,22.31-9.71A236.15,236.15,0,0,1,165,155.31a178.31,178.31,0,0,1,31.64-2.61,243,243,0,0,1,31,1.74,148.31,148.31,0,0,1,25.31,5.42,134.24,134.24,0,0,1,17.62,7,126.83,126.83,0,0,1,12.3,6.53,69.22,69.22,0,0,1,10.77,7.84,59,59,0,0,1,8.44,9.73,37.93,37.93,0,0,1,5.26,10,26.93,26.93,0,0,1,1.09,10.88,36.2,36.2,0,0,1-3.12,11.88,30.27,30.27,0,0,1-7.3,9.47,69.13,69.13,0,0,1-11.53,8.46,80,80,0,0,1-13.14,6.12,81.52,81.52,0,0,1-13,3.53,103.28,103.28,0,0,1-14.47,1.64,120.71,120.71,0,0,1-14.79-.25,61.28,61.28,0,0,1-10.1-1.67,38.39,38.39,0,0,1-6.17-2c-1.42-.65-2.17-1.22-2.17-1.68s.77-.79,2.17-.9,3.42,0,6.14.12,6.14.2,10,.1a96.37,96.37,0,0,0,12.44-1,80.23,80.23,0,0,0,11.41-2.75,60.91,60.91,0,0,0,9.32-3.64,49.82,49.82,0,0,0,8.11-5.11,33.51,33.51,0,0,0,6.6-6.54,25.39,25.39,0,0,0,4.35-8.86,23.71,23.71,0,0,0,.26-9.91,28.29,28.29,0,0,0-2.93-8.22,24.56,24.56,0,0,0-4.19-5.7,54.73,54.73,0,0,0-6.69-5.95,66.81,66.81,0,0,0-8.68-5.41,113.87,113.87,0,0,0-10.42-4.93,68.21,68.21,0,0,0-9.37-3c-3.29-.84-7.08-1.67-11-2.37a127,127,0,0,0-12.74-1.65c-4.86-.39-10.59-.61-15.9-.56A118.84,118.84,0,0,0,186,172a160.91,160.91,0,0,0-16.3,3.18,105.19,105.19,0,0,0-28.84,12,90.27,90.27,0,0,0-13.66,10.29,45.31,45.31,0,0,0-8.81,10.67,41.08,41.08,0,0,0-4.82,12.52,35,35,0,0,0,0,13.45,47.37,47.37,0,0,0,5.13,14,66.12,66.12,0,0,0,8.89,12.13,61.57,61.57,0,0,0,9.66,8.64A83.85,83.85,0,0,0,149,275.7c4.83,2.43,10.94,5.27,17.91,8a212.82,212.82,0,0,0,21.76,7.37A164.43,164.43,0,0,0,208,295c6.28,1,12.72,1.76,19.86,2.37a195.71,195.71,0,0,0,24.29.71,249.29,249.29,0,0,0,30.27-3,234,234,0,0,0,29.43-6.69,194.66,194.66,0,0,0,26.48-9.81,135.61,135.61,0,0,0,20.55-11.8,107.65,107.65,0,0,0,15.85-13.24,81.32,81.32,0,0,0,12.35-16.26A72.9,72.9,0,0,0,394.84,218a60.2,60.2,0,0,0,1.32-18.9,62.36,62.36,0,0,0-4.26-17.87,82.1,82.1,0,0,0-11.08-19.61A129.42,129.42,0,0,0,361.09,141a167.32,167.32,0,0,0-23.85-16.58,218.34,218.34,0,0,0-25.06-12.13c-9.84-4.17-22.15-9.08-34.52-12.93a359.69,359.69,0,0,0-35.91-8.88c-11.13-2.25-21-3.94-32.92-5.4s-26.05-2.71-38.72-3.46-23.94-1-33.94-1.33-18.71-.65-25.17-1-10.66-.62-14.43-1a62.35,62.35,0,0,1-12.69-2.62"/><path class="cls-5" d="M-19.15,310.9c6.11-4.67,7.33-6.21,8-7.6a9.61,9.61,0,0,0,.94-4.13c.07-1.48,0-3.17-.12-6.26s-.41-7.59-.81-11.91-.92-8.49-1.26-12.44a116.59,116.59,0,0,1-.41-11.66,115,115,0,0,1,.88-12.82A110.66,110.66,0,0,1-9,229.1a94.54,94.54,0,0,1,5.47-15A132.87,132.87,0,0,1,4.52,199a101,101,0,0,1,9.29-12.5,130.56,130.56,0,0,1,12.44-12.62,181.67,181.67,0,0,1,16.33-12.73,157.22,157.22,0,0,1,17.3-10.53c6-3.14,12.49-6,20.47-9.22a271.7,271.7,0,0,1,27.33-9.82,235.45,235.45,0,0,1,30.6-6.36c10.58-1.57,21.56-2.75,31.58-3.53a262.62,262.62,0,0,1,28.71-.88,275.2,275.2,0,0,1,31.7,2.92A343.54,343.54,0,0,1,266.92,131a172.18,172.18,0,0,1,30.83,11.21c9.87,4.66,20.11,10.45,28.33,16.87a84.31,84.31,0,0,1,18.86,20.32,61.22,61.22,0,0,1,8.54,19.55A42,42,0,0,1,354,215.5a47.52,47.52,0,0,1-5,14.37,55.93,55.93,0,0,1-10.17,13.67A119.08,119.08,0,0,1,322,257.34a82.06,82.06,0,0,1-16.17,8.52,142,142,0,0,1-18.83,6,229.92,229.92,0,0,1-22.72,4.3,173.31,173.31,0,0,1-22.09,1.8,138.68,138.68,0,0,1-20.66-1.45c-7.3-1-15.47-2.45-21.92-3.92a94.64,94.64,0,0,1-15.48-4.75,76.83,76.83,0,0,1-11.76-6.09,87,87,0,0,1-9.13-6.63,20.83,20.83,0,0,1-4.31-4.46c-.71-1.14-.8-2-.33-2.4s1.5-.23,3.42.7,4.7,2.63,8.16,4.45,7.58,3.75,11.66,5.46a121.08,121.08,0,0,0,12.59,4.51,114.28,114.28,0,0,0,15.38,3.44,160,160,0,0,0,20.13,1.76,166.72,166.72,0,0,0,39.74-4,95.73,95.73,0,0,0,13.94-4.38,106,106,0,0,0,16.33-7.76,101.24,101.24,0,0,0,16.48-12.29,37.54,37.54,0,0,0,8.4-10.93,42.42,42.42,0,0,0,3.82-11.35,36.32,36.32,0,0,0,.21-13.11,39.81,39.81,0,0,0-6.22-14.89,79.47,79.47,0,0,0-14.47-16.23,103.4,103.4,0,0,0-19.52-13,142.85,142.85,0,0,0-21.32-8.78c-7.64-2.53-16-4.89-24.24-6.73a160.63,160.63,0,0,0-25.89-3.78,248.46,248.46,0,0,0-33.18.35,237.87,237.87,0,0,0-37.82,5.64,246.07,246.07,0,0,0-35.45,11.57,148.36,148.36,0,0,0-22.45,11.32,99.57,99.57,0,0,0-14.68,10.95,89.82,89.82,0,0,0-12,13.27,73,73,0,0,0-9.23,16.24,57.36,57.36,0,0,0-4,18.16A67.85,67.85,0,0,0,50,248.17a60,60,0,0,0,7.31,17.06A124.62,124.62,0,0,0,70.86,283.8a113.77,113.77,0,0,0,19.31,17.3c7.56,5.4,16.38,10.45,28.15,16.12a343.58,343.58,0,0,0,41,16.7,313.32,313.32,0,0,0,43.82,10.58c14.89,2.61,30.31,4.61,45.84,6s31.17,2.28,46.78,2.32,31.2-.72,42-1.28,16.76-.91,21.74-1.09,8.95-.18,13.21-.07a154.83,154.83,0,0,1,16,1.18"/><path class="cls-6" d="M-19.15,310.9c12.55-8.85,13.82-12.82,14.88-16.07s1.91-5.8,2.62-8.89S-.39,279.22.1,275.57s.94-7.31,1.48-10.73,1.18-6.58,2.16-10.55a138.21,138.21,0,0,1,4-13.45,102.2,102.2,0,0,1,6.72-14.78,143.55,143.55,0,0,1,10.66-16.58,103.16,103.16,0,0,1,12.76-14A167.3,167.3,0,0,1,53.5,182.69a139.47,139.47,0,0,1,18-11.13,231.85,231.85,0,0,1,24-10.7A210.89,210.89,0,0,1,121.18,153a230.34,230.34,0,0,1,30.75-5.43,234.78,234.78,0,0,1,35.95-.67,314.92,314.92,0,0,1,39.52,4.28,97.52,97.52,0,0,1,23.67,7.42,117.62,117.62,0,0,1,15.52,8.32A50.3,50.3,0,0,1,277,175.49a16.24,16.24,0,0,1,3.75,6.91c.4,1.74.16,2.78-.33,3.4s-1.26.81-2.67.52a43.7,43.7,0,0,1-6.67-2.39c-3.2-1.33-7.54-3.21-11.94-4.91s-8.84-3.23-12.78-4.45-7.38-2.16-11.34-3-8.45-1.7-13-2.35-9.17-1.12-14-1.33-10-.16-15.53.14-11.62.85-17.8,1.73-12.52,2.06-18.12,3.41a99.19,99.19,0,0,0-15.85,5.11,152.41,152.41,0,0,0-16.87,8.5,90.35,90.35,0,0,0-15.36,10.74,69.62,69.62,0,0,0-11.13,12.94,61,61,0,0,0-6.1,11.52,37.56,37.56,0,0,0-2.63,10.59A53.69,53.69,0,0,0,89,246.35a58.53,58.53,0,0,0,4.4,13.93,68,68,0,0,0,8.13,14.06A101.19,101.19,0,0,0,116,289.6a133.93,133.93,0,0,0,18,12.94A168.24,168.24,0,0,0,152.38,312c6.77,3.06,14.68,6.37,23,9.49s17.12,6,27.18,8.73,21.42,5.19,33.5,7.36,24.92,4.05,37,5.12,23.48,1.31,34.72,1.66,22.36.79,31.79,1.17,17.19.68,24,1.37,12.72,1.75,25.09,4.69"/><path class="cls-6" d="M507.88,224.08c-19,9.58-22.92,12.19-27.32,15.24s-9.32,6.53-14.84,10.36-11.64,8-18.44,12.25-14.29,8.62-21.62,12.53-14.5,7.36-22.8,10.88-17.75,7.13-27.81,10.36-20.74,6.1-31.27,8.34a296,296,0,0,1-33.61,5.07A391.21,391.21,0,0,1,267.91,311a286.9,286.9,0,0,1-41.7-3.6,212.42,212.42,0,0,1-34.74-8.56A150.57,150.57,0,0,1,165.21,287a142.15,142.15,0,0,1-18.63-12.77,72.25,72.25,0,0,1-10.84-10.54,42,42,0,0,1-6.36-10.34A36.53,36.53,0,0,1,126.74,242a38.48,38.48,0,0,1,.89-11.8,29.18,29.18,0,0,1,3.85-8.73,33.32,33.32,0,0,1,4.73-5.71,45.76,45.76,0,0,1,7.28-6.1,65.61,65.61,0,0,1,10.39-5.44,55.1,55.1,0,0,1,9.78-3.22,42,42,0,0,1,8.34-1,11.22,11.22,0,0,1,5.21.83,2.87,2.87,0,0,1,1.75,2.61c-.07,1-.86,1.94-2.05,3.52a49.68,49.68,0,0,0-4.14,6.36,34.7,34.7,0,0,0-3.12,8.24,22.22,22.22,0,0,0-.38,7.94,23.79,23.79,0,0,0,2.66,8.37,34.54,34.54,0,0,0,6.69,8.59,54.82,54.82,0,0,0,9.79,7.17,90.84,90.84,0,0,0,11.77,5.85,83.62,83.62,0,0,0,13.07,4.07c4.87,1.13,10.48,2.09,15.89,2.8s10.64,1.19,16.06,1.39a125.87,125.87,0,0,0,17.5-.5A198.46,198.46,0,0,0,283,264a124.47,124.47,0,0,0,19.29-5.44,131.57,131.57,0,0,0,19.27-9.24,91.58,91.58,0,0,0,14.48-10.4A67.4,67.4,0,0,0,346,228.19a54.74,54.74,0,0,0,5.87-10.42,55.42,55.42,0,0,0,3.3-10.14,41.21,41.21,0,0,0,1-12.73A56.91,56.91,0,0,0,352,178.33,81.6,81.6,0,0,0,342,161a92.76,92.76,0,0,0-14-14.85,135.23,135.23,0,0,0-18-12.88c-6.91-4.21-14.92-8.49-23.05-12.37a239.65,239.65,0,0,0-25.19-10.43c-8.82-3.06-18.23-5.68-29.66-8.47s-24.91-5.73-36.34-7.83-20.83-3.32-31.3-4.62-22-2.65-31.64-3.84-17.24-2.21-22.95-3.06-9.48-1.54-12.81-2.37a99.38,99.38,0,0,1-13.25-4.57"/><path class="cls-7" d="M-19.15,310.9c7-4.95,9.24-6.62,10.71-7.84a20.21,20.21,0,0,0,2.81-2.7A23,23,0,0,0-4,298.21c.5-.75,1-1.58,1.57-2.6s1.22-2.26,1.84-3.57,1.22-2.71,1.81-4.27,1.2-3.28,2.26-6.66,2.59-8.4,4.18-13.44,3.26-10.08,4.85-14.5,3.12-8.22,4.72-11.78a98.71,98.71,0,0,1,5.53-10.62,116.21,116.21,0,0,1,8.36-12.11,139.35,139.35,0,0,1,10.72-12,143.88,143.88,0,0,1,11.21-10.11,121,121,0,0,1,12.2-8.79c4.46-2.81,9.45-5.53,14.4-8s9.85-4.68,14.74-6.67,9.8-3.76,15-5.38,10.75-3.12,15.82-4.3,9.67-2,14.57-2.8,10.1-1.42,16.62-1.8,14.35-.49,21.89-.21,14.79.94,20,1.68a69,69,0,0,1,11.19,2.37,37.15,37.15,0,0,1,6.7,2.62,7.08,7.08,0,0,1,3,2.65,3.27,3.27,0,0,1,.44,2.47,2.78,2.78,0,0,1-1.72,1.78,17.58,17.58,0,0,1-4.22,1c-1.83.28-4.08.54-6.48.8s-5,.49-8.3.9-7.48,1-11.58,1.62-8.16,1.34-11.83,2.06-7,1.48-10.08,2.3a99.31,99.31,0,0,0-9.71,3,107.85,107.85,0,0,0-12.18,5.33,132,132,0,0,0-12.26,7.31,67.81,67.81,0,0,0-8.51,6.55,69,69,0,0,0-6.7,7.15,48.64,48.64,0,0,0-5.07,7.39,44,44,0,0,0-3.32,7.87,48.14,48.14,0,0,0-1.81,8.18,41.29,41.29,0,0,0-.3,9.33,48,48,0,0,0,2.19,10.38,54.14,54.14,0,0,0,4.6,10.34,83.57,83.57,0,0,0,7.94,11.5,103.28,103.28,0,0,0,10.91,11.37,113.36,113.36,0,0,0,12.46,9.61,161.07,161.07,0,0,0,15.48,9.17,209.27,209.27,0,0,0,21.31,9.57c8.45,3.26,18.45,6.59,28.45,9.43s20,5.21,30.17,7.27,20.61,3.83,32.9,5.44,26.43,3,38.13,4.13,21,1.8,28.61,2.42,13.72,1.12,19,1.7,9.87,1.22,13.2,1.77a74.27,74.27,0,0,1,7.92,1.65c2.52.67,5.47,1.56,9.87,2.88"/><path class="cls-7" d="M507.88,224.08c-18.79,8.85-22.29,10.8-25.9,12.91s-7.34,4.37-11.28,6.8-8.09,5-14,8.56-13.64,8.13-20.54,11.82-13,6.53-19.91,9.65-14.73,6.55-22.52,9.41-15.54,5.15-25.77,7.81-22.91,5.68-34.24,7.6a264.91,264.91,0,0,1-31.35,3.23c-10,.51-20.13.73-30.17.28A257.86,257.86,0,0,1,243,299.09a210.51,210.51,0,0,1-25.06-5.49,169.14,169.14,0,0,1-20.27-7.31,178.53,178.53,0,0,1-16.05-7.84,56.48,56.48,0,0,1-10.46-7.13,43,43,0,0,1-7-8.2,44.67,44.67,0,0,1-4.54-8.62,24.1,24.1,0,0,1-1.74-7.65,15.35,15.35,0,0,1,1-6.28,16.72,16.72,0,0,1,3.24-5.27,13.81,13.81,0,0,1,4.93-3.49,10.72,10.72,0,0,1,5.5-.62,20,20,0,0,1,5.8,1.8,37.83,37.83,0,0,1,5.64,3.36c2,1.36,4.13,3,6.4,4.44a62.31,62.31,0,0,0,8,4.22,124.14,124.14,0,0,0,11.76,4.63A105.86,105.86,0,0,0,222.92,253a117.07,117.07,0,0,0,13.47,1.85,147.87,147.87,0,0,0,15.33.44,131.77,131.77,0,0,0,14.91-1.16,102.71,102.71,0,0,0,13.4-2.77c4.73-1.27,10.11-3,14.76-4.73A79.75,79.75,0,0,0,307,240.88a75,75,0,0,0,9.85-6.9,72.49,72.49,0,0,0,8.15-7.82,66.28,66.28,0,0,0,6.88-9,40.59,40.59,0,0,0,5.42-15,42.85,42.85,0,0,0,.39-9.56,44.76,44.76,0,0,0-2.66-12,71.19,71.19,0,0,0-6.36-12.71,79.11,79.11,0,0,0-8.75-11.67A95.58,95.58,0,0,0,307.82,145a131,131,0,0,0-17.08-11c-7.83-4.42-18.68-10.15-29.15-14.78a239.25,239.25,0,0,0-30.72-11.11c-10.19-3-20.5-5.34-31.82-7.84s-23.66-5.09-34.86-7S142.92,90.24,134.42,89,119,86.38,113.8,85.3s-8.55-1.91-12.07-2.87-7.14-2.06-17.85-6.71"/><path class="cls-8" d="M507.88,224.08c-16.52,6.81-20.81,8.87-24.95,10.87s-8.12,4-14.81,7.29-16.08,8-24.49,11.93-15.83,7.07-23.53,10.12-15.66,6-23.36,8.49-15.16,4.56-22.72,6.44-15.21,3.59-23.67,5-17.71,2.6-26.89,3.29-18.29.9-25.64.8-12.94-.53-18.34-1.09-10.59-1.27-16.1-2.16-11.32-1.95-16.5-3.33a79.3,79.3,0,0,1-14.25-5.21,94.33,94.33,0,0,1-12.28-7.07,32.81,32.81,0,0,1-7.16-6.22,13.74,13.74,0,0,1-2.87-5.59,6.26,6.26,0,0,1,.5-4.37,7.85,7.85,0,0,1,3.61-3.27c1.83-.92,4.36-1.68,8.89-2.53s11-1.77,17.27-2.82,12.16-2.22,17.19-3.33a114.64,114.64,0,0,0,13-3.51,77.7,77.7,0,0,0,10.32-4.49,71.23,71.23,0,0,0,8.82-5.36,58,58,0,0,0,8.72-7.66,57.19,57.19,0,0,0,8.2-11,30.25,30.25,0,0,0,3.41-10.54,40.29,40.29,0,0,0,.21-10.43,40.82,40.82,0,0,0-2.9-11.24A57.94,57.94,0,0,0,301.07,166a89.57,89.57,0,0,0-9.16-10.77,123.46,123.46,0,0,0-12.8-11.33,132.83,132.83,0,0,0-15.48-10.09,196.21,196.21,0,0,0-18.69-9.26c-6.9-3-14.54-5.88-25.09-9.36s-24-7.54-36.17-10.79-23.09-5.72-32.85-7.94-18.38-4.22-25.25-5.94-12-3.16-16-4.32-6.73-2-9.72-3.14-6.19-2.45-16-7.3"/><path class="cls-8" d="M-19.15,310.9c12-8.07,14.41-10.12,16.18-11.79a35.24,35.24,0,0,0,4.33-4.9c1.45-1.93,3.26-4.5,5.38-7.91s4.56-7.68,6.8-11.81,4.27-8.13,6.26-11.93,3.92-7.42,6.31-11.35,5.25-8.2,7.94-11.9,5.23-6.85,8.17-10.16,6.28-6.78,10-10.23A147.43,147.43,0,0,1,64,209a129,129,0,0,1,13.14-8.67c4.92-2.86,10.63-5.84,15.91-8.31a131,131,0,0,1,15.49-6.16c5.36-1.74,11.24-3.27,16-4.37a91.83,91.83,0,0,1,12.25-2.14,99.47,99.47,0,0,1,11.71-.38,31.08,31.08,0,0,1,7.51.93,9.2,9.2,0,0,1,4,2.06,4,4,0,0,1,1.19,2.53,3.75,3.75,0,0,1-.55,2.33A18.13,18.13,0,0,1,158.2,190c-1.16,1.3-2.69,2.84-4.32,4.38s-3.35,3.08-5.06,4.54-3.37,2.86-5.27,4.83a82.36,82.36,0,0,0-5.91,7.06,58.81,58.81,0,0,0-5.15,7.87,46.46,46.46,0,0,0-3.53,8.58,34.53,34.53,0,0,0-1.27,7.66,77.39,77.39,0,0,0-.13,7.81,26.88,26.88,0,0,0,.64,5,35.12,35.12,0,0,0,1.49,4.92,58.21,58.21,0,0,0,3.08,6.65,61.28,61.28,0,0,0,4.93,7.76,91.51,91.51,0,0,0,7.78,9.06,107,107,0,0,0,9.76,8.83c3.43,2.76,7,5.28,10.19,7.44s6.11,3.95,9.21,5.71,6.4,3.49,10.6,5.49,9.3,4.26,13.56,6,7.69,3.06,12.17,4.63,10,3.45,16.43,5.34,13.72,3.79,22.16,5.74,18,3.95,28.07,5.74,20.58,3.38,29.73,4.68S324.27,338.13,331,339s12.28,1.69,17.79,2.56,10.95,1.83,15.39,2.74,7.88,1.78,10.78,2.56a134.19,134.19,0,0,1,13.79,4.69"/><path class="cls-9" d="M507.88,224.08C450.09,245,434.32,250,421.25,253.51s-23.46,5.75-33.09,7.49a277.55,277.55,0,0,1-28.63,3.85c-10.1.8-21.4,1.1-30.2.95A142.53,142.53,0,0,1,307.5,264a131.67,131.67,0,0,1-19.73-4.64,52.92,52.92,0,0,1-14.08-6.87c-3.7-2.62-6.56-5.56-8-8.75a15.28,15.28,0,0,1-.46-10.37c1-3.71,2.92-7.69,4.45-11.27a79.69,79.69,0,0,0,3.59-10.18,76.75,76.75,0,0,0,2.18-10.18,29.5,29.5,0,0,0-.08-8.94,43.87,43.87,0,0,0-3.48-11.71,65.16,65.16,0,0,0-8.28-13.2,85.44,85.44,0,0,0-11.4-11.55,183.65,183.65,0,0,0-15.43-11.85A190.75,190.75,0,0,0,217.71,133c-7.17-3.8-15.31-7.59-22.38-10.7s-13.07-5.52-21.51-8.7-19.33-7.1-28.27-10.35-16-5.8-21.62-7.94-10-3.88-14.66-5.93-9.6-4.43-25.39-13.61"/><path class="cls-9" d="M-19.15,310.9C1.22,298.54,6.15,294.66,10.34,291s7.64-7,12.28-11.68,10.47-10.52,15.11-15.22,8.09-8.2,11.4-11.33,6.48-5.88,9.5-8.39,5.9-4.8,9.38-7.35,7.56-5.35,11.84-8,8.76-5.18,12.89-7.3,7.9-3.85,11.47-5.26a57.75,57.75,0,0,1,9.93-3.06,32.07,32.07,0,0,1,7.8-.54,26.75,26.75,0,0,1,5.57.78,15.49,15.49,0,0,1,4.3,1.75,24.89,24.89,0,0,1,3.84,2.94,29.89,29.89,0,0,1,3,3.13,27.77,27.77,0,0,1,2.3,3.26c.75,1.23,1.54,2.67,2.43,4.38s1.86,3.68,3.08,6.09,2.68,5.25,3.94,7.5,2.32,3.93,3.72,6,3.14,4.52,5,6.89,3.78,4.65,5.87,6.88a95.84,95.84,0,0,0,7.37,7c3,2.64,6.87,5.75,10.6,8.47s7.35,5.09,11,7.26,7.15,4.18,10.89,6.11,7.68,3.76,15.14,6.93S238.39,306,248,309.54s17.81,6.19,29.32,9.43,26.32,7.11,39.75,10.64,25.47,6.72,33.3,8.82,11.43,3.11,16,4.56a238.5,238.5,0,0,1,22.37,8.6"/><path class="cls-10" d="M507.88,224.08C477,233.88,466,237,456.11,239.49s-18.56,4.46-28.57,6.35-21.33,3.72-30.49,4.88-16.15,1.67-22.79,1.91-13,.22-19.62-.14-13.7-1.06-19.91-1.89a167.69,167.69,0,0,1-16.52-2.93,96.81,96.81,0,0,1-13.7-4.21,93.2,93.2,0,0,1-12.43-6A75.54,75.54,0,0,1,281.23,230a43.28,43.28,0,0,1-7.8-8.47,122.45,122.45,0,0,1-7.28-12.29c-2.95-5.43-6.79-12.59-9.88-17.94a113.51,113.51,0,0,0-7.8-12,83.35,83.35,0,0,0-7.72-8.87,143.76,143.76,0,0,0-11.67-10.55c-4.92-4-11.05-8.64-17.47-13s-13.13-8.45-19.94-12.47-13.7-8-21.94-12.19-17.82-8.78-26.08-12.81-15.21-7.55-22.42-11.29-14.71-7.69-37.35-22.42"/><path class="cls-10" d="M-19.15,310.9c7.31-3.52,15.31-8.15,21.71-11.94s11.19-6.75,16.76-10.44,11.91-8.11,18-12.33,12-8.22,18-12.29,12-8.18,17.54-11.56,10.41-6,14.65-8.24,7.78-3.95,11.35-5.55,7.14-3.07,10.1-4.14a61.54,61.54,0,0,1,7.24-2.21,22.45,22.45,0,0,1,5.9-.63,39.44,39.44,0,0,1,8.47,1.1,52.63,52.63,0,0,1,9.81,3.67,112.91,112.91,0,0,1,12.93,7.24c5.45,3.46,12.41,8.25,18.07,12.16s10,6.91,13.91,9.47,7.26,4.7,10.68,6.74,6.9,4,10.88,6.11,8.49,4.33,12.86,6.41,8.59,4,12.75,5.84,8.27,3.56,14.47,6.16,14.49,6.08,22.3,9.23,15.14,6,26.14,9.95,25.66,9.11,36.58,13,18.12,6.42,24.64,8.93,12.4,5,32,14"/><path class="cls-11" d="M453.14,386.9C295,301.28,274,292.31,254.83,284.69s-36.55-13.9-50.33-18.55-23.95-7.68-33-10-16.88-3.92-22.94-4.94a104.25,104.25,0,0,0-13.39-1.54,26.28,26.28,0,0,0-7.44.69c-2.43.56-5.36,1.45-9.79,2.95S107.62,257,92.2,263.13s-40.35,16.39-160,70.4"/><path class="cls-11" d="M52.92,52.42c120.43,91.86,140,106.56,151.93,115.42s16.22,11.88,20.59,14.86,8.81,5.9,13.73,8.78,10.33,5.75,16,8.71,11.62,6,17.1,8.65,10.5,4.86,15.82,7.1,11,4.52,16.71,6.6,11.62,4,18.11,5.91,13.61,4,20.89,5.63,14.73,3,22.33,4,15.35,1.75,23,2.25,15.1.76,21.95.72,13.07-.38,19.82-1,14.05-1.43,23-2.85,19.66-3.41,54.22-12.63"/></g><circle class="cls-1" cx="217.29" cy="217.63" r="125.63"/></g></svg>