<svg xmlns="http://www.w3.org/2000/svg" viewBox="0 0 432 432"><defs><style>.cls-1{fill:#f1f2f2;}.cls-2{fill:none;}.cls-2,.cls-3{stroke:#231f20;stroke-miterlimit:10;stroke-width:4px;}.cls-3{fill:#4d4d4f;}</style></defs><title>Icons</title><g id="Base"><path class="cls-2" d="M302.49,216.94c0,9.79-22.43,18.19-54.47,21.85"/><path class="cls-2" d="M176.29,238.79c-32-3.66-54.47-12.06-54.47-21.85"/><path class="cls-3" d="M302.49,216.94c0-44.46-40.45-80.51-90.34-80.51s-90.33,36-90.33,80.51c0-13.14,40.44-23.8,90.33-23.8S302.49,203.8,302.49,216.94Z"/><path class="cls-3" d="M236,216.94H188.29c-6.6,0-12,11.64-12,18.24v57.13a12,12,0,0,0,12,12H236a12,12,0,0,0,12-12V235.18C248,228.58,242.62,216.94,236,216.94Z"/></g></svg>