<svg xmlns="http://www.w3.org/2000/svg" viewBox="0 0 432 432"><defs><style>.cls-1{fill:#c7c8ca;}.cls-2{fill:#a7a9ac;}.cls-3{fill:#8a8c8e;}.cls-4{fill:#e6e7e8;}.cls-5{fill:none;stroke:#000;stroke-width:2px;}</style></defs><title>Icons</title><g id="Color_Fill" data-name="Color Fill"><polygon class="cls-1" points="244.36 211 244.36 172 227.32 172 227.32 159.79 244.36 159.79 244.36 153.7 307.1 153.7 307.1 192.79 293.06 192.79 293.06 211 244.36 211"/><polygon class="cls-2" points="193.73 222.53 193.73 227.08 190.22 227.08 177.75 227.08 177.75 178.08 187.74 178.08 187.74 172 227.32 172 244.36 172 244.36 211 244.36 222.53 193.73 222.53"/><polygon class="cls-3" points="385.65 186.71 385.65 216.43 379.56 216.43 379.56 223.23 342.01 223.23 342.01 243.19 310.6 243.19 310.6 252.82 281.52 252.82 281.52 260 249.22 260 188.7 260 177.75 260 177.75 250.79 190.22 250.79 190.22 227.08 193.73 227.08 193.73 222.53 244.36 222.53 244.36 211 293.06 211 293.06 192.79 307.1 192.79 355.21 192.79 355.21 186.71 385.65 186.71"/><rect class="cls-1" x="249.22" y="260" width="32.3" height="18.3"/><polygon class="cls-1" points="190.22 227.08 190.22 250.79 177.75 250.79 165.28 250.79 165.28 227.08 177.75 227.08 190.22 227.08"/><polygon class="cls-4" points="188.7 260 188.7 272.21 90.15 272.21 90.15 263.45 46.35 263.45 46.35 243.01 50.15 243.01 50.15 223.23 87.71 223.23 87.71 216.43 93.79 216.43 93.79 189.08 99.21 189.08 99.21 182.71 134.5 182.71 134.5 159.79 172.89 159.79 172.89 172 177.75 172 177.75 178.08 177.75 227.08 165.28 227.08 165.28 250.79 177.75 250.79 177.75 260 188.7 260"/></g><g id="Base"><polyline class="cls-5" points="188.7 260 177.75 260 177.75 250.79 165.28 250.79 165.28 227.08 177.75 227.08 177.75 178.08"/><polyline class="cls-5" points="177.75 250.79 190.22 250.79 190.22 227.08 177.75 227.08"/><polyline class="cls-5" points="190.22 227.08 193.73 227.08 193.73 222.53 244.36 222.53 244.36 172 227.32 172"/><polyline class="cls-5" points="244.36 211 293.06 211 293.05 192.79 307.08 192.79"/><line class="cls-5" x1="249.22" y1="260" x2="281.52" y2="260"/></g><g id="Outline"><polygon class="cls-5" points="46.35 263.45 46.35 243.01 50.15 243.01 50.15 223.23 87.71 223.23 87.71 216.43 93.79 216.43 93.79 189.08 99.21 189.08 99.21 182.71 134.5 182.71 134.5 159.79 172.89 159.79 172.89 172 177.75 172 177.75 178.08 187.74 178.08 187.74 172 227.32 172 227.32 159.79 244.36 159.79 244.36 153.7 307.1 153.7 307.1 192.79 355.21 192.79 355.21 186.71 385.65 186.71 385.65 216.43 379.56 216.43 379.56 223.23 342.01 223.23 342.01 243.19 310.6 243.19 310.6 252.82 281.52 252.82 281.52 278.3 249.22 278.3 249.22 260 188.7 260 188.7 272.21 90.15 272.21 90.15 263.45 46.35 263.45"/></g></svg>