<svg xmlns="http://www.w3.org/2000/svg" viewBox="0 0 432 432"><defs><style>.cls-1{fill:#231f20;}.cls-2{fill:none;stroke:#231f20;stroke-width:3px;}</style></defs><title>Icons</title><g id="Base"><path class="cls-1" d="M185.37,318.28a71.15,71.15,0,0,1-21.5-49.87,71.19,71.19,0,0,1-58.15-23.52L78.48,214.45l29.74-30A71.2,71.2,0,0,1,163,163.53a71.18,71.18,0,0,1,23.23-51.77l30.19-27.51,30.25,29.47a71.17,71.17,0,0,1,21.5,49.43,71.18,71.18,0,0,1,57.89,23l27.51,30.2-29.47,30.25a71.18,71.18,0,0,1-55,21.39,71.19,71.19,0,0,1-23.24,52.22l-30.19,27.51Zm30.47,16.28,23.51-21.42a61.6,61.6,0,0,0,19.14-56.35,61.55,61.55,0,0,0,58.68-16.86l23.16-23.77-21.42-23.51a61.58,61.58,0,0,0-61.17-18.08,61.57,61.57,0,0,0-17.81-54L216.15,97.44l-23.51,21.42a61.57,61.57,0,0,0-19.21,55.92A61.61,61.61,0,0,0,115,191.22L91.66,214.79l21.22,23.7A61.56,61.56,0,0,0,174.33,257a61.55,61.55,0,0,0,17.74,54.41Z"/><path class="cls-2" d="M196.85,306.49a54.72,54.72,0,0,1-12-61A54.71,54.71,0,0,1,118,233.91L101.09,215l18.82-19A54.72,54.72,0,0,1,183.84,186a54.69,54.69,0,0,1,13.43-62L216,106.86l19.14,18.65A54.71,54.71,0,0,1,247.36,186a54.71,54.71,0,0,1,66.48,11.27L330.91,216l-18.65,19.14A54.71,54.71,0,0,1,248,245.57a54.73,54.73,0,0,1-13.22,62.5L216,325.14Z"/></g></svg>